<svg xmlns="http://www.w3.org/2000/svg" shape-rendering="crispEdges" viewBox="0 -0.5 16 16"><path stroke="rgba(47,47,47,0.5019607843137255)" d="M1 0h1m13 0h1M1 14h1m13 0h1"/><path stroke="#5e5e5e" d="M2 0h13m0 1h1M0 2h1m14 0h1M0 3h1m14 0h1M0 4h1m14 0h1M0 5h1m14 0h1M0 6h1m14 0h1M0 7h1m14 0h1M0 8h1m14 0h1M0 9h1m14 0h1M0 10h1m14 0h1M0 11h1m14 0h1M0 12h1m14 0h1M0 13h1m14 0h1M0 14h1m0 1h13"/><path stroke="rgba(33,33,33,0.5019607843137255)" d="M0 1h1m13 0h1M0 15h1m13 0h1"/><path stroke="#414141" d="M1 1h13M1 2h1m12 0h1M1 3h1m12 0h1M1 4h1m12 0h1M1 5h1m12 0h1M1 6h1m12 0h1M1 7h1m12 0h1M1 8h1m12 0h1M1 9h1m12 0h1M1 10h1m12 0h1M1 11h1m12 0h1M1 12h1m12 0h1M1 13h1m12 0h1M2 14h13"/></svg>