<svg xmlns="http://www.w3.org/2000/svg" shape-rendering="crispEdges" viewBox="0 -0.5 25 11">
    <path stroke="#9aed7f" d="M10 1h1m4 0h1m5 1h1m-6 1h1m5 1h1m-7 1h1m5 1h1m-7 1h1m4 1h1M10 9h1m4 0h1"/>
    <path stroke="#5f9ee9" d="M14 1h1M9 2h1m10 0h1M6 4h2m2 0h1m1 0h1M1 5h4m6 0h1m1 0h1m4 0h1m1 0h1M6 6h2m2 0h1m1 0h1M9 8h1m10 0h1m-7 1h1"/>
    <path stroke="#3a6faf" d="M13 2h1M7 3h1m1 0h1m2 0h1m2 0h1m3 0h1M3 4h1m1 0h1m8 0h1m3 0h1m2 0h1M6 5h1m3 0h1m4 0h1m1 0h1m1 0h1M3 6h1m1 0h1m8 0h1m3 0h1m2 0h1M7 7h1m1 0h1m2 0h1m2 0h1m3 0h1m-7 1h1"/>
    <path stroke="#e0ffd6" d="M8 4h1m0 1h1"/>
    <path stroke="#79d35b" d="M5 5h1m2 0h1m3 0h1m1 0h1"/>
    <path stroke="#57a53e" d="M7 5h1m0 1h1"/>
</svg>
