<svg xmlns="http://www.w3.org/2000/svg" shape-rendering="crispEdges" viewBox="0 -0.5 25 11">
    <path stroke="#a7a744" d="M20 1h1m1 0h1M10 2h1m1 0h1M6 3h1m9 0h1m1 0h1M5 5h1m1 0h1m7 0h1m1 0h1M6 7h1m9 0h1m1 0h1m-9 1h1m1 0h1m7 1h1m1 0h1"/>
    <path stroke="#cdcd66" d="M21 1h1M11 2h1m7 0h1m3 0h1M9 3h1m3 0h1M4 4h1m1 0h1m1 0h1m5 0h1m1 0h1m1 0h1M1 5h4m1 0h1m1 0h1m5 0h1m1 0h1m1 0h1M4 6h1m1 0h1m1 0h1m5 0h1m1 0h1m1 0h1M9 7h1m3 0h1m-3 1h1m7 0h1m3 0h1m-3 1h1"/>
    <path stroke="#787843" d="M7 4h1m7 0h1m1 0h1M7 6h1m7 0h1m1 0h1"/>
    <path stroke="#dcfafd" d="M11 4h1m10 0h1M12 5h1m10 0h1"/>
    <path stroke="#8aecf5" d="M21 4h1M11 5h1m9 0h2m-1 1h1"/>
    <path stroke="#429dc3" d="M10 5h1m9 0h1M11 6h1m9 0h1"/>
</svg>
