<svg xmlns="http://www.w3.org/2000/svg" shape-rendering="crispEdges" viewBox="0 -0.5 25 11">
    <path stroke="#3b643e" d="M5 2h1m5 0h1M7 3h1m2 0h1m1 0h1m2 0h1M4 4h1m1 0h1m4 0h1m4 0h1m1 0h1m1 1h1M4 6h1m1 0h1m4 0h1m4 0h1m1 0h1M7 7h1m2 0h1m1 0h1m2 0h1M5 8h1m5 0h1"/>
    <path stroke="#529958" d="M6 2h1m5 0h1m1 0h1m1 1h1M3 4h1m1 0h1m13 0h2M4 5h1m1 0h1m4 0h1m6 0h1m2 0h1M3 6h1m1 0h1m13 0h2m-5 1h1M6 8h1m5 0h1m1 0h1"/>
    <path stroke="#73c17a" d="M7 2h1m5 0h1m1 0h1M8 3h1m2 0h1m2 0h1M7 4h1m2 0h1m4 0h1m1 0h1M1 5h3m1 0h1m6 0h1m1 0h1m1 0h1m2 0h1M7 6h1m2 0h1m4 0h1m1 0h1M8 7h1m2 0h1m2 0h1M7 8h1m5 0h1m1 0h1"/>
    <path stroke="#ede991" d="M8 4h1M8 5h2m5 0h1m6 0h1M9 6h1"/>
    <path stroke="#fff" d="M9 4h1m0 1h1m6 0h1"/>
    <path stroke="#dfb63b" d="M7 5h1m5 0h1M8 6h1"/>
</svg>
