<svg xmlns="http://www.w3.org/2000/svg" shape-rendering="crispEdges" viewBox="0 -0.5 19 11">
    <path stroke="#8e5622" d="M14 1h1m-3 2h1M8 4h1m1 0h1M2 5h6m1 0h1m1 0h3M8 6h1m1 0h1m1 1h1m1 2h1"/>
    <path stroke="#67411b" d="M12 2h2m-3 1h1m-1 1h1m-1 2h1m-1 1h1m0 1h2"/>
    <path stroke="#55c1ff" d="M8 3h1m4 1h3m-1 1h2m-4 1h3M8 7h1"/>
    <path stroke="#0d79b8" d="M13 3h1m-2 1h1M8 5h1m3 1h1m0 1h1"/>
    <path stroke="#d6f0ff" d="M14 3h1m1 1h1m0 1h1m-2 1h1m-3 1h1"/>
    <path stroke="#a36726" d="M1 5h1m8 0h1"/>
    <path stroke="#ad6d28" d="M14 5h1"/>
</svg>
