<svg xmlns="http://www.w3.org/2000/svg" shape-rendering="crispEdges" viewBox="0 -0.5 24 11">
    <path stroke="#61624e" d="M19 1h1m-5 1h1m-6 1h1m1 0h1m5 0h1M5 4h3m3 0h1m4 0h1M1 5h1m1 0h1m3 0h3m2 0h3M5 6h3m3 0h1m4 0h1m-7 1h1m1 0h1m5 0h1m-4 1h1m3 1h1"/>
    <path stroke="#6e7059" d="M20 1h1M4 4h1m6 1h1m4 0h1M4 6h1m15 3h1"/>
    <path stroke="#47483a" d="M16 2h1m1 0h1m-2 1h1M2 5h1m1 0h1m5 0h1m4 0h1m1 0h1m-1 2h1m-2 1h1m1 0h1"/>
    <path stroke="#f5f0e2" d="M19 3h2m-4 1h1m1 0h1m1 0h1m-4 1h1m1 0h2m-5 1h1m1 0h1m1 0h1m-3 1h2"/>
    <path stroke="#d9c793" d="M21 3h1m-4 1h1m3 0h1m-1 1h1m-5 1h1m3 0h1m-2 1h1"/>
    <path stroke="#4b3f27" d="M20 4h1m-1 2h1"/>
    <path stroke="#7d6941" d="M19 5h1"/>
</svg>
