<svg xmlns="http://www.w3.org/2000/svg" shape-rendering="crispEdges" viewBox="0 -0.5 20 13">
    <path stroke="#7fb717" d="M10 1h1m2 1h1M8 3h1m6 0h1m1 2h1m-2 1h1m0 1h1M8 9h1m6 0h1m-3 1h1m-4 1h1"/>
    <path stroke="#2f711a" d="M11 1h1m0 1h1M9 3h1M8 4h1m3 0h1m1 0h1m0 1h1m-3 1h1m3 0h2m-4 1h1M8 8h1m3 0h1m1 0h1M9 9h1m2 1h1m-2 1h1"/>
    <path stroke="#1d4710" d="M10 2h2m-2 1h1m1 0h1M9 4h3M8 5h1m1 0h5M9 6h1m1 0h1m2 0h2M8 7h1m1 0h5M9 8h3m-2 1h1m1 0h1m-3 1h2"/>
    <path stroke="#70531a" d="M1 5h1m1 0h2m1 0h2M2 6h1m2 0h1M1 7h1m1 0h2m1 0h2"/>
    <path stroke="#574014" d="M9 5h1M3 6h2m1 0h3m1 0h1m1 0h1M9 7h1"/>
</svg>
