<svg xmlns="http://www.w3.org/2000/svg" shape-rendering="crispEdges" viewBox="0 -0.5 20 13">
    <path stroke="#1d4710" d="M9 2h1m2 2h1M8 5h1m2 0h1m3 0h1M6 6h4m2 0h1m1 0h1M8 7h1m2 0h1m3 0h1m-4 1h1m-4 2h1"/>
    <path stroke="#7fb717" d="M8 3h1m2 0h1M9 4h1m4 0h1M7 5h1m3 1h1m1 0h1m2 0h1M7 7h1m1 1h1m4 0h1M8 9h1m2 0h1"/>
    <path stroke="#2f711a" d="M9 3h2M7 4h2m1 0h2m1 0h1M6 5h1m2 0h2m1 0h3m-5 1h1m4 0h1M6 7h1m2 0h2m1 0h3M7 8h2m1 0h2m1 0h1M9 9h2"/>
    <path stroke="#70531a" d="M4 4h1M1 6h3m1 0h1M4 8h1"/>
    <path stroke="#574014" d="M1 5h1m3 0h1M4 6h1M1 7h1m3 0h1"/>
</svg>
