<svg xmlns="http://www.w3.org/2000/svg" shape-rendering="crispEdges" viewBox="0 -0.5 29 11">
    <path stroke="#fffffe" d="M8 1h1m16 2h1M15 4h1m-2 1h1m12 0h1M15 6h1m9 1h1"/>
    <path stroke="#7fb717" d="M7 2h1m6 0h1m8 0h1M6 3h1m6 0h1m1 0h1m4 0h2m2 0h1M6 4h1m2 0h1m2 0h1m3 0h1m1 0h1m2 0h1M1 5h1m2 0h1m1 0h3m1 0h2m8 0h1m1 0h1m1 0h1m1 0h1M6 6h1m2 0h1m2 0h1m3 0h1m1 0h1m2 0h1M6 7h1m6 0h1m1 0h1m4 0h2m2 0h1M7 8h1m6 0h1m8 0h1"/>
    <path stroke="#2f711a" d="M22 3h1M13 4h1M2 5h2m1 0h1m3 0h1m7 0h1m1 0h1m1 0h1m1 0h1m1 0h1M13 6h1m8 1h1"/>
    <path stroke="#d8f577" d="M8 9h1"/>
</svg>
