<svg xmlns="http://www.w3.org/2000/svg" shape-rendering="crispEdges" viewBox="0 -0.5 17 17">
    <path stroke="#d8f577" d="M4 1h1m1 2h1M6 13h1"/>
    <path stroke="#4fb0b3" d="M3 2h1m1 0h1M2 4h1m3 0h1M2 5h1m3 0h1m6 0h1m-3 1h1M3 7h2m1 0h1m1 0h1M1 8h1m2 0h1m4 0h2M3 9h2m1 0h1m1 0h1m2 1h1M2 11h1m3 0h1m6 0h1M2 12h1m3 0h1m-4 2h1m1 0h1"/>
    <path stroke="#a1d920" d="M2 3h1M2 13h1m1 2h1"/>
    <path stroke="#508383" d="M3 6h1m1 0h1m6 0h1m1 0h1m-5 1h1M2 8h2m1 0h1m1 0h1m2 1h1m-8 1h1m1 0h1m6 0h1m1 0h1"/>
    <path stroke="#fff" d="M15 6h1"/>
    <path stroke="#f6bbe8" d="M15 10h1"/>
</svg>
