<svg xmlns="http://www.w3.org/2000/svg" shape-rendering="crispEdges" viewBox="0 -0.5 21 9">
    <path stroke="#b99560" d="M17 1h1M4 2h1m10 0h1M1 4h1m1 0h1m5 0h1m1 0h1m1 0h2M4 6h1m10 0h1m1 1h1"/>
    <path stroke="#8d6d3e" d="M6 2h1m9 0h1m1 0h1M4 3h1m2 0h1m6 0h1M2 4h1m5 0h1m1 0h1m1 0h1M4 5h1m2 0h1m6 0h1M6 6h1m9 0h1m1 0h1"/>
    <path stroke="#fff" d="M19 2h1"/>
    <path stroke="#f6bbe8" d="M5 3h1M4 4h1m0 1h1"/>
    <path stroke="#faddf3" d="M6 3h1M5 4h3M6 5h1"/>
    <path stroke="#fbef97" d="M19 6h1"/>
</svg>
