<svg xmlns="http://www.w3.org/2000/svg" shape-rendering="crispEdges" viewBox="0 -0.5 21 9">
    <path stroke="#d8f577" d="M7 1h1m0 2h1M7 4h1m0 1h1M7 7h1"/>
    <path stroke="#5787e7" d="M8 1h1m8 0h1M4 2h1m10 0h1M6 3h1m4 0h1M1 4h1m1 0h1m1 0h1m6 0h3M6 5h1m4 0h1M4 6h1m10 0h1M8 7h1m8 0h1"/>
    <path stroke="#2b5397" d="M7 2h1m1 0h1m6 0h1m1 0h1M5 3h1m1 0h1m2 0h1m3 0h1M2 4h1m1 0h1m1 0h1m4 0h1M5 5h1m1 0h1m2 0h1m3 0h1M7 6h1m1 0h1m6 0h1m1 0h1"/>
    <path stroke="#fff" d="M19 2h1"/>
    <path stroke="#fffffe" d="M9 3h1M8 4h3M9 5h1"/>
    <path stroke="#f6bbe8" d="M19 6h1"/>
</svg>
