<svg xmlns="http://www.w3.org/2000/svg" shape-rendering="crispEdges" viewBox="0 -0.5 24 15">
    <path stroke="#f07540" d="M12 1h1m1 0h1m-4 1h1m3 0h1m-4 1h1m1 0h1M7 4h1M6 5h1m1 0h1M3 6h1m5 0h1m2 0h2m1 0h2M1 7h1m3 0h1m1 0h1m1 0h1m1 0h1m2 0h1m2 0h1m2 0h2M3 8h1m5 0h1m2 0h2m1 0h2M6 9h1m1 0h1m-2 1h1m4 1h1m1 0h1m-4 1h1m3 0h1m-4 1h1m1 0h1"/>
    <path stroke="#fae294" d="M13 2h1m8 5h1"/>
    <path stroke="#b92b0e" d="M12 4h1m1 0h1m-2 1h1M5 6h1m12 0h1M2 7h1m1 0h1m1 0h1m1 0h1m1 0h1m1 0h2m1 0h2m2 0h1M5 8h1m12 0h1m-6 1h1m-2 1h1m1 0h1"/>
    <path stroke="#f7af5c" d="M13 12h1"/>
</svg>
