<svg xmlns="http://www.w3.org/2000/svg" shape-rendering="crispEdges" viewBox="0 -0.5 19 11">
    <path stroke="#faddf3" d="M5 1h1M4 2h1m5 0h1M7 4h1m2 0h1M6 5h3m8 0h1M7 6h1"/>
    <path stroke="#5787e7" d="M5 2h1m3 1h1m3 0h1m1 0h1M3 4h1m8 0h1m3 0h1M1 5h1m2 0h1m5 0h2M3 6h1m8 0h1m3 0h1M9 7h1m3 0h1m1 0h1M5 8h1"/>
    <path stroke="#2b5397" d="M5 3h1m1 0h1m6 0h1M5 4h1m2 0h1M2 5h1m6 0h1m2 0h1m3 0h1M5 6h1m2 0h1M5 7h1m1 0h1m6 0h1"/>
    <path stroke="#f6bbe8" d="M6 4h1M5 5h1m0 1h1m3 0h1M4 8h1m5 0h1M5 9h1"/>
</svg>
