<svg xmlns="http://www.w3.org/2000/svg" shape-rendering="crispEdges" viewBox="0 -0.5 19 13">
    <path stroke="#2b5397" d="M3 1h1m5 0h1M5 3h1m1 0h1M6 4h1m7 0h1m1 0h1M4 5h1m2 0h3m2 0h1M2 6h1m5 0h1M4 7h1m2 0h3m2 0h1M5 8h3m6 0h1m1 0h1M5 10h1m1 0h1m-5 1h1m5 0h1"/>
    <path stroke="#5787e7" d="M3 2h1m1 0h1m1 0h1m1 0h1M4 3h1m3 0h1m6 0h1M5 4h1m1 0h1m5 0h1m-4 1h1M1 6h1m1 0h1m7 0h2m-3 1h1m2 1h1M4 9h2m1 0h2m6 0h1M3 10h1m5 0h1"/>
    <path stroke="#fffffe" d="M6 2h1M6 5h1M5 6h3M6 7h1"/>
    <path stroke="#fff" d="M17 4h1"/>
    <path stroke="#8ec4f4" d="M5 5h1M4 6h1m0 1h1m0 3h1"/>
    <path stroke="#fbef97" d="M17 8h1"/>
</svg>
