<svg xmlns="http://www.w3.org/2000/svg" shape-rendering="crispEdges" viewBox="0 -0.5 18 17">
    <path stroke="#5787e7" d="M6 1h1M6 2h1M6 3h1M5 4h1m1 0h1M4 5h1m4 1h1M5 7h1m4 0h1M1 8h1m1 0h1m9 0h1M5 9h1m4 0h1m1 0h1m-2 1h1m-8 1h1m0 1h1m1 0h1m-2 1h1m-1 1h1m-1 1h1"/>
    <path stroke="#fffffe" d="M7 1h1m0 4h1M8 7h1m7 0h1M7 8h3M8 9h1"/>
    <path stroke="#2b5397" d="M5 6h1m1 0h2M4 7h1m1 0h1m2 0h1m5 0h1M2 8h1m7 0h1m1 0h1m1 0h1M4 9h1m1 0h1m2 0h1m5 0h1M5 10h1m1 0h2"/>
    <path stroke="#d8f577" d="M7 7h1M6 8h1m0 1h1m8 0h1m-9 2h1m-2 4h1"/>
</svg>
