<svg xmlns="http://www.w3.org/2000/svg" shape-rendering="crispEdges" viewBox="0 -0.5 21 17">
    <path stroke="#b99560" d="M10 1h1m-1 1h1m-1 1h1M9 4h1m1 0h1M8 5h1m8 0h1M4 6h1m10 0h1m-5 1h1M1 8h1m1 0h1m1 0h1m6 0h3m-4 1h1m-8 1h1m10 0h1m-8 1h1m8 0h1m-9 1h1m1 0h1m-2 1h1m-1 1h1m-1 1h1"/>
    <path stroke="#fffffe" d="M11 1h1m0 4h1M9 7h1M8 8h3M9 9h1"/>
    <path stroke="#8d6d3e" d="M9 6h1m1 0h1m4 0h1m1 0h1M5 7h1m1 0h1m2 0h1m3 0h1M2 8h1m1 0h1m1 0h1m4 0h1M5 9h1m1 0h1m2 0h1m3 0h1m-6 1h1m1 0h1m4 0h1m1 0h1"/>
    <path stroke="#fff" d="M19 6h1"/>
    <path stroke="#d8f577" d="M8 7h1M7 8h1m0 1h1m3 2h1m-2 4h1"/>
    <path stroke="#f6bbe8" d="M19 10h1"/>
</svg>
