<svg xmlns="http://www.w3.org/2000/svg" shape-rendering="crispEdges" viewBox="0 -0.5 21 11">
    <path stroke="#fac7a6" d="M4 1h1m4 6h1M4 9h1"/>
    <path stroke="#fffffe" d="M8 1h1m0 2h1m7 0h1m1 2h1m-3 2h1M8 9h1"/>
    <path stroke="#b99560" d="M4 2h1m3 0h1m6 0h1m-4 1h2m2 0h1M3 4h1m1 0h2m1 0h1m4 0h1M1 5h1m4 0h1m1 0h1m1 0h1m1 0h1m1 0h1m1 0h1m1 0h1M3 6h1m1 0h2m1 0h1m4 0h1m-2 1h2m2 0h1M4 8h1m3 0h1m6 0h1"/>
    <path stroke="#8d6d3e" d="M5 3h1m1 0h1m6 0h1M2 5h1m1 0h1m2 0h1m1 0h1m1 0h1m1 0h1m1 0h1m1 0h1M5 7h1m1 0h1m6 0h1"/>
</svg>
