<svg xmlns="http://www.w3.org/2000/svg" shape-rendering="crispEdges" viewBox="0 -0.5 15 13">
    <path stroke="#b66615" d="M4 1h1m5 0h1M6 3h1m1 0h1M6 4h1m4 0h1M4 5h1m2 0h4M2 6h1m5 0h1M4 7h1m2 0h1m1 0h2M6 8h1m1 0h1m2 0h1m-6 2h1m1 0h1m-5 1h1m5 0h1"/>
    <path stroke="#f39f27" d="M4 2h1m1 0h1m1 0h1m1 0h1M5 3h1m3 0h1M8 4h1M1 6h1m1 0h1m7 0h2M8 7h1M5 9h2m1 0h2m-6 1h1m5 0h1"/>
    <path stroke="#d8f577" d="M7 2h1m4 2h1M6 5h1M5 6h3m5 0h1M6 7h1"/>
    <path stroke="#a1d920" d="M5 5h1M4 6h1m0 1h1m6 1h1m-6 2h1"/>
</svg>
