<svg xmlns="http://www.w3.org/2000/svg" shape-rendering="crispEdges" viewBox="0 -0.5 23 13">
    <path stroke="#2b5397" d="M14 1h1m-3 2h1m3 0h1m2 1h1m-6 1h1m3 0h1M2 6h1m1 0h1m1 0h1m1 0h1m2 0h1m1 0h1m1 0h1m1 0h1m-4 1h1m3 0h1m0 1h1m-8 1h1m3 0h1m-3 2h1"/>
    <path stroke="#5787e7" d="M13 2h1m1 0h1m-3 2h1m1 0h1m1 0h1m-6 1h1m3 0h1M1 6h1m1 0h1m1 0h1m1 0h1m1 0h2m8 0h2m-9 1h1m3 0h1m-4 1h1m1 0h1m1 0h1m-5 2h1m1 0h1"/>
    <path stroke="#a9e2f7" d="M20 4h1m0 2h1"/>
    <path stroke="#34baec" d="M20 8h1"/>
</svg>
