<svg xmlns="http://www.w3.org/2000/svg" shape-rendering="crispEdges" viewBox="0 -0.5 23 15">
    <path stroke="#fffffe" d="M5 1h1m1 5h1m6 0h1M6 7h3m12 0h1M7 8h1"/>
    <path stroke="#2f711a" d="M5 2h1m0 1h1m0 2h1m10 0h1M4 6h2m2 0h1M2 7h1m6 0h1m1 0h1m4 0h1m3 0h1M4 8h2m2 0h1M7 9h1m10 0h1M6 11h1m-2 1h1"/>
    <path stroke="#7fb717" d="M7 4h1m9 1h1m1 0h1M9 6h3m4 0h1m3 0h1M1 7h1m1 0h1m8 0h4M9 8h3m4 0h1m3 0h1m-4 1h1m1 0h1M7 10h1"/>
    <path stroke="#8ec4f4" d="M6 6h1M5 7h1m0 1h1m7 0h1M5 13h1"/>
</svg>
