<svg xmlns="http://www.w3.org/2000/svg" shape-rendering="crispEdges" viewBox="0 -0.5 27 9">
    <path stroke="#b346b3" d="M21 1h1M8 2h1m9 0h2m2 0h1m-4 1h1M1 4h1m1 0h1m5 0h2m2 0h1m2 0h1m1 0h1m1 0h1m1 0h1m1 0h1m-6 1h1M8 6h1m9 0h2m2 0h1m-2 1h1"/>
    <path stroke="#d8f577" d="M5 2h1m17 0h1M6 3h1M5 4h3m17 0h1M6 5h1m16 1h1"/>
    <path stroke="#612661" d="M6 2h1m13 0h1M4 3h1m2 0h1m1 0h1M2 4h1m5 0h1m2 0h2m1 0h2m1 0h1m1 0h1m1 0h1m1 0h1M4 5h1m2 0h1m1 0h1M6 6h1m13 0h1"/>
    <path stroke="#a1d920" d="M5 3h1M4 4h1m0 1h1M5 6h1"/>
</svg>
