<svg xmlns="http://www.w3.org/2000/svg" shape-rendering="crispEdges" viewBox="0 -0.5 21 15">
    <path stroke="#fffffe" d="M6 1h1M5 6h1m6 0h1M4 7h3m12 0h1M5 8h1"/>
    <path stroke="#2f711a" d="M6 2h1m0 1h1M5 5h1m2 0h1m7 0h1M3 6h1m2 0h1M2 7h1m4 0h2m5 0h1m3 0h1M3 8h1m2 0h1M5 9h1m2 0h1m7 0h1M7 11h1m-2 1h1"/>
    <path stroke="#7fb717" d="M8 4h1m6 1h1m1 0h1M7 6h1m1 0h2m3 0h1m3 0h1M1 7h1m9 0h3M7 8h1m1 0h2m3 0h1m3 0h1m-4 1h1m1 0h1M8 10h1"/>
    <path stroke="#fac7a6" d="M4 6h1M3 7h1m0 1h1m7 0h1m-7 5h1"/>
</svg>
