<svg xmlns="http://www.w3.org/2000/svg" shape-rendering="crispEdges" viewBox="0 -0.5 25 13">
    <path stroke="#f39f27" d="M13 1h1m-1 1h1m-1 1h1m7 0h1M4 4h1m14 0h1M8 5h1m2 0h1m1 0h1M1 6h1m1 0h1m1 0h1m1 0h1m7 0h4M8 7h1m2 0h1m1 0h1M4 8h1m14 0h1m-7 1h1m7 0h1m-9 1h1m-1 1h1"/>
    <path stroke="#fffffe" d="M3 4h1m6 0h1m3 0h1"/>
    <path stroke="#b66615" d="M13 4h1m6 0h1m1 0h1M5 5h1m12 0h1M2 6h1m1 0h1m1 0h1m1 0h3m1 0h1m1 0h1M5 7h1m12 0h1m-6 1h1m6 0h1m1 0h1"/>
    <path stroke="#fff" d="M23 4h1"/>
    <path stroke="#fac7a6" d="M3 8h1m6 0h1m3 0h1"/>
    <path stroke="#fbef97" d="M23 8h1"/>
</svg>
