<svg xmlns="http://www.w3.org/2000/svg" shape-rendering="crispEdges" viewBox="0 -0.5 25 11">
    <path stroke="#a9e2f7" d="M10 1h1M4 3h1m6 0h1m4 1h1m6 1h1"/>
    <path stroke="#b92b0e" d="M9 2h1M8 3h1m11 0h1M2 5h1m3 0h1m2 0h1m1 0h1m2 0h1m3 0h1m3 0h1M8 7h1m11 0h1M9 8h1"/>
    <path stroke="#f07540" d="M19 3h1m1 0h1M3 4h1m1 0h1m2 0h1m2 0h1m1 0h1m4 0h1m3 0h1M1 5h1m5 0h2m1 0h1m1 0h1m2 0h3M3 6h1m1 0h1m2 0h1m2 0h1m1 0h1m4 0h1m3 0h1m-4 1h1m1 0h1"/>
    <path stroke="#34baec" d="M16 6h1M4 7h1m6 0h1m-2 2h1"/>
</svg>
