<svg xmlns="http://www.w3.org/2000/svg" shape-rendering="crispEdges" viewBox="0 -0.5 25 15">
    <path stroke="#d16060" d="M10 1h1m1 0h1M9 2h1m3 0h1m-4 1h1m1 0h1m6 1h1m-4 1h2m2 0h1M3 6h1m5 0h1m1 0h1m1 0h1m3 0h1M1 7h1m8 0h1m1 0h1m3 0h1m1 0h1m1 0h1m1 0h1M3 8h1m5 0h1m1 0h1m1 0h1m3 0h1m-2 1h2m2 0h1m-2 1h1m-10 1h1m1 0h1m-4 1h1m3 0h1m-4 1h1m1 0h1"/>
    <path stroke="#fffffe" d="M11 2h1M5 5h1m15 0h1M6 6h1M5 7h3m15 0h1M6 8h1m14 1h1"/>
    <path stroke="#ab3131" d="M10 4h1m1 0h1M6 5h1m4 0h1m6 0h1M4 6h1m2 0h1M2 7h1m5 0h1m5 0h2m1 0h1m1 0h1m1 0h1M4 8h1m2 0h1M6 9h1m4 0h1m6 0h1m-9 1h1m1 0h1"/>
    <path stroke="#8ec4f4" d="M5 6h1M4 7h1m0 1h1M5 9h1m5 3h1"/>
</svg>
