<svg xmlns="http://www.w3.org/2000/svg" shape-rendering="crispEdges" viewBox="0 -0.5 19 13">
    <path stroke="#2f711a" d="M4 1h1m5 0h1M6 3h1m1 0h1m6 1h1M6 5h1m1 0h1m5 0h1M2 6h1m3 0h2m1 0h1m4 0h1m-1 1h1M6 8h1m1 0h1m6 0h1M6 10h1m1 0h1m-5 1h1m5 0h1"/>
    <path stroke="#7fb717" d="M4 2h1m1 0h1m1 0h1m1 0h1M5 3h1m3 0h1M6 4h1m1 0h1m2 0h2M3 5h1m1 0h1m1 0h1m2 0h1m2 0h1M1 6h1m2 0h1m3 0h1m6 0h2M3 7h1m1 0h4m1 0h1m2 0h1m-3 1h2M5 9h2m1 0h2m-6 1h1m5 0h1"/>
    <path stroke="#fffffe" d="M7 2h1M5 4h1m10 0h1m0 2h1"/>
    <path stroke="#fac7a6" d="M5 8h1m10 0h1M7 10h1"/>
</svg>
