<svg xmlns="http://www.w3.org/2000/svg" shape-rendering="crispEdges" viewBox="0 -0.5 17 17">
    <path stroke="#d16060" d="M4 1h1M4 2h1M4 3h1M3 4h1m1 0h1M2 5h1m10 0h1m-3 1h1M3 7h2m1 0h2M1 8h1m2 0h2m3 0h2M3 9h2m1 0h2m3 1h1M2 11h1m10 0h1M3 12h1m1 0h1m-2 1h1m-1 1h1m-1 1h1"/>
    <path stroke="#a9e2f7" d="M5 1h1m0 4h1m1 2h1"/>
    <path stroke="#ab3131" d="M3 6h1m1 0h1m6 0h1m1 0h1m-5 1h1M2 8h1m3 0h1m1 0h1m1 1h1m-8 1h1m1 0h1m6 0h1m1 0h1"/>
    <path stroke="#fff" d="M15 6h1"/>
    <path stroke="#34baec" d="M8 9h1m-3 2h1m-2 4h1"/>
    <path stroke="#bee75f" d="M15 10h1"/>
</svg>
