<svg xmlns="http://www.w3.org/2000/svg" shape-rendering="crispEdges" viewBox="0 -0.5 21 11">
    <path stroke="#f7d76b" d="M4 1h1M4 4h1M3 5h1m0 1h1M4 9h1"/>
    <path stroke="#fffffe" d="M8 1h1M5 4h1M4 5h3M5 6h1m2 3h1"/>
    <path stroke="#f07540" d="M4 2h1m3 0h1m8 0h1m-3 1h1M8 4h1m3 0h1M1 5h1m11 0h2m-5 1h1m4 1h1M4 8h1m3 0h1m8 0h1"/>
    <path stroke="#b92b0e" d="M5 3h1m1 0h1m8 0h1m1 0h1M3 4h1m2 0h1m7 0h1M2 5h1m4 0h1m1 0h1m1 0h1M3 6h1m2 0h1m7 0h1M5 7h1m1 0h1m8 0h1m1 0h1"/>
    <path stroke="#fff" d="M19 3h1"/>
    <path stroke="#fbef97" d="M19 7h1"/>
</svg>
