<svg xmlns="http://www.w3.org/2000/svg" shape-rendering="crispEdges" viewBox="0 -0.5 27 9">
    <path stroke="#d16060" d="M21 1h1M9 2h1m8 0h2m2 0h1M5 3h1m5 0h1m1 0h1m5 0h1M1 4h1m1 0h2m10 0h2m1 0h1m1 0h1m1 0h1m1 0h1M5 5h1m5 0h1m1 0h1m5 0h1M9 6h1m8 0h2m2 0h1m-2 1h1"/>
    <path stroke="#fffffe" d="M5 2h1m4 0h1m3 0h1m8 0h1M8 3h1M7 4h3m15 0h1M8 5h1m14 1h1"/>
    <path stroke="#ab3131" d="M8 2h1m11 0h1M6 3h1m2 0h1M2 4h1m2 0h1m4 0h1m1 0h1m1 0h1m2 0h1m1 0h1m1 0h1m1 0h1M6 5h1m2 0h1M8 6h1m11 0h1"/>
    <path stroke="#8ec4f4" d="M7 3h1M6 4h1m0 1h1M5 6h1m4 0h1m3 0h1"/>
</svg>
