<svg xmlns="http://www.w3.org/2000/svg" shape-rendering="crispEdges" viewBox="0 -0.5 26 11">
    <path stroke="#f07540" d="M13 1h2m1 0h1m-5 1h1m4 0h1m4 0h1m-9 1h1m1 0h1m3 0h1m-9 1h1m4 0h1M1 5h1m8 0h2m2 0h1m2 0h3m-8 1h1m4 0h1m-4 1h1m1 0h1m3 0h1m-9 1h1m4 0h1m4 0h1M13 9h2m1 0h1"/>
    <path stroke="#a9e2f7" d="M15 1h1M5 3h1m1 0h1m1 0h1M6 4h1M5 5h3M6 6h1"/>
    <path stroke="#b92b0e" d="M6 3h1m6 0h1m1 0h1m5 0h1m1 0h1M3 4h2m2 0h1m1 0h1m9 0h1M2 5h1m5 0h1m3 0h2m1 0h2M3 6h2m2 0h1m1 0h1m9 0h1M6 7h1m6 0h1m1 0h1m5 0h1m1 0h1"/>
    <path stroke="#fff" d="M24 3h1"/>
    <path stroke="#34baec" d="M5 4h1M4 5h1m0 1h1M5 7h1m1 0h1m1 0h1m5 2h1"/>
    <path stroke="#f6bbe8" d="M24 7h1"/>
</svg>
