<svg xmlns="http://www.w3.org/2000/svg" shape-rendering="crispEdges" viewBox="0 -0.5 23 9">
    <path stroke="#2b5397" d="M7 1h1M7 2h2m9 0h1m1 0h1M5 3h1m2 0h1m7 0h1M2 4h1m6 0h2m1 0h1m1 0h1M5 5h1m2 0h1m7 0h1M7 6h2m9 0h1m1 0h1M7 7h1"/>
    <path stroke="#5787e7" d="M19 1h1M6 2h1m10 0h1M3 3h1m6 0h3M1 4h1m2 0h1m10 0h2M3 5h1m5 0h2m1 0h3M6 6h1m10 0h1m1 1h1"/>
    <path stroke="#fffffe" d="M5 2h1m1 1h1M6 4h3M7 5h1"/>
    <path stroke="#fff" d="M21 2h1"/>
    <path stroke="#f7d76b" d="M6 3h1M5 4h1m0 1h1M5 6h1"/>
    <path stroke="#f6bbe8" d="M21 6h1"/>
</svg>
