<svg xmlns="http://www.w3.org/2000/svg" shape-rendering="crispEdges" viewBox="0 -0.5 27 9">
    <path stroke="#d8f577" d="M9 1h1M5 2h1m12 1h1m6 1h1"/>
    <path stroke="#b346b3" d="M10 1h1m10 1h1m1 0h1M5 3h1m4 0h1m3 0h1m5 0h1m3 0h1M1 4h1m1 0h2m1 0h1m1 0h2m2 0h2m2 0h4M5 5h1m4 0h1m3 0h1m5 0h1m3 0h1m-4 1h1m1 0h1M10 7h1"/>
    <path stroke="#612661" d="M11 2h1m10 0h1M7 3h1m3 0h1m3 0h1M2 4h1m2 0h1m14 0h1m3 0h1M7 5h1m3 0h1m3 0h1m-5 1h1m10 0h1"/>
    <path stroke="#a1d920" d="M18 5h1M5 6h1m3 1h1"/>
</svg>
