<svg xmlns="http://www.w3.org/2000/svg" shape-rendering="crispEdges" viewBox="0 -0.5 19 15">
    <path stroke="#a9e2f7" d="M7 1h1m2 1h1M5 5h1m5 0h1m4 0h1m0 2h1m-8 5h1"/>
    <path stroke="#34baec" d="M4 2h1m0 7h1m5 0h1m4 0h1M4 12h1m2 1h1"/>
    <path stroke="#8d6d3e" d="M7 2h1M4 3h1m5 0h1M5 4h1m3 0h1m5 1h1M7 6h1m6 0h1M2 7h1m3 0h1m2 0h1m1 0h1m2 0h1M7 8h1m6 0h1m0 1h1M5 10h1m3 0h1m-6 1h1m5 0h1m-4 1h1"/>
    <path stroke="#b99560" d="M6 3h1m1 0h1M6 5h1m1 0h1M3 6h1m1 0h1m5 0h1m1 0h1M1 7h1m2 0h1m3 0h1m1 0h1m1 0h1m2 0h2M3 8h1m1 0h1m5 0h1m1 0h1M6 9h1m1 0h1m-3 2h1m1 0h1"/>
</svg>
