<svg xmlns="http://www.w3.org/2000/svg" shape-rendering="crispEdges" viewBox="0 -0.5 21 17">
    <path stroke="#fffffe" d="M9 1h1m1 2h1M8 7h1M7 8h3M8 9h1m2 4h1"/>
    <path stroke="#f39f27" d="M8 2h1m1 0h1M7 4h1m3 0h1M7 5h1m3 0h1m5 0h1M4 6h1m10 0h1m-4 1h1M1 8h1m1 0h1m1 0h1m7 0h2m-5 1h1m-7 1h1m10 0h1m-9 1h1m3 0h1m5 0h1M7 12h1m3 0h1m-4 2h1m1 0h1"/>
    <path stroke="#8ec4f4" d="M7 3h1M7 7h1M6 8h1m0 1h1m-1 4h1m1 2h1"/>
    <path stroke="#b66615" d="M8 6h1m1 0h1m5 0h1m1 0h1M5 7h2m2 0h1m4 0h1M2 8h1m1 0h1m5 0h2M5 9h2m2 0h1m4 0h1m-7 1h1m1 0h1m5 0h1m1 0h1"/>
    <path stroke="#fff" d="M19 6h1"/>
    <path stroke="#bee75f" d="M19 10h1"/>
</svg>
