<svg xmlns="http://www.w3.org/2000/svg" shape-rendering="crispEdges" viewBox="0 -0.5 24 15">
    <path stroke="#4fb0b3" d="M12 1h1m1 0h1m-4 1h1m3 0h1m-4 1h1m1 0h1m-3 3h2m1 0h2M1 7h1m1 0h1m1 0h1m1 0h1m1 0h1m1 0h1m2 0h1m2 0h1m2 0h2M12 8h2m1 0h2m-5 3h1m1 0h1m-4 1h1m3 0h1m-4 1h1m1 0h1"/>
    <path stroke="#fffffe" d="M13 2h1m8 5h1"/>
    <path stroke="#508383" d="M12 4h1m1 0h1m-2 1h1m4 1h1M2 7h1m1 0h1m1 0h1m1 0h1m1 0h1m1 0h2m1 0h2m2 0h1m-2 1h1m-6 1h1m-2 1h1m1 0h1"/>
    <path stroke="#f7d76b" d="M13 12h1"/>
</svg>
