<svg xmlns="http://www.w3.org/2000/svg" shape-rendering="crispEdges" viewBox="0 -0.5 27 9">
    <path stroke="#b99560" d="M14 1h1m8 0h1M13 2h1m1 0h1m5 0h1M12 3h1m3 0h1m1 0h1M1 4h1m6 0h1m1 0h2m7 0h2m-9 1h1m3 0h1m1 0h1m-6 1h1m1 0h1m5 0h1m-8 1h1m8 0h1"/>
    <path stroke="#8d6d3e" d="M5 2h1m16 0h1m1 0h1M3 3h1m2 0h2m1 0h1m10 0h1M2 4h1m4 0h1m9 0h1M3 5h1m2 0h2m1 0h1m10 0h1M5 6h1m16 0h1m1 0h1"/>
    <path stroke="#d8f577" d="M7 2h1m1 0h1M5 3h1M4 4h3m6 0h2M5 5h1"/>
    <path stroke="#fff" d="M25 2h1"/>
    <path stroke="#a1d920" d="M4 3h1M3 4h1m0 1h1m2 1h1m1 0h1"/>
    <path stroke="#f6bbe8" d="M25 6h1"/>
</svg>
