<svg xmlns="http://www.w3.org/2000/svg" shape-rendering="crispEdges" viewBox="0 -0.5 19 9">
    <path stroke="#4fb0b3" d="M15 1h1M6 2h1m6 0h1M1 4h1m1 0h4m5 0h1M6 6h1m6 0h1m1 1h1"/>
    <path stroke="#508383" d="M9 2h1m4 0h1m1 0h1M7 3h1m2 0h1m1 0h1M2 4h1m8 0h1M7 5h1m2 0h1m1 0h1M9 6h1m4 0h1m1 0h1"/>
    <path stroke="#fff" d="M17 2h1"/>
    <path stroke="#d8f577" d="M5 3h1m3 0h1M8 4h3M9 5h1"/>
    <path stroke="#a1d920" d="M8 3h1M7 4h1M5 5h1m2 0h1"/>
    <path stroke="#f6bbe8" d="M17 6h1"/>
</svg>
