<svg xmlns="http://www.w3.org/2000/svg" shape-rendering="crispEdges" viewBox="0 -0.5 23 13">
    <path stroke="#fffffe" d="M7 1h1m1 4h1M8 6h3M9 7h1"/>
    <path stroke="#4fb0b3" d="M6 2h1m1 0h1m10 1h1m-3 1h1M3 5h1m7 0h1m1 0h1M1 6h1m10 0h1m2 0h2M5 7h1m5 0h1m1 0h1m3 1h1m1 1h1M6 10h1m1 0h1"/>
    <path stroke="#508383" d="M6 3h1m1 0h1M7 4h1m1 0h1m8 0h1m1 0h1M7 5h1m2 0h1m5 0h1M2 6h1m1 0h1m1 0h1m4 0h1m2 0h1M7 7h1m2 0h1m5 0h1M7 8h1m1 0h1m8 0h1m1 0h1M6 9h1m1 0h1"/>
    <path stroke="#fff" d="M21 4h1"/>
    <path stroke="#fac7a6" d="M8 5h1M7 6h1m0 1h1m-2 4h1"/>
    <path stroke="#fbef97" d="M21 8h1"/>
</svg>
