<svg xmlns="http://www.w3.org/2000/svg" shape-rendering="crispEdges" viewBox="0 -0.5 29 9">
    <path stroke="#d16060" d="M8 1h1m14 1h1m1 0h1M10 3h1m1 0h2m1 0h2m5 0h1m3 0h1M1 4h1m2 0h1m6 0h1m2 0h1m2 0h1m1 0h3M5 5h1m4 0h1m1 0h2m1 0h2m5 0h1m3 0h1m-4 1h1m1 0h1M8 7h1"/>
    <path stroke="#a9e2f7" d="M12 1h1M5 2h1m1 0h1m0 1h1m11 0h1M7 4h3m17 0h1M8 5h1"/>
    <path stroke="#ab3131" d="M8 2h2m1 0h1m12 0h1M3 3h1m1 0h2m2 0h1m8 0h1M2 4h1m7 0h1m1 0h2m1 0h2m5 0h1m3 0h1M3 5h1m2 0h1m2 0h1m8 0h1M8 6h2m1 0h1m12 0h1"/>
    <path stroke="#34baec" d="M7 3h1M6 4h1m0 1h1m12 0h1M5 6h1m1 0h1m4 1h1"/>
</svg>
