<svg xmlns="http://www.w3.org/2000/svg" shape-rendering="crispEdges" viewBox="0 -0.5 25 9">
    <path stroke="#b346b3" d="M21 1h1M11 2h1m7 0h1m-9 1h1m1 0h1M1 4h1m1 0h1m1 0h1m9 0h4m-8 1h1m1 0h1m-3 1h1m7 0h1m1 1h1"/>
    <path stroke="#612661" d="M8 2h1m11 0h1m1 0h1M6 3h1m2 0h1m2 0h1m5 0h1M2 4h1m1 0h1m5 0h1m1 0h1m1 0h1M6 5h1m2 0h1m2 0h1m5 0h1M8 6h1m11 0h1m1 0h1"/>
    <path stroke="#fffffe" d="M10 2h1m3 0h1M8 3h1M7 4h3M8 5h1"/>
    <path stroke="#fff" d="M23 2h1"/>
    <path stroke="#d8f577" d="M7 3h1M6 4h1m0 1h1m2 1h1m3 0h1"/>
    <path stroke="#bee75f" d="M23 6h1"/>
</svg>
