<svg xmlns="http://www.w3.org/2000/svg" shape-rendering="crispEdges" viewBox="0 -0.5 28 13">
    <path stroke="#b346b3" d="M10 1h1m-1 1h1m-1 1h1m11 1h1m1 0h1M10 5h1m10 0h1m3 0h1M1 6h1m2 0h1m1 0h1m1 0h1m1 0h2m2 0h1m2 0h4M5 7h1m4 0h1m10 0h1m3 0h1m-4 1h1m1 0h1M10 9h1m-1 1h1m-1 1h1"/>
    <path stroke="#a9e2f7" d="M5 4h1m1 0h1m1 0h1m9 1h1m6 1h1"/>
    <path stroke="#612661" d="M10 4h1m12 0h1M3 5h1m1 0h1m1 0h1m1 0h1M2 6h1m9 0h2m1 0h2m4 0h1m3 0h1M3 7h1m3 0h1m1 0h1m0 1h1m12 0h1"/>
    <path stroke="#34baec" d="M19 7h1M5 8h1m1 0h1m1 0h1"/>
</svg>
