<svg xmlns="http://www.w3.org/2000/svg" shape-rendering="crispEdges" viewBox="0 -0.5 21 17">
    <path stroke="#fffffe" d="M9 1h1m1 2h1m-1 10h1"/>
    <path stroke="#7fb717" d="M8 2h1m1 0h1M7 4h1m3 0h1M7 5h1m3 0h1m5 0h1m-3 1h1M5 7h1m2 0h2m2 0h1M1 8h1m1 0h1m9 0h2M5 9h1m3 0h2m4 1h1m-9 1h1m3 0h1m5 0h1M7 12h1m3 0h1m-4 2h1m1 0h1"/>
    <path stroke="#f7d76b" d="M7 3h1M7 13h1m1 2h1"/>
    <path stroke="#2f711a" d="M8 6h1m1 0h1m5 0h1m1 0h1M4 7h1m1 0h1m7 0h1M2 8h1m4 0h1m1 0h1m1 0h1M4 9h1m1 0h1m7 0h1m-7 1h1m1 0h1m5 0h1m1 0h1"/>
    <path stroke="#fff" d="M19 6h1"/>
    <path stroke="#f6bbe8" d="M19 10h1"/>
</svg>
