<svg xmlns="http://www.w3.org/2000/svg" shape-rendering="crispEdges" viewBox="0 -0.5 23 13">
    <path stroke="#2f711a" d="M9 1h1M7 3h1m3 0h1m7 1h1M3 5h1m1 0h1m1 0h1m1 0h1m8 0h1M2 6h1m7 0h1m1 0h2m1 0h2m2 0h1M3 7h1m3 0h1m1 0h1m8 0h1m0 1h1M7 9h1m3 0h1m-3 2h1"/>
    <path stroke="#7fb717" d="M8 2h1m1 0h1M8 4h1m1 0h1m1 1h2m1 0h2M1 6h1m2 0h1m1 0h1m1 0h1m2 0h1m2 0h1m2 0h1m2 0h1M5 7h1m6 0h2m1 0h2M8 8h1m1 0h1m-3 2h1m1 0h1"/>
    <path stroke="#d8f577" d="M5 4h1m1 0h1m1 0h1m10 0h1m0 2h1"/>
    <path stroke="#a1d920" d="M5 8h1m1 0h1m1 0h1m10 0h1"/>
</svg>
