<svg xmlns="http://www.w3.org/2000/svg" shape-rendering="crispEdges" viewBox="0 -0.5 29 9">
    <path stroke="#b99560" d="M7 1h1m5 0h1m9 0h1M6 2h1m1 0h1m4 0h1m3 0h1m2 0h2m2 0h1M3 3h1m5 0h1m2 0h3m1 0h1m1 0h1m2 0h1M1 4h1m3 0h1m1 0h1m1 0h2m9 0h1m1 0h1m1 0h1m1 0h1M3 5h1m5 0h1m2 0h3m1 0h1m1 0h1m2 0h1M6 6h1m1 0h1m4 0h1m3 0h1m2 0h2m2 0h1M7 7h1m5 0h1m9 0h1"/>
    <path stroke="#fffffe" d="M12 1h1m12 1h1m1 2h1m-3 2h1"/>
    <path stroke="#8d6d3e" d="M14 2h1m7 0h1M5 3h1M2 4h1m1 0h1m1 0h1m1 0h1m2 0h1m1 0h1m1 0h1m1 0h1m1 0h1m1 0h1m1 0h1m1 0h1M5 5h1m8 1h1m7 0h1"/>
    <path stroke="#d8f577" d="M12 7h1"/>
</svg>
