<svg xmlns="http://www.w3.org/2000/svg" shape-rendering="crispEdges" viewBox="0 -0.5 14 13">
    <path stroke="#8d6d3e" d="M3 1h1m5 0h1M5 3h1m1 0h1M5 4h1M3 5h1m2 0h2m3 0h1M2 6h1m4 0h2m1 0h1M3 7h1m2 0h1m4 0h1M5 8h1m1 0h1m-3 2h1m1 0h1m-5 1h1m5 0h1"/>
    <path stroke="#b99560" d="M3 2h1m1 0h1m1 0h1m1 0h1M4 3h1m3 0h1M7 4h1m1 0h1M8 5h1M1 6h1m7 0h1M7 7h2m0 1h1M4 9h2m1 0h2m-6 1h1m5 0h1"/>
    <path stroke="#fffffe" d="M6 2h1m3 1h1M5 5h1m6 0h1M4 6h3M5 7h1"/>
    <path stroke="#fac7a6" d="M4 5h1M3 6h1m0 1h1m7 0h1m-3 2h1m-5 1h1"/>
</svg>
