<svg xmlns="http://www.w3.org/2000/svg" shape-rendering="crispEdges" viewBox="0 -0.5 27 9">
    <path stroke="#f07540" d="M23 1h1m-3 1h1M9 3h1m2 0h2m1 0h2M1 4h1m2 0h1m1 0h1m1 0h1m2 0h1m2 0h1m2 0h1m1 0h2M5 5h1m3 0h1m2 0h2m1 0h2m4 1h1m1 1h1"/>
    <path stroke="#d8f577" d="M5 2h1m1 0h1m1 0h1"/>
    <path stroke="#b92b0e" d="M22 2h1m1 0h1M3 3h1m1 0h1m1 0h1m10 0h1m1 0h1M2 4h1m7 0h1m1 0h2m1 0h2M3 5h1m3 0h1m10 0h1m1 0h1m1 1h1m1 0h1"/>
    <path stroke="#fff" d="M25 2h1"/>
    <path stroke="#a1d920" d="M5 6h1m1 0h1m1 0h1"/>
    <path stroke="#f6bbe8" d="M25 6h1"/>
</svg>
