<svg xmlns="http://www.w3.org/2000/svg" shape-rendering="crispEdges" viewBox="0 -0.5 24 11">
    <path stroke="#f07540" d="M8 1h1m1 0h1m3 1h1M8 3h1m1 0h1m2 0h1m1 0h1m-4 1h1m3 0h1m1 0h1M1 5h1m8 0h2m7 0h1M8 6h1m1 0h1m1 0h1m3 0h1m1 0h1m-6 1h1m1 0h1M8 8h1m1 0h1m3 0h1"/>
    <path stroke="#fffffe" d="M9 1h1M5 3h1m1 0h1m1 0h1M6 4h1m15 0h1M5 5h3m6 0h1M6 6h1"/>
    <path stroke="#b92b0e" d="M8 2h1m1 0h1M6 3h1M3 4h2m2 0h4m10 0h1M2 5h1m5 0h2m7 0h1m2 0h1M3 6h2m2 0h1m1 0h1m11 0h1M6 7h1m1 0h1m1 0h1M8 9h1m1 0h1"/>
    <path stroke="#d8f577" d="M5 4h1M4 5h1m0 1h1m16 0h1M5 7h1m1 0h1m1 0h1M9 9h1"/>
</svg>
