<svg xmlns="http://www.w3.org/2000/svg" shape-rendering="crispEdges" viewBox="0 -0.5 27 9">
    <path stroke="#d16060" d="M7 1h1m15 0h1M6 2h1m1 0h1m12 0h1M3 3h1m5 0h1m2 0h5M1 4h1m9 0h1m2 0h1m2 0h1m1 0h2M3 5h1m5 0h1m2 0h5M6 6h1m1 0h1m12 0h1M7 7h1m15 0h1"/>
    <path stroke="#ab3131" d="M7 2h1m7 0h1m6 0h1m1 0h1M5 3h1m2 0h1m9 0h1m1 0h1M2 4h1m1 0h1m4 0h2m1 0h2m1 0h2M5 5h1m2 0h1m9 0h1m1 0h1M7 6h1m7 0h1m6 0h1m1 0h1"/>
    <path stroke="#fffffe" d="M16 2h1M7 3h1M6 4h3M7 5h1"/>
    <path stroke="#fff" d="M25 2h1"/>
    <path stroke="#fac7a6" d="M6 3h1M5 4h1m0 1h1m9 1h1"/>
    <path stroke="#f6bbe8" d="M25 6h1"/>
</svg>
