<svg xmlns="http://www.w3.org/2000/svg" shape-rendering="crispEdges" viewBox="0 -0.5 29 11">
    <path stroke="#fffffe" d="M11 1h1m8 3h1m6 1h1"/>
    <path stroke="#4fb0b3" d="M11 2h1m1 1h1m3 0h1m5 0h1m1 0h1M11 4h2m1 0h1m1 0h1m1 0h1m3 0h1m3 0h1M1 5h1m1 0h1m1 0h1m1 0h1m1 0h2m8 0h3M11 6h2m1 0h1m1 0h1m1 0h1m3 0h1m3 0h1M13 7h1m3 0h1m5 0h1m1 0h1M11 8h1"/>
    <path stroke="#508383" d="M11 3h1m12 0h1M2 5h1m1 0h1m1 0h1m1 0h1m2 0h1m1 0h1m1 0h1m1 0h1m4 0h1m3 0h1M11 7h1m12 0h1"/>
    <path stroke="#d8f577" d="M20 6h1M11 9h1"/>
</svg>
