<svg xmlns="http://www.w3.org/2000/svg" shape-rendering="crispEdges" viewBox="0 -0.5 25 11">
    <path stroke="#7fb717" d="M8 1h2m1 0h1M7 2h1m4 0h1M9 3h1m1 0h2m6 0h1m1 0h1M3 4h1m1 0h1m1 0h1m2 0h1m1 0h2m4 0h1m3 0h1M1 5h1m5 0h2m6 0h3M3 6h1m1 0h1m1 0h1m2 0h1m1 0h2m4 0h1m3 0h1M9 7h1m1 0h2m6 0h1m1 0h1M7 8h1m4 0h1M8 9h2m1 0h1"/>
    <path stroke="#fae294" d="M10 1h1M4 3h1m11 1h1m6 1h1"/>
    <path stroke="#2f711a" d="M8 3h1m1 0h1m9 0h1M2 5h1m3 0h1m2 0h1m4 0h1m3 0h1m3 0h1M8 7h1m1 0h1m9 0h1"/>
    <path stroke="#f7af5c" d="M16 6h1M4 7h1m5 2h1"/>
</svg>
