<svg xmlns="http://www.w3.org/2000/svg" shape-rendering="crispEdges" viewBox="0 -0.5 25 15">
    <path stroke="#5787e7" d="M9 1h1m1 0h1M8 2h1m3 0h1M9 3h1m1 0h1m7 2h1m1 0h1M3 6h1m1 0h1m1 0h1m2 0h3m5 0h1m3 0h1M1 7h1m2 0h1m10 0h3M3 8h1m1 0h1m1 0h4m1 0h3m3 0h1m3 0h1m-4 1h1m1 0h1M9 11h1m1 0h1m-4 1h1m3 0h1m-4 1h1m1 0h1"/>
    <path stroke="#d8f577" d="M10 2h1M5 5h1m10 1h1m6 1h1"/>
    <path stroke="#2b5397" d="M9 4h1m1 0h1m-2 1h1m9 0h1M2 7h1m3 0h1m1 0h1m1 0h1m1 0h1m1 0h1m3 0h1m3 0h1M10 9h1m9 0h1M9 10h1m1 0h1"/>
    <path stroke="#a1d920" d="M16 8h1M5 9h1m4 3h1"/>
</svg>
