<svg xmlns="http://www.w3.org/2000/svg" shape-rendering="crispEdges" viewBox="0 -0.5 24 7">
    <path stroke="#b66615" d="M5 1h1M3 2h1m2 0h2m1 0h1m1 0h1M2 3h1m4 0h1m3 0h1m1 0h1m1 0h1m1 0h1m1 0h1M3 4h1m2 0h2m1 0h1m1 0h1M5 5h1"/>
    <path stroke="#faddf3" d="M7 1h1m1 0h1M5 2h1M4 3h3m15 0h1M5 4h1"/>
    <path stroke="#f39f27" d="M11 1h1m1 0h1m3 0h1m-6 1h1m1 0h1m1 0h1m1 0h1M1 3h1m6 0h1m1 0h1m9 0h2M12 4h1m1 0h1m1 0h1m1 0h1m-8 1h1m1 0h1m3 0h1"/>
    <path stroke="#f6bbe8" d="M4 2h1M3 3h1m0 1h1m2 1h1m1 0h1"/>
</svg>
