<svg xmlns="http://www.w3.org/2000/svg" shape-rendering="crispEdges" viewBox="0 -0.5 25 11">
    <path stroke="#fffffe" d="M9 1h1m0 3h1m5 0h1M9 5h3m11 0h1M10 6h1"/>
    <path stroke="#ab3131" d="M8 2h1M7 3h1m2 0h1m9 0h1M8 4h1m2 0h1M2 5h1m1 0h1m1 0h1m5 0h1m1 0h1m3 0h1m3 0h1M8 6h1m2 0h1M7 7h1m2 0h1m9 0h1M8 8h1"/>
    <path stroke="#d16060" d="M19 3h1m1 0h1M7 4h1m5 0h1m4 0h1m3 0h1M1 5h1m1 0h1m1 0h1m1 0h1m7 0h3M7 6h1m5 0h1m4 0h1m3 0h1m-4 1h1m1 0h1"/>
    <path stroke="#d8f577" d="M9 4h1M8 5h1m0 1h1m6 0h1M9 9h1"/>
</svg>
