<svg xmlns="http://www.w3.org/2000/svg" shape-rendering="crispEdges" viewBox="0 -0.5 27 9">
    <path stroke="#f39f27" d="M7 1h1m15 0h1M6 2h1m14 0h1M3 3h1m7 0h3m1 0h2M1 4h1m3 0h1m5 0h1m2 0h1m2 0h1m1 0h2M3 5h1m7 0h3m1 0h2M6 6h1m14 0h1M7 7h1m15 0h1"/>
    <path stroke="#b66615" d="M8 2h1m13 0h1m1 0h1M5 3h2m2 0h1m8 0h1m1 0h1M2 4h1m1 0h1m5 0h1m1 0h2m1 0h2M5 5h2m2 0h1m8 0h1m1 0h1M8 6h1m13 0h1m1 0h1"/>
    <path stroke="#fff" d="M25 2h1"/>
    <path stroke="#8ec4f4" d="M7 3h1M6 4h1m0 1h1"/>
    <path stroke="#fffffe" d="M8 3h1M7 4h3M8 5h1"/>
    <path stroke="#bee75f" d="M25 6h1"/>
</svg>
