<svg xmlns="http://www.w3.org/2000/svg" shape-rendering="crispEdges" viewBox="0 -0.5 24 11">
    <path stroke="#faddf3" d="M8 1h1M8 4h1m13 0h1M7 5h3M8 6h1"/>
    <path stroke="#4fb0b3" d="M7 2h1M6 3h1m6 0h1m3 0h1m-6 1h1m1 0h1m1 0h1m1 0h1M1 5h1m2 0h1m14 0h1m-8 1h1m1 0h1m1 0h1m1 0h1M6 7h1m6 0h1m3 0h1M7 8h1"/>
    <path stroke="#508383" d="M8 3h1M6 4h1m2 0h1m3 0h1m7 0h1M2 5h2m1 0h1m4 0h2m1 0h1m1 0h1m1 0h1m2 0h1M6 6h1m2 0h1m3 0h1m7 0h1M8 7h1"/>
    <path stroke="#f6bbe8" d="M7 4h1M6 5h1m0 1h1m14 0h1M8 9h1"/>
</svg>
