<svg xmlns="http://www.w3.org/2000/svg" shape-rendering="crispEdges" viewBox="0 -0.5 23 11">
    <path stroke="#f39f27" d="M8 1h2m1 0h1M7 2h1m4 0h1m6 0h1M9 3h1m1 0h2m4 0h1M3 4h1m1 0h1m4 0h1m1 0h2M1 5h1m13 0h2M3 6h1m1 0h1m4 0h1m1 0h2M9 7h1m1 0h2m4 0h1M7 8h1m4 0h1m6 0h1M8 9h2m1 0h1"/>
    <path stroke="#fffffe" d="M10 1h1M4 3h1m3 1h1M7 5h3M8 6h1"/>
    <path stroke="#b66615" d="M8 3h1m1 0h1m7 0h1m1 0h1M6 4h1m2 0h1m6 0h1M2 5h1m7 0h1m3 0h1M6 6h1m2 0h1m6 0h1M8 7h1m1 0h1m7 0h1m1 0h1"/>
    <path stroke="#fff" d="M21 3h1"/>
    <path stroke="#8ec4f4" d="M7 4h1M6 5h1m0 1h1M4 7h1m5 2h1"/>
    <path stroke="#bee75f" d="M21 7h1"/>
</svg>
