<svg xmlns="http://www.w3.org/2000/svg" shape-rendering="crispEdges" viewBox="0 -0.5 29 11">
    <path stroke="#fffffe" d="M8 1h1m2 0h1m13 2h1m1 2h1m-3 2h1"/>
    <path stroke="#d16060" d="M7 2h1m3 0h1m11 0h1M6 3h1m6 0h1m3 0h1m2 0h2m2 0h1M6 4h1m2 0h1m1 0h2m1 0h1m1 0h1m1 0h1m2 0h1M1 5h1m2 0h1m1 0h3m1 0h1m9 0h1m1 0h1m1 0h1m1 0h1M6 6h1m2 0h1m1 0h2m1 0h1m1 0h1m1 0h1m2 0h1M6 7h1m6 0h1m3 0h1m2 0h2m2 0h1M7 8h1m3 0h1m11 0h1"/>
    <path stroke="#ab3131" d="M11 3h1m10 0h1M2 5h2m1 0h1m3 0h1m1 0h1m1 0h1m1 0h1m1 0h1m1 0h1m1 0h1m1 0h1m1 0h1M11 7h1m10 0h1"/>
    <path stroke="#d8f577" d="M8 9h1m2 0h1"/>
</svg>
