<svg xmlns="http://www.w3.org/2000/svg" shape-rendering="crispEdges" viewBox="0 -0.5 21 17">
    <path stroke="#faddf3" d="M8 1h1m1 2h1m6 3h1m1 2h1m-3 2h1m-8 3h1"/>
    <path stroke="#b99560" d="M7 2h1m1 0h1M6 4h1m3 0h1M6 5h1m3 0h1m4 0h1M6 6h1m5 0h2m2 0h1M7 7h2m1 0h1m2 0h1M1 8h1m1 0h4m5 0h1m1 0h1m1 0h1m1 0h1M7 9h2m1 0h1m2 0h1m-8 1h1m5 0h2m2 0h1M6 11h1m3 0h1m4 0h1M6 12h1m3 0h1m-4 2h1m1 0h1"/>
    <path stroke="#f6bbe8" d="M6 3h1M6 13h1m1 2h1"/>
    <path stroke="#8d6d3e" d="M7 6h1m1 0h1m4 0h1M5 7h1m3 0h1M2 8h1m8 0h1m1 0h1m1 0h1m1 0h1M5 9h1m3 0h1m-3 1h1m1 0h1m4 0h1"/>
</svg>
