<svg xmlns="http://www.w3.org/2000/svg" shape-rendering="crispEdges" viewBox="0 -0.5 27 9">
    <path stroke="#d16060" d="M23 1h1M11 2h1m1 0h1m3 0h1m3 0h1M12 3h1m1 0h1m1 0h1m1 0h1M1 4h1m2 0h1m1 0h1m1 0h1m1 0h1m8 0h2M5 5h1m6 0h1m1 0h1m1 0h1m1 0h1m-8 1h1m1 0h1m3 0h1m3 0h1m1 1h1"/>
    <path stroke="#a9e2f7" d="M5 2h1m1 0h1m1 0h1"/>
    <path stroke="#ab3131" d="M22 2h1m1 0h1M3 3h1m1 0h1m1 0h1m1 0h2m9 0h1M2 4h1m8 0h1m1 0h1m1 0h1m1 0h1M3 5h1m3 0h1m1 0h2m9 0h1m1 1h1m1 0h1"/>
    <path stroke="#fff" d="M25 2h1"/>
    <path stroke="#34baec" d="M5 6h1m1 0h1m1 0h1"/>
    <path stroke="#fbef97" d="M25 6h1"/>
</svg>
