<svg xmlns="http://www.w3.org/2000/svg" shape-rendering="crispEdges" viewBox="0 -0.5 23 13">
    <path stroke="#b66615" d="M14 1h1m-3 2h1m3 0h1m2 1h1m-6 1h1m3 0h1M2 6h1m1 0h1m1 0h1m1 0h1m1 0h1m1 0h2m1 0h2m2 0h1m-6 1h1m3 0h1m0 1h1m-8 1h1m3 0h1m-3 2h1"/>
    <path stroke="#f39f27" d="M13 2h1m1 0h1m-3 2h1m1 0h1m-4 1h2m1 0h2M1 6h1m1 0h1m1 0h1m1 0h1m1 0h1m1 0h1m2 0h1m2 0h1m2 0h1m-9 1h2m1 0h2m-4 1h1m1 0h1m-3 2h1m1 0h1"/>
    <path stroke="#faddf3" d="M20 4h1m0 2h1"/>
    <path stroke="#f6bbe8" d="M20 8h1"/>
</svg>
