<svg xmlns="http://www.w3.org/2000/svg" shape-rendering="crispEdges" viewBox="0 -0.5 16 17">
    <path stroke="#d16060" d="M7 1h1M7 2h1M7 3h1M6 4h1m1 0h1M5 5h1M5 7h1m4 0h1M1 8h1m1 0h1m1 0h1m5 0h1M5 9h1m4 0h1m-6 2h1m0 1h1m1 0h1m-2 1h1m-1 1h1m-1 1h1"/>
    <path stroke="#fffffe" d="M8 1h1m0 4h1M8 7h1m5 0h1M7 8h3M8 9h1"/>
    <path stroke="#ab3131" d="M5 6h2m1 0h1M6 7h1m2 0h1m3 0h1M2 8h1m1 0h1m5 0h1m1 0h1M6 9h1m2 0h1m3 0h1m-9 1h2m1 0h1"/>
    <path stroke="#f7d76b" d="M7 7h1M6 8h1m0 1h1m6 0h1m-6 2h1m-2 4h1"/>
</svg>
