<svg xmlns="http://www.w3.org/2000/svg" shape-rendering="crispEdges" viewBox="0 -0.5 27 13">
    <path stroke="#b66615" d="M8 1h1m5 0h1m-5 2h1m1 0h1m7 1h1M5 5h1m4 0h1m1 0h1M2 6h1m1 0h1m1 0h1m1 0h5m1 0h1m2 0h1m1 0h1m1 0h1m1 0h1M5 7h1m4 1h1m1 0h1m7 0h1m-11 2h1m1 0h1m-5 1h1m5 0h1"/>
    <path stroke="#f39f27" d="M8 2h1m1 0h1m1 0h1m1 0h1M9 3h1m3 0h1m7 0h1M4 4h1m5 0h1m1 0h1m5 0h2m2 0h1M8 5h1m2 0h1m1 0h1m5 0h1M1 6h1m1 0h1m1 0h1m1 0h1m7 0h2m1 0h1m1 0h1m1 0h1m1 0h1M8 7h1m1 0h4m5 0h1M4 8h1m13 0h2m2 0h1M9 9h2m1 0h2m7 0h1M8 10h1m5 0h1"/>
    <path stroke="#fae294" d="M11 2h1M3 4h1m10 0h1m8 0h1m1 2h1m-3 2h1"/>
    <path stroke="#f7af5c" d="M3 8h1m10 0h1m-4 2h1"/>
</svg>
