<svg xmlns="http://www.w3.org/2000/svg" shape-rendering="crispEdges" viewBox="0 -0.5 23 9">
    <path stroke="#f39f27" d="M19 1h1m-3 1h1m-6 1h2M1 4h1m1 0h1m1 0h1m1 0h1m7 0h2m-5 1h2m3 1h1m1 1h1"/>
    <path stroke="#b66615" d="M10 2h1m7 0h1m1 0h1M8 3h1m2 0h1m4 0h1M2 4h1m1 0h1m1 0h1m5 0h1m1 0h1M8 5h1m2 0h1m4 0h1m-7 1h1m7 0h1m1 0h1"/>
    <path stroke="#fff" d="M21 2h1"/>
    <path stroke="#d8f577" d="M9 3h1M8 4h1m0 1h1"/>
    <path stroke="#fffffe" d="M10 3h1M9 4h3m-2 1h1"/>
    <path stroke="#bee75f" d="M21 6h1"/>
</svg>
