<svg xmlns="http://www.w3.org/2000/svg" shape-rendering="crispEdges" viewBox="0 -0.5 23 15">
    <path stroke="#faddf3" d="M8 1h1m2 1h1m2 4h1m6 1h1m-11 5h1"/>
    <path stroke="#f6bbe8" d="M5 2h1m8 6h1M5 12h1m2 1h1"/>
    <path stroke="#2b5397" d="M8 2h1M5 3h1m5 0h1M6 4h1m3 0h1m7 1h1M4 6h1m1 0h1m1 0h1M2 7h1m4 0h1m1 0h1m1 0h1m4 0h1m3 0h1M4 8h1m1 0h1m1 0h1m9 1h1M6 10h1m3 0h1m-6 1h1m5 0h1m-4 1h1"/>
    <path stroke="#5787e7" d="M7 3h1m1 0h1M7 5h1m1 0h1m7 0h1m1 0h1M5 6h1m6 0h1m3 0h1m3 0h1M1 7h1m1 0h1m9 0h3M5 8h1m4 0h1m5 0h1m3 0h1M7 9h1m1 0h1m7 0h1m1 0h1M7 11h1m1 0h1"/>
</svg>
