<svg xmlns="http://www.w3.org/2000/svg" shape-rendering="crispEdges" viewBox="0 -0.5 23 17">
    <path stroke="#fffffe" d="M10 1h1m1 2h1m7 3h1m0 2h1m-10 5h1"/>
    <path stroke="#b99560" d="M9 2h1m1 0h1M8 4h1m3 0h1M8 5h1m3 0h1m-3 2h1m1 0h2m1 0h2M1 8h1m1 0h1m1 0h1m1 0h1m1 0h1m1 0h1m2 0h1m2 0h1m2 0h1M10 9h1m1 0h2m1 0h2m-9 2h1m3 0h1m-5 1h1m3 0h1m-4 2h1m1 0h1"/>
    <path stroke="#f7d76b" d="M8 3h1m11 7h1M8 13h1m1 2h1"/>
    <path stroke="#8d6d3e" d="M9 6h1m1 0h1m7 0h1m-2 1h1M2 8h1m1 0h1m1 0h1m1 0h1m1 0h1m1 0h2m1 0h2m2 0h1m-2 1h1M9 10h1m1 0h1m7 0h1"/>
</svg>
