<svg xmlns="http://www.w3.org/2000/svg" shape-rendering="crispEdges" viewBox="0 -0.5 25 11">
    <path stroke="#612661" d="M8 1h1m0 2h1m10 0h1m1 0h1M7 4h1m10 0h1M2 5h1m2 0h1m5 0h2m1 0h2M7 6h1m10 0h1M9 7h1m10 0h1m1 0h1M8 9h1"/>
    <path stroke="#b346b3" d="M9 2h1m11 0h1m-3 1h1M5 4h1m2 0h1M1 5h1m1 0h2m1 0h1m1 0h3m2 0h1m2 0h3M5 6h1m2 0h1m10 1h1M9 8h1m11 0h1"/>
    <path stroke="#a9e2f7" d="M5 3h1"/>
    <path stroke="#fff" d="M23 3h1"/>
    <path stroke="#34baec" d="M5 7h1"/>
    <path stroke="#bee75f" d="M23 7h1"/>
</svg>
