<svg xmlns="http://www.w3.org/2000/svg" shape-rendering="crispEdges" viewBox="0 -0.5 27 9">
    <path stroke="#f39f27" d="M21 1h1M8 2h1m9 0h2m2 0h1M11 3h1m1 0h1m5 0h1M1 4h1m1 0h1m1 0h1m1 0h1m7 0h2m1 0h1m1 0h1m1 0h1m1 0h1M11 5h1m1 0h1m5 0h1M8 6h1m9 0h2m2 0h1m-2 1h1"/>
    <path stroke="#faddf3" d="M10 2h1m3 0h1m8 0h1M10 3h1m14 1h1M10 5h1m12 1h1"/>
    <path stroke="#b66615" d="M20 2h1M8 3h1M2 4h1m1 0h1m1 0h1m1 0h3m1 0h1m1 0h1m2 0h1m1 0h1m1 0h1m1 0h1M8 5h1m11 1h1"/>
    <path stroke="#f6bbe8" d="M10 6h1m3 0h1"/>
</svg>
