<svg xmlns="http://www.w3.org/2000/svg" shape-rendering="crispEdges" viewBox="0 -0.5 25 13">
    <path stroke="#fae294" d="M9 1h1m6 4h1m6 1h1"/>
    <path stroke="#5787e7" d="M8 2h1m1 0h1m0 2h2m6 0h1m1 0h1M3 5h1m3 0h1m1 0h2m2 0h1m4 0h1m3 0h1M1 6h1m6 0h1m6 0h3M5 7h1m3 0h2m2 0h1m4 0h1m3 0h1M11 8h2m6 0h1m1 0h1M8 10h1m1 0h1"/>
    <path stroke="#2b5397" d="M8 3h1m1 0h1M9 4h1m10 0h1M2 6h1m1 0h1m1 0h1m2 0h1m4 0h1m3 0h1m3 0h1M9 8h1m10 0h1M8 9h1m1 0h1"/>
    <path stroke="#f7af5c" d="M16 7h1m-8 4h1"/>
</svg>
