<svg xmlns="http://www.w3.org/2000/svg" shape-rendering="crispEdges" viewBox="0 -0.5 27 9">
    <path stroke="#7fb717" d="M10 1h1m10 1h1m1 0h1M5 3h1m6 0h1m7 0h1m3 0h1M1 4h1m2 0h1m1 0h1m6 0h1m2 0h4M5 5h1m6 0h1m7 0h1m3 0h1m-4 1h1m1 0h1M10 7h1"/>
    <path stroke="#d8f577" d="M14 1h1M6 2h1m2 1h1m8 0h1M8 4h3m14 0h1M9 5h1"/>
    <path stroke="#2f711a" d="M4 2h1m4 0h1m1 0h1m1 0h1m8 0h1M7 3h1m2 0h1M2 4h2m1 0h1m5 0h2m1 0h2m4 0h1m3 0h1M7 5h1m2 0h1M4 6h1m4 0h1m1 0h1m1 0h1m8 0h1"/>
    <path stroke="#a1d920" d="M8 3h1M7 4h1m0 1h1m9 0h1M6 6h1m7 1h1"/>
</svg>
