<svg xmlns="http://www.w3.org/2000/svg" shape-rendering="crispEdges" viewBox="0 -0.5 14 15">
    <path stroke="#fffffe" d="M5 1h1m2 1h1M6 6h1m5 0h1M5 7h3M6 8h1m1 4h1"/>
    <path stroke="#8ec4f4" d="M2 2h1m2 4h1M4 7h1m0 1h1m6 0h1M2 12h1m2 1h1"/>
    <path stroke="#2b5397" d="M5 2h1M2 3h1m5 0h1M3 4h1m3 0h1M6 5h1M4 6h1m2 0h1m3 0h1M2 7h2m4 0h1m1 0h1M4 8h1m2 0h1m3 0h1M6 9h1m-4 1h1m3 0h1m-6 1h1m5 0h1m-4 1h1"/>
    <path stroke="#5787e7" d="M4 3h1m1 0h1M4 5h1M3 6h1m4 0h1M1 7h1m7 0h1M3 8h1m4 0h1M4 9h1m-1 2h1m1 0h1"/>
</svg>
