<svg xmlns="http://www.w3.org/2000/svg" shape-rendering="crispEdges" viewBox="0 -0.5 27 17">
    <path stroke="#fffffe" d="M8 1h1m1 2h1M3 6h1m6 0h1m3 0h1m3 1h1m6 1h1m-16 5h1"/>
    <path stroke="#7fb717" d="M7 2h1m1 0h1M6 4h1m3 0h1M6 5h1m3 0h1M4 6h1m16 0h1m1 0h1M8 7h1m2 0h1m1 0h1m6 0h1m3 0h1M1 8h1m1 0h1m1 0h1m1 0h1m7 0h5M8 9h1m2 0h1m1 0h1m6 0h1m3 0h1M4 10h1m16 0h1m1 0h1M6 11h1m3 0h1m-5 1h1m3 0h1m-4 2h1m1 0h1"/>
    <path stroke="#d8f577" d="M6 3h1m11 6h1M3 10h1m6 0h1m3 0h1m-9 3h1m1 2h1"/>
    <path stroke="#2f711a" d="M7 6h1m1 0h1m12 0h1M5 7h1M2 8h1m1 0h1m1 0h1m1 0h3m1 0h1m1 0h1m5 0h1m3 0h1M5 9h1m1 1h1m1 0h1m12 0h1"/>
</svg>
