<svg xmlns="http://www.w3.org/2000/svg" shape-rendering="crispEdges" viewBox="0 -0.5 25 9">
    <path stroke="#f39f27" d="M21 1h1m-3 1h1M5 3h1m2 0h1m5 0h1M1 4h1m2 0h1m1 0h3m2 0h2m3 0h3M5 5h1m2 0h1m1 0h1m8 1h1m1 1h1"/>
    <path stroke="#b66615" d="M4 2h1m15 0h1m1 0h1m-8 1h1m2 0h1M2 4h2m1 0h1m3 0h1m3 0h1m-3 1h1m6 0h1M4 6h1m15 0h1m1 0h1"/>
    <path stroke="#fffffe" d="M6 2h1"/>
    <path stroke="#fff" d="M23 2h1"/>
    <path stroke="#8ec4f4" d="M6 6h1"/>
    <path stroke="#bee75f" d="M23 6h1"/>
</svg>
