<svg xmlns="http://www.w3.org/2000/svg" shape-rendering="crispEdges" viewBox="0 -0.5 23 9">
    <path stroke="#b346b3" d="M19 1h1m-3 1h1M3 3h1m1 0h1m4 0h1m1 0h2M1 4h1m5 0h2m6 0h2M3 5h1m1 0h1m4 0h1m1 0h2m3 1h1m1 1h1"/>
    <path stroke="#fffffe" d="M4 2h1m6 0h1"/>
    <path stroke="#612661" d="M10 2h1m1 0h1m5 0h1m1 0h1m-5 1h1M2 4h1m3 0h1m2 0h1m4 0h1m1 1h1m-7 1h1m1 0h1m5 0h1m1 0h1"/>
    <path stroke="#fff" d="M21 2h1"/>
    <path stroke="#fac7a6" d="M4 6h1m6 0h1"/>
    <path stroke="#fbef97" d="M21 6h1"/>
</svg>
