<svg xmlns="http://www.w3.org/2000/svg" shape-rendering="crispEdges" viewBox="0 -0.5 19 13">
    <path stroke="#8d6d3e" d="M3 1h1m5 0h1M5 3h1m1 0h1m1 1h1m2 0h1M5 5h1m1 0h1m2 0h1M2 6h2m2 0h1m4 0h1m1 0h1m1 0h1M7 7h1m2 0h1M5 8h1m1 0h1m1 0h1m2 0h1m-8 2h1m1 0h1m-5 1h1m5 0h1"/>
    <path stroke="#b99560" d="M3 2h1m1 0h1m1 0h1m1 0h1M4 3h1m3 0h1m4 0h1M5 4h1m1 0h1m2 0h2m2 0h1M3 5h1m2 0h1m4 0h1M1 6h1m2 0h2m6 0h1m1 0h1m1 0h1M3 7h1m1 0h2m4 0h1m-2 1h2m2 0h1M4 9h2m1 0h2m4 0h1M3 10h1m5 0h1"/>
    <path stroke="#fffffe" d="M6 2h1m8 2h1M9 5h1M8 6h3m6 0h1M9 7h1m5 1h1"/>
    <path stroke="#d8f577" d="M8 5h1M7 6h1m0 1h1m-3 3h1"/>
</svg>
