<svg xmlns="http://www.w3.org/2000/svg" shape-rendering="crispEdges" viewBox="0 -0.5 27 9">
    <path stroke="#5787e7" d="M14 1h1m8 0h1M9 2h1m3 0h1m1 0h1m5 0h1M12 3h1m3 0h1m1 0h1M1 4h1m1 0h1m1 0h1m1 0h1m1 0h3m7 0h2m-9 1h1m3 0h1m1 0h1M9 6h1m3 0h1m1 0h1m5 0h1m-8 1h1m8 0h1"/>
    <path stroke="#2b5397" d="M22 2h1m1 0h1M8 3h1m1 0h1m9 0h1M2 4h1m1 0h1m1 0h1m1 0h1m8 0h1M8 5h1m1 0h1m9 0h1m1 1h1m1 0h1"/>
    <path stroke="#fff" d="M25 2h1"/>
    <path stroke="#faddf3" d="M14 4h1"/>
    <path stroke="#fbef97" d="M25 6h1"/>
</svg>
