<svg xmlns="http://www.w3.org/2000/svg" shape-rendering="crispEdges" viewBox="0 -0.5 27 7">
    <path stroke="#2f711a" d="M4 1h1m4 0h1m12 0h1M7 2h1m2 0h1M2 3h2m1 0h1m5 0h2m1 0h1m5 0h1m3 0h1M7 4h1m2 0h1M4 5h1m4 0h1m12 0h1"/>
    <path stroke="#faddf3" d="M6 1h1m3 0h1m3 0h1M9 2h1m8 0h1M8 3h3m14 0h1M9 4h1"/>
    <path stroke="#7fb717" d="M21 1h1m1 0h1M5 2h1m5 0h1m1 0h1m6 0h1m3 0h1M1 3h1m2 0h1m1 0h1m8 0h5M5 4h1m5 0h1m1 0h1m6 0h1m3 0h1m-4 1h1m1 0h1"/>
    <path stroke="#f6bbe8" d="M8 2h1M7 3h1m0 1h1m9 0h1M6 5h1m3 0h1m3 0h1"/>
</svg>
