<svg xmlns="http://www.w3.org/2000/svg" shape-rendering="crispEdges" viewBox="0 -0.5 20 11">
    <path stroke="#7fb717" d="M10 1h2m1 0h1M9 2h1m4 0h1m-4 1h1m1 0h1M3 4h1m5 0h1m1 0h1m1 0h2M1 5h1m8 0h1m1 0h1m2 0h1M9 6h1m1 0h1m1 0h2m-4 1h1m1 0h1M9 8h1m4 0h1m-5 1h2m1 0h1"/>
    <path stroke="#faddf3" d="M12 1h1M6 4h1m11 0h1M5 5h3M6 6h1"/>
    <path stroke="#2f711a" d="M6 3h1m3 0h1m1 0h1M4 4h1m2 0h1m9 0h1M2 5h1m5 0h1m5 0h1m1 0h1M4 6h1m2 0h1m9 0h1M6 7h1m3 0h1m1 0h1"/>
    <path stroke="#f6bbe8" d="M5 4h1M4 5h1m0 1h1m12 0h1m-7 3h1"/>
</svg>
