<svg xmlns="http://www.w3.org/2000/svg" shape-rendering="crispEdges" viewBox="0 -0.5 21 13">
    <path stroke="#508383" d="M6 1h1M4 3h1m3 0h1M5 4h1m10 0h1M3 5h1m2 0h1m1 0h2M2 6h1m4 0h1m6 0h1m3 0h1M3 7h1m2 0h1m1 0h2M5 8h1m10 0h1M4 9h1m3 0h1m-3 2h1"/>
    <path stroke="#4fb0b3" d="M5 2h1m1 0h1M7 4h1m7 0h1m1 0h1M7 5h1m2 0h1m3 0h1m3 0h1M1 6h1m9 0h3M7 7h1m2 0h1m3 0h1m3 0h1M7 8h1m7 0h1m1 0h1M5 10h1m1 0h1"/>
    <path stroke="#8ec4f4" d="M4 5h1M3 6h1m0 1h1m7 0h1"/>
    <path stroke="#fffffe" d="M5 5h1m6 0h1M4 6h3m12 0h1M5 7h1"/>
</svg>
