<svg xmlns="http://www.w3.org/2000/svg" shape-rendering="crispEdges" viewBox="0 -0.5 23 13">
    <path stroke="#508383" d="M7 1h1M5 3h1m3 0h1M8 4h1m9 0h1m1 0h1M6 5h1m2 0h1m6 0h1M2 6h1m1 0h1m5 0h1m3 0h1M6 7h1m2 0h1m6 0h1M8 8h1m9 0h1m1 0h1M5 9h1m3 0h1m-3 2h1"/>
    <path stroke="#4fb0b3" d="M6 2h1m1 0h1m10 1h1M6 4h1m4 0h2m4 0h1m-8 1h1m2 0h1M1 6h1m1 0h1m1 0h1m9 0h2m-7 1h1m2 0h1M6 8h1m4 0h2m4 0h1m1 1h1M6 10h1m1 0h1"/>
    <path stroke="#fff" d="M21 4h1"/>
    <path stroke="#f7d76b" d="M7 5h1M6 6h1m0 1h1"/>
    <path stroke="#fffffe" d="M8 5h1M7 6h3M8 7h1"/>
    <path stroke="#fbef97" d="M21 8h1"/>
</svg>
