<svg xmlns="http://www.w3.org/2000/svg" shape-rendering="crispEdges" viewBox="0 -0.5 16 13">
    <path stroke="#2b5397" d="M3 1h1m5 0h1M5 3h1m1 0h1m0 1h1M5 5h2m2 0h1m3 0h1M2 6h1m1 0h1m5 0h1m1 0h1M6 7h1m2 0h1m3 0h1M5 8h1m1 0h2m-4 2h1m1 0h1m-5 1h1m5 0h1"/>
    <path stroke="#5787e7" d="M3 2h1m1 0h1m1 0h1m1 0h1M4 3h1m3 0h1M5 4h1m1 0h1M1 6h1m1 0h1m1 0h1m5 0h1M5 7h1M4 9h2m1 0h2m-6 1h1m5 0h1"/>
    <path stroke="#fffffe" d="M6 2h1m2 2h1M8 5h1m5 0h1M7 6h3M8 7h1"/>
    <path stroke="#fac7a6" d="M7 5h1M6 6h1m0 1h1m6 0h1M9 8h1m-4 2h1"/>
</svg>
