<svg xmlns="http://www.w3.org/2000/svg" shape-rendering="crispEdges" viewBox="0 -0.5 19 17">
    <path stroke="#a9e2f7" d="M6 1h1m1 2h1m6 3h1M7 7h1M6 8h3m8 0h1M7 9h1m7 1h1m-8 3h1"/>
    <path stroke="#b346b3" d="M5 2h1m1 0h1M4 4h1m3 0h1M4 5h1m3 0h1m4 0h1m-4 1h2m2 0h1M3 7h1m7 0h1M1 8h1m2 0h1m5 0h1m1 0h1m1 0h1m1 0h1M3 9h1m7 0h1m-2 1h2m2 0h1M4 11h1m3 0h1m4 0h1M4 12h1m3 0h1m-4 2h1m1 0h1"/>
    <path stroke="#34baec" d="M4 3h1m1 4h1M5 8h1m0 1h1m-3 4h1m1 2h1"/>
    <path stroke="#612661" d="M5 6h1m1 0h1m4 0h1M5 7h1m2 0h1M2 8h1m6 0h1m1 0h1m1 0h1m1 0h1M5 9h1m2 0h1m-4 1h1m1 0h1m4 0h1"/>
</svg>
