<svg xmlns="http://www.w3.org/2000/svg" shape-rendering="crispEdges" viewBox="0 -0.5 25 13">
    <path stroke="#612661" d="M9 1h1M7 3h1m3 0h1M8 4h1m11 0h1M6 5h1m2 0h1M2 6h1m7 0h2m2 0h1m3 0h1m3 0h1M6 7h1m2 0h1M8 8h1m11 0h1M7 9h1m3 0h1m-3 2h1"/>
    <path stroke="#b346b3" d="M8 2h1m1 0h1m-1 2h1m8 0h1m1 0h1M3 5h1m1 0h1m5 0h1m1 0h1m4 0h1m3 0h1M1 6h1m10 0h1m2 0h3M3 7h1m1 0h1m5 0h1m1 0h1m4 0h1m3 0h1M10 8h1m8 0h1m1 0h1M8 10h1m1 0h1"/>
    <path stroke="#fffffe" d="M4 4h1m6 0h1M8 5h1m7 0h1M7 6h3m13 0h1M8 7h1"/>
    <path stroke="#d8f577" d="M7 5h1M6 6h1m0 1h1m8 0h1M4 8h1m6 0h1"/>
</svg>
