<svg xmlns="http://www.w3.org/2000/svg" shape-rendering="crispEdges" viewBox="0 -0.5 25 15">
    <path stroke="#d8f577" d="M10 1h1m2 1h1M6 5h1m6 7h1"/>
    <path stroke="#a1d920" d="M7 2h1M6 9h1m0 3h1m2 1h1"/>
    <path stroke="#b66615" d="M10 2h1M7 3h1m5 0h1M8 4h1m3 0h1M4 5h1m15 0h1m1 0h1M10 6h1m7 0h1M2 7h2m1 0h1m5 0h2m1 0h2m-6 1h1m7 0h1M4 9h1m15 0h1m1 0h1M8 10h1m3 0h1m-6 1h1m5 0h1m-4 1h1"/>
    <path stroke="#f39f27" d="M9 3h1m1 0h1m9 1h1M9 5h1m1 0h1m7 0h1M5 6h1m2 0h1M1 7h1m2 0h1m1 0h5m2 0h1m2 0h3M5 8h1m2 0h1m0 1h1m1 0h1m7 0h1m1 1h1M9 11h1m1 0h1"/>
    <path stroke="#fff" d="M23 5h1"/>
    <path stroke="#bee75f" d="M23 9h1"/>
</svg>
