<svg xmlns="http://www.w3.org/2000/svg" shape-rendering="crispEdges" viewBox="0 -0.5 23 17">
    <path stroke="#7fb717" d="M9 1h1M9 2h1M9 3h1M8 4h1m1 0h1M7 5h1m9 1h1m1 0h1M5 7h1m3 0h3m4 0h1m3 0h1M1 8h1m1 0h1m3 0h2m3 0h4M5 9h1m3 0h3m4 0h1m3 0h1m-4 1h1m1 0h1M7 11h1m0 1h1m1 0h1m-2 1h1m-1 1h1m-1 1h1"/>
    <path stroke="#d8f577" d="M10 1h1m0 4h1m2 2h1m6 1h1"/>
    <path stroke="#2f711a" d="M8 6h1m1 0h1m7 0h1M4 7h1m1 0h1M2 8h1m6 0h1m1 0h1m4 0h1m3 0h1M4 9h1m1 0h1m1 1h1m1 0h1m7 0h1"/>
    <path stroke="#a1d920" d="M14 9h1m-4 2h1m-2 4h1"/>
</svg>
