<svg xmlns="http://www.w3.org/2000/svg" shape-rendering="crispEdges" viewBox="0 -0.5 17 9">
    <path stroke="#fae294" d="M4 1h1m5 0h1M7 4h1"/>
    <path stroke="#7fb717" d="M13 1h1M5 2h1m3 0h1m1 0h1M6 3h1m1 0h1M1 4h1m2 0h1m4 0h2M6 5h1m1 0h1M5 6h1m3 0h1m1 0h1m1 1h1"/>
    <path stroke="#2f711a" d="M12 2h1m1 0h1M7 3h1m2 0h1M2 4h2m1 0h2m1 0h1M7 5h1m2 0h1m1 1h1m1 0h1"/>
    <path stroke="#fff" d="M15 2h1"/>
    <path stroke="#bee75f" d="M15 6h1"/>
    <path stroke="#f7af5c" d="M4 7h1m5 0h1"/>
</svg>
