<svg xmlns="http://www.w3.org/2000/svg" shape-rendering="crispEdges" viewBox="0 -0.5 28 9">
    <path stroke="#b346b3" d="M7 1h1m14 0h1M6 2h1m1 0h1m10 0h2m2 0h1M9 3h2m9 0h1M1 4h1m7 0h3m2 0h1m2 0h1m1 0h1m1 0h1m1 0h1m1 0h1M9 5h2m9 0h1M6 6h1m1 0h1m10 0h2m2 0h1M7 7h1m14 0h1"/>
    <path stroke="#612661" d="M5 2h1m15 0h1M3 3h1m2 0h1M2 4h1m4 0h2m3 0h2m1 0h2m1 0h1m1 0h1m1 0h1m1 0h1M3 5h1m2 0h1M5 6h1m15 0h1"/>
    <path stroke="#d8f577" d="M24 2h1M5 3h1M4 4h3m19 0h1M5 5h1m18 1h1"/>
    <path stroke="#a1d920" d="M4 3h1M3 4h1m0 1h1"/>
</svg>
