<svg xmlns="http://www.w3.org/2000/svg" shape-rendering="crispEdges" viewBox="0 -0.5 27 15">
    <path stroke="#b346b3" d="M7 1h1m1 0h1M6 2h1m3 0h1M7 3h1m1 0h1m11 1h1M4 5h1m13 0h2m2 0h1M8 6h1m5 0h1m4 0h1M1 7h1m1 0h1m1 0h1m1 0h1m4 0h1m3 0h1m1 0h1m1 0h1m1 0h1m1 0h1M8 8h1m1 0h1m8 0h1M4 9h1m13 0h2m2 0h1m-2 1h1M7 11h1m1 0h1m-4 1h1m3 0h1m-4 1h1m1 0h1"/>
    <path stroke="#fffffe" d="M8 2h1M3 5h1m19 0h1m1 2h1m-3 2h1"/>
    <path stroke="#612661" d="M7 4h1m1 0h1M8 5h1m11 0h1M5 6h1m9 0h1M2 7h1m1 0h1m1 0h1m1 0h2m3 0h1m3 0h1m1 0h1m1 0h1m1 0h1M5 8h1m5 0h1M8 9h1m11 0h1M7 10h1m1 0h1"/>
    <path stroke="#fac7a6" d="M3 9h1m4 3h1"/>
</svg>
