<svg xmlns="http://www.w3.org/2000/svg" shape-rendering="crispEdges" viewBox="0 -0.5 27 9">
    <path stroke="#b99560" d="M21 1h1m-4 1h2m2 0h1M10 3h1m3 0h1m4 0h1M1 4h1m1 0h2m7 0h1m3 0h1m1 0h1m1 0h1m1 0h1m1 0h1M10 5h1m8 0h1m-2 1h2m2 0h1m-2 1h1"/>
    <path stroke="#a9e2f7" d="M5 2h1m17 0h1M7 3h1M6 4h3m16 0h1M7 5h1m15 1h1"/>
    <path stroke="#8d6d3e" d="M7 2h1m12 0h1M5 3h1m2 0h2m5 0h1M2 4h1m6 0h1m3 0h1m3 0h1m1 0h1m1 0h1m1 0h1M5 5h1m2 0h2m1 0h1M7 6h1m12 0h1"/>
    <path stroke="#34baec" d="M6 3h1M5 4h1m0 1h1M5 6h1"/>
</svg>
