<svg xmlns="http://www.w3.org/2000/svg" shape-rendering="crispEdges" viewBox="0 -0.5 23 15">
    <path stroke="#f07540" d="M8 1h1m1 0h1M7 2h1m3 0h1M8 3h1m1 0h1m8 1h1m-3 1h1M3 6h1m1 0h1m1 0h1m4 0h1M1 7h1m2 0h1m10 0h2M3 8h1m1 0h1m1 0h1m4 0h3m2 1h1m1 1h1M8 11h1m1 0h1m-4 1h1m3 0h1m-4 1h1m1 0h1"/>
    <path stroke="#fffffe" d="M9 2h1M5 5h1m4 1h1M9 7h3m-2 1h1"/>
    <path stroke="#b92b0e" d="M8 4h1m1 0h1M9 5h2m7 0h1m1 0h1M8 6h1m2 0h1m4 0h1M2 7h1m3 0h1m5 0h1m1 0h1M8 8h1m2 0h1m4 0h1M9 9h2m7 0h1m1 0h1M8 10h1m1 0h1"/>
    <path stroke="#fff" d="M21 5h1"/>
    <path stroke="#8ec4f4" d="M9 6h1M8 7h1m0 1h1M5 9h1m3 3h1"/>
    <path stroke="#bee75f" d="M21 9h1"/>
</svg>
