<svg xmlns="http://www.w3.org/2000/svg" shape-rendering="crispEdges" viewBox="0 -0.5 22 11">
    <path stroke="#f07540" d="M7 1h1m1 0h1m8 1h1M7 3h1m2 0h1m5 0h1M4 4h1m1 0h1m4 0h1M1 5h2m11 0h2M4 6h1m1 0h1m4 0h1m1 0h1m-2 1h1m3 0h1M7 8h1m1 0h1m8 0h1"/>
    <path stroke="#fffffe" d="M8 1h1m0 3h1M8 5h3M9 6h1"/>
    <path stroke="#b92b0e" d="M7 2h1m1 0h1M9 3h1m7 0h1m1 0h1M7 4h1m2 0h1m4 0h1M3 5h1m1 0h1m5 0h1m1 0h1M7 6h1m2 0h1m4 0h1M7 7h1m1 0h1m7 0h1m1 0h1M7 9h1m1 0h1"/>
    <path stroke="#fff" d="M20 3h1"/>
    <path stroke="#f7d76b" d="M8 4h1M7 5h1m0 1h1M8 9h1"/>
    <path stroke="#fbef97" d="M20 7h1"/>
</svg>
