<svg xmlns="http://www.w3.org/2000/svg" shape-rendering="crispEdges" viewBox="0 -0.5 19 17">
    <path stroke="#b99560" d="M10 1h1m-1 1h1m-1 1h1M9 4h1m1 0h1M8 5h1m3 1h1M3 7h1m1 0h1m1 0h1m2 0h1m2 0h1M1 8h1m2 0h1m3 0h1m6 0h2M3 9h1m1 0h1m1 0h1m2 0h1m2 0h1m-2 1h1m-5 1h1m0 1h1m1 0h1m-2 1h1m-1 1h1m-1 1h1"/>
    <path stroke="#a9e2f7" d="M11 1h1m0 4h1M5 6h1m10 0h1m0 2h1"/>
    <path stroke="#8d6d3e" d="M9 6h1m1 0h1m3 0h1m-2 1h1M2 8h1m3 0h1m2 0h1m4 0h1m-1 1h1m-6 1h1m1 0h1m3 0h1"/>
    <path stroke="#34baec" d="M5 10h1m10 0h1m-5 1h1m-2 4h1"/>
</svg>
