<svg xmlns="http://www.w3.org/2000/svg" shape-rendering="crispEdges" viewBox="0 -0.5 23 11">
    <path stroke="#d8f577" d="M6 1h1M5 7h1m0 2h1"/>
    <path stroke="#fffffe" d="M10 1h1M5 3h1m4 6h1"/>
    <path stroke="#f39f27" d="M6 2h1m3 0h1m8 0h1m-9 1h2m4 0h1M3 4h1m1 0h1m1 0h2m1 0h1m2 0h1M1 5h1m2 0h1m3 0h1m6 0h2M3 6h1m1 0h1m1 0h2m1 0h1m2 0h1m-3 1h2m4 0h1M6 8h1m3 0h1m8 0h1"/>
    <path stroke="#b66615" d="M7 3h1m1 0h1m8 0h1m1 0h1m-5 1h1M2 5h1m3 0h1m2 0h1m4 0h1m1 1h1M7 7h1m1 0h1m8 0h1m1 0h1"/>
    <path stroke="#fff" d="M21 3h1"/>
    <path stroke="#bee75f" d="M21 7h1"/>
</svg>
