<svg xmlns="http://www.w3.org/2000/svg" shape-rendering="crispEdges" viewBox="0 -0.5 28 9">
    <path stroke="#a1d920" d="M13 1h1m5 4h1M5 6h1m1 0h1m1 0h1m3 1h1"/>
    <path stroke="#f07540" d="M14 1h1m7 1h1m1 0h1M12 3h1m8 0h1m3 0h1M1 4h1m2 0h1m1 0h1m1 0h1m1 0h2m2 0h1m2 0h4M5 5h1m6 0h1m8 0h1m3 0h1m-4 1h1m1 0h1M14 7h1"/>
    <path stroke="#d8f577" d="M5 2h1m1 0h1m1 0h1m9 1h1m6 1h1"/>
    <path stroke="#b92b0e" d="M13 2h1m9 0h1M3 3h1m1 0h1m1 0h1m1 0h1M2 4h1m9 0h2m1 0h2m4 0h1m3 0h1M3 5h1m3 0h1m1 0h1m3 1h1m9 0h1"/>
</svg>
