<svg xmlns="http://www.w3.org/2000/svg" shape-rendering="crispEdges" viewBox="0 -0.5 19 15">
    <path stroke="#d16060" d="M4 1h1m1 0h1M3 2h1m3 0h1M4 3h1m1 0h1m8 1h1M6 5h1m6 0h1M5 6h1M1 7h1m1 0h3m5 0h2M5 8h1m0 1h1m6 0h1m1 1h1M4 11h1m1 0h1m-4 1h1m3 0h1m-4 1h1m1 0h1"/>
    <path stroke="#fffffe" d="M5 2h1m2 4h1M7 7h3M8 8h1"/>
    <path stroke="#ab3131" d="M4 4h1m1 0h1M5 5h1m2 0h1m5 0h1m1 0h1M6 6h1m2 0h1m2 0h1M2 7h1m7 0h1M6 8h1m2 0h1m2 0h1M5 9h1m2 0h1m5 0h1m1 0h1M4 10h1m1 0h1"/>
    <path stroke="#fff" d="M17 5h1"/>
    <path stroke="#d8f577" d="M7 6h1M6 7h1m0 1h1m-3 4h1"/>
    <path stroke="#bee75f" d="M17 9h1"/>
</svg>
