<svg xmlns="http://www.w3.org/2000/svg" shape-rendering="crispEdges" viewBox="0 -0.5 16 15">
    <path stroke="#f39f27" d="M6 1h1m1 0h1M5 2h1m3 0h1M6 3h1m1 0h1m1 3h1M1 7h1m1 0h1m1 0h1m5 0h1m-2 1h1m-5 3h1m1 0h1m-4 1h1m3 0h1m-4 1h1m1 0h1"/>
    <path stroke="#faddf3" d="M7 2h1m0 4h1m5 0h1M7 7h3M8 8h1"/>
    <path stroke="#b66615" d="M6 4h1m1 0h1M7 5h2M6 6h1m2 0h1m3 0h1M2 7h1m1 0h1m5 0h1m1 0h1M6 8h1m2 0h1m3 0h1M7 9h2m-3 1h1m1 0h1"/>
    <path stroke="#f6bbe8" d="M7 6h1M6 7h1m0 1h1m6 0h1m-8 4h1"/>
</svg>
