<svg xmlns="http://www.w3.org/2000/svg" shape-rendering="crispEdges" viewBox="0 -0.5 27 9">
    <path stroke="#4fb0b3" d="M8 1h1m12 0h1M4 2h1m13 0h2m2 0h1M8 3h1m1 0h2m1 0h1m5 0h1M1 4h1m1 0h1m11 0h2m1 0h1m1 0h1m1 0h1m1 0h1M8 5h1m1 0h2m1 0h1m5 0h1M4 6h1m13 0h2m2 0h1M8 7h1m12 0h1"/>
    <path stroke="#a9e2f7" d="M12 1h1M3 2h1m6 0h1m3 0h1m8 0h1M6 3h1M5 4h3m17 0h1M6 5h1m16 1h1"/>
    <path stroke="#508383" d="M6 2h1m2 0h1m1 0h1m8 0h1M4 3h1m2 0h1M2 4h1m5 0h3m1 0h1m1 0h1m2 0h1m1 0h1m1 0h1m1 0h1M4 5h1m2 0h1M6 6h1m2 0h1m1 0h1m8 0h1"/>
    <path stroke="#34baec" d="M5 3h1M4 4h1m0 1h1M3 6h1m6 0h1m3 0h1m-3 1h1"/>
</svg>
