<svg xmlns="http://www.w3.org/2000/svg" shape-rendering="crispEdges" viewBox="0 -0.5 21 15">
    <path stroke="#fae294" d="M5 1h1m3 4h1m7 0h1M6 6h1M5 7h3m11 0h1M6 8h1m10 1h1"/>
    <path stroke="#2f711a" d="M5 2h1m0 1h1M6 5h2m6 0h1M4 6h1m2 0h1M2 7h1m5 0h2m1 0h1m1 0h1m1 0h1m1 0h1M4 8h1m2 0h1M6 9h2m6 0h1m-9 2h1m-2 1h1"/>
    <path stroke="#7fb717" d="M7 4h1m7 0h1m-4 1h2m2 0h1M3 6h1m4 0h1m4 0h1M1 7h1m8 0h1m1 0h1m1 0h1m1 0h1m1 0h1M3 8h1m4 0h1m4 0h1m-2 1h2m2 0h1M7 10h1m7 0h1"/>
    <path stroke="#f7af5c" d="M5 6h1M4 7h1m0 1h1m3 1h1m-5 4h1"/>
</svg>
