<svg xmlns="http://www.w3.org/2000/svg" shape-rendering="crispEdges" viewBox="0 -0.5 27 11">
    <path stroke="#7fb717" d="M11 1h2m1 0h1m-5 1h1m4 0h1M4 3h1m7 0h1m1 0h1m6 0h1m1 0h1M8 4h1m1 0h1m3 0h2m4 0h1m3 0h1M1 5h1m1 0h1m1 0h1m1 0h1m4 0h1m3 0h4M8 6h1m1 0h1m4 0h1m4 0h1m3 0h1M4 7h1m7 0h1m1 0h1m6 0h1m1 0h1M10 8h1m4 0h1m-5 1h2m1 0h1"/>
    <path stroke="#fffffe" d="M13 1h1M3 3h1m14 1h1m6 1h1"/>
    <path stroke="#2f711a" d="M11 3h1m1 0h1m8 0h1M5 4h1M2 5h1m1 0h1m1 0h1m1 0h2m3 0h1m6 0h1m3 0h1M5 6h1m5 0h1m-1 1h1m1 0h1m8 0h1"/>
    <path stroke="#f7d76b" d="M18 6h1M3 7h1m9 2h1"/>
</svg>
