<svg xmlns="http://www.w3.org/2000/svg" shape-rendering="crispEdges" viewBox="0 -0.5 23 11">
    <path stroke="#612661" d="M11 1h1m0 2h1m5 0h1m1 0h1m-5 1h1M2 5h1m3 0h1m1 0h1m1 0h1m1 0h1m1 0h1m1 1h1m-5 1h1m5 0h1m1 0h1M11 9h1"/>
    <path stroke="#b346b3" d="M12 2h1m6 0h1m-3 1h1M3 4h1m1 0h1m4 0h3M1 5h1m5 0h1m7 0h2M3 6h1m1 0h1m2 0h7m2 1h1m-6 1h1m6 0h1"/>
    <path stroke="#d8f577" d="M4 3h1"/>
    <path stroke="#fff" d="M21 3h1"/>
    <path stroke="#a1d920" d="M4 7h1"/>
    <path stroke="#fbef97" d="M21 7h1"/>
</svg>
