<svg xmlns="http://www.w3.org/2000/svg" shape-rendering="crispEdges" viewBox="0 -0.5 21 13">
    <path stroke="#b92b0e" d="M5 1h1m5 0h1M7 3h1m1 0h1m6 1h1m1 0h1M7 5h1m1 0h1m4 0h1M2 6h1m1 0h1m1 0h1m1 0h1m1 0h1m1 0h1m1 1h1M7 8h1m1 0h1m6 0h1m1 0h1M7 10h1m1 0h1m-5 1h1m5 0h1"/>
    <path stroke="#f07540" d="M5 2h1m1 0h1m1 0h1m1 0h1M6 3h1m3 0h1m6 0h1M7 4h1m1 0h1m5 0h1M1 6h1m1 0h1m1 0h1m1 0h1m1 0h1m1 0h1m1 0h2M7 7h1m1 0h1m5 1h1M6 9h2m1 0h2m6 0h1M5 10h1m5 0h1"/>
    <path stroke="#fffffe" d="M8 2h1"/>
    <path stroke="#fff" d="M19 4h1"/>
    <path stroke="#fbef97" d="M19 8h1"/>
    <path stroke="#d8f577" d="M8 10h1"/>
</svg>
