<svg xmlns="http://www.w3.org/2000/svg" shape-rendering="crispEdges" viewBox="0 -0.5 24 11">
    <path stroke="#faddf3" d="M8 1h1m3 0h1m9 4h1"/>
    <path stroke="#4fb0b3" d="M11 1h1m1 0h1M7 2h1M6 3h1m4 0h1m1 0h1M6 4h1m2 0h1m2 0h1m2 0h2M1 5h1m2 0h1m1 0h3m2 0h1m2 0h1m2 0h1m2 0h2M6 6h1m2 0h1m1 0h3m1 0h2M6 7h1m0 1h1m3 0h1m1 0h1"/>
    <path stroke="#508383" d="M11 2h1m1 0h1m-3 2h1m1 0h1m4 0h1M2 5h2m1 0h1m3 0h2m1 0h2m1 0h2m2 0h1m-2 1h1m-8 1h1m1 0h1m-3 2h1m1 0h1"/>
    <path stroke="#f6bbe8" d="M8 9h1m3 0h1"/>
</svg>
