<svg xmlns="http://www.w3.org/2000/svg" shape-rendering="crispEdges" viewBox="0 -0.5 21 17">
    <path stroke="#fae294" d="M5 1h1m1 2h1m1 4h1m2 0h1M8 8h3m8 0h1M9 9h1m-3 4h1"/>
    <path stroke="#7fb717" d="M4 2h1m1 0h1M3 4h1m3 0h1M3 5h1m3 0h1m7 1h1m1 0h1M5 7h1m8 0h1m3 0h1M1 8h1m1 0h4m5 0h2M5 9h1m8 0h1m3 0h1m-4 1h1m1 0h1M3 11h1m3 0h1m-5 1h1m3 0h1m-4 2h1m1 0h1"/>
    <path stroke="#f7af5c" d="M3 3h1m4 4h1M7 8h1m0 1h1m3 0h1M3 13h1m1 2h1"/>
    <path stroke="#2f711a" d="M4 6h1m1 0h1m2 0h1m6 0h1M7 7h1m2 0h1M2 8h1m8 0h1m2 0h1m3 0h1M7 9h1m2 0h1m-7 1h1m1 0h1m2 0h1m6 0h1"/>
</svg>
