<svg xmlns="http://www.w3.org/2000/svg" shape-rendering="crispEdges" viewBox="0 -0.5 27 17">
    <path stroke="#f07540" d="M8 1h1M8 2h1M8 3h1M7 4h1m1 0h1M6 5h1m14 0h1M4 6h1m13 0h2m2 0h1M8 7h1m2 0h1m1 0h1m5 0h1M1 8h1m1 0h1m1 0h1m1 0h1m7 0h2m1 0h1m1 0h1m1 0h1m1 0h1M8 9h1m2 0h1m1 0h1m5 0h1M4 10h1m13 0h2m2 0h1M6 11h1m14 0h1M7 12h1m1 0h1m-2 1h1m-1 1h1m-1 1h1"/>
    <path stroke="#faddf3" d="M9 1h1m0 4h1M3 6h1m6 0h1m3 0h1m8 0h1m1 2h1m-3 2h1"/>
    <path stroke="#b92b0e" d="M7 6h1m1 0h1m10 0h1M5 7h1M2 8h1m1 0h1m1 0h1m1 0h3m1 0h1m1 0h1m2 0h1m1 0h1m1 0h1m1 0h1M5 9h1m1 1h1m1 0h1m10 0h1"/>
    <path stroke="#f6bbe8" d="M3 10h1m6 0h1m3 0h1m-5 1h1m-2 4h1"/>
</svg>
