<svg xmlns="http://www.w3.org/2000/svg" shape-rendering="crispEdges" viewBox="0 -0.5 13 17">
    <path stroke="#fae294" d="M5 1h1m1 2h1m0 3h1m0 1h1M8 8h3M9 9h1m-3 4h1"/>
    <path stroke="#b99560" d="M4 2h1m1 0h1M3 4h1m3 0h1M3 5h1m3 0h1M3 7h1m1 0h1M1 8h1m1 1h1m1 0h1m-3 2h1m3 0h1m-5 1h1m3 0h1m-4 2h1m1 0h1"/>
    <path stroke="#f7af5c" d="M3 3h1m4 4h1M7 8h1m0 1h1m-1 1h1m-6 3h1m1 2h1"/>
    <path stroke="#8d6d3e" d="M4 6h1m1 0h2m1 0h1M6 7h2m2 0h1M2 8h1m1 0h2m5 0h1M6 9h2m2 0h1m-7 1h1m1 0h2m1 0h1"/>
</svg>
