<svg xmlns="http://www.w3.org/2000/svg" shape-rendering="crispEdges" viewBox="0 -0.5 24 13">
    <path stroke="#612661" d="M13 1h1m-3 2h1m3 0h1M3 5h1m1 0h1m1 0h1m1 0h1m3 0h1m7 0h1M2 6h1m8 0h1m1 0h1m1 0h1m1 0h1m2 0h1M3 7h1m3 0h1m1 0h1m3 0h1m7 0h1M11 9h1m3 0h1m-3 2h1"/>
    <path stroke="#b346b3" d="M12 2h1m1 0h1m-3 2h3m2 0h1m-6 1h1m1 0h1m1 0h1m1 0h1M1 6h1m2 0h1m1 0h1m1 0h1m1 0h1m8 0h1M5 7h1m6 0h1m1 0h1m1 0h1m1 0h1m-7 1h3m2 0h1m-6 2h1m1 0h1"/>
    <path stroke="#faddf3" d="M5 4h1m1 0h1m1 0h1m12 1h1"/>
    <path stroke="#f6bbe8" d="M22 7h1M5 8h1m1 0h1m1 0h1"/>
</svg>
