<svg xmlns="http://www.w3.org/2000/svg" shape-rendering="crispEdges" viewBox="0 -0.5 19 13">
    <path stroke="#b99560" d="M6 1h1M6 2h1M6 3h1m8 0h1m-3 1h1M5 5h2M1 6h1m1 0h1m1 0h2m5 0h1M5 7h2m6 1h1M6 9h1m8 0h1M6 10h1m-1 1h1"/>
    <path stroke="#8d6d3e" d="M5 4h2m2 0h1m4 0h1m1 0h1M7 5h1m2 0h1m1 0h1M2 6h1m1 0h1m6 0h1M7 7h1m2 0h1m1 0h1M5 8h2m2 0h1m4 0h1m1 0h1"/>
    <path stroke="#fff" d="M17 4h1"/>
    <path stroke="#a1d920" d="M8 5h1M7 6h1m0 1h1"/>
    <path stroke="#d8f577" d="M9 5h1M8 6h3M9 7h1"/>
    <path stroke="#bee75f" d="M17 8h1"/>
</svg>
