<svg xmlns="http://www.w3.org/2000/svg" shape-rendering="crispEdges" viewBox="0 -0.5 24 15">
    <path stroke="#4fb0b3" d="M10 1h1m1 0h1M9 2h1m3 0h1m-4 1h1m1 0h1M7 4h1m6 0h1M6 5h1m1 0h1m4 0h1m1 0h1M3 6h1m7 0h2m3 0h1m1 0h1M1 7h1m3 0h1m13 0h1M3 8h1m7 0h2m3 0h1m1 0h1M6 9h1m1 0h1m4 0h1m1 0h1m-9 1h1m6 0h1m-5 1h1m1 0h1m-4 1h1m3 0h1m-4 1h1m1 0h1"/>
    <path stroke="#fffffe" d="M11 2h1M9 6h1m12 0h1M8 7h3m3 0h1M9 8h1"/>
    <path stroke="#508383" d="M10 4h1m1 0h1M9 5h1m1 0h1M5 6h1m1 0h1m2 0h1m10 0h1M2 7h1m1 0h1m1 0h1m4 0h1m5 0h1m2 0h1M5 8h1m1 0h1m2 0h1m10 0h1M9 9h1m1 0h1m-2 1h1m1 0h1"/>
    <path stroke="#8ec4f4" d="M8 6h1M7 7h1m0 1h1m13 0h1m-12 4h1"/>
</svg>
