<svg xmlns="http://www.w3.org/2000/svg" shape-rendering="crispEdges" viewBox="0 -0.5 24 9">
    <path stroke="#4fb0b3" d="M7 1h1M6 2h1m1 0h1m0 1h1m2 0h2m1 0h2M1 4h1m7 0h1m1 0h1m2 0h1m2 0h1m1 0h1M9 5h1m2 0h2m1 0h2M6 6h1m1 0h1M7 7h1"/>
    <path stroke="#508383" d="M5 2h1M3 3h1m2 0h1m1 0h1m9 0h1m2 0h1M2 4h1m4 0h2m1 0h1m1 0h2m1 0h2m3 0h1M3 5h1m2 0h1m1 0h1m9 0h1m2 0h1M5 6h1"/>
    <path stroke="#34baec" d="M4 3h1M3 4h1m0 1h1m17 0h1"/>
    <path stroke="#a9e2f7" d="M5 3h1m4 0h1m11 0h1M4 4h3M5 5h1m4 0h1"/>
</svg>
