<svg xmlns="http://www.w3.org/2000/svg" shape-rendering="crispEdges" viewBox="0 -0.5 23 9">
    <path stroke="#fffffe" d="M8 1h1m10 1h1M9 3h1M8 4h3m10 0h1M9 5h1m9 1h1"/>
    <path stroke="#d16060" d="M17 1h1m-4 1h2m2 0h1M5 3h2m5 0h1m2 0h1M1 4h1m1 0h1m10 0h1m1 0h1m1 0h1m1 0h1M5 5h2m8 0h1m-2 1h2m2 0h1m-2 1h1"/>
    <path stroke="#ab3131" d="M7 2h1m1 0h1m6 0h1M4 3h1m2 0h1m2 0h1M2 4h1m8 0h1m1 0h1m1 0h1m1 0h1m1 0h1M4 5h1m2 0h1m2 0h1M7 6h1m1 0h1m6 0h1"/>
    <path stroke="#8ec4f4" d="M8 3h1M7 4h1m0 1h1M8 7h1"/>
</svg>
