<svg xmlns="http://www.w3.org/2000/svg" shape-rendering="crispEdges" viewBox="0 -0.5 19 15">
    <path stroke="#b346b3" d="M9 1h1m1 0h1M8 2h1m3 0h1M9 3h1m1 0h1M3 6h1m1 0h1m1 0h1m1 0h3m1 0h1M1 7h1m2 0h1m3 0h1m1 0h1m1 0h1m2 0h2M3 8h1m1 0h1m1 0h1m1 0h3m1 0h1m-5 3h1m1 0h1m-4 1h1m3 0h1m-4 1h1m1 0h1"/>
    <path stroke="#d8f577" d="M10 2h1M5 5h1m10 0h1m0 2h1"/>
    <path stroke="#612661" d="M9 4h1m1 0h1m-2 1h1m4 0h1m-2 1h1M2 7h1m3 0h1m7 0h1m-1 1h1m-5 1h1m4 0h1m-7 1h1m1 0h1"/>
    <path stroke="#a1d920" d="M5 9h1m10 0h1m-7 3h1"/>
</svg>
