<svg xmlns="http://www.w3.org/2000/svg" shape-rendering="crispEdges" viewBox="0 -0.5 29 13">
    <path stroke="#ab3131" d="M11 1h1M9 3h1m3 0h1M6 4h1m17 0h1M4 5h1m2 0h1m3 0h1M2 6h2m4 0h2m1 0h1m1 0h1m1 0h1m1 0h1m4 0h1m3 0h1M4 7h1m2 0h1m3 0h1M6 8h1m17 0h1M9 9h1m3 0h1m-3 2h1"/>
    <path stroke="#a9e2f7" d="M8 2h1M6 5h1m13 0h1M5 6h3m19 0h1M6 7h1"/>
    <path stroke="#d16060" d="M10 2h1m1 0h1M7 3h1m2 1h1m1 0h2m3 0h1m5 0h1m1 0h1M9 5h1m2 0h1m1 0h1m1 0h1m1 0h1m3 0h1m3 0h1M1 6h1m8 0h1m8 0h3M9 7h1m2 0h1m1 0h1m1 0h1m1 0h1m3 0h1m3 0h1M10 8h1m1 0h2m3 0h1m5 0h1m1 0h1M7 9h1m2 1h1m1 0h1"/>
    <path stroke="#34baec" d="M5 5h1M4 6h1m0 1h1m14 0h1M8 10h1"/>
</svg>
