<svg xmlns="http://www.w3.org/2000/svg" shape-rendering="crispEdges" viewBox="0 -0.5 17 15">
    <path stroke="#fffffe" d="M3 1h1m3 5h1M6 7h3M7 8h1"/>
    <path stroke="#b66615" d="M3 2h1m0 1h1m0 2h1m1 0h1m4 0h1m1 0h1M5 6h1m2 0h1m1 0h1M2 7h2m5 0h1M5 8h1m2 0h1m1 0h1M5 9h1m1 0h1m4 0h1m1 0h1M4 11h1m-2 1h1"/>
    <path stroke="#f39f27" d="M5 4h1m7 0h1m-3 1h1M3 6h2M1 7h1m2 0h1m5 0h1M3 8h2m6 1h1m-7 1h1m7 0h1"/>
    <path stroke="#fff" d="M15 5h1"/>
    <path stroke="#8ec4f4" d="M6 6h1M5 7h1m0 1h1m-4 5h1"/>
    <path stroke="#bee75f" d="M15 9h1"/>
</svg>
