<svg xmlns="http://www.w3.org/2000/svg" shape-rendering="crispEdges" viewBox="0 -0.5 28 15">
    <path stroke="#a9e2f7" d="M13 1h1m2 1h1m7 3h1m1 2h1m-3 2h1m-9 3h1"/>
    <path stroke="#34baec" d="M10 2h1m-1 10h1m2 1h1"/>
    <path stroke="#508383" d="M13 2h1m-4 1h1m5 0h1m-6 1h1m3 0h1m5 1h1M5 6h1m7 0h1M2 7h1m1 0h1m1 0h1m1 0h1m3 0h2m1 0h2m1 0h1m1 0h1m1 0h1m1 0h1M5 8h1m7 0h1m7 1h1m-11 1h1m3 0h1m-6 1h1m5 0h1m-4 1h1"/>
    <path stroke="#4fb0b3" d="M12 3h1m1 0h1M7 4h1m14 0h1M6 5h1m1 0h1m3 0h1m1 0h1m4 0h2m2 0h1M3 6h1m5 0h1m10 0h1M1 7h1m3 0h1m1 0h1m1 0h3m2 0h1m2 0h1m1 0h1m1 0h1m1 0h1m1 0h1M3 8h1m5 0h1m10 0h1M6 9h1m1 0h1m3 0h1m1 0h1m4 0h2m2 0h1M7 10h1m14 0h1m-11 1h1m1 0h1"/>
</svg>
