<svg xmlns="http://www.w3.org/2000/svg" shape-rendering="crispEdges" viewBox="0 -0.5 21 15">
    <path stroke="#a9e2f7" d="M5 1h1m3 5h1M8 7h3M9 8h1"/>
    <path stroke="#b66615" d="M5 2h1m0 1h1m0 2h1m1 0h1m6 0h1m1 0h1M7 6h1m2 0h1m3 0h1M2 7h1m1 0h1m1 0h1m4 0h2M7 8h1m2 0h1m3 0h1M7 9h1m1 0h1m6 0h1m1 0h1M6 11h1m-2 1h1"/>
    <path stroke="#f39f27" d="M7 4h1m9 0h1m-3 1h1M6 6h1M1 7h1m1 0h1m1 0h1m7 0h2M6 8h1m5 0h1m-2 1h1m3 0h1m-9 1h1m9 0h1"/>
    <path stroke="#fff" d="M19 5h1"/>
    <path stroke="#34baec" d="M8 6h1M7 7h1m0 1h1m-4 5h1"/>
    <path stroke="#fbef97" d="M19 9h1"/>
</svg>
