<svg xmlns="http://www.w3.org/2000/svg" shape-rendering="crispEdges" viewBox="0 -0.5 17 13">
    <path stroke="#fffffe" d="M4 1h1"/>
    <path stroke="#b346b3" d="M3 2h1m1 0h1m7 1h1m-3 1h1M4 5h1m1 0h1m1 0h1M1 6h1m2 0h1m4 0h2M4 7h1m1 0h1m1 0h1m2 1h1m1 1h1M3 10h1m1 0h1"/>
    <path stroke="#612661" d="M3 3h1m1 0h1M4 4h1m7 0h1m1 0h1m-5 1h1M2 6h2m1 0h1m1 0h1m2 1h1M4 8h1m7 0h1m1 0h1M3 9h1m1 0h1"/>
    <path stroke="#fff" d="M15 4h1"/>
    <path stroke="#f6bbe8" d="M15 8h1"/>
    <path stroke="#f7d76b" d="M4 11h1"/>
</svg>
