<svg xmlns="http://www.w3.org/2000/svg" shape-rendering="crispEdges" viewBox="0 -0.5 21 15">
    <path stroke="#d16060" d="M11 1h1m1 0h1m-4 1h1m3 0h1m-4 1h1m1 0h1m-4 3h1m1 0h1m1 0h1M1 7h1m1 0h1m1 0h1m1 0h1m1 0h1m2 0h2m2 0h3m-9 1h1m1 0h1m1 0h1m-4 3h1m1 0h1m-4 1h1m3 0h1m-4 1h1m1 0h1"/>
    <path stroke="#fffffe" d="M12 2h1m5 3h1m0 2h1"/>
    <path stroke="#ab3131" d="M11 4h1m1 0h1m-2 1h1m4 0h1m-7 1h1m3 0h2M2 7h1m1 0h1m1 0h1m1 0h1m2 1h1m3 0h2m-5 1h1m4 0h1m-7 1h1m1 0h1"/>
    <path stroke="#f7d76b" d="M18 9h1m-7 3h1"/>
</svg>
