<svg xmlns="http://www.w3.org/2000/svg" shape-rendering="crispEdges" viewBox="0 -0.5 19 15">
    <path stroke="#7fb717" d="M3 1h1m1 0h1M2 2h1m3 0h1M3 3h1m1 0h1M5 5h1m7 0h1m1 0h1M3 6h2m1 0h1m5 0h1m3 0h1M1 7h1m2 0h1M3 8h2m1 0h1m5 0h1m3 0h1M5 9h1m7 0h1m1 0h1M3 11h1m1 0h1m-4 1h1m3 0h1m-4 1h1m1 0h1"/>
    <path stroke="#fae294" d="M4 2h1M4 4h1m5 0h1M9 6h1M8 7h3m6 0h1M9 8h1"/>
    <path stroke="#2f711a" d="M3 4h1m1 0h1M4 5h1m4 0h1m4 0h1M7 6h1m2 0h1M2 7h1m2 0h2m4 0h2m3 0h1M7 8h1m2 0h1M4 9h1m4 0h1m4 0h1M3 10h1m1 0h1"/>
    <path stroke="#f7af5c" d="M8 6h1M7 7h1m0 1h1m-5 2h1m5 0h1m-7 2h1"/>
</svg>
