<svg xmlns="http://www.w3.org/2000/svg" shape-rendering="crispEdges" viewBox="0 -0.5 22 15">
    <path stroke="#faddf3" d="M11 1h1M3 5h1m4 1h1M7 7h3m10 0h1M8 8h1"/>
    <path stroke="#612661" d="M11 2h1m0 1h1M8 5h1m4 0h1M5 6h2m2 0h1m1 0h1m3 0h1M2 7h1m1 0h1m5 0h1m6 0h1M5 8h2m2 0h1m1 0h1m3 0h1M8 9h1m4 0h1m-2 2h1m-2 1h1"/>
    <path stroke="#b346b3" d="M13 4h1M4 5h1m5 1h1m1 0h1m1 0h1M1 7h1m1 0h1m1 0h1m6 0h2m2 0h1m1 0h2M10 8h1m1 0h1m1 0h1M4 9h1m8 1h1"/>
    <path stroke="#f6bbe8" d="M7 6h1M6 7h1m0 1h1M3 9h1m7 4h1"/>
</svg>
