<svg xmlns="http://www.w3.org/2000/svg" shape-rendering="crispEdges" viewBox="0 -0.5 21 11">
    <path stroke="#d8f577" d="M9 1h1"/>
    <path stroke="#8d6d3e" d="M8 2h1M7 3h1m8 0h1m1 0h1M4 4h1m1 0h1m7 0h1M2 5h1m6 0h1m1 0h1M4 6h1m1 0h1m7 0h1M7 7h1m8 0h1m1 0h1M8 8h1"/>
    <path stroke="#b99560" d="M17 2h1m-3 1h1M5 4h1m1 0h1m1 0h3M1 5h1m1 0h1m3 0h2m3 0h3M5 6h1m1 0h1m1 0h3m3 1h1m1 1h1"/>
    <path stroke="#fff" d="M19 3h1"/>
    <path stroke="#fbef97" d="M19 7h1"/>
    <path stroke="#a1d920" d="M9 9h1"/>
</svg>
