<svg xmlns="http://www.w3.org/2000/svg" shape-rendering="crispEdges" viewBox="0 -0.5 25 13">
    <path stroke="#f07540" d="M8 1h1M8 2h1M8 3h1m2 1h2m6 0h1m1 0h1M3 5h1m1 0h1m4 0h1m2 0h1m4 0h1m3 0h1M1 6h1m2 0h1m10 0h3M3 7h1m1 0h1m4 0h1m2 0h1m4 0h1m3 0h1M11 8h2m6 0h1m1 0h1M8 9h1m-1 1h1m-1 1h1"/>
    <path stroke="#d8f577" d="M5 4h1m2 1h1m7 0h1M7 6h3m13 0h1M8 7h1"/>
    <path stroke="#b92b0e" d="M8 4h1m11 0h1M6 5h1m2 0h1M2 6h1m7 0h1m3 0h1m3 0h1m3 0h1M6 7h1m2 0h1M8 8h1m11 0h1"/>
    <path stroke="#a1d920" d="M7 5h1M6 6h1m0 1h1m8 0h1M5 8h1"/>
</svg>
