<svg xmlns="http://www.w3.org/2000/svg" shape-rendering="crispEdges" viewBox="0 -0.5 19 13">
    <path stroke="#fffffe" d="M5 1h1"/>
    <path stroke="#b99560" d="M4 2h1m1 0h1m8 1h1m-3 1h1M3 5h1m1 0h1m1 0h1m1 0h2M1 6h1m4 0h1m4 0h2M3 7h1m1 0h1m1 0h1m1 0h2m2 1h1m1 1h1M4 10h1m1 0h1"/>
    <path stroke="#8d6d3e" d="M4 3h1m1 0h1M5 4h1m8 0h1m1 0h1m-5 1h1M2 6h1m1 0h1m2 0h2m3 1h1M5 8h1m8 0h1m1 0h1M4 9h1m1 0h1"/>
    <path stroke="#fff" d="M17 4h1"/>
    <path stroke="#fbef97" d="M17 8h1"/>
    <path stroke="#8ec4f4" d="M5 11h1"/>
</svg>
