<svg xmlns="http://www.w3.org/2000/svg" shape-rendering="crispEdges" viewBox="0 -0.5 21 17">
    <path stroke="#b346b3" d="M5 1h1M5 2h1M5 3h1M4 4h1m1 0h1M3 5h1m11 1h1m1 0h1M5 7h1m2 0h1m5 0h1m3 0h1M1 8h1m1 0h1m1 0h2m1 0h1m1 0h4M5 9h1m2 0h1m5 0h1m3 0h1m-4 1h1m1 0h1M3 11h1m0 1h1m1 0h1m-2 1h1m-1 1h1m-1 1h1"/>
    <path stroke="#faddf3" d="M6 1h1m0 4h1m1 1h1m2 1h1m6 1h1"/>
    <path stroke="#612661" d="M4 6h1m1 0h1m9 0h1M2 8h1m1 0h1m2 0h1m1 0h1m4 0h1m3 0h1M4 10h1m1 0h1m9 0h1"/>
    <path stroke="#f6bbe8" d="M12 9h1m-4 1h1m-3 1h1m-2 4h1"/>
</svg>
