<svg xmlns="http://www.w3.org/2000/svg" shape-rendering="crispEdges" viewBox="0 -0.5 19 9">
    <path stroke="#f07540" d="M15 1h1M7 2h1m5 0h1M1 4h1m1 0h1m1 0h2m5 0h1M7 6h1m5 0h1m1 1h1"/>
    <path stroke="#b92b0e" d="M9 2h1m4 0h1m1 0h1M7 3h1m2 0h1m1 0h1M2 4h1m1 0h1m6 0h1M7 5h1m2 0h1m1 0h1M9 6h1m4 0h1m1 0h1"/>
    <path stroke="#fff" d="M17 2h1"/>
    <path stroke="#34baec" d="M8 3h1M7 4h1m0 1h1"/>
    <path stroke="#a9e2f7" d="M9 3h1M8 4h3M9 5h1"/>
    <path stroke="#fbef97" d="M17 6h1"/>
</svg>
