<svg xmlns="http://www.w3.org/2000/svg" shape-rendering="crispEdges" viewBox="0 -0.5 29 11">
    <path stroke="#b346b3" d="M10 1h2m1 0h1M7 2h1m1 0h1m4 0h1M6 3h1m1 0h1m2 0h1m1 0h1m1 0h1m7 0h1m1 0h1M3 4h1m5 0h1m2 0h1m1 0h1m1 0h1m1 0h1m3 0h1m3 0h1M1 5h1m3 0h1m1 0h1m1 0h3m7 0h3M3 6h1m5 0h1m2 0h1m1 0h1m1 0h1m1 0h1m3 0h1m3 0h1M6 7h1m1 0h1m2 0h1m1 0h1m1 0h1m7 0h1m1 0h1M7 8h1m1 0h1m4 0h1m-5 1h2m1 0h1"/>
    <path stroke="#fffffe" d="M12 1h1m7 3h1m-7 1h1m12 0h1"/>
    <path stroke="#612661" d="M10 3h1m1 0h1m11 0h1M5 4h1M2 5h1m1 0h1m1 0h1m1 0h1m8 0h1m4 0h1m3 0h1M5 6h1m4 1h1m1 0h1m11 0h1"/>
    <path stroke="#8ec4f4" d="M20 6h1m-9 3h1"/>
</svg>
