<svg xmlns="http://www.w3.org/2000/svg" shape-rendering="crispEdges" viewBox="0 -0.5 28 11">
    <path stroke="#fffffe" d="M8 1h1M5 4h1m13 0h1M4 5h3m19 0h1M5 6h1"/>
    <path stroke="#b66615" d="M9 1h1M5 3h1m4 0h1m12 0h1M3 4h1m2 0h1M2 5h1m4 0h1m1 0h1m2 0h2m1 0h2m4 0h1m3 0h1M3 6h1m2 0h1M5 7h1m4 0h1m12 0h1M9 9h1"/>
    <path stroke="#f39f27" d="M7 2h1m2 0h1M6 3h1m15 0h1m1 0h1M9 4h1m11 0h1m3 0h1M1 5h1m6 0h1m1 0h2m2 0h1m2 0h4M9 6h1m11 0h1m3 0h1M6 7h1m15 0h1m1 0h1M7 8h1m2 0h1"/>
    <path stroke="#f7d76b" d="M4 4h1M3 5h1m0 1h1m14 0h1M8 9h1"/>
</svg>
