<svg xmlns="http://www.w3.org/2000/svg" shape-rendering="crispEdges" viewBox="0 -0.5 29 9">
    <path stroke="#7fb717" d="M23 1h1m-4 1h2m2 0h1M12 3h2m1 0h2m4 0h1M1 4h1m1 0h1m1 0h1m1 0h1m1 0h1m1 0h1m2 0h1m2 0h1m2 0h1m1 0h1m1 0h1m1 0h1M12 5h2m1 0h2m4 0h1m-2 1h2m2 0h1m-2 1h1"/>
    <path stroke="#2f711a" d="M14 2h1m7 0h1m-5 1h1M2 4h1m1 0h1m1 0h1m1 0h1m1 0h1m1 0h2m1 0h2m2 0h1m1 0h1m1 0h1m1 0h1m-8 1h1m-5 1h1m7 0h1"/>
    <path stroke="#a9e2f7" d="M15 2h1m9 0h1m1 2h1m-3 2h1"/>
    <path stroke="#34baec" d="M15 6h1"/>
</svg>
