<svg xmlns="http://www.w3.org/2000/svg" shape-rendering="crispEdges" viewBox="0 -0.5 27 9">
    <path stroke="#7fb717" d="M14 1h1m8 0h1m-9 1h1m5 0h1M11 3h2m3 0h1m1 0h1M1 4h1m2 0h1m1 0h1m1 0h1m1 0h2m7 0h2M5 5h1m5 0h2m3 0h1m1 0h1m-4 1h1m5 0h1m-8 1h1m8 0h1"/>
    <path stroke="#faddf3" d="M5 2h1m1 0h1m1 0h1m3 0h1m0 2h1"/>
    <path stroke="#2f711a" d="M12 2h1m9 0h1m1 0h1M3 3h1m1 0h1m1 0h1m1 0h1m10 0h1M2 4h1m14 0h1M3 5h1m3 0h1m1 0h1m10 0h1m-9 1h1m9 0h1m1 0h1"/>
    <path stroke="#fff" d="M25 2h1"/>
    <path stroke="#f6bbe8" d="M5 6h1m1 0h1m1 0h1m3 0h1m11 0h1"/>
</svg>
