<svg xmlns="http://www.w3.org/2000/svg" shape-rendering="crispEdges" viewBox="0 -0.5 29 9">
    <path stroke="#fffffe" d="M11 1h1m13 1h1m1 2h1m-3 2h1"/>
    <path stroke="#f07540" d="M12 1h1m10 0h1m-4 1h2m2 0h1M12 3h2m1 0h2m4 0h1M1 4h1m1 0h1m1 0h1m1 0h1m1 0h1m1 0h1m2 0h1m2 0h1m2 0h1m1 0h1m1 0h1m1 0h1M12 5h2m1 0h2m4 0h1m-2 1h2m2 0h1M12 7h1m10 0h1"/>
    <path stroke="#b92b0e" d="M13 2h1m8 0h1m-5 1h1M2 4h1m1 0h1m1 0h1m1 0h1m1 0h1m1 0h2m1 0h2m2 0h1m1 0h1m1 0h1m1 0h1m-8 1h1m-6 1h1m8 0h1"/>
    <path stroke="#8ec4f4" d="M11 7h1"/>
</svg>
