<svg xmlns="http://www.w3.org/2000/svg" shape-rendering="crispEdges" viewBox="0 -0.5 18 13">
    <path stroke="#b66615" d="M4 1h1m5 0h1M6 3h1m1 0h1m0 1h1M5 5h3m2 0h1M2 6h1m1 0h1m1 0h1m4 0h3M5 7h1m1 0h1m2 0h1M6 8h1m1 0h2m-4 2h1m1 0h1m-5 1h1m5 0h1"/>
    <path stroke="#f39f27" d="M4 2h1m1 0h1m1 0h1m1 0h1M5 3h1m3 0h1M4 4h1m1 0h1m1 0h1M1 6h1m1 0h1m1 0h1m8 0h2M6 7h1M4 8h1m0 1h2m1 0h2m-6 1h1m5 0h1"/>
    <path stroke="#d8f577" d="M7 2h1m1 3h1M8 6h3m5 0h1M9 7h1"/>
    <path stroke="#a1d920" d="M8 5h1M7 6h1m0 1h1m-2 3h1"/>
</svg>
