<svg xmlns="http://www.w3.org/2000/svg" shape-rendering="crispEdges" viewBox="0 -0.5 29 9">
    <path stroke="#5787e7" d="M14 1h1m8 0h1M13 2h1m1 0h1m4 0h2m2 0h1M10 3h1m1 0h1m3 0h1m1 0h1m2 0h1M1 4h1m2 0h1m1 0h1m1 0h1m1 0h2m8 0h1m1 0h1m1 0h1m1 0h1M5 5h1m4 0h1m1 0h1m3 0h1m1 0h1m2 0h1m-9 1h1m1 0h1m4 0h2m2 0h1M14 7h1m8 0h1"/>
    <path stroke="#faddf3" d="M5 2h1m1 0h1m1 0h1m15 0h1M14 4h1m12 0h1m-3 2h1"/>
    <path stroke="#2b5397" d="M22 2h1M3 3h1m1 0h1m1 0h1m1 0h1m1 0h1M2 4h1m14 0h1m1 0h1m1 0h1m1 0h1m1 0h1M3 5h1m3 0h1m1 0h1m1 0h1m10 1h1"/>
    <path stroke="#f6bbe8" d="M5 6h1m1 0h1m1 0h1"/>
</svg>
