<svg xmlns="http://www.w3.org/2000/svg" shape-rendering="crispEdges" viewBox="0 -0.5 19 9">
    <path stroke="#f39f27" d="M13 1h1m-4 1h2m2 0h1M3 3h1m1 0h2m4 0h1M1 4h1m2 0h1m7 0h1m1 0h1m1 0h1M3 5h1m1 0h2m4 0h1m-2 1h2m2 0h1m-2 1h1"/>
    <path stroke="#b66615" d="M5 2h1m1 0h1m1 0h1m2 0h1M7 3h1m2 0h1M2 4h2m1 0h1m5 0h1m1 0h1m1 0h1M7 5h1m2 0h1M5 6h1m1 0h1m1 0h1m2 0h1"/>
    <path stroke="#fffffe" d="M6 2h1m8 0h1M9 3h1M8 4h3m6 0h1M9 5h1m5 1h1"/>
    <path stroke="#f7d76b" d="M8 3h1M7 4h1m0 1h1M6 6h1"/>
</svg>
