<svg xmlns="http://www.w3.org/2000/svg" shape-rendering="crispEdges" viewBox="0 -0.5 19 17">
    <path stroke="#a9e2f7" d="M8 1h1m1 2h1M9 7h1M8 8h3M9 9h1m0 4h1"/>
    <path stroke="#b346b3" d="M7 2h1m1 0h1M6 4h1m3 0h1M6 5h1m3 0h1m4 0h1m-3 1h1M5 7h1M1 8h1m1 0h1m1 0h2m5 0h1M5 9h1m7 1h1m-8 1h1m3 0h1m4 0h1M6 12h1m3 0h1m-4 2h1m1 0h1"/>
    <path stroke="#34baec" d="M6 3h1m1 4h1M7 8h1m0 1h1m-3 4h1m1 2h1"/>
    <path stroke="#612661" d="M5 6h1m1 0h1m1 0h1m4 0h1m1 0h1M7 7h1m2 0h1m1 0h1M2 8h1m1 0h1m6 0h1M7 9h1m2 0h1m1 0h1m-8 1h1m1 0h1m1 0h1m4 0h1m1 0h1"/>
    <path stroke="#fff" d="M17 6h1"/>
    <path stroke="#bee75f" d="M17 10h1"/>
</svg>
