<svg xmlns="http://www.w3.org/2000/svg" shape-rendering="crispEdges" viewBox="0 -0.5 23 11">
    <path stroke="#a9e2f7" d="M13 1h1M7 3h1m1 0h1m10 0h1M5 4h1M4 5h3m7 0h1m6 0h1M5 6h1"/>
    <path stroke="#2f711a" d="M12 2h1M5 3h1m5 0h1m7 0h1M3 4h1m2 0h2m1 0h1m8 0h1M2 5h1m4 0h1m9 0h1M3 6h1m2 0h2m1 0h1m8 0h1M5 7h1m5 0h1m7 0h1m-8 1h1"/>
    <path stroke="#7fb717" d="M14 2h1m-2 1h1m1 0h1m-5 1h2m3 0h1M1 5h1m6 0h1m1 0h2m7 0h2M11 6h2m3 0h1m-4 1h1m1 0h1m-2 1h1"/>
    <path stroke="#34baec" d="M4 4h1M3 5h1m0 1h1m2 1h1m1 0h1m10 0h1m-8 2h1"/>
</svg>
