<svg xmlns="http://www.w3.org/2000/svg" shape-rendering="crispEdges" viewBox="0 -0.5 26 11">
    <path stroke="#fffffe" d="M8 1h1"/>
    <path stroke="#f39f27" d="M7 2h1m14 0h1M6 3h1m9 0h1m1 0h1m1 0h1M6 4h1m2 0h1m4 0h1m4 0h1M1 5h1m2 0h1m1 0h3m1 0h2m2 0h1m2 0h3M6 6h1m2 0h1m4 0h1m4 0h1M6 7h1m9 0h1m1 0h1m1 0h1M7 8h1m14 0h1"/>
    <path stroke="#b66615" d="M15 3h1m1 0h1m3 0h1m1 0h1M2 5h2m1 0h1m3 0h1m2 0h2m1 0h2m-2 2h1m1 0h1m3 0h1m1 0h1"/>
    <path stroke="#fff" d="M24 3h1"/>
    <path stroke="#fbef97" d="M24 7h1"/>
    <path stroke="#8ec4f4" d="M8 9h1"/>
</svg>
