<svg xmlns="http://www.w3.org/2000/svg" shape-rendering="crispEdges" viewBox="0 -0.5 27 9">
    <path stroke="#d16060" d="M21 1h1M7 2h1m10 0h2m2 0h1M5 3h1m2 0h1m1 0h1m3 0h1m4 0h1M1 4h1m2 0h1m1 0h4m2 0h2m2 0h1m1 0h1m1 0h1m1 0h1m1 0h1M5 5h1m2 0h1m1 0h1m3 0h1m4 0h1M7 6h1m10 0h2m2 0h1m-2 1h1"/>
    <path stroke="#ab3131" d="M4 2h1m15 0h1M7 3h1m3 0h1m3 0h1M2 4h2m1 0h1m11 0h1m1 0h1m1 0h1m1 0h1M7 5h1m3 0h1m3 0h1M4 6h1m15 0h1"/>
    <path stroke="#faddf3" d="M6 2h1m16 0h1M9 3h1m15 1h1M9 5h1m13 1h1"/>
    <path stroke="#f6bbe8" d="M6 6h1"/>
</svg>
