<svg xmlns="http://www.w3.org/2000/svg" shape-rendering="crispEdges" viewBox="0 -0.5 29 9">
    <path stroke="#b346b3" d="M23 1h1M10 2h1m2 0h1m3 0h1m2 0h2m2 0h1M12 3h1m1 0h1m1 0h1m1 0h1m2 0h1M1 4h1m2 0h1m1 0h1m1 0h1m1 0h1m9 0h1m1 0h1m1 0h1m1 0h1M5 5h1m6 0h1m1 0h1m1 0h1m1 0h1m2 0h1M10 6h1m2 0h1m3 0h1m2 0h2m2 0h1m-2 1h1"/>
    <path stroke="#faddf3" d="M5 2h1m1 0h1m1 0h1m15 0h1m1 2h1m-3 2h1"/>
    <path stroke="#612661" d="M22 2h1M3 3h1m1 0h1m1 0h1m1 0h1m1 0h1M2 4h1m8 0h1m1 0h1m1 0h1m1 0h1m1 0h1m1 0h1m1 0h1m1 0h1M3 5h1m3 0h1m1 0h1m1 0h1m10 1h1"/>
    <path stroke="#f6bbe8" d="M5 6h1m1 0h1m1 0h1"/>
</svg>
