<svg xmlns="http://www.w3.org/2000/svg" shape-rendering="crispEdges" viewBox="0 -0.5 29 15">
    <path stroke="#b99560" d="M11 1h1m1 0h1m-4 1h1m3 0h1m-4 1h1m1 0h1M7 4h1M6 5h1m6 0h1m3 0h1m5 0h1m1 0h1M9 6h1m2 0h1m1 0h1m1 0h1m1 0h1m3 0h1m3 0h1M1 7h1m2 0h1m5 0h1m8 0h3M9 8h1m2 0h1m1 0h1m1 0h1m1 0h1m3 0h1m3 0h1M6 9h1m6 0h1m3 0h1m5 0h1m1 0h1M7 10h1m3 1h1m1 0h1m-4 1h1m3 0h1m-4 1h1m1 0h1"/>
    <path stroke="#fffffe" d="M12 2h1M8 3h1M7 6h1m12 0h1M6 7h3m18 0h1M7 8h1"/>
    <path stroke="#8d6d3e" d="M11 4h1m1 0h1M7 5h1m4 0h1m11 0h1M5 6h1m2 0h1M2 7h2m5 0h1m1 0h1m1 0h1m1 0h1m1 0h1m4 0h1m3 0h1M5 8h1m2 0h1M7 9h1m4 0h1m11 0h1m-14 1h1m1 0h1"/>
    <path stroke="#fac7a6" d="M6 6h1M5 7h1m0 1h1m13 0h1M8 11h1m3 1h1"/>
</svg>
