<svg xmlns="http://www.w3.org/2000/svg" shape-rendering="crispEdges" viewBox="0 -0.5 12 15">
    <path stroke="#f39f27" d="M2 1h1m1 0h1M1 2h1m3 0h1M2 3h1m1 0h1M2 6h2M1 7h1m1 0h1m1 0h1M2 8h2m-2 3h1m1 0h1m-4 1h1m3 0h1m-4 1h1m1 0h1"/>
    <path stroke="#fffffe" d="M3 2h1m2 3h1m1 1h1M7 7h3M8 8h1"/>
    <path stroke="#b66615" d="M2 4h1m1 0h1M3 5h1m1 0h1m2 0h1M4 6h1m1 0h1m2 0h1M2 7h1m7 0h1M4 8h1m1 0h1m2 0h1M3 9h1m1 0h1m2 0h1m-7 1h1m1 0h1"/>
    <path stroke="#f7d76b" d="M7 6h1M6 7h1m0 1h1M6 9h1m-4 3h1"/>
</svg>
