<svg xmlns="http://www.w3.org/2000/svg" shape-rendering="crispEdges" viewBox="0 -0.5 23 11">
    <path stroke="#f07540" d="M8 1h2m1 0h1M7 2h1m4 0h1M9 3h1m1 0h1m5 0h1m1 0h1M8 4h1m1 0h1m1 0h1m3 0h1m3 0h1M1 5h1m1 0h1m9 0h3m-6 1h1m1 0h1m3 0h1m3 0h1M9 7h1m1 0h1m5 0h1m1 0h1M7 8h1m4 0h1M8 9h2m1 0h1"/>
    <path stroke="#fffffe" d="M10 1h1M6 4h1m7 0h1M5 5h3m13 0h1M6 6h1"/>
    <path stroke="#b92b0e" d="M6 3h1m1 0h1m1 0h1m7 0h1M4 4h1m2 0h1M2 5h1m5 0h1m1 0h1m1 0h1m3 0h1m3 0h1M4 6h1m2 0h1M6 7h1m1 0h1m1 0h1m7 0h1"/>
    <path stroke="#d8f577" d="M5 4h1M4 5h1m0 1h1m8 0h1m-5 3h1"/>
</svg>
