<svg xmlns="http://www.w3.org/2000/svg" shape-rendering="crispEdges" viewBox="0 -0.5 27 15">
    <path stroke="#fffffe" d="M8 1h1m2 1h1M3 5h1m3 1h1m10 0h1M6 7h3m16 0h1M7 8h1m3 4h1"/>
    <path stroke="#d8f577" d="M5 2h1m0 4h1M5 7h1m0 1h1m11 0h1M3 9h1m1 3h1m2 1h1"/>
    <path stroke="#b92b0e" d="M8 2h1M5 3h1m5 0h1M6 4h1m3 0h1M7 5h1m14 0h1M5 6h1m2 0h1m6 0h1M2 7h1m1 0h1m4 0h1m3 0h1m6 0h1m3 0h1M5 8h1m2 0h1m2 0h1M7 9h1m14 0h1M6 10h1m3 0h1m-6 1h1m5 0h1m-4 1h1"/>
    <path stroke="#f07540" d="M7 3h1m1 0h1M4 5h1m4 0h1m11 0h1m1 0h1M14 6h1m5 0h1m3 0h1M1 7h1m1 0h1m8 0h1m3 0h4M10 8h1m9 0h1m3 0h1M4 9h1m4 0h1m11 0h1m1 0h1M7 11h1m1 0h1"/>
</svg>
