<svg xmlns="http://www.w3.org/2000/svg" shape-rendering="crispEdges" viewBox="0 -0.5 16 15">
    <path stroke="#fae294" d="M5 1h1m2 1h1m0 3h1M8 6h1m5 0h1M7 7h3M8 8h1m-1 4h1"/>
    <path stroke="#f7af5c" d="M2 2h1m4 4h1M6 7h1m0 1h1m6 0h1M9 9h1m-8 3h1m2 1h1"/>
    <path stroke="#2f711a" d="M5 2h1M2 3h1m5 0h1M3 4h1m3 0h1m0 1h1M5 6h2m2 0h1m3 0h1M2 7h1m1 0h1m5 0h1m1 0h1M5 8h2m2 0h1m3 0h1M8 9h1m-6 1h1m3 0h1m-6 1h1m5 0h1m-4 1h1"/>
    <path stroke="#7fb717" d="M4 3h1m1 0h1M4 5h1m1 0h1M1 7h1m1 0h1m1 0h1m5 0h1M4 9h1m1 0h1m-3 2h1m1 0h1"/>
</svg>
