<svg xmlns="http://www.w3.org/2000/svg" shape-rendering="crispEdges" viewBox="0 -0.5 27 11">
    <path stroke="#a1d920" d="M7 1h1M7 4h1M6 5h1m0 1h1m10 0h1M3 7h1m3 2h1"/>
    <path stroke="#d8f577" d="M11 1h1M3 3h1m4 1h1m9 0h1M7 5h3m15 0h1M8 6h1m2 3h1"/>
    <path stroke="#d16060" d="M7 2h1m3 0h1M4 3h1m16 0h1m1 0h1m-4 1h1m3 0h1M1 5h1m1 0h1m1 0h1m7 0h1m2 0h4m0 1h1m3 0h1M4 7h1m16 0h1m1 0h1M7 8h1m3 0h1"/>
    <path stroke="#ab3131" d="M8 3h1m1 0h1m11 0h1M5 4h2m2 0h1M2 5h1m1 0h1m5 0h3m1 0h2m4 0h1m3 0h1M5 6h2m2 0h1M8 7h1m1 0h1m11 0h1"/>
</svg>
