<svg xmlns="http://www.w3.org/2000/svg" shape-rendering="crispEdges" viewBox="0 -0.5 23 9">
    <path stroke="#b99560" d="M7 1h1m9 0h1m-4 1h2m2 0h1M5 3h1m3 0h1m5 0h1M1 4h1m1 0h1m3 0h1m1 0h1m1 0h1m2 0h1m1 0h1m1 0h1m1 0h1M5 5h1m3 0h1m5 0h1m-2 1h2m2 0h1M7 7h1m9 0h1"/>
    <path stroke="#d8f577" d="M11 1h1m7 1h1m1 2h1m-3 2h1"/>
    <path stroke="#8d6d3e" d="M8 2h1m1 0h1m5 0h1M4 3h1m1 0h1M2 4h1m5 0h1m1 0h1m1 0h2m1 0h1m1 0h1m1 0h1M4 5h1m1 0h1m1 1h1m1 0h1m5 0h1"/>
    <path stroke="#a1d920" d="M11 7h1"/>
</svg>
