<svg xmlns="http://www.w3.org/2000/svg" shape-rendering="crispEdges" viewBox="0 -0.5 21 11">
    <path stroke="#d16060" d="M7 1h2m1 0h1M6 2h1m4 0h1M8 3h1m1 0h1m4 0h1m1 0h1M6 4h1m1 0h1m2 0h1m2 0h1m3 0h1M1 5h1m1 0h1m1 0h2m1 0h1m1 0h4M6 6h1m1 0h1m2 0h1m2 0h1m3 0h1M8 7h1m1 0h1m4 0h1m1 0h1M6 8h1m4 0h1M7 9h2m1 0h1"/>
    <path stroke="#faddf3" d="M9 1h1m2 3h1m6 1h1"/>
    <path stroke="#ab3131" d="M7 3h1m1 0h1m6 0h1M2 5h1m1 0h1m2 0h1m1 0h1m4 0h1m3 0h1M7 7h1m1 0h1m6 0h1"/>
    <path stroke="#f6bbe8" d="M12 6h1M9 9h1"/>
</svg>
