<svg xmlns="http://www.w3.org/2000/svg" shape-rendering="crispEdges" viewBox="0 -0.5 24 13">
    <path stroke="#612661" d="M7 1h1M5 3h1m3 0h1m9 1h1M7 5h1M3 6h1m1 0h1m1 0h2m1 0h1m1 0h1m4 0h1m3 0h1M7 7h1m11 1h1M5 9h1m3 0h1m-3 2h1"/>
    <path stroke="#b346b3" d="M6 2h1m1 0h1M6 4h1m1 0h1m9 0h1m1 0h1M4 5h1m1 0h1m2 0h1m3 0h1m3 0h1m3 0h1M1 6h2m11 0h3M4 7h1m1 0h1m4 0h1m5 0h1m3 0h1M6 8h1m1 0h1m9 0h1m1 0h1M6 10h1m1 0h1"/>
    <path stroke="#faddf3" d="M15 5h1m6 1h1"/>
    <path stroke="#f6bbe8" d="M15 7h1"/>
</svg>
