<svg xmlns="http://www.w3.org/2000/svg" shape-rendering="crispEdges" viewBox="0 -0.5 27 9">
    <path stroke="#4fb0b3" d="M7 1h1m15 0h1M6 2h1m1 0h1m4 0h1m7 0h1M3 3h1m5 0h1m2 0h5M1 4h1m3 0h1m1 0h1m1 0h1m1 0h1m2 0h1m2 0h1m1 0h2M3 5h1m5 0h1m2 0h5M6 6h1m1 0h1m4 0h1m7 0h1M7 7h1m15 0h1"/>
    <path stroke="#508383" d="M14 1h1m0 1h1m6 0h1m1 0h1M5 3h1m12 0h1m1 0h1M2 4h1m1 0h1m1 0h1m1 0h1m1 0h1m1 0h2m1 0h2M5 5h1m12 0h1m1 0h1m-6 1h1m6 0h1m1 0h1M14 7h1"/>
    <path stroke="#fff" d="M25 2h1"/>
    <path stroke="#bee75f" d="M25 6h1"/>
</svg>
