<svg xmlns="http://www.w3.org/2000/svg" shape-rendering="crispEdges" viewBox="0 -0.5 29 13">
    <path stroke="#4fb0b3" d="M9 1h1M9 2h1M9 3h1m13 1h1m1 0h1M12 5h2m1 0h2m5 0h1m3 0h1M1 6h1m2 0h1m6 0h1m2 0h1m2 0h1m1 0h3M5 7h1m6 0h2m1 0h2m5 0h1m3 0h1m-4 1h1m1 0h1M9 9h1m-1 1h1m-1 1h1"/>
    <path stroke="#fffffe" d="M5 4h1m1 0h1m0 1h1m11 0h1M7 6h3m17 0h1M8 7h1"/>
    <path stroke="#508383" d="M8 4h2m14 0h1M3 5h1m1 0h2m2 0h1m8 0h1M2 6h1m7 0h1m1 0h2m1 0h2m5 0h1m3 0h1M3 7h1m2 0h1m2 0h1m8 0h1M8 8h2m14 0h1"/>
    <path stroke="#8ec4f4" d="M7 5h1M6 6h1m0 1h1m12 0h1M5 8h1m1 0h1"/>
</svg>
