<svg xmlns="http://www.w3.org/2000/svg" shape-rendering="crispEdges" viewBox="0 -0.5 23 9">
    <path stroke="#5787e7" d="M17 1h1M9 2h1m4 0h2m2 0h1M8 3h1m1 0h1m4 0h1M1 4h1m1 0h1m10 0h1m1 0h1m1 0h1m1 0h1M10 5h1m1 0h1m2 0h1m-5 1h1m2 0h2m2 0h1m-2 1h1"/>
    <path stroke="#2b5397" d="M6 2h1m9 0h1M4 3h1m2 0h1M2 4h1m5 0h1m1 0h1m1 0h2m1 0h1m1 0h1m1 0h1M4 5h1m2 0h1M6 6h1m9 0h1"/>
    <path stroke="#fae294" d="M19 2h1M6 3h1M5 4h3m13 0h1M6 5h1m12 1h1"/>
    <path stroke="#f7af5c" d="M5 3h1M4 4h1m0 1h1"/>
</svg>
