<svg xmlns="http://www.w3.org/2000/svg" shape-rendering="crispEdges" viewBox="0 -0.5 19 11">
    <path stroke="#d8f577" d="M3 1h1M3 9h1"/>
    <path stroke="#fffffe" d="M7 1h1M7 9h1"/>
    <path stroke="#4fb0b3" d="M3 2h1m3 0h1m7 0h1m-3 1h1M5 4h1m1 0h1m2 0h1M1 5h1m1 0h4m4 0h2M5 6h1m1 0h1m2 0h1m2 1h1M3 8h1m3 0h1m7 0h1"/>
    <path stroke="#508383" d="M4 3h1m1 0h1m7 0h1m1 0h1M8 4h2m2 0h1M2 5h1m5 1h2m2 0h1M4 7h1m1 0h1m7 0h1m1 0h1"/>
    <path stroke="#fff" d="M17 3h1"/>
    <path stroke="#f6bbe8" d="M17 7h1"/>
</svg>
