<svg xmlns="http://www.w3.org/2000/svg" shape-rendering="crispEdges" viewBox="0 -0.5 25 13">
    <path stroke="#faddf3" d="M13 1h1M5 4h1"/>
    <path stroke="#f39f27" d="M12 2h1m1 0h1m6 1h1m-3 1h1M5 5h1m7 0h1M1 6h1m1 0h2m1 0h1m1 0h3m2 0h1m2 0h3M5 7h1m7 0h1m5 1h1m1 1h1m-10 1h1m1 0h1"/>
    <path stroke="#b66615" d="M12 3h1m1 0h1m-2 1h1m6 0h1m1 0h1M7 5h1m10 0h1M2 6h1m2 0h1m5 0h2m1 0h2M7 7h1m10 0h1m-6 1h1m6 0h1m1 0h1M12 9h1m1 0h1"/>
    <path stroke="#fff" d="M23 4h1"/>
    <path stroke="#f6bbe8" d="M5 8h1m17 0h1m-11 3h1"/>
</svg>
