<svg xmlns="http://www.w3.org/2000/svg" shape-rendering="crispEdges" viewBox="0 -0.5 18 17">
    <path stroke="#fffffe" d="M8 1h1m1 2h1m4 3h1m0 2h1m-7 5h1"/>
    <path stroke="#5787e7" d="M7 2h1m1 0h1M6 4h1m3 0h1M6 5h1m3 0h1m-1 1h1M4 7h1m1 0h1m1 0h2m1 0h1M1 8h2m5 0h1m5 0h2M4 9h1m1 0h1m1 0h1m2 0h1m0 1h1m-7 1h1m3 0h1m-5 1h1m3 0h1m-4 2h1m1 0h1"/>
    <path stroke="#f7d76b" d="M6 3h1m8 7h1M6 13h1m1 2h1"/>
    <path stroke="#2b5397" d="M7 6h1m1 0h1m4 0h1m-2 1h1M3 8h1m1 0h1m1 0h1m1 0h1m1 0h1m1 0h1m-1 1h1m-7 1h1m1 0h1m4 0h1"/>
</svg>
