<svg xmlns="http://www.w3.org/2000/svg" shape-rendering="crispEdges" viewBox="0 -0.5 25 7">
    <path stroke="#d8f577" d="M5 1h1m4 1h1m5 0h1M9 3h3m11 0h1M10 4h1"/>
    <path stroke="#8d6d3e" d="M10 1h1m9 0h1M8 2h1m2 0h1M2 3h1m3 0h1m5 0h1m1 0h1m3 0h1m3 0h1M8 4h1m2 0h1m-2 1h1m9 0h1"/>
    <path stroke="#b99560" d="M11 1h2m6 0h1m1 0h1M3 2h1m1 0h1m1 0h1m5 0h1m4 0h1m3 0h1M1 3h1m2 0h1m10 0h3M3 4h1m1 0h1m1 0h1m5 0h1m4 0h1m3 0h1M11 5h2m6 0h1m1 0h1"/>
    <path stroke="#a1d920" d="M9 2h1M8 3h1m0 1h1m6 0h1M5 5h1"/>
</svg>
