<svg xmlns="http://www.w3.org/2000/svg" shape-rendering="crispEdges" viewBox="0 -0.5 29 17">
    <path stroke="#f07540" d="M12 1h1m-1 1h1m-1 1h1m-2 1h1m1 0h1M7 5h1m2 0h1m12 0h1M6 6h1m1 0h1m8 0h1m2 0h2m2 0h1M3 7h1m5 0h1m2 0h1m1 0h1m1 0h1m1 0h1m2 0h1M1 8h1m3 0h1m1 0h1m1 0h2m9 0h1m1 0h1m1 0h1m1 0h1M3 9h1m5 0h1m2 0h1m1 0h1m1 0h1m1 0h1m2 0h1M6 10h1m1 0h1m8 0h1m2 0h2m2 0h1M7 11h1m2 0h1m12 0h1m-13 1h1m1 0h1m-2 1h1m-1 1h1m-1 1h1"/>
    <path stroke="#faddf3" d="M13 1h1m0 4h1m10 1h1m1 2h1m-3 2h1"/>
    <path stroke="#b92b0e" d="M11 6h1m1 0h1m8 0h1M5 7h1M2 8h1m1 0h1m1 0h1m1 0h1m2 0h1m1 0h1m1 0h1m1 0h1m1 0h1m1 0h1m1 0h1m1 0h1M5 9h1m5 1h1m1 0h1m8 0h1"/>
    <path stroke="#f6bbe8" d="M14 11h1m-2 4h1"/>
</svg>
