<svg xmlns="http://www.w3.org/2000/svg" shape-rendering="crispEdges" viewBox="0 -0.5 25 11">
    <path stroke="#7fb717" d="M14 1h2m1 0h1m-5 1h1m4 0h1m2 0h1m-7 1h1m1 0h1m1 0h1M5 4h1m7 0h1m4 0h1M1 5h1m1 0h2m1 0h1m1 0h3m2 0h1m2 0h3M5 6h1m7 0h1m4 0h1m-4 1h1m1 0h1m1 0h1m-7 1h1m4 0h1m2 0h1m-8 1h2m1 0h1"/>
    <path stroke="#fffffe" d="M16 1h1M5 3h1"/>
    <path stroke="#2f711a" d="M14 3h1m1 0h1m3 0h1m1 0h1M7 4h1M2 5h1m2 0h1m5 0h2m1 0h2M7 6h1m6 1h1m1 0h1m3 0h1m1 0h1"/>
    <path stroke="#fff" d="M23 3h1"/>
    <path stroke="#f7d76b" d="M5 7h1m10 2h1"/>
    <path stroke="#bee75f" d="M23 7h1"/>
</svg>
