<svg xmlns="http://www.w3.org/2000/svg" shape-rendering="crispEdges" viewBox="0 -0.5 19 11">
    <path stroke="#f07540" d="M5 1h1m1 0h1m5 1h1M5 3h1m1 0h1m2 0h2m2 0h1M3 4h2m1 0h1m1 0h1m2 0h1M1 5h1m2 0h2m4 0h1m1 0h1m1 0h1m1 0h1M3 6h6m2 0h1m-2 1h2m2 0h1M5 8h1m1 0h1m5 0h1"/>
    <path stroke="#fffffe" d="M6 1h1m8 2h1M7 5h1m9 0h1m-3 2h1"/>
    <path stroke="#b92b0e" d="M5 2h1m1 0h1m4 1h1M5 4h1m1 0h1M2 5h1m3 0h1m1 0h2m1 0h1m1 0h1m1 0h1M5 7h1m1 0h1m4 0h1M5 9h1m1 0h1"/>
    <path stroke="#d8f577" d="M6 9h1"/>
</svg>
