<svg xmlns="http://www.w3.org/2000/svg" shape-rendering="crispEdges" viewBox="0 -0.5 17 15">
    <path stroke="#b346b3" d="M5 1h1m1 0h1M4 2h1m3 0h1M5 3h1m1 0h1m5 1h1M5 5h1m3 0h1m1 0h1M3 6h1m2 0h1m1 0h1M1 7h1m2 0h1m4 0h2M3 8h1m2 0h1m1 0h1M5 9h1m3 0h1m1 0h1m1 1h1m-9 1h1m1 0h1m-4 1h1m3 0h1m-4 1h1m1 0h1"/>
    <path stroke="#fffffe" d="M6 2h1M4 4h1m5 0h1"/>
    <path stroke="#612661" d="M5 4h1m1 0h1M6 5h1m5 0h1m1 0h1M7 6h1m2 0h1M2 7h2m1 0h2m1 0h1M7 8h1m2 0h1M6 9h1m5 0h1m1 0h1M5 10h1m1 0h1"/>
    <path stroke="#fff" d="M15 5h1"/>
    <path stroke="#bee75f" d="M15 9h1"/>
    <path stroke="#d8f577" d="M4 10h1m5 0h1m-5 2h1"/>
</svg>
