<svg xmlns="http://www.w3.org/2000/svg" shape-rendering="crispEdges" viewBox="0 -0.5 19 9">
    <path stroke="#7fb717" d="M15 1h1m-3 1h1M3 3h2M1 4h1m8 0h3M3 5h2m8 1h1m1 1h1"/>
    <path stroke="#2f711a" d="M4 2h1m1 0h2m6 0h1m1 0h1M5 3h1m2 0h1m3 0h1M2 4h1m1 0h1m4 0h1M5 5h1m2 0h1m3 0h1M4 6h1m1 0h2m6 0h1m1 0h1"/>
    <path stroke="#fae294" d="M5 2h1m1 1h1M6 4h3M7 5h1"/>
    <path stroke="#fff" d="M17 2h1"/>
    <path stroke="#f7af5c" d="M6 3h1M5 4h1m0 1h1M5 6h1"/>
    <path stroke="#fbef97" d="M17 6h1"/>
</svg>
