<svg xmlns="http://www.w3.org/2000/svg" shape-rendering="crispEdges" viewBox="0 -0.5 23 11">
    <path stroke="#fffffe" d="M10 1h1"/>
    <path stroke="#b346b3" d="M10 2h1m8 0h1m-9 1h2m4 0h1M3 4h1m3 0h1m2 0h1m2 0h1M1 5h1m6 0h1m6 0h2M5 6h1m4 0h1m2 0h1m-3 1h2m4 0h1m-8 1h1m8 0h1"/>
    <path stroke="#612661" d="M10 3h1m7 0h1m1 0h1m-5 1h1M2 5h1m1 0h1m1 0h1m2 0h1m4 0h1m1 1h1m-7 1h1m7 0h1m1 0h1"/>
    <path stroke="#fff" d="M21 3h1"/>
    <path stroke="#fbef97" d="M21 7h1"/>
    <path stroke="#fac7a6" d="M10 9h1"/>
</svg>
