<svg xmlns="http://www.w3.org/2000/svg" shape-rendering="crispEdges" viewBox="0 -0.5 27 7">
    <path stroke="#fffffe" d="M5 1h1m3 1h1m3 0h1m4 0h1M8 3h3m14 0h1M9 4h1m3 0h1"/>
    <path stroke="#2f711a" d="M9 1h1m12 0h1M7 2h1m2 0h2m3 0h1M2 3h1m2 0h1m5 0h1m1 0h1m6 0h1m3 0h1M7 4h1m2 0h2M9 5h1m12 0h1"/>
    <path stroke="#7fb717" d="M21 1h1m1 0h1M5 2h1m8 0h1m5 0h1m3 0h1M1 3h1m1 0h2m1 0h1m5 0h1m3 0h4M5 4h1m14 0h1m3 0h1m-4 1h1m1 0h1"/>
    <path stroke="#d8f577" d="M8 2h1M7 3h1m0 1h1m9 0h1M5 5h1"/>
</svg>
