<svg xmlns="http://www.w3.org/2000/svg" shape-rendering="crispEdges" viewBox="0 -0.5 21 15">
    <path stroke="#a9e2f7" d="M6 1h1m2 4h1m7 0h1m1 2h1m-3 2h1"/>
    <path stroke="#8d6d3e" d="M6 2h1m0 1h1M5 5h1m2 0h1m5 0h1M2 7h1m1 0h1m2 0h1m1 0h1m1 0h1m1 0h1m1 0h1m1 0h1M5 9h1m2 0h1m5 0h1m-8 2h1m-2 1h1"/>
    <path stroke="#b99560" d="M8 4h1m6 0h1m-4 1h2m2 0h1M5 6h1m1 0h2m4 0h1M1 7h1m1 0h1m1 0h2m1 0h1m1 0h1m1 0h1m1 0h1m1 0h1m1 0h1M5 8h1m1 0h2m4 0h1m-2 1h2m2 0h1m-9 1h1m6 0h1"/>
    <path stroke="#34baec" d="M9 9h1m-4 4h1"/>
</svg>
