<svg xmlns="http://www.w3.org/2000/svg" shape-rendering="crispEdges" viewBox="0 -0.5 25 7">
    <path stroke="#b66615" d="M7 1h1m12 0h1M5 2h1m2 0h1M2 3h1m1 0h1m4 0h1m1 0h1m2 0h1m3 0h1m3 0h1M5 4h1m2 0h1M7 5h1m12 0h1"/>
    <path stroke="#d8f577" d="M11 1h1M7 2h1m8 0h1M6 3h3m14 0h1M7 4h1"/>
    <path stroke="#f39f27" d="M19 1h1m1 0h1M3 2h1m7 0h1m1 0h1m4 0h1m3 0h1M1 3h1m8 0h1m1 0h1m2 0h3m-7 1h1m1 0h1m4 0h1m3 0h1m-4 1h1m1 0h1"/>
    <path stroke="#a1d920" d="M6 2h1M5 3h1m0 1h1m9 0h1m-6 1h1"/>
</svg>
