<svg xmlns="http://www.w3.org/2000/svg" shape-rendering="crispEdges" viewBox="0 -0.5 19 11">
    <path stroke="#fae294" d="M9 1h1M9 3h1M6 4h1M5 5h3M6 6h1"/>
    <path stroke="#2b5397" d="M8 2h1M5 3h3m6 0h1m1 0h1M4 4h1m2 0h1m4 0h1M2 5h1m5 0h2M4 6h1m2 0h1m4 0h1M5 7h3m6 0h1m1 0h1M8 8h1"/>
    <path stroke="#5787e7" d="M15 2h1m-3 1h1M8 4h1M1 5h1m1 0h1m6 0h3M8 6h1m4 1h1m1 1h1"/>
    <path stroke="#fff" d="M17 3h1"/>
    <path stroke="#f7af5c" d="M5 4h1M4 5h1m0 1h1m3 1h1M9 9h1"/>
    <path stroke="#bee75f" d="M17 7h1"/>
</svg>
