<svg xmlns="http://www.w3.org/2000/svg" shape-rendering="crispEdges" viewBox="0 -0.5 25 9">
    <path stroke="#8d6d3e" d="M10 1h1M6 2h1m4 0h1m8 0h1m1 0h1M4 3h1m2 0h1m10 0h1M2 4h1m5 0h1m2 0h2m1 0h2M4 5h1m2 0h1m10 0h1M6 6h1m4 0h1m8 0h1m1 0h1M10 7h1"/>
    <path stroke="#b99560" d="M21 1h1M9 2h1m9 0h1M10 3h1M1 4h1m1 0h1m5 0h2m2 0h1m2 0h3m-9 1h1M9 6h1m9 0h1m1 1h1"/>
    <path stroke="#fff" d="M23 2h1"/>
    <path stroke="#8ec4f4" d="M5 3h1M4 4h1m0 1h1"/>
    <path stroke="#fffffe" d="M6 3h1M5 4h3M6 5h1"/>
    <path stroke="#fbef97" d="M23 6h1"/>
</svg>
