<svg xmlns="http://www.w3.org/2000/svg" shape-rendering="crispEdges" viewBox="0 -0.5 19 15">
    <path stroke="#d8f577" d="M7 1h1m0 5h1M7 7h3M8 8h1"/>
    <path stroke="#ab3131" d="M7 2h1m0 1h1M8 5h2m4 0h1m1 0h1M6 6h1m2 0h1m2 0h1M2 7h1m1 0h1m5 0h1M6 8h1m2 0h1m2 0h1M8 9h2m4 0h1m1 0h1m-9 2h1m-2 1h1"/>
    <path stroke="#d16060" d="M9 4h1m5 0h1m-3 1h1m-4 1h1M1 7h1m1 0h1m1 0h1m5 0h2m-3 1h1m2 1h1m-5 1h1m5 0h1"/>
    <path stroke="#fff" d="M17 5h1"/>
    <path stroke="#a1d920" d="M7 6h1M6 7h1m0 1h1m-1 5h1"/>
    <path stroke="#fbef97" d="M17 9h1"/>
</svg>
