<svg xmlns="http://www.w3.org/2000/svg" shape-rendering="crispEdges" viewBox="0 -0.5 25 9">
    <path stroke="#b346b3" d="M21 1h1m-3 1h1m-9 1h1m1 0h1M1 4h1m1 0h1m1 0h1m1 0h1m2 0h1m4 0h4m-8 1h1m1 0h1m5 1h1m1 1h1"/>
    <path stroke="#a9e2f7" d="M10 2h1m3 0h1"/>
    <path stroke="#612661" d="M20 2h1m1 0h1m-5 1h1M2 4h1m1 0h1m1 0h1m1 0h2m2 0h1m1 0h1m3 1h1m1 1h1m1 0h1"/>
    <path stroke="#fff" d="M23 2h1"/>
    <path stroke="#34baec" d="M10 6h1m3 0h1"/>
    <path stroke="#bee75f" d="M23 6h1"/>
</svg>
