<svg xmlns="http://www.w3.org/2000/svg" shape-rendering="crispEdges" viewBox="0 -0.5 22 11">
    <path stroke="#f07540" d="M13 1h2m1 0h1m-5 1h1m4 0h1m-4 1h1m1 0h1M5 4h1m4 0h1m1 0h1m1 0h1m2 0h1M1 5h1m1 0h2m7 0h2m2 0h2M5 6h1m4 0h1m1 0h1m1 0h1m2 0h1m-4 1h1m1 0h1m-5 1h1m4 0h1m-5 1h2m1 0h1"/>
    <path stroke="#faddf3" d="M15 1h1M5 3h1m2 1h1m11 0h1M7 5h3M8 6h1"/>
    <path stroke="#b92b0e" d="M8 3h1m4 0h1m1 0h1M6 4h1m2 0h1m1 0h1m3 0h1m3 0h1M2 5h1m2 0h1m4 0h1m7 0h1M6 6h1m2 0h1m1 0h1m3 0h1m3 0h1M8 7h1m4 0h1m1 0h1"/>
    <path stroke="#f6bbe8" d="M7 4h1M6 5h1m0 1h1m12 0h1M5 7h1m9 2h1"/>
</svg>
