<svg xmlns="http://www.w3.org/2000/svg" shape-rendering="crispEdges" viewBox="0 -0.5 16 16"><path stroke="#a8f98c" d="M10 3h1m0 1h1m0 1h1m0 1h1m0 1h1m-1 1h1m-2 1h1m-2 1h1m-2 1h1m-2 1h1"/><path stroke="rgba(168,249,141,0.7372549019607844)" d="M5 4h1m0 1h1m0 1h1m0 1h1M8 8h1M7 9h1m-2 1h1m-2 1h1"/><path stroke="#fff" d="M10 4h1m-1 1h2m-2 1h3m-3 1h4m-4 1h4m-4 1h3m-3 1h2m-2 1h1"/><path stroke="rgba(168,250,141,0.4745098039215686)" d="M1 5h1m0 1h1m0 1h1M3 8h1M2 9h1m-2 1h1"/><path stroke="rgba(255,255,255,0.6431372549019608)" d="M5 5h1M5 6h2M5 7h3M5 8h3M5 9h2m-2 1h1"/><path stroke="rgba(255,255,255,0.45098039215686275)" d="M1 6h1M1 7h2M1 8h2M1 9h1"/></svg>