<svg xmlns="http://www.w3.org/2000/svg" shape-rendering="crispEdges" viewBox="0 -0.5 16 16"><path stroke="#974b33" d="M7 0h1M7 1h1M7 2h1M7 3h1M7 4h2m0 1h2m0 1h1m0 2h1m-3 1h2m-3 1h1m-2 1h1m-2 1h1m-1 1h1m-1 1h1m-1 1h1"/><path stroke="#4f1713" d="M8 0h7M8 1h8M8 2h8M8 3h8M9 4h7m-5 1h5m-4 1h4m-3 1h3m-3 1h3m-4 1h4m-6 1h6m-7 1h7m-8 1h8m-8 1h8m-8 1h8m-8 1h7"/><path stroke="#6f971e" d="M3 3h1m2 1h1m0 1h1M5 6h1m1 0h3M7 7h4M6 8h4M6 9h4m-3 1h1m-3 1h1"/><path stroke="#4e6a15" d="M10 6h1m0 1h2m-3 1h2m-6 2h1m1 0h1m-2 1h1"/><path stroke="#fff" d="M1 8h1m1 0h1m1 0h1"/></svg>