<svg xmlns="http://www.w3.org/2000/svg" shape-rendering="crispEdges" viewBox="0 -0.5 16 16"><path stroke="#5d7f4c" d="M5 1h2M4 2h1M3 3h1M3 4h1m1 0h1M3 5h2m6 0h1M4 6h1m1 0h2m2 0h2M3 7h1m1 0h3m1 0h2m1 0h1M6 8h1m1 0h4M7 9h4m-7 1h1m3 0h1m2 0h1m-1 2h1m-8 1h1m3 0h1m-1 2h1"/><path stroke="#84b04a" d="M7 1h3M5 2h2m3 0h1M4 3h3m4 0h1M4 4h1m1 0h2m3 0h1M5 5h1m1 0h2m1 0h1m1 0h1M5 6h1m2 0h2M8 7h1m2 0h1M7 8h1m3 3h1m-6 1h1"/><path stroke="#cce762" d="M7 2h3M7 3h4M8 4h3M6 5h1m2 0h1m2 1h1"/><path stroke="#4e6a40" d="M3 6h1m0 1h1M3 8h3m6 0h1M4 9h3m4 0h1m-7 1h3m1 0h2m-7 1h1m1 0h1m1 0h2m-2 1h1"/></svg>