<svg xmlns="http://www.w3.org/2000/svg" shape-rendering="crispEdges" viewBox="0 -0.5 16 16"><path stroke="#fff" d="M6 1h4M5 2h1m4 0h1M3 3h2m6 0h2M2 4h1m2 0h1m4 0h1m2 0h1M1 5h1m4 0h1m2 0h1m4 0h1M1 6h1m4 0h1m2 0h1m4 0h1M1 7h1m3 0h1m4 0h1m3 0h1M1 8h1m3 0h1m4 0h1m3 0h1M1 9h1m4 0h1m2 0h1m4 0h1M1 10h1m4 0h1m2 0h1m4 0h1M2 11h1m2 0h1m4 0h1m2 0h1M3 12h2m6 0h2m-8 1h1m4 0h1m-5 1h4"/><path stroke="#222542" d="M6 2h4M5 3h1m4 0h1M3 4h2m6 0h2M2 5h1m2 0h1m4 0h1m2 0h1M6 7h1m2 0h1M5 9h1m4 0h1M1 11h1m4 0h1m2 0h1m4 0h1M2 12h1m2 0h1m4 0h1m2 0h1M3 13h2m6 0h2m-8 1h1m4 0h1m-5 1h4"/></svg>