<svg xmlns="http://www.w3.org/2000/svg" shape-rendering="crispEdges" viewBox="0 -0.5 16 16"><path stroke="#6f971e" d="M7 5h1m2 0h1m1 0h1M3 6h1m1 0h1m3 0h1m1 0h1M6 7h1M1 8h1m2 0h1M3 9h1m-2 1h1m2 0h1m1 0h1m-5 2h1m1 1h1"/><path stroke="#4e6a15" d="M8 5h2M7 6h1m2 0h1m2 0h1M8 7h1"/><path stroke="#fff" d="M13 5h1m-2 1h1"/><path stroke="#974b33" d="M10 11h1m1 0h4m-7 1h1m1 0h1M0 13h1m7 0h1m-8 1h1m1 0h1m3 0h1m-6 1h1m1 0h3"/><path stroke="#4f1713" d="M10 12h1m1 0h4m-7 1h7M0 14h1m7 0h8M1 15h1m1 0h1m3 0h8"/></svg>