<svg xmlns="http://www.w3.org/2000/svg" shape-rendering="crispEdges" viewBox="0 -0.5 16 16"><path stroke="#fff" d="M5 1h6M4 2h1m6 0h1M3 3h1m8 0h1M2 4h1m4 0h2m4 0h1M1 5h1m3 0h1m4 0h1m3 0h1M1 6h1m12 0h1M1 7h1m2 0h1m6 0h1m2 0h1M1 8h1m2 0h1m6 0h1m2 0h1M1 9h1m12 0h1M1 10h1m3 0h1m4 0h1m3 0h1M2 11h1m4 0h2m4 0h1M3 12h1m8 0h1m-9 1h1m6 0h1m-7 1h6"/><path stroke="#222542" d="M5 2h6M4 3h1m6 0h1M3 4h1m8 0h1M2 5h1m4 0h2m4 0h1M5 6h1m4 0h1M4 9h1m6 0h1M1 11h1m3 0h1m4 0h1m3 0h1M2 12h1m4 0h2m4 0h1M3 13h1m8 0h1m-9 1h1m6 0h1m-7 1h6"/></svg>