<svg xmlns="http://www.w3.org/2000/svg" shape-rendering="crispEdges" viewBox="0 -0.5 16 16"><path stroke="#3d8e2a" d="M3 0h1m8 3h1M7 8h1"/><path stroke="#65be2f" d="M3 1h1M2 3h1m1 0h1M2 4h1m9 0h1M1 5h1m3 0h1M1 6h1m9 0h1m1 0h1M2 7h1m8 0h1m-2 1h1m3 0h1M7 9h1m2 0h1m0 1h1m-6 1h1m1 0h1m-3 1h1m-2 1h1m3 0h1m-5 1h1m0 1h1"/><path stroke="#92e059" d="M3 2h1M3 3h1M3 4h2M2 5h2m8 0h1M2 6h1m2 0h1m6 0h1M3 7h2m7 0h2m-3 1h2m-2 1h1m2 0h1m-8 1h1m4 0h2m-7 1h1m-1 1h2m-3 1h2m-2 1h1m2 0h1m-3 1h2"/><path stroke="#d1fcbb" d="M4 5h1M3 6h2m8 2h1m-2 1h2m-6 4h1m-2 1h2"/></svg>