<svg xmlns="http://www.w3.org/2000/svg" shape-rendering="crispEdges" viewBox="0 -0.5 16 16"><path stroke="rgba(84,125,152,0.8980392156862745)" d="M2 1h1m2 0h1M1 2h1m4 0h1M1 5h1m4 0h1m3 0h1m2 0h1M2 6h1m2 0h1m3 0h1m4 0h1M3 9h1m2 0h1m2 0h1m4 0h1M2 10h1m4 0h1m2 0h1m2 0h1M2 13h1m4 0h1m-5 1h1m2 0h1"/><path stroke="#60bbf7" d="M3 1h2M1 3h1m4 0h1M1 4h1m4 0h1m4 1h2M3 6h2m4 1h1m4 0h1M9 8h1m4 0h1M4 9h2m5 1h2M2 11h1m4 0h1m-6 1h1m4 0h1m-4 2h2"/><path stroke="#251b35" d="M2 2h2m1 0h1M2 3h1m1 0h2M3 4h2M2 5h1m1 0h2m5 1h3m-4 1h2m1 0h1m-4 1h3m-3 1h1m2 0h1M3 10h1m1 0h2m-3 1h3m-4 1h2m-2 1h1m1 0h2"/><path stroke="#fff" d="M4 2h1M3 5h1m8 2h1m-2 2h1m-8 1h1m1 2h1"/><path stroke="#7f67a4" d="M3 3h1M2 4h1m2 0h1m4 2h1m2 2h1m-2 1h1M3 11h1m1 1h1m-2 1h1"/></svg>