<svg xmlns="http://www.w3.org/2000/svg" shape-rendering="crispEdges" viewBox="0 -0.5 16 16"><path stroke="#ca9400" d="M1 1h2M1 3h3M1 5h2m5 0h2M8 7h3M8 9h2m-8 1h2m-2 2h3m-3 2h2"/><path stroke="#e6ad13" d="M3 1h1m1 2h1M3 5h1m6 0h1m1 2h1m-3 2h1m-7 1h1m1 2h1m-3 2h1"/><path stroke="#a7a7a7" d="M2 2h3m1 0h1M4 3h1m1 0h2m1 3h3m1 0h1m-3 1h1m1 0h2M3 11h3m1 0h1m-3 1h1m1 0h2"/><path stroke="#696969" d="M5 2h1m6 4h1m-7 5h1"/><path stroke="#878787" d="M2 4h3m1 0h1m2 4h3m1 0h1M3 13h3m1 0h1"/><path stroke="#585858" d="M5 4h1m6 4h1m-7 5h1"/></svg>