<svg xmlns="http://www.w3.org/2000/svg" shape-rendering="crispEdges" viewBox="0 -0.5 16 16"><path stroke="rgba(96,179,244,0.2901960784313726)" d="M3 0h1M0 3h1m5 0h1M3 6h1m2 3h1m-4 3h1m5 0h1m-4 3h1"/><path stroke="#70c0de" d="M3 1h1m0 1h1M1 3h1m3 0h1M4 4h1M3 5h1m2 5h1m-2 1h1m-2 1h1m3 0h1m-4 1h1m0 1h1"/><path stroke="rgba(96,180,244,0.4980392156862745)" d="M2 2h1m4 9h1"/><path stroke="rgba(157,222,246,0.9921568627450981)" d="M3 2h1m0 1h1M2 4h2m2 7h1m-2 1h1m1 0h1m-1 1h1"/><path stroke="#fff" d="M2 3h2m8 3h2m-8 6h1m-1 1h1"/><path stroke="rgba(102,160,72,0.5686274509803921)" d="M12 3h1M9 6h1m5 0h1m-4 3h1"/><path stroke="rgba(170,255,149,0.7176470588235294)" d="M12 4h1m-2 1h1m-2 1h1m3 0h1m-4 1h1m1 0h1m-2 1h1"/><path stroke="#c6ff8c" d="M12 5h2m-3 1h1m0 1h1"/></svg>