<svg xmlns="http://www.w3.org/2000/svg" shape-rendering="crispEdges" viewBox="0 -0.5 16 16"><path stroke="#ffdb3c" d="M5 0h6M3 1h2m6 0h2M2 2h1m10 0h1M1 3h1m12 0h1M1 4h1m12 0h1M0 5h1m14 0h1M0 6h1m14 0h1M0 7h1m4 0h6m4 0h1M0 8h1m4 0h1m4 0h1m4 0h1M0 9h1m4 0h1m4 0h1m4 0h1M0 10h1m4 0h1m4 0h1m4 0h1M1 11h1m3 0h1m4 0h1m3 0h1M1 12h1m12 0h1M2 13h1m10 0h1M3 14h2m6 0h2m-8 1h6"/><path stroke="#ffa03c" d="M7 1h2M7 2h2M6 3h1m2 0h1M6 4h1m2 0h1M5 5h1m4 0h1M5 6h1m4 0h1M4 7h1m6 0h1M4 8h1m6 0h1M3 9h1m8 0h1M3 10h1m8 0h1M2 11h1m10 0h1M2 12h3m6 0h3"/><path stroke="#ff6e3c" d="M7 8h2M6 9h1m2 0h1m-4 1h1m2 0h1m-3 1h2"/><path stroke="#ffb83c" d="M5 12h6"/></svg>