<svg xmlns="http://www.w3.org/2000/svg" shape-rendering="crispEdges" viewBox="0 -0.5 16 16"><path stroke="#98a3b5" d="M1 0h1m2 0h1M2 1h2m2 0h1M0 2h1m1 0h1m1 0h2M1 3h1m3 0h1M1 4h2m1 0h1m1 0h1m4 0h1m2 0h1M0 5h1m2 0h2m4 0h1m2 0h2M2 6h1m2 0h1m4 0h2m1 0h1m1 0h1m-6 1h1m3 0h1M9 8h1m1 0h1m1 0h2M3 9h1m2 0h1m4 0h2m2 0h1M1 10h1m2 0h2m4 0h1m2 0h1M2 11h2m1 0h1m1 0h1m-6 1h1m3 0h1m-6 1h1m1 0h1m1 0h2m-4 1h2m2 0h1m-6 1h1m2 0h1"/><path stroke="#d2d7e3" d="M2 0h1m1 1h1M1 2h1m4 0h1M0 4h1m4 0h1m7 0h1M2 5h1m8 0h1M4 6h1m4 0h1m4 0h1m-5 2h1m4 0h1M5 9h1m7 0h1M3 10h1m7 0h1M1 11h1m4 0h1m-5 2h1m4 0h1m-3 1h1m-3 1h1"/><path stroke="#79879f" d="M3 2h1M2 3h1m1 0h1M3 4h1m8 2h1m-2 1h1m1 0h1m-2 1h1m-9 3h1m-2 1h1m1 0h1m-2 1h1"/><path stroke="#636363" d="M3 3h1m8 4h1m-9 5h1"/></svg>