<svg xmlns="http://www.w3.org/2000/svg" shape-rendering="crispEdges" viewBox="0 -0.5 16 16"><path stroke="#f58b44" d="M1 1h1m1 1h1m0 1h1M2 4h2"/><path stroke="#ed4015" d="M0 3h1m0 1h1m0 2h1"/><path stroke="#f7cf5f" d="M2 3h2M2 5h1"/><path stroke="#f7e787" d="M5 3h1M4 5h1"/><path stroke="#fff" d="M4 4h3m6 3h3m-9 5h3"/><path stroke="#2d9634" d="M10 4h1m1 1h1m0 1h1m-3 1h2"/><path stroke="#287449" d="M9 6h1m0 1h1M8 8h1m2 1h1"/><path stroke="#63d42a" d="M11 6h2m-2 2h1"/><path stroke="#c7ef63" d="M14 6h1m-2 2h1"/><path stroke="#b380ff" d="M4 9h1m1 1h1m0 1h1m-3 1h2"/><path stroke="#8d5cff" d="M3 11h1m0 1h1m-3 1h1m2 1h1"/><path stroke="#d294ff" d="M5 11h2m-2 2h1"/><path stroke="#eec2ff" d="M8 11h1m-2 2h1"/></svg>