<svg xmlns="http://www.w3.org/2000/svg" shape-rendering="crispEdges" viewBox="0 -0.5 16 16"><path stroke="rgba(250,213,112,0.43529411764705883)" d="M7 1h1"/><path stroke="rgba(249,212,112,0.7843137254901961)" d="M7 2h2M6 4h1m2 0h1M5 6h1m4 0h1M4 8h1m6 0h1m-9 2h1m8 0h1M2 12h1m10 0h1M1 14h1m1 0h1m7 0h1m2 0h1"/><path stroke="#f9d470" d="M7 3h2M8 4h1M6 5h1m1 0h2M9 6h1M5 7h1m3 0h2m-1 1h1M4 9h8m-1 1h1m-9 1h1m7 0h2m-1 1h1M2 13h1m9 0h2M2 14h1m9 0h2"/><path stroke="rgba(249,212,112,0.5843137254901961)" d="M7 4h1"/><path stroke="rgba(249,213,114,0.3411764705882353)" d="M7 5h1M6 6h1m1 0h1M5 8h1m3 0h1m-6 2h1m5 0h1m-8 2h1m7 0h1"/></svg>