<svg xmlns="http://www.w3.org/2000/svg" shape-rendering="crispEdges" viewBox="0 -0.5 16 16"><path stroke="#d77070" d="M3 0h1M3 1h1M3 2h1M0 3h3m1 0h3M3 4h1M3 5h1M3 6h1"/><path stroke="#cb4444" d="M1 1h2m1 0h2M1 2h1m3 0h1M1 4h1m3 0h1M1 5h2m1 0h2"/><path stroke="#fffffe" d="M6 7h1m0 2h1m-1 2h1m-6 2h1m3 0h1m-3 1h1"/><path stroke="#5e3a17" d="M11 7h3m-4 1h1m3 0h1M9 9h1m5 0h1m-7 1h1m5 0h1m-7 1h1m5 0h1m-6 1h1m4 0h1m-5 1h1m1 0h1m1 0h1m-4 1h1m1 0h1"/><path stroke="#dfe8c0" d="M11 8h2m-3 1h4m-4 1h2m-2 1h3m-1 1h1"/><path stroke="#c7d792" d="M13 8h1m0 1h1m-2 1h1m0 1h1m-4 1h1m2 0h1m-3 1h1m1 0h1"/><path stroke="#3f4c1d" d="M12 10h1m1 0h1"/><path stroke="#6d8233" d="M13 11h1"/><path stroke="#9fbb53" d="M13 12h1"/></svg>