<svg xmlns="http://www.w3.org/2000/svg" shape-rendering="crispEdges" viewBox="0 -0.5 16 16"><path stroke="#ec4d4d" d="M6 1h1m2 0h1m0 2h1M5 4h1M3 5h1m1 0h1m5 0h2M1 6h1m12 1h1M1 8h1m12 1h1M3 10h1m8 0h2M2 11h1m2 0h1m5 0h1m1 0h1M2 12h1m2 0h1m4 0h1m2 0h1m-1 1h1m-8 1h1m1 0h2m-2 1h1"/><path stroke="#802626" d="M7 1h1M5 2h1m4 0h1M5 3h1M2 5h1m1 0h1m8 0h1M1 7h1m2 3h1m9 0h1m-4 2h1M2 13h1m2 0h1m5 0h1m-1 1h1"/><path stroke="#f07272" d="M8 1h1m1 3h1m-1 1h1m3 3h1M1 9h1m0 1h1m2 0h1m4 0h2m-2 1h1"/><path stroke="#b3df4b" d="M6 2h4M6 3h1m2 0h1M2 6h2m8 0h2M2 7h1m10 0h1M2 8h1m10 0h1M2 9h2m8 0h2m-8 3h1m2 0h1m-4 1h4"/><path stroke="#fff" d="M7 3h2M7 4h2M7 5h2M7 6h2M3 7h10M3 8h10M7 9h2m-2 1h2m-2 1h2m-2 1h2"/><path stroke="#dbff7b" d="M6 4h1m2 0h1M6 5h1m2 0h1M4 6h3m2 0h3M4 9h3m2 0h3m-6 1h1m2 0h1m-4 1h1m2 0h1"/></svg>