<svg xmlns="http://www.w3.org/2000/svg" shape-rendering="crispEdges" viewBox="0 -0.5 16 16"><path stroke="#fff" d="M4 1h1m6 0h1M4 2h1m1 0h1m2 0h1m1 0h1M3 3h1m8 0h1M1 4h2m4 0h2m4 0h2M6 5h1m2 0h1M2 6h1m1 0h8m1 0h1M5 7h1m4 0h1M4 8h1m6 0h1M2 9h1m1 0h8m1 0h1M1 11h2m10 0h2M3 12h1m8 0h1m-9 1h1m1 0h1m2 0h1m1 0h1m-8 1h1m6 0h1"/><path stroke="#222542" d="M4 3h1m1 0h1m2 0h1m1 0h1M3 4h1m8 0h1M1 5h2m4 0h2m4 0h2M2 7h1m1 0h1m1 0h4m1 0h1m1 0h1M2 10h1m1 0h8m1 0h1M1 12h2m10 0h2M3 13h1m8 0h1m-7 1h1m2 0h1m-6 1h1m6 0h1"/></svg>