<svg xmlns="http://www.w3.org/2000/svg" shape-rendering="crispEdges" viewBox="0 -0.5 16 16"><path stroke="#fff" d="M1 1h2M1 2h2m10 11h2m-2 1h2"/><path stroke="#7b2b7f" d="M3 2h1M2 3h1m1 0h1M3 4h1m1 0h1M3 5h2m1 0h1M5 7h1m2 0h1M5 8h1m1 0h1m1 0h1M8 9h1m1 0h1m-3 1h1m1 1h1m0 1h1m1 0h1m-4 1h1m1 0h1"/><path stroke="#97479b" d="M3 3h1m0 1h1m0 1h1m0 1h1m0 1h1m0 1h1m0 1h1m0 1h1m0 1h1m0 1h1"/><path stroke="#570b57" d="M2 4h1m0 2h1m1 0h1m1 0h1M6 7h1m-2 3h1m3 0h1m1 0h1m-4 1h1m3 0h1m-3 1h1m-3 1h1m3 1h1"/></svg>