<svg xmlns="http://www.w3.org/2000/svg" shape-rendering="crispEdges" viewBox="0 -0.5 16 16"><path stroke="#fff" d="M1 1h2M1 2h2m10 11h2m-2 1h2"/><path stroke="#f07934" d="M5 1h1M4 2h1m2 0h1M2 3h1m3 0h1m4 0h1M5 4h1M3 5h1m5 0h1M1 6h1m3 0h1m2 0h1m4 0h1M3 7h1m5 0h1m1 0h2M6 8h1m4 0h1M4 9h1m3 0h1m5 0h1m-2 1h1m-2 1h1m-7 1h1m3 0h1m2 0h1m-5 1h1m2 0h1"/><path stroke="#f7cf5f" d="M3 2h1m1 0h1M4 3h2m1 1h1M2 5h1m1 0h1m1 0h1m1 0h1M4 6h1m1 0h1M6 7h1m0 1h1m1 0h2m1 0h1m-3 1h2m-4 1h2m1 0h1m-4 1h1m1 0h1m2 0h1m-3 1h2"/><path stroke="#fbef97" d="M3 3h1M3 4h2m0 1h1m1 1h1M7 7h2M8 8h1m0 1h1m0 1h1m0 1h1"/></svg>