<svg xmlns="http://www.w3.org/2000/svg" shape-rendering="crispEdges" viewBox="0 -0.5 16 16"><path stroke="#87d6f2" d="M8 1h1m1 1h1m1 0h1M9 3h1M6 4h1m1 0h1m1 0h1m1 0h1M5 5h1M3 6h1m8 1h1m1 0h1M2 8h1m3 0h1m4 0h1M1 9h1m2 0h1m7 0h1m1 0h1M2 10h1m0 1h1m3 1h1m3 0h1m1 0h1m-4 1h1m-2 1h1m1 0h1m1 0h1"/><path stroke="#fffffe" d="M11 2h1M7 3h1m2 0h3m-2 1h1M4 6h1M3 7h1m9 0h1M8 8h1m1 0h1m1 0h3M3 9h1m3 0h1m5 0h1M4 12h1m7 0h1m-7 1h1m4 0h3m-2 1h1"/><path stroke="#468aa3" d="M11 5h1"/><path stroke="#397f99" d="M13 5h1M9 7h1M5 8h1m4 3h1m-6 1h1m2 1h1"/></svg>