<svg xmlns="http://www.w3.org/2000/svg" shape-rendering="crispEdges" viewBox="0 -0.5 16 16"><path stroke="#39140e" d="M9 2h2M8 3h1m3 0h2M8 4h1m2 0h1M9 6h1m1 0h1M9 9h1m-2 1h1m1 0h1m-3 1h1"/><path stroke="#f7e787" d="M2 3h2m0 1h2M5 5h2M6 6h2"/><path stroke="#f7c34f" d="M2 4h1m0 1h1m0 1h1M3 7h3"/><path stroke="#b43f2d" d="M8 5h3M8 6h1m1 0h1M7 7h1m1 0h3M6 8h3m1 0h2M5 9h1m1 0h1m-4 1h1m-2 1h1m1 0h2m-3 1h1m-2 1h1m1 0h1m-2 1h2"/><path stroke="#70271c" d="M8 7h1M5 8h1M4 9h1m1 0h1m-2 1h2m-3 1h1m-2 1h1m1 0h2m-3 1h1"/></svg>