<svg xmlns="http://www.w3.org/2000/svg" shape-rendering="crispEdges" viewBox="0 -0.5 16 16"><path stroke="rgba(244,231,231,0.592156862745098)" d="M6 1h4M4 2h2m4 0h2M3 3h1m8 0h1M2 4h1m10 0h1M2 5h1m10 0h1M1 6h1m12 0h1M1 7h1m12 0h1M1 8h1m12 0h1M1 9h1m12 0h1M2 10h1m10 0h1M2 11h1m10 0h1M3 12h1m8 0h1m-9 1h2m4 0h2m-6 1h4"/><path stroke="rgba(199,116,111,0.592156862745098)" d="M6 2h4M5 3h3m1 0h3M6 4h1m3 0h3M3 5h1m5 0h4M2 6h3m4 0h1m1 0h3M2 7h2m8 0h2M2 8h1m10 0h1M2 9h2m1 0h2m5 0h2M3 10h3m-3 1h4m5 0h1m-9 1h4m1 0h1m1 0h1m-6 1h4"/><path stroke="rgba(198,116,112,0.5686274509803921)" d="M4 3h1m3 0h1M3 4h1m1 0h1m1 0h1m1 0h1M4 5h1m1 0h1m1 0h1M5 6h4m1 0h1M4 7h1m4 0h1m1 0h1M3 8h1m1 0h2m5 0h1M4 9h1m2 0h1m1 0h1m1 0h1m-6 1h1m5 0h1m-6 1h1m1 0h1m1 0h1m-4 1h1m1 0h1"/><path stroke="#d59b82" d="M4 4h1m3 0h1M5 5h1m1 0h1M5 7h3M4 8h1m3 0h1"/><path stroke="#d97354" d="M8 7h1m1 0h1M7 8h1m1 0h3M8 9h1m1 0h1m-4 1h5m-4 1h1m1 0h1"/></svg>