<svg xmlns="http://www.w3.org/2000/svg" shape-rendering="crispEdges" viewBox="0 -0.5 16 16"><path stroke="rgba(45,97,187,0.5764705882352941)" d="M5 1h1m1 0h1M6 3h1m7 2h1m-3 1h1m1 1h1M1 8h1m1 1h1m-3 1h1m7 2h1m-2 2h1m1 0h1"/><path stroke="rgba(56,137,200,0.7137254901960784)" d="M6 1h1m4 0h1M3 2h1m2 0h1m2 1h1m3 0h1M1 4h1m3 0h1m5 1h1M3 6h1m9 0h2M1 9h2m9 0h1m-9 1h1m5 1h1m3 0h1M2 12h1m3 0h1m2 1h1m2 0h1m-9 1h1m4 0h1"/><path stroke="rgba(73,157,221,0.8274509803921568)" d="M9 1h1m3 0h1M1 2h1m7 3h1M1 6h1m3 0h1m4 3h1m3 0h1m-9 1h1m7 3h1M2 14h1m3 0h1"/><path stroke="#499ddd" d="M4 2h2m5 0h1M3 3h1m1 0h1m4 0h1m1 0h1M2 4h1m1 0h1m6 0h1m1 0h1M3 5h1m8 0h2M2 10h2m8 0h1M2 11h1m1 0h1m6 0h1m1 0h1M3 12h1m1 0h1m4 0h1m1 0h1m-9 1h1m5 0h2"/><path stroke="#94d0ee" d="M10 2h1m1 0h1M2 3h1m1 0h1m5 1h1m1 0h1M2 5h1m1 0h1m6 5h1m1 0h1M3 11h1m1 0h1m5 1h1m1 0h1M3 13h1m1 0h1"/><path stroke="#fff" d="M11 3h1M3 4h1m8 7h1m-9 1h1"/></svg>