<svg xmlns="http://www.w3.org/2000/svg" shape-rendering="crispEdges" viewBox="0 -0.5 16 16"><path stroke="#2b5397" d="M2 1h1m3 0h1M1 2h1m5 0h1M1 6h1m5 0h1M2 7h1m3 0h1"/><path stroke="#3b6bcb" d="M3 1h3M2 2h1m3 0h1M1 3h1m5 0h1M1 4h1m5 0h1M1 5h1m5 0h1M2 6h1m3 0h1M3 7h3"/><path stroke="#c3d7f7" d="M3 2h1m1 0h1M2 3h1m3 0h1M2 5h1m3 0h1M3 6h1m1 0h1"/><path stroke="#a7a7a7" d="M4 2h1M2 4h1m3 0h1M4 6h1"/><path stroke="#ebebeb" d="M3 3h2M3 4h1m1 0h1M3 5h3"/><path stroke="#1b3767" d="M5 3h1M4 4h1"/><path stroke="#60bbf7" d="M8 3h2m0 1h2m0 1h1m0 1h1m-1 1h1M3 8h1m10 0h1M3 9h1m10 0h1M4 10h1m8 0h1M4 11h1m8 0h1m-9 1h1m6 0h1m-7 1h2m2 0h2m-4 1h2"/><path stroke="#251b35" d="M8 4h2M8 5h4M8 6h5M9 7h4M4 8h3m1 0h4m1 0h1M4 9h10m-9 1h1m1 0h3m1 0h2m-8 1h4m3 0h1m-7 1h4m1 0h1m-4 1h2"/><path stroke="#fff" d="M7 7h1m2 4h1"/><path stroke="#7f67a4" d="M8 7h1M7 8h1m-2 2h1m3 0h1m-2 1h1m1 0h1m-2 1h1"/><path stroke="rgba(84,160,209,0.7686274509803922)" d="M1 8h1M1 9h1"/><path stroke="#997bc6" d="M12 8h1"/><path stroke="rgba(80,144,188,0.7176470588235294)" d="M2 10h1m-1 1h1m0 1h1"/><path stroke="rgba(84,125,152,0.6039215686274509)" d="M1 13h1m2 0h1m-3 1h1m2 0h1"/></svg>