<svg xmlns="http://www.w3.org/2000/svg" shape-rendering="crispEdges" viewBox="0 -0.5 16 16"><path stroke="#4e95c3" d="M0 1h6m0 1h2m0 1h2m0 1h1m0 1h1m0 1h1m-1 1h1m0 1h1m-1 1h1m0 1h1m-1 1h1m-1 1h1m-1 1h1m-1 1h1m-1 1h1"/><path stroke="#251b35" d="M0 2h4M0 3h1m1 0h5M0 4h4m1 0h4M0 5h10M0 6h11M0 7h6m1 0h5M0 8h2m1 0h9M0 9h13M0 10h13M0 11h9m1 0h3M0 12h5m1 0h8M0 13h4m3 0h7M1 14h4m1 0h5m1 0h2M0 15h14"/><path stroke="#5763a1" d="M4 2h2m1 1h1m1 1h1m0 1h1m0 1h1m0 2h1m0 2h1m-1 1h1"/><path stroke="#ccaddd" d="M1 3h1m4 4h1m4 7h1"/><path stroke="#7f67a4" d="M4 4h1M2 8h1m6 3h1m-5 1h1m-2 1h1m1 0h1m-7 1h1m4 0h1"/><path stroke="#fff" d="M5 13h1"/></svg>