<svg xmlns="http://www.w3.org/2000/svg" shape-rendering="crispEdges" viewBox="0 -0.5 16 16"><path stroke="#60bbf7" d="M5 0h6M3 1h2m6 0h2M2 2h1m10 0h1M1 3h1m12 0h1M1 4h1m12 0h1M0 5h1m14 0h1M0 6h1m14 0h1M0 7h1m14 0h1M0 8h1m14 0h1M0 9h1m14 0h1M0 10h1m14 0h1M1 11h1m12 0h1M1 12h1m12 0h1M2 13h1m10 0h1M3 14h2m6 0h2m-8 1h6"/><path stroke="#6073d1" d="M5 1h1m4 0h1M1 5h1m12 0h1M1 10h1m12 0h1M5 14h1m4 0h1"/><path stroke="#251b35" d="M6 1h4M3 2h7m1 0h2M2 3h2m1 0h9M2 4h1m3 0h8M2 5h2m1 0h9M1 6h1m1 0h5m1 0h3m1 0h2M1 7h14M1 8h14M1 9h4m1 0h9M2 10h12M2 11h9m1 0h2M2 12h8m3 0h1M3 13h3m1 0h4m1 0h1m-7 1h4"/><path stroke="#7f67a4" d="M10 2h1M4 3h1M3 4h1m1 0h1M4 5h1M2 6h1m5 0h1m2 5h1m-2 1h1m1 0h1m-7 1h1m4 0h1"/><path stroke="#fff" d="M4 4h1m6 8h1"/><path stroke="#ccaddd" d="M12 6h1M5 9h1"/></svg>