<svg xmlns="http://www.w3.org/2000/svg" shape-rendering="crispEdges" viewBox="0 -0.5 16 16"><path stroke="#ff2a3c" d="M3 1h3m2 0h1m1 0h2M2 2h1m6 0h1m3 2h1m-1 1h1M1 6h1m11 0h1M1 10h1m11 0h1M2 11h1m10 0h1M2 12h2m9 0h1M4 13h3m3 0h3"/><path stroke="rgba(203,48,48,0.8392156862745098)" d="M7 1h1m4 0h1M6 2h1M2 3h1m10 0h1M1 5h1M1 7h1m11 0h1M1 9h1m11 0h1M1 11h1m10 1h1M3 13h1m3 0h1m1 0h1m3 0h1m-9 1h2m2 0h1m1 0h1"/><path stroke="rgba(151,42,42,0.5137254901960784)" d="M13 2h1M2 4h1M1 8h1m11 0h1M1 12h1m-1 1h1m6 0h1m-6 1h1m9 0h1m-8 1h1m4 0h1"/><path stroke="#c5443c" d="M4 3h2m1 0h2m1 0h1M4 4h1m3 0h1m1 0h2m-2 1h2M3 6h5m2 0h2M3 7h4m4 0h1M3 8h2m3 0h1m2 0h1M4 9h1m1 0h4m-5 1h6m-5 1h4"/><path stroke="#9d3a33" d="M11 3h1M5 4h1m1 0h1M7 7h1m2 0h1m-1 1h1M3 9h1m0 1h1m6 0h1m-7 1h1m4 0h1"/><path stroke="#501e1c" d="M6 4h1m2 0h1M6 5h1m2 0h1M9 6h1M8 7h2M7 8h1m1 0h1m0 1h1"/><path stroke="#722a27" d="M4 5h2m1 0h2M8 6h1M5 8h2M5 9h1m5 0h1"/></svg>