<svg xmlns="http://www.w3.org/2000/svg" shape-rendering="crispEdges" viewBox="0 -0.5 16 16"><path stroke="#8e5663" d="M5 1h3M3 2h6M2 3h2m4 0h2M1 4h2m6 0h2M1 5h1m8 0h2m2 0h1M1 6h1m10 0h2M1 7h1M1 8h1m0 1h1m-1 1h1m0 1h1m0 1h1m0 1h1m-1 1h1"/><path stroke="#a8717f" d="M4 3h1m1 0h2M3 4h2m3 0h1M2 5h1m6 0h1M2 6h2m7 0h1M3 7h1M2 8h2m0 1h1m-2 1h2m-1 1h3m-1 1h2m-2 1h1m-1 1h2"/><path stroke="#653d47" d="M5 3h1M3 5h1M2 7h1m0 2h1m1 1h1m-1 2h1m1 1h1"/><path stroke="#cb4444" d="M5 4h1m1 0h1M5 5h1m1 0h2M7 6h1m1 0h1M7 7h1m1 0h1m1 0h3m-3 1h1M7 9h1m3 0h1m-1 3h1"/><path stroke="#873d3d" d="M5 6h1m2 0h1m0 2h1m3 0h1m-3 2h1"/></svg>