<svg xmlns="http://www.w3.org/2000/svg" shape-rendering="crispEdges" viewBox="0 -0.5 16 16"><path stroke="#db665b" d="M7 2h3M6 3h2M1 4h1m1 1h1m2 0h1m2 0h1m1 0h1m1 0h1M1 6h1m1 0h1m1 0h2m1 0h2m1 0h3M6 7h1m1 0h2M1 8h1m1 0h1m2 0h3m1 0h1m1 0h1M6 9h3m1 0h3M1 10h1m1 0h1m1 0h4m-3 1h2m1 0h2"/><path stroke="#ad4e46" d="M10 2h1M8 3h3M2 4h2m1 0h5m1 0h2M1 5h1m2 0h2m1 0h2m1 0h1m1 0h1m1 0h1M2 6h1m1 0h1m2 0h1m2 0h1m3 0h1M1 7h1m1 0h3m1 0h1m3 0h2m1 0h1M2 8h1m1 0h2m3 0h1m1 0h1m1 0h1M1 9h1m1 0h3m3 0h1m3 0h1M2 10h1m1 0h1m5 0h2M1 11h1m1 0h1m1 0h1m2 0h1m2 0h2M2 12h2m1 0h1m1 0h3m2 0h1M3 13h1m3 0h1"/><path stroke="#80352e" d="M10 4h1m2 0h1M2 5h1M2 7h1m7 0h1m2 0h1m0 1h1M2 9h1m6 1h1m2 0h1M2 11h1m3 1h1m3 0h1m-6 1h1m2 0h1m3 0h1M3 14h1m3 0h1"/></svg>