<svg xmlns="http://www.w3.org/2000/svg" shape-rendering="crispEdges" viewBox="0 -0.5 16 16"><path stroke="#d58686" d="M5 3h1m3 0h2M4 4h1m6 0h1M3 5h1M2 6h1m6 2h1"/><path stroke="#f2e8e8" d="M6 3h3M5 4h2m1 0h3M4 5h2m3 0h4M3 6h3m3 0h3M4 7h3m1 0h3M7 8h2"/><path stroke="#452b5b" d="M7 4h1M6 5h1m1 0h1M6 6h1m1 0h1M7 7h1"/><path stroke="#c15a5a" d="M12 4h1m0 1h1M3 7h1m7 0h2M4 8h2m-1 2h1m6 0h1"/><path stroke="#eedefb" d="M7 5h1"/><path stroke="#8c5eb3" d="M7 6h1"/><path stroke="#e18282" d="M12 6h1M6 8h1m3 0h1"/><path stroke="#932b2b" d="M13 6h1M2 7h1m9 1h1M5 9h1m1 0h1m2 0h1m1 0h1m-1 2h1m-8 1h1"/><path stroke="rgba(97,64,125,0.6470588235294118)" d="M13 7h1M3 8h1m0 1h1m6 0h1m-6 1h1m3 0h1"/><path stroke="#61407d" d="M11 8h1M6 9h1m1 0h2m-2 1h2"/><path stroke="#591818" d="M7 10h1m-3 3h1"/><path stroke="#a24646" d="M5 11h1"/></svg>