<svg xmlns="http://www.w3.org/2000/svg" shape-rendering="crispEdges" viewBox="0 -0.5 16 16"><path stroke="#737c9a" d="M1 4h3m1 0h7m1 0h2M3 5h5m1 0h4M2 8h2m8 0h2M1 9h1m2 0h1m6 0h1m2 0h1M0 10h1m1 0h1m2 0h1m4 0h1m2 0h1m1 0h1M0 11h1m2 0h1m1 0h1m4 0h1m1 0h1m2 0h1M1 12h1m2 0h1m6 0h1m2 0h1M2 13h2m8 0h2"/><path stroke="#636b85" d="M4 4h1m7 0h1M2 5h1m5 0h1m4 0h1"/><path stroke="#4b5369" d="M1 5h1m12 0h1M2 6h1m1 0h1m6 0h1m1 0h1M5 7h6M7 8h2M8 9h1m-1 1h1"/><path stroke="#555d76" d="M1 6h1m12 0h1M3 7h1m8 0h1M1 8h1m2 0h3m2 0h3m2 0h1M0 9h1m1 0h2m1 0h3m1 0h2m1 0h2m1 0h1M1 10h1m1 0h2m1 0h2m1 0h1m1 0h2m1 0h1M1 11h2m1 0h1m6 0h1m1 0h2M0 12h1m1 0h2m1 0h1m4 0h1m1 0h2m1 0h1M1 13h1m2 0h1m6 0h1m2 0h1"/><path stroke="#454b60" d="M3 6h1m1 0h6m1 0h1M2 7h1m1 0h1m6 0h1m1 0h1m-8 4h4"/></svg>