<svg xmlns="http://www.w3.org/2000/svg" shape-rendering="crispEdges" viewBox="0 -0.5 16 16"><path stroke="#674239" d="M8 2h1M7 3h1M7 4h1"/><path stroke="#7e614d" d="M9 2h1m0 1h2"/><path stroke="#282b39" d="M5 5h1m3 0h1M4 6h1m5 0h1M3 7h1m1 0h1m5 0h1M4 8h1M4 9h1m-1 1h2m-3 1h4m2 0h1m1 0h1m-8 1h5m1 0h1m-6 1h1m3 0h1"/><path stroke="#41465b" d="M6 5h3M5 6h3M4 7h1m1 0h1M3 8h1m1 0h2m4 0h1M3 9h1m1 0h3m2 0h2m-9 1h1m2 0h6m-5 1h2m1 0h1m-2 1h1m-4 1h3"/><path stroke="#6a7293" d="M8 6h2M7 7h4M7 8h4M8 9h2"/></svg>