<svg xmlns="http://www.w3.org/2000/svg" shape-rendering="crispEdges" viewBox="0 -0.5 16 16"><path stroke="#ffc859" d="M7 0h1M7 1h1M5 2h4M7 3h4M8 4h1"/><path stroke="#ffe799" d="M8 0h1M8 1h1m0 1h2M9 6h2M8 7h4M8 8h4M9 9h2"/><path stroke="#d26f19" d="M5 3h2m0 1h1M5 5h1m4 0h1M4 6h1m6 0h1M3 7h1m1 0h1m6 0h1M4 8h1M4 9h1m-1 1h1m-1 1h2m-3 1h4m3 0h1m1 0h1m-9 1h6m1 0h1m-7 1h1m4 0h1"/><path stroke="#ffbd39" d="M6 5h4M5 6h4M4 7h1m1 0h2M3 8h1m1 0h3m4 0h1M3 9h1m1 0h4m2 0h2M3 10h1m1 0h8M3 11h1m2 0h7m-6 1h3m1 0h1m-2 1h1m-5 1h4"/></svg>