<svg xmlns="http://www.w3.org/2000/svg" shape-rendering="crispEdges" viewBox="0 -0.5 16 16"><path stroke="#fff" d="M12 2h2M2 3h2m8 0h2M4 4h1m5 0h1M5 5h1m3 0h1m3 0h1M6 6h1m1 0h1M3 7h1m2 0h1m1 0h1m4 0h1M2 8h1m4 0h1m5 0h1M3 9h1m3 0h1m4 0h1m-9 1h2m1 0h1m2 0h2m-6 1h3m-3 1h3m-2 1h2"/><path stroke="#87d6f2" d="M1 5h1m10 1h1M1 8h1m2 1h1m6 0h1m1 0h1m-5 2h1m-5 1h1m0 1h1m2 0h1"/><path stroke="#3eb2d5" d="M14 5h1M3 6h1m0 1h1m9 0h1m-3 1h1M0 9h1m8 0h1m5 0h1m-2 1h1"/><path stroke="#c2efff" d="M6 10h1m1 0h1m-4 1h1m3 1h1m-3 2h2"/><path stroke="#777" d="M0 11h5m5 0h6m-6 1h1m-6 1h1m4 0h1m-5 1h1m2 0h1m-3 1h1"/><path stroke="#434343" d="M0 12h5m6 0h5M0 13h5m6 0h5M0 14h6m4 0h6M1 15h6m1 0h7"/></svg>