<svg xmlns="http://www.w3.org/2000/svg" shape-rendering="crispEdges" viewBox="0 -0.5 16 16"><path stroke="#fff" d="M12 4h2M2 5h2m8 0h2M4 6h1m5 0h1M5 7h1m3 0h1M6 8h1m1 0h1M6 9h1m1 0h1m0 1h1m-3 2h1"/><path stroke="#094d9c" d="M4 7h1m1 0h1M3 8h1m3 0h1m2 0h1M7 9h1m3 0h1m-9 1h1m2 0h1m1 0h1m-5 1h2m3 0h1m1 0h1m-7 2h1m3 0h1m-4 1h1m1 0h1"/><path stroke="#62bff6" d="M4 8h2m4 1h1m-7 1h1m1 1h1m1 0h1m1 0h1m-5 2h1m1 0h1"/><path stroke="#1d80f2" d="M9 8h1M3 9h1m3 1h1m3 0h1m-7 2h1m3 0h1m-3 2h1"/><path stroke="#aedefa" d="M4 9h2m3 0h1m-5 1h1m4 0h1m-4 1h1m-2 1h1m1 0h1m-2 1h1"/><path stroke="#777" d="M0 12h5m5 0h6"/><path stroke="#434343" d="M0 13h5m5 0h6M0 14h6m3 0h7M1 15h14"/></svg>