<svg xmlns="http://www.w3.org/2000/svg" shape-rendering="crispEdges" viewBox="0 -0.5 16 16"><path stroke="#f44e00" d="M7 2h1M0 9h1m5 0h1m1 0h1m6 0h1m-6 1h1"/><path stroke="#fff" d="M12 2h2M2 3h2m8 0h2M4 4h1m5 0h1M5 5h1m3 0h1M6 6h1m1 0h1M6 7h1m1 0h1M7 8h1M7 9h1"/><path stroke="#f3870b" d="M12 5h1m1 0h1M2 6h1M1 7h1m1 0h1m8 0h1m1 0h1M2 8h1m2 1h1m-2 1h1m4 0h1m-1 2h1"/><path stroke="#f7e787" d="M13 6h1M2 7h1m4 3h1m-2 1h3m-2 1h1"/><path stroke="#f7c34f" d="M9 8h1m1 1h1m-7 1h2m1 0h1m-4 1h1m3 0h1m-4 1h1m1 0h1"/><path stroke="#777" d="M0 11h5m5 0h6M5 12h1m4 0h1m-5 1h4"/><path stroke="#434343" d="M0 12h5m6 0h5M0 13h6m4 0h6M0 14h16M0 15h15"/></svg>