<svg xmlns="http://www.w3.org/2000/svg" shape-rendering="crispEdges" viewBox="0 -0.5 16 16"><path stroke="#fff" d="M7 1h1M7 2h1m4 1h2M2 4h2m8 0h2M4 5h1m5 0h1M5 6h1m3 0h1M6 7h1m1 0h1M6 8h1m1 0h1M7 9h1m-1 1h1m-1 1h1m-2 1h3m-2 1h2"/><path stroke="#ecf" d="M7 3h1m-2 8h1m1 0h1m0 1h1m-4 1h1m0 1h2"/><path stroke="#a669c4" d="M7 4h1m-2 6h1m1 0h1m0 1h1m-5 1h1"/><path stroke="#77458f" d="M7 5h1M7 6h1M7 7h1M4 8h1m2 0h1m3 0h1m-3 2h1m-7 2h1m5 1h1m1 0h1m-7 2h1"/><path stroke="#777" d="M0 11h5m5 0h6m-6 1h1m-1 1h1m-5 1h1m2 0h1m-3 1h1"/><path stroke="#434343" d="M0 12h3m1 0h1m6 0h5M0 13h6m6 0h4M0 14h6m4 0h6M1 15h4m1 0h1m1 0h7"/></svg>