<svg xmlns="http://www.w3.org/2000/svg" shape-rendering="crispEdges" viewBox="0 -0.5 16 16"><path stroke="#2b5397" d="M2 1h1m3 0h1M1 2h1m5 0h1M1 6h1m5 0h1M2 7h1m3 0h1"/><path stroke="#3b6bcb" d="M3 1h3M2 2h1m3 0h1M1 3h1m5 0h1M1 4h1m5 0h1M1 5h1m5 0h1M2 6h1m3 0h1M3 7h3"/><path stroke="#c3d7f7" d="M3 2h1m1 0h1M2 3h1m3 0h1M2 5h1m3 0h1M3 6h1m1 0h1"/><path stroke="#a7a7a7" d="M4 2h1M2 4h1m3 0h1M4 6h1"/><path stroke="#ebebeb" d="M3 3h2M3 4h1m1 0h1M3 5h3"/><path stroke="#1b3767" d="M5 3h1M4 4h1"/><path stroke="#8bf0ff" d="M12 3h1M8 5h1m0 1h1m0 1h1M4 8h1m6 0h1M4 9h1m6 0h1m-7 1h1m4 0h1m-5 1h1m2 0h1m-3 1h2m-7 1h1"/><path stroke="#69c4f2" d="M8 4h1M3 8h1m8 0h1M3 9h1m8 0h1m-6 4h2"/><path stroke="rgba(106,197,243,0.5176470588235295)" d="M9 4h1m2 3h1M3 10h1m8 0h1M2 12h1m10 0h1M1 13h1m1 0h1m2 0h1m2 0h1m2 0h1m1 0h1M2 14h1m10 0h1"/><path stroke="rgba(105,197,242,0.796078431372549)" d="M9 5h2m0 1h1m-1 1h1m-8 3h1m6 0h1m-8 1h1m6 0h1m-7 1h2m2 0h2"/><path stroke="#bbfff3" d="M8 6h1M7 7h3M5 8h6M5 9h6m-5 1h4m-3 1h2m4 2h1"/><path stroke="#75d1ff" d="M10 6h1m-6 5h1m4 0h1"/></svg>