<svg xmlns="http://www.w3.org/2000/svg" shape-rendering="crispEdges" viewBox="0 -0.5 16 16"><path stroke="#fff" d="M7 1h1m4 1h2M2 3h2m8 0h2M4 4h1m5 0h1M5 5h1m3 0h1M6 6h1m1 0h1m5 0h1M1 7h1m4 0h1m1 0h1M7 8h1M7 9h1m-1 2h1m-2 1h3m-2 1h2"/><path stroke="#c1f99b" d="M7 2h1m5 5h1M2 8h1m3 3h1m1 0h1m0 1h1m-3 2h2"/><path stroke="#87cc56" d="M7 3h1m4 5h1M3 9h1m3 1h1m-3 1h1m3 0h1"/><path stroke="#5f9f31" d="M7 4h1M7 5h1M7 6h1M4 7h1m2 0h1m1 2h1m1 0h1m-8 1h1m1 0h1m1 0h1m1 0h1m-8 2h1m5 1h1m1 0h1m-7 2h1"/><path stroke="#777" d="M0 11h5m5 0h6M5 12h1m4 0h1m-5 1h1m3 0h1m-5 1h1m2 0h1m-3 1h1"/><path stroke="#434343" d="M0 12h3m1 0h1m6 0h5M0 13h6m6 0h4M0 14h6m4 0h6M1 15h4m1 0h1m1 0h7"/></svg>