<svg xmlns="http://www.w3.org/2000/svg" shape-rendering="crispEdges" viewBox="0 -0.5 16 16"><path stroke="#baf0ff" d="M7 0h1M6 1h1m1 0h1M7 2h1M7 3h1M7 7h1m-2 4h1m1 0h1m-3 1h1m2 0h1m-3 2h2"/><path stroke="#fff" d="M7 1h1m4 2h2M2 4h2m3 0h1m4 0h2M4 5h1m2 0h1m2 0h1M5 6h1m1 0h1m1 0h1M6 7h1m1 0h1M6 8h3M7 9h1m-1 1h1m-1 1h1m-1 1h2m-2 1h2"/><path stroke="#85c0ff" d="M6 2h1m1 0h1M6 3h1m1 0h1M6 4h1m1 0h1M6 5h1m1 0h1M6 6h1m1 0h1M6 9h1m1 0h1m-3 1h1m1 0h1m-4 1h1m3 0h1"/><path stroke="#3281d5" d="M4 8h1m-2 4h1m7 1h1m-7 2h1"/><path stroke="rgba(28,94,166,0.9215686274509803)" d="M5 10h1m3 0h1m-1 3h1"/><path stroke="#777" d="M0 11h5m5 0h6M5 12h1m4 0h1m-5 1h1m3 0h1m-5 1h1m2 0h1m-3 1h1"/><path stroke="#434343" d="M0 12h3m1 0h1m6 0h5M0 13h6m6 0h4M0 14h6m4 0h6M1 15h4m1 0h1m1 0h7"/></svg>