<svg xmlns="http://www.w3.org/2000/svg" shape-rendering="crispEdges" viewBox="0 -0.5 16 16"><path stroke="rgba(105,197,242,0.796078431372549)" d="M3 1h1m1 3h2m2 0h2M4 5h1m6 0h1M4 6h1m6 0h1M4 9h1m6 0h1m-8 1h1m6 0h1m-7 1h2m2 0h2"/><path stroke="#8bf0ff" d="M12 2h1M7 4h2M6 5h1m2 0h1M5 6h1m4 0h1M4 7h1m6 0h1M4 8h1m6 0h1M5 9h1m4 0h1m-5 1h1m2 0h1m-3 1h2m-7 1h1"/><path stroke="rgba(106,197,243,0.5176470588235295)" d="M6 3h1m2 0h1M3 6h1m8 0h1M3 9h1m8 0h1M2 11h1m-2 1h1m1 0h1m2 0h1m2 0h1m3 0h1M2 13h1m9 0h1m1 0h1m-2 1h1"/><path stroke="#69c4f2" d="M7 3h2M3 7h1m8 0h1M3 8h1m8 0h1m-6 4h2"/><path stroke="#75d1ff" d="M5 5h1m4 0h1m-6 5h1m4 0h1"/><path stroke="#bbfff3" d="M7 5h2M6 6h4M5 7h6M5 8h6M6 9h4m-3 1h2m4 3h1"/></svg>