<svg xmlns="http://www.w3.org/2000/svg" shape-rendering="crispEdges" viewBox="0 -0.5 16 16"><path stroke="#fff" d="M12 2h2M2 3h2m8 0h2M4 4h1m5 0h1M5 5h1m3 0h1M6 6h1m1 0h1M6 7h1m1 0h1M7 8h1M7 9h1"/><path stroke="#f3870b" d="M3 7h1m7 6h1m-8 1h1m3 1h1"/><path stroke="#f7c34f" d="M9 8h1M5 9h1m5 0h1m-8 1h2m3 0h2m-6 1h1m3 0h1m-4 1h1m2 0h1m-5 1h1m1 0h3m-3 1h2"/><path stroke="#f7e787" d="M6 10h3m-3 1h3m-2 1h2"/><path stroke="#777" d="M0 11h5m5 0h6M5 12h1m4 0h1m-5 1h1m3 0h1m-5 1h1m2 0h1m-3 1h1"/><path stroke="#434343" d="M0 12h5m6 0h5M0 13h5m7 0h4M0 14h4m1 0h1m4 0h6M1 15h6m2 0h6"/></svg>