<svg xmlns="http://www.w3.org/2000/svg" shape-rendering="crispEdges" viewBox="0 -0.5 16 16"><path stroke="#885989" d="M5 2h1m3 0h1M5 5h1m6 0h1M1 6h1m8 2h1M1 10h1m11 0h1m-8 1h1m-3 2h1m5 0h1"/><path stroke="#bf7bc7" d="M6 2h1m1 0h1M4 3h1m5 0h1M3 4h1m2 0h3m2 0h1M9 5h1m0 1h1m1 0h1M1 7h1m1 0h1m6 0h1M3 8h1M1 9h1m1 0h1m5 0h1m3 0h1M4 10h1m0 1h1m6 0h1M3 12h1m7 0h1m-7 1h1m3 0h1"/><path stroke="#fbdbff" d="M7 2h1m4 5h1M1 8h1m4 5h1"/><path stroke="#50374b" d="M5 3h1m3 0h1M3 5h1m4 0h1m2 0h1M6 6h2m1 0h1M7 7h2M7 8h2M4 9h2m-4 1h2m8 0h1M2 11h1m6 0h1m-6 1h1m5 0h1"/><path stroke="#8b378f" d="M6 3h3M4 4h2m3 0h2M4 5h1m1 0h2m2 0h1M8 6h1m2 0h1M2 7h1m1 0h1m1 0h1m2 0h1m1 0h1M2 8h1m1 0h1m4 0h1M2 9h1m5 0h1m3 0h1m-8 1h2m4 0h1m-9 1h2m5 0h2m-7 1h2m2 0h1"/></svg>