<svg xmlns="http://www.w3.org/2000/svg" shape-rendering="crispEdges" viewBox="0 -0.5 16 16"><path stroke="#f39317" d="M4 1h1M1 4h1m5 0h1M4 7h1"/><path stroke="#094d9c" d="M5 1h1m2 0h1m0 1h1M9 5h1M5 6h1m2 0h1m1 2h1m2 0h1M2 9h1m2 0h1m3 0h1m4 0h1M1 10h1m4 0h1m2 2h1m4 0h1M1 13h1m4 0h1m3 0h1m2 0h1M2 14h1m2 0h1"/><path stroke="#1d80f2" d="M6 1h2m1 2h1M9 4h1M7 6h1m3 2h2M3 9h2m4 1h1m4 0h1M1 11h1m4 0h1m2 0h1m4 0h1M1 12h1m4 0h1m4 1h2M3 14h2"/><path stroke="#f7df7b" d="M2 2h1m3 0h1M4 3h1M3 4h3M4 5h1M2 6h1m3 0h1"/><path stroke="#f7c34f" d="M4 2h1M3 3h1m1 0h1M2 4h1m3 0h1M3 5h1m1 0h1M4 6h1"/><path stroke="#62bff6" d="M5 2h1m2 0h1M8 5h1m1 4h1m2 0h1M2 10h1m2 0h1m4 2h1m2 0h1M2 13h1m2 0h1"/><path stroke="#aedefa" d="M7 2h1m0 1h1M8 4h1M6 5h2m3 4h2M3 10h2m5 0h1m2 0h1M2 11h1m2 0h1m4 0h1m2 0h1M2 12h1m2 0h1m5 0h2M3 13h2"/><path stroke="#fff" d="M6 3h2m3 7h2M3 11h2m6 0h2M3 12h2"/></svg>