<svg xmlns="http://www.w3.org/2000/svg" shape-rendering="crispEdges" viewBox="0 -0.5 16 16"><path stroke="#fff" d="M5 1h2m2 0h2M4 2h1m1 0h1m2 0h1m1 0h1M6 3h1m2 0h1M2 4h1m3 0h1m2 0h1m3 0h1M1 5h1m4 0h1m2 0h1m4 0h1M1 6h1m4 0h1m2 0h1m4 0h1M1 7h1m4 0h1m2 0h1m4 0h1M2 8h1m3 0h1m2 0h1m3 0h1M3 9h1m2 0h1m2 0h1m2 0h1m-9 1h1m1 0h4m1 0h1m-8 1h1m6 0h1m-8 1h1m6 0h1m-8 1h1m6 0h1m-8 1h1m6 0h1"/><path stroke="#222542" d="M5 2h1m4 0h1M4 3h1m6 0h1M2 5h1m10 0h1M1 8h1m12 0h1M2 9h1m10 0h1M3 10h1m8 0h1m-7 1h4m-6 4h1m6 0h1"/></svg>