<svg xmlns="http://www.w3.org/2000/svg" shape-rendering="crispEdges" viewBox="0 -0.5 16 16"><path stroke="#094d9c" d="M5 1h1m2 0h1M4 2h1m4 0h1M4 5h1m4 0h1M5 6h1m2 0h1m1 2h1m2 0h1M2 9h1m2 0h1m3 0h1m4 0h1M1 10h1m4 0h1m2 2h1m4 0h1M1 13h1m4 0h1m3 0h1m2 0h1M2 14h1m2 0h1"/><path stroke="#1d80f2" d="M6 1h2M4 3h1m4 0h1M4 4h1m4 0h1M6 6h2m3 2h2M3 9h2m4 1h1m4 0h1M1 11h1m4 0h1m2 0h1m4 0h1M1 12h1m4 0h1m4 1h2M3 14h2"/><path stroke="#62bff6" d="M5 2h1m2 0h1M5 5h1m2 0h1m1 4h1m2 0h1M2 10h1m2 0h1m4 2h1m2 0h1M2 13h1m2 0h1"/><path stroke="#aedefa" d="M6 2h2M5 3h1m2 0h1M5 4h1m2 0h1M6 5h2m3 4h2M3 10h2m5 0h1m2 0h1M2 11h1m2 0h1m4 0h1m2 0h1M2 12h1m2 0h1m5 0h2M3 13h2"/><path stroke="#fff" d="M6 3h2M6 4h2m3 6h2M3 11h2m6 0h2M3 12h2"/></svg>