<svg xmlns="http://www.w3.org/2000/svg" shape-rendering="crispEdges" viewBox="0 -0.5 16 16"><path stroke="#f55f1f" d="M7 1h1M2 2h1m4 0h1m3 0h1M6 4h1m2 0h1M4 5h1m1 0h1m2 0h1m1 0h1M4 6h1m4 0h1m1 0h1M2 7h1m1 0h1m6 0h1M4 8h1m6 0h1m0 1h1m-2 1h1m-8 1h1m6 0h1m-7 2h1m4 0h1m-5 1h1m2 0h1"/><path stroke="#f8a668" d="M7 3h1M7 4h1M7 5h2M6 6h3m1 0h1M6 7h3m1 0h1M5 8h2m3 0h1M4 9h2m3 0h3m-8 1h2m3 0h2m-6 1h1m2 0h3m-6 1h2m2 0h2m-5 1h1m1 0h2m-3 1h2"/><path stroke="#f7e787" d="M9 7h1M7 8h3M6 9h3m-3 1h3m-3 1h2m-1 1h2m-2 1h1"/></svg>