<svg xmlns="http://www.w3.org/2000/svg" shape-rendering="crispEdges" viewBox="0 -0.5 16 16"><path stroke="#bbb" d="M8 2h1M7 3h4M7 4h5M0 5h1m6 0h4M1 6h1m6 0h2M1 7h1m6 0h1M2 8h1m6 0h1M2 9h1m0 1h1m-1 1h1m4 0h1m-5 1h2m2 0h1m-5 1h1"/><path stroke="#ebebeb" d="M4 3h1M2 4h4M1 5h5M2 6h5M2 7h5M3 8h5M3 9h5m-4 1h5m-5 1h4"/><path stroke="#777" d="M12 4h1M6 5h1m4 0h1M7 6h1M7 7h1m1 0h1M8 8h1m1 0h1M8 9h2m-1 1h1m-1 1h1m-4 1h2m0 1h1"/><path stroke="#fff" d="M10 6h1m3 0h1m-4 1h1m1 0h1m-2 1h1m-2 1h1m1 0h1m-4 1h1m3 0h1"/><path stroke="#d45633" d="M11 6h1m-2 1h1m3 0h1m-4 1h1m1 0h1m-4 1h1m3 0h1m-4 1h1"/><path stroke="#ff9a6f" d="M13 6h1m-2 1h1m-1 2h1m0 1h1"/></svg>