<svg xmlns="http://www.w3.org/2000/svg" shape-rendering="crispEdges" viewBox="0 -0.5 16 16"><path stroke="#cbcbcb" d="M6 1h3m0 1h1M9 3h1M9 4h1m0 1h1M3 6h3m4 0h1M6 7h1M6 8h1M6 9h1m0 1h1m-1 1h1m-1 1h1"/><path stroke="#ebebeb" d="M5 2h3M4 3h4M5 4h4M6 5h3M2 7h3M1 8h4M2 9h4m-3 1h3m-3 1h3m-3 1h3"/><path stroke="#979797" d="M8 2h1m2 0h1m-1 1h1m-1 1h1M6 6h1M5 7h1m2 0h1M8 8h1M8 9h1m-3 3h1m-3 2h2"/><path stroke="#777" d="M10 2h1m-1 1h1m2 0h2m-2 1h2m-3 1h2m-2 1h1M7 7h1m2 0h1m1 0h1M7 8h1m2 0h1M7 9h1m2 0h2m-4 1h3m-2 1h1m-1 1h1m-4 1h1m0 1h2"/><path stroke="#434343" d="M12 2h2m-2 1h1m-1 1h1M9 8h1m1 0h1M9 9h1"/><path stroke="#535353" d="M14 2h1m-5 2h1m0 1h1m2 0h1m-4 1h1m1 0h1M9 7h1m1 0h1m1 0h1m-2 1h1m-2 2h1m-4 1h1m1 0h1m-3 1h1m1 0h1m-3 1h2"/><path stroke="#bbb" d="M8 3h1M4 4h1m0 1h1m3 0h1M7 6h3M5 8h1M1 9h1m0 1h1m3 0h1m-5 1h1m3 0h1m-4 2h3m1 0h1"/></svg>