<svg xmlns="http://www.w3.org/2000/svg" shape-rendering="crispEdges" viewBox="0 -0.5 16 16"><path stroke="#fff" d="M4 1h1m6 0h1M4 2h1m2 0h2m2 0h1M4 3h1m2 0h2m2 0h1M4 4h1m6 0h1M2 5h2m3 0h2m3 0h2M1 6h1m2 0h1m1 0h1m2 0h1m1 0h1m2 0h1M1 7h1m2 0h1m1 0h1m2 0h1m1 0h1m2 0h1M1 8h1m2 0h1m1 0h1m2 0h1m1 0h1m2 0h1M1 9h1m2 0h1m1 0h1m2 0h1m1 0h1m2 0h1M2 10h2m3 0h2m3 0h2M4 11h1m6 0h1m-8 1h1m2 0h2m2 0h1m-8 1h1m2 0h2m2 0h1m-8 1h1m6 0h1"/><path stroke="#222542" d="M7 4h2M4 5h1m6 0h1M2 6h2m3 0h2m3 0h2M1 10h1m2 0h1m1 0h1m2 0h1m1 0h1m2 0h1M2 11h2m3 0h2m3 0h2m-7 3h2m-5 1h1m6 0h1"/></svg>