<svg xmlns="http://www.w3.org/2000/svg" shape-rendering="crispEdges" viewBox="0 -0.5 16 16"><path stroke="#ebebeb" d="M4 3h1M2 4h4M1 5h5M2 6h5M2 7h5M3 8h4M3 9h5m-4 1h4m-4 1h3"/><path stroke="#777" d="M5 3h1m0 1h1M6 5h1m6 0h2M7 6h1m5 0h2M7 7h1m5 0h1M7 8h1m4 0h2M8 9h1m3 0h1m-5 1h1m3 0h1m-6 2h2m0 1h2"/><path stroke="#cbcbcb" d="M6 3h3M7 4h2M7 5h2M8 6h1M8 7h1M8 8h2M9 9h1m-1 1h1m-1 1h1"/><path stroke="#535353" d="M9 3h1m2 0h1M9 4h1m4 0h1M9 5h1M9 6h1M9 7h1m4 0h1m-5 1h1m3 0h1m-5 1h1m2 0h1m-4 1h1m2 0h1m-4 1h1m1 0h1m-3 1h1m1 0h1m-2 1h1"/><path stroke="#979797" d="M10 3h2m-2 1h2m-2 1h2m-2 1h2m-2 1h2m-7 6h3"/><path stroke="#434343" d="M12 4h2m-2 1h1m-1 1h1m-1 1h1m-2 1h1m-1 1h1m-1 1h1m-1 1h1m-1 1h1"/><path stroke="#bbb" d="M1 6h1M1 7h1m0 1h1M2 9h1m0 1h1m-1 1h1m3 0h2m-5 1h3m2 0h1m-6 1h1"/></svg>