<svg xmlns="http://www.w3.org/2000/svg" shape-rendering="crispEdges" viewBox="0 -0.5 16 16"><path stroke="#fff" d="M4 1h1m6 0h1M3 2h1m3 0h2m3 0h1M3 3h1m3 0h2m3 0h1M4 4h1m6 0h1M2 5h1m3 0h4m3 0h1M1 6h1m1 0h1m1 0h1m4 0h1m1 0h1m1 0h1M1 7h1m1 0h1m1 0h1m4 0h1m1 0h1m1 0h1M1 8h1m1 0h1m1 0h1m4 0h1m1 0h1m1 0h1M1 9h1m1 0h1m1 0h1m4 0h1m1 0h1m1 0h1M2 10h1m3 0h4m3 0h1M4 11h1m6 0h1m-9 1h1m3 0h2m3 0h1M3 13h1m3 0h2m3 0h1m-9 1h1m6 0h1"/><path stroke="#222542" d="M4 2h1m6 0h1M3 4h1m3 0h2m3 0h1M4 5h1m6 0h1M2 6h1m3 0h4m3 0h1M1 10h1m1 0h1m1 0h1m4 0h1m1 0h1m1 0h1M2 11h1m3 0h4m3 0h1M4 12h1m6 0h1m-9 2h1m3 0h2m3 0h1m-9 1h1m6 0h1"/></svg>