<svg xmlns="http://www.w3.org/2000/svg" shape-rendering="crispEdges" viewBox="0 -0.5 16 16"><path stroke="#8e8eb6" d="M2 1h12M1 2h1m12 0h1M1 3h1m12 0h1M1 4h1m12 0h1M1 5h1m12 0h1M1 6h1m12 0h1M1 7h1m12 0h1M1 8h1m12 0h1M1 9h1m12 0h1M1 10h1m12 0h1M1 11h1m12 0h1M1 12h1m12 0h1M1 13h1m12 0h1M2 14h12"/><path stroke="#616188" d="M2 2h12M2 3h1m10 0h1M2 4h1m10 0h1M2 5h1m10 0h1M2 6h1m10 0h1M2 7h1m10 0h1M2 8h1m10 0h1M2 9h1m10 0h1M2 10h1m10 0h1M2 11h1m10 0h1M2 12h1m10 0h1M2 13h12"/><path stroke="#3f3f5e" d="M3 3h10M3 4h1m8 0h1M3 5h1m8 0h1M3 6h1m8 0h1M3 7h1m8 0h1M3 8h1m8 0h1M3 9h1m8 0h1M3 10h1m8 0h1M3 11h1m8 0h1M3 12h10"/><path stroke="#25253b" d="M4 4h8M4 5h1m6 0h1M4 6h1m6 0h1M4 7h1m6 0h1M4 8h1m6 0h1M4 9h1m6 0h1m-8 1h1m6 0h1m-8 1h8"/><path stroke="#141421" d="M5 5h6M5 6h1m4 0h1M5 7h1m4 0h1M5 8h1m4 0h1M5 9h1m4 0h1m-6 1h6"/><path stroke="#0c0c14" d="M6 6h4M6 7h4M6 8h4M6 9h4"/></svg>