<svg xmlns="http://www.w3.org/2000/svg" shape-rendering="crispEdges" viewBox="0 -0.5 16 16"><path stroke="rgba(241,229,251,0.592156862745098)" d="M6 1h4M4 2h2m4 0h2M3 3h1m8 0h1M2 4h1m10 0h1M2 5h1m10 0h1M1 6h1m12 0h1M1 7h1m12 0h1M1 8h1m12 0h1M1 9h1m12 0h1M2 10h1m10 0h1M2 11h1m10 0h1M3 12h1m8 0h1m-9 1h2m4 0h2m-6 1h4"/><path stroke="rgba(207,177,234,0.592156862745098)" d="M6 2h4M4 3h8M3 4h2m6 0h2M3 5h1m8 0h1M2 6h2m2 0h4m2 0h2M2 7h6m4 0h2M2 8h5m4 0h3M2 9h5m2 0h5M3 10h10M3 11h4m2 0h4m-9 1h3m2 0h3m-6 1h4"/><path stroke="#311e47" d="M5 4h6M4 5h8M4 6h2m4 0h2M8 7h4M7 8h4M7 9h2m-2 2h2m-2 1h2"/></svg>