<svg xmlns="http://www.w3.org/2000/svg" shape-rendering="crispEdges" viewBox="0 -0.5 16 16"><path stroke="#658e2a" d="M3 1h1"/><path stroke="#ff6565" d="M7 1h1m1 0h1M8 2h3M9 3h1m2 2h1m1 0h1m-2 1h3m-2 1h1M9 8h1M6 9h5m-4 1h3m-2 1h1m-6 1h1m9 1h1"/><path stroke="#8fbe2f" d="M3 2h1M2 4h1m1 0h1M2 5h1M1 6h1m3 0h1M1 7h1m0 1h1"/><path stroke="#ba2424" d="M6 2h1m0 1h1m0 1h1m2 2h1m0 1h1m0 1h1M4 9h1m0 2h1m-5 1h1m4 0h1m1 0h1m-7 1h1m4 0h1m3 0h1m0 1h1"/><path stroke="#e44545" d="M7 2h1m0 1h1m3 3h1m0 1h1M5 8h1m2 0h1m-4 2h2m3 0h1m-5 1h2m1 0h1m-3 1h1"/><path stroke="#bfe059" d="M3 3h1M3 4h1M3 5h2M2 6h2M2 7h1m2 0h1M3 8h2"/><path stroke="#e9fcbb" d="M4 6h1M3 7h2"/><path stroke="#8d1717" d="M6 8h1M5 9h1m-2 1h1"/></svg>