<svg xmlns="http://www.w3.org/2000/svg" shape-rendering="crispEdges" viewBox="0 -0.5 16 16"><path stroke="#ff4b1b" d="M4 1h1M1 4h1m1 0h1M2 5h1m2 0h1M1 8h1m2 1h1"/><path stroke="#ff6565" d="M7 1h1m1 0h1M8 2h3M9 3h1m2 2h1m1 0h1m-2 1h3m-2 1h1M9 8h1M6 9h5m-4 1h3m-2 1h1m-6 1h1m9 1h1"/><path stroke="#f98a39" d="M1 2h1m2 0h1M4 3h1M1 5h1m3 1h1M5 8h1M2 9h1"/><path stroke="#ba2424" d="M6 2h1m0 1h1m0 1h1m2 2h1m0 1h1m0 1h1m-9 3h1m-5 1h1m4 0h1m1 0h1m-7 1h1m4 0h1m3 0h1m0 1h1"/><path stroke="#e44545" d="M7 2h1m0 1h1m3 3h1m0 1h1M8 8h1m-4 2h2m3 0h1m-5 1h2m1 0h1m-3 1h1"/><path stroke="#f7b72c" d="M4 4h1M1 6h1M1 7h1m3 0h1M3 9h1"/><path stroke="#fff383" d="M3 5h1M3 6h1M2 7h3"/><path stroke="#ffd750" d="M4 5h1M2 6h1m1 0h1M2 8h1m1 0h1"/><path stroke="#ffe98a" d="M3 8h1"/><path stroke="#8d1717" d="M6 8h1M5 9h1m-2 1h1"/></svg>