<svg xmlns="http://www.w3.org/2000/svg" shape-rendering="crispEdges" viewBox="0 -0.5 16 16"><path stroke="rgba(248,229,253,0.592156862745098)" d="M6 1h4M4 2h2m4 0h2M3 3h1m8 0h1M2 4h1m10 0h1M2 5h1m10 0h1M1 6h1m12 0h1M1 7h1m12 0h1M1 8h1m12 0h1M1 9h1m12 0h1M2 10h1m10 0h1M2 11h1m10 0h1M3 12h1m8 0h1m-9 1h2m4 0h2m-6 1h4"/><path stroke="rgba(209,109,217,0.592156862745098)" d="M6 2h4M4 3h8M3 4h3m4 0h3M3 5h2m6 0h2M2 6h2m8 0h2M2 7h2m8 0h2M2 8h2m8 0h2M2 9h2m7 0h3M3 10h2m5 0h3M3 11h3m1 0h6m-9 1h8m-6 1h4"/><path stroke="rgba(209,109,218,0.5686274509803921)" d="M6 4h4M5 5h1m4 0h1M4 6h1m1 0h4m1 0h1M4 7h1m1 0h1m2 0h1m1 0h1M4 8h1m1 0h1m1 0h2m1 0h1M4 9h1m1 0h2m2 0h1m-6 1h1m1 0h3m-4 1h1"/><path stroke="#d3a8d6" d="M6 5h4M5 6h1m4 0h1M5 7h1m1 0h2m1 0h1M5 8h1m1 0h1m2 0h1M5 9h1m2 0h2m-4 1h1"/></svg>