<svg xmlns="http://www.w3.org/2000/svg" shape-rendering="crispEdges" viewBox="0 -0.5 16 16"><path stroke="#fff" d="M6 1h4M5 2h1m4 0h1M4 3h1m6 0h1M3 4h1m3 0h2m3 0h1M2 5h1m3 0h1m2 0h1m3 0h1M1 6h1m3 0h1m4 0h1m3 0h1M1 7h1m2 0h1m6 0h1m2 0h1M1 8h1m2 0h1m6 0h1m2 0h1M1 9h1m3 0h1m4 0h1m3 0h1M2 10h1m3 0h1m2 0h1m3 0h1M3 11h1m3 0h2m3 0h1m-9 1h1m6 0h1m-7 1h1m4 0h1m-5 1h4"/><path stroke="#222542" d="M6 2h4M5 3h1m4 0h1M4 4h1m6 0h1M3 5h1m3 0h2m3 0h1M2 6h1m3 0h1m2 0h1M5 7h1m4 0h1M4 9h1m6 0h1M1 10h1m3 0h1m4 0h1m3 0h1M2 11h1m3 0h1m2 0h1m3 0h1M3 12h1m3 0h2m3 0h1m-9 1h1m6 0h1m-7 1h1m4 0h1m-5 1h4"/></svg>