<svg xmlns="http://www.w3.org/2000/svg" shape-rendering="crispEdges" viewBox="0 -0.5 16 16"><path stroke="#3182cb" d="M5 1h1m4 0h1M8 3h1M6 4h1m2 0h1M1 5h1m3 0h1m2 0h1m1 0h1m3 0h1M4 6h1m1 0h1m4 0h1m-2 1h1m1 0h1M3 8h1m1 0h1m3 1h1m1 0h1M1 10h1m3 0h1m1 0h1m2 0h1m3 0h1m-8 1h1m1 0h1m-5 3h1m4 0h1"/><path stroke="#acd3f5" d="M6 1h4M4 2h2m1 0h1m1 0h3M3 3h1m6 0h1m1 0h1M2 4h2m9 0h1M2 5h1m10 0h1M1 6h1m12 0h1M1 7h1m11 0h2M1 8h2m11 0h1M1 9h1m12 0h1M2 10h1m9 0h2M2 11h1m10 0h1M3 12h1m1 0h1m6 0h1m-9 1h2m1 0h1m2 0h2m-6 1h4"/><path stroke="#1c62a2" d="M3 2h1m8 0h1M2 3h1m10 0h1M7 4h2M5 6h1m4 0h1M4 7h1m6 1h1M4 9h1m5 0h1m-3 2h1m-7 1h1m10 0h1M3 13h1m8 0h1"/><path stroke="#99cfff" d="M6 2h1m1 0h1M4 3h1m2 0h1m1 0h1m1 0h1M4 4h1m7 0h1M3 5h1m8 0h1M2 6h1m10 0h1M2 7h1m10 1h1M2 9h1m9 0h2M3 10h1m-1 1h1m8 0h1m-9 1h1m1 0h1m3 0h2m-6 1h1m1 0h2"/><path stroke="#5ba1e0" d="M5 3h2M5 4h1m4 0h2M4 5h1m1 0h1m4 0h1M3 6h1m8 0h1M3 7h1m7 0h1m0 1h1M3 9h1m0 1h1m4 0h1m1 0h1m-8 1h3m3 0h2m-5 1h3"/><path stroke="#535f4b" d="M7 5h1m0 1h1M5 7h1m3 0h1M4 8h1m5 0h1M5 9h1m1 0h1m-2 1h1"/><path stroke="#5d6358" d="M7 7h1M6 8h1m1 0h2M8 9h1"/></svg>