<svg xmlns="http://www.w3.org/2000/svg" shape-rendering="crispEdges" viewBox="0 -0.5 16 16"><path stroke="#be4d42" d="M6 1h3M3 2h3m3 0h1M2 3h1m3 0h1m3 0h2M1 4h1m5 0h1m4 0h1M1 5h1m10 0h1M1 6h1m11 0h1M2 7h3m6 0h2"/><path stroke="#e87e73" d="M5 7h6"/><path stroke="rgba(53,144,173,0.5411764705882353)" d="M6 8h1m0 1h1m-1 2h1m-6 1h1m6 0h1m0 1h1m-4 1h1"/><path stroke="#fff" d="M7 8h1M6 9h1m-3 1h2m1 0h1m0 1h1m-2 1h1"/><path stroke="rgba(83,177,209,0.6980392156862745)" d="M8 8h1M5 9h1m0 1h1m-3 1h1m-2 1h1m4 0h1"/><path stroke="#90e3ff" d="M3 11h1m5 0h1m0 1h1m-4 1h1m-2 1h1"/></svg>