<svg xmlns="http://www.w3.org/2000/svg" shape-rendering="crispEdges" viewBox="0 -0.5 16 16"><path stroke="rgba(244,136,12,0.4980392156862745)" d="M5 0h2M4 1h1m2 0h1M4 2h1m2 0h1M2 3h2m1 0h2M1 4h1m2 0h1M1 5h1m2 0h1M2 6h2m-3 5h2m-3 1h1m2 0h1m3 0h2m-9 1h1m2 0h1m2 0h1m2 0h1m-9 1h2m3 0h1m2 0h1m-3 1h2"/><path stroke="#974b33" d="M10 0h1m-1 1h1m-1 1h1m-1 1h1m-1 1h2m0 1h2m-1 1h1m-1 3h1m-2 1h1m-2 1h1m-2 1h1m-1 1h1m-1 1h1m-1 1h1"/><path stroke="#4f1713" d="M11 0h4m-4 1h5m-5 1h5m-5 1h5m-4 1h4m-5 1h1m2 0h2m-2 1h2m-2 1h2m-2 1h2m-2 1h2m-3 1h3m-4 1h4m-5 1h5m-5 1h5m-5 1h5m-5 1h4"/><path stroke="#f7c34f" d="M5 1h1m0 1h1M3 4h1M2 5h1m7 0h1m-1 1h3M9 7h1m3 0h1M9 8h1m3 0h1M9 9h1m2 0h1m-4 1h3m-2 1h1m-9 1h1m-2 1h1m5 0h1m0 1h1"/><path stroke="#f7e787" d="M6 1h1M5 2h1m4 5h3m-3 1h3m-3 1h2m-4 4h1m-2 1h1"/><path stroke="#f3870b" d="M2 4h1m5 0h1M3 5h1m2 5h1m-3 1h1m3 0h1m-8 1h1m0 1h1"/><path stroke="#fff" d="M1 8h1m1 0h1m1 0h1m1 0h1"/></svg>