<svg xmlns="http://www.w3.org/2000/svg" shape-rendering="crispEdges" viewBox="0 -0.5 16 16"><path stroke="#4b952e" d="M8 1h1M8 11h1m0 2h1"/><path stroke="#f11d1d" d="M3 2h1M2 6h2m-1 5h1m-2 1h1"/><path stroke="#ffac43" d="M4 2h1M4 3h2M5 4h1M5 5h1M4 6h2M4 7h2M5 8h1M5 9h1m-2 1h2m-1 1h1m-1 1h1"/><path stroke="#c126ff" d="M12 2h2m-2 1h2m-2 1h1m-1 3h1m-1 2h1"/><path stroke="#c70a0a" d="M3 3h1M3 7h1m-1 5h1"/><path stroke="#7dd35a" d="M8 3h1M8 4h2M8 5h2M8 6h2M8 7h2M8 8h2M8 9h2m-2 1h2m-1 1h1m-1 1h1"/><path stroke="#409dff" d="M11 3h1m-2 1h2m-2 1h2m-2 1h2m-2 1h2m-2 1h2m-2 1h2m-1 1h1"/><path stroke="#e16c23" d="M4 4h1M4 8h1m-1 3h1m0 2h1"/><path stroke="#ffe15f" d="M6 4h1M6 5h2M6 6h2M6 7h2M6 8h2M6 9h2m-1 1h1m-1 1h1m-1 1h1m-1 1h1"/><path stroke="#8b18b9" d="M13 4h1m-2 1h1m0 2h1m-2 3h1m0 3h1"/><path stroke="#a78f28" d="M6 10h1m0 4h1"/><path stroke="#1c73cf" d="M10 10h1m0 1h1"/></svg>