<svg xmlns="http://www.w3.org/2000/svg" shape-rendering="crispEdges" viewBox="0 -0.5 16 16"><path stroke="#d1d1d1" d="M6 2h2m6 2h1m-4 4h1M9 9h1"/><path stroke="#a3a3a3" d="M7 3h2m4 2h1m-4 1h1m1 0h1m-3 1h2m-2 1h1"/><path stroke="#888" d="M9 3h1M8 4h1m2 0h1m-2 1h1M9 6h1"/><path stroke="#4f4b49" d="M10 3h1M9 4h2M8 5h2M8 6h1M7 7h1M6 8h1M5 9h1m-2 1h1m-2 1h1"/><path stroke="#726864" d="M11 3h1M7 6h1M6 7h1M4 9h1m-3 2h1m-2 1h2"/><path stroke="#da7e7e" d="M11 5h2m1 0h1m-4 1h1m1 0h1m-2 1h1m-3 2h1"/><path stroke="#a54747" d="M13 7h1m-2 1h2m-3 1h1m1 0h1m-3 1h1m-1 1h1m-1 2h1"/><path stroke="#c8b087" d="M5 8h1m-3 2h1"/></svg>