<svg xmlns="http://www.w3.org/2000/svg" shape-rendering="crispEdges" viewBox="0 -0.5 16 16"><path stroke="#974b33" d="M6 1h6M4 2h2m6 0h1M3 3h1m7 0h1m1 0h1M2 4h1m7 0h1m1 0h1m1 0h1M2 5h1m7 0h1m2 0h1M2 6h1m5 0h1m1 0h1M2 7h1m4 0h1m1 0h1m3 0h1M2 8h1m3 0h1m1 0h1m3 0h1m1 0h1M3 9h1m2 0h1m6 0h1M4 10h1m1 0h1m1 0h2m-5 1h1m1 0h1m2 0h1m3 0h1M3 12h1m3 0h1m2 0h1m-9 1h1m1 0h1m3 0h2m2 0h1M3 14h1m2 0h1m4 0h1m1 0h1m-2 1h1"/><path stroke="#4f1713" d="M6 2h6M4 3h7m1 0h1M3 4h7m1 0h1m1 0h1M3 5h7M3 6h5m1 0h1M3 7h4m1 0h1M3 8h3m7 0h1M4 9h2m-1 1h1m2 1h2m-2 1h2m-7 1h1m8 1h1"/></svg>