<svg xmlns="http://www.w3.org/2000/svg" shape-rendering="crispEdges" viewBox="0 -0.5 16 16"><path stroke="#974b33" d="M0 0h1m0 1h1m4 0h1M2 2h2m1 0h1m1 0h1M4 3h1m2 0h1M1 4h1m5 0h1m1 0h1M4 5h1m3 0h1m1 0h1M3 6h1m1 0h1m3 0h1m1 0h1M4 7h1m6 0h1M8 8h2m1 0h1M3 9h1m3 0h1m2 0h1m1 0h1m-6 1h1m2 0h1m1 0h1m-8 1h1m2 0h2m1 0h1m-8 1h1m1 0h1m4 0h1m-7 1h1m6 0h1m-4 1h1m3 0h1m-1 1h1"/><path stroke="#4f1713" d="M1 0h14M2 1h4m1 0h9M4 2h1m1 0h1m1 0h8M8 3h8M8 4h1m1 0h6M9 5h1m1 0h5M4 6h1m7 0h4m-4 1h4m-4 1h4M8 9h2m3 0h3m-8 1h2m3 0h3m-4 1h4M5 12h1m6 0h4m-3 1h3m-2 1h2m-2 1h1"/></svg>