<svg xmlns="http://www.w3.org/2000/svg" shape-rendering="crispEdges" viewBox="0 -0.5 16 16"><path stroke="#661616" d="M8 3h1m2 0h1M5 6h1m8 0h1M5 9h1m8 0h1m-7 3h1m2 0h1"/><path stroke="#f03a4a" d="M9 3h2M7 4h2m2 0h2M1 5h1m4 0h1m2 0h2m2 0h1M6 6h1m1 0h1m2 0h1m1 0h1M5 7h1m1 0h1m1 0h2m1 0h1m1 0h1M5 8h1m1 0h1m1 0h2m1 0h1m1 0h1M6 9h1m1 0h1m2 0h1m1 0h1m-8 1h1m2 0h2m2 0h1M4 11h1m2 0h2m2 0h2m-4 1h2"/><path stroke="#9b0100" d="M4 4h1m4 0h2M2 5h1m4 0h1m4 0h1M6 7h1m6 0h1M6 8h1m6 0h1M1 9h1m2 0h1m2 1h1m4 0h1m-8 1h1m3 0h2"/><path stroke="#d5151f" d="M8 5h1m2 0h1M7 6h1m4 0h1M3 7h1m3 2h1m4 0h1m-5 1h1m2 0h1"/><path stroke="#fff" d="M9 6h2M8 7h1m2 0h1M8 8h1m2 0h1M9 9h2"/></svg>