<svg xmlns="http://www.w3.org/2000/svg" shape-rendering="crispEdges" viewBox="0 -0.5 16 16"><path stroke="rgba(81,109,132,0.7333333333333333)" d="M5 1h1m3 0h1M4 2h1m5 0h1M3 3h1m7 0h1M2 4h1m9 0h1M2 7h1m9 0h1M3 8h1m7 0h1"/><path stroke="rgba(113,153,185,0.6627450980392157)" d="M6 1h3M2 5h1m9 0h1M2 6h1m9 0h1"/><path stroke="#e29d27" d="M10 1h1M3 2h1m5 1h1M5 4h1m2 0h1M8 6h1M7 7h1"/><path stroke="rgba(154,168,182,0.2196078431372549)" d="M5 2h4M4 3h1m2 0h1m2 0h1M3 4h1m5 0h1m1 0h1M3 5h2m4 0h3M3 6h2m5 0h2M3 7h1m1 0h2m1 0h4M4 8h2m3 0h2M4 9h1m5 0h1"/><path stroke="#ebd160" d="M9 2h1M5 3h1m2 0h1M6 4h1m1 1h1M5 6h2m2 0h1"/><path stroke="#d36113" d="M6 3h1M4 4h1m5 0h1M5 5h1m1 3h1"/><path stroke="#fff9de" d="M7 4h1M6 5h2M7 6h1"/><path stroke="#d09035" d="M4 7h1"/><path stroke="rgba(218,135,52,0.43529411764705883)" d="M6 8h1m1 0h1M5 9h1m3 0h1m-6 1h1m5 0h1m-7 1h1m5 0h1m-7 1h1m5 0h1m-6 1h1m4 0h1m-5 1h1m1 0h1m1 0h1m-4 1h1m1 0h1"/><path stroke="#dfe8c0" d="M6 9h2m-3 1h4m-4 1h2m-2 1h3m-1 1h1"/><path stroke="#c7d792" d="M8 9h1m0 1h1m-2 1h1m0 1h1m-4 1h1m2 0h1m-3 1h1m1 0h1"/><path stroke="#3f4c1d" d="M7 11h1m1 0h1"/><path stroke="#6d8233" d="M8 12h1"/><path stroke="#9fbb53" d="M8 13h1"/></svg>