<svg xmlns="http://www.w3.org/2000/svg" shape-rendering="crispEdges" viewBox="0 -0.5 16 16"><path stroke="rgba(229,79,79,0.23921568627450981)" d="M5 0h3m3 0h3M4 1h1m3 0h1m1 0h1m3 0h1M3 2h1m5 0h1m5 0h1M3 3h1m11 0h1M3 4h1m5 0h1m5 0h1M4 5h1m3 0h1m1 0h1m3 0h1m-4 1h3"/><path stroke="#ffd7d7" d="M5 1h2m5 0h2M4 2h1m9 0h1M4 3h1m9 0h1M4 4h1m9 0h1M5 5h2m5 0h2"/><path stroke="#cb8f8f" d="M7 1h1m3 0h1M8 2h1m1 0h1M9 3h1M8 4h1m1 0h1M7 5h1m3 0h1"/><path stroke="rgba(229,78,78,0.7176470588235294)" d="M5 2h1m7 0h1M8 3h1m1 0h1M5 4h1m7 0h1"/><path stroke="rgba(231,79,79,0.3411764705882353)" d="M6 2h1m5 0h1M5 3h1m7 0h1M6 4h1m5 0h1"/><path stroke="rgba(229,78,78,0.47058823529411764)" d="M7 2h1m3 0h1M7 4h1m3 0h1"/><path stroke="#ab453f" d="M2 6h2m1 0h2m1 0h2M2 7h2m1 0h2m1 0h2M8 8h2M1 9h5m2 0h2m-9 1h5m2 0h2m-9 1h2m3 0h1m1 0h2m-9 1h2m1 0h4m-6 1h8m-7 1h6"/><path stroke="#682a28" d="M4 7h1m2 0h1M2 8h6M6 9h2m-2 1h2m-5 1h3m1 0h1m-5 1h1m4 0h2"/></svg>