<svg xmlns="http://www.w3.org/2000/svg" shape-rendering="crispEdges" viewBox="0 -0.5 16 16"><path stroke="#ff9545" d="M7 1h1m2 0h1M7 2h1m4 0h1m1 0h1M7 3h1m5 0h1m-4 1h1m1 0h1m1 0h1M7 5h1"/><path stroke="#ffc06f" d="M8 1h2m2 0h1m1 0h1M8 3h2M8 5h2m2 0h1m1 0h1"/><path stroke="#592613" d="M11 1h1m1 0h1M8 2h4m1 0h1m-4 1h3m1 0h1M7 4h3m1 0h1m1 0h1m-4 1h2m1 0h1"/><path stroke="#d7362a" d="M2 6h2m1 0h2m1 0h2M2 7h2m1 0h2m1 0h2M8 8h2M1 9h5m2 0h2m-9 1h5m2 0h2m-9 1h2m3 0h1m1 0h2m-9 1h2m1 0h4m-6 1h8m-7 1h6"/><path stroke="#6c1e18" d="M4 7h1m2 0h1M2 8h6M6 9h2m-2 1h2m-5 1h3m1 0h1m-5 1h1m4 0h2"/></svg>