<svg xmlns="http://www.w3.org/2000/svg" shape-rendering="crispEdges" viewBox="0 -0.5 16 16"><path stroke="#ebebeb" d="M9 1h5M8 2h1m2 0h1m2 0h1M8 3h1m5 0h1M9 4h5M9 5h1m1 0h1m1 0h1"/><path stroke="#434343" d="M9 2h2m1 0h2M9 3h1m1 0h1m1 0h1m-4 2h1m1 0h1m-3 1h1m1 0h1"/><path stroke="#bbb" d="M10 3h1m1 0h1M8 4h1m5 0h1M9 6h1m1 0h1m1 0h1"/><path stroke="#735753" d="M2 6h2m1 0h2m1 0h1M2 7h2m1 0h2m1 0h2M8 8h2M1 9h5m2 0h2m-9 1h5m2 0h2m-9 1h2m3 0h1m1 0h2m-9 1h2m1 0h4m-6 1h8m-7 1h6"/><path stroke="#3f2f2e" d="M4 7h1m2 0h1M2 8h6M6 9h2m-2 1h2m-5 1h3m1 0h1m-5 1h1m4 0h2"/></svg>