<svg xmlns="http://www.w3.org/2000/svg" shape-rendering="crispEdges" viewBox="0 -0.5 16 16"><path stroke="#fff" d="M4 0h1m6 0h1M3 1h1m3 0h2m3 0h1M3 2h1m3 0h2m3 0h1M4 3h1m6 0h1M0 4h2m4 0h4m4 0h2M2 5h1m2 0h1m4 0h1m2 0h1M4 6h1m6 0h1M4 7h1m6 0h1M1 8h2m1 0h1m6 0h1m1 0h2M0 9h1m4 0h1m4 0h1m4 0h1M3 10h1m2 0h1m2 0h1m2 0h1M2 11h1m3 0h4m3 0h1M2 12h1m10 0h1M3 13h1m1 0h2m2 0h2m1 0h1m-8 1h2m2 0h2"/><path stroke="#222542" d="M4 1h1m6 0h1M3 3h1m3 0h2m3 0h1M4 4h1m6 0h1M0 5h2m4 0h4m4 0h2M2 6h1m2 0h1m4 0h1m2 0h1M1 9h2m1 0h1m6 0h1m1 0h2M0 10h1m4 0h1m4 0h1m4 0h1M3 11h1m8 0h1m-7 1h4m-8 1h1m10 0h1M3 14h1m8 0h1m-8 1h2m2 0h2"/></svg>