<svg xmlns="http://www.w3.org/2000/svg" shape-rendering="crispEdges" viewBox="0 -0.5 16 16"><path stroke="rgba(127,166,201,0.6901960784313725)" d="M10 1h2"/><path stroke="rgba(127,201,181,0.6901960784313725)" d="M12 1h1"/><path stroke="rgba(139,127,201,0.6901960784313725)" d="M9 2h1"/><path stroke="#fff" d="M10 2h3M9 3h1m3 0h1M9 4h1m3 0h1m-1 1h1m-2 1h1m-2 1h1m-1 1h1m-1 2h1"/><path stroke="rgba(127,201,134,0.6901960784313725)" d="M13 2h1m0 1h1"/><path stroke="rgba(192,127,201,0.6901960784313725)" d="M8 3h1"/><path stroke="rgba(185,201,127,0.6901960784313725)" d="M10 3h1m-1 1h1M9 5h1"/><path stroke="rgba(152,201,127,0.6901960784313725)" d="M11 3h2m-1 1h1"/><path stroke="rgba(201,127,159,0.6901960784313725)" d="M8 4h1m3 6h1"/><path stroke="rgba(170,201,127,0.6901960784313725)" d="M14 4h1"/><path stroke="rgba(127,201,156,0.6901960784313725)" d="M12 5h1"/><path stroke="rgba(201,191,127,0.6901960784313725)" d="M14 5h1m-2 1h1"/><path stroke="#903c37" d="M2 6h2m1 0h2m1 0h2M2 7h2m1 0h2m1 0h2M8 8h2M1 9h5m2 0h2m-9 1h5m2 0h2m-9 1h2m3 0h1m1 0h2m-9 1h2m1 0h4m-6 1h8m-7 1h6"/><path stroke="rgba(127,191,201,0.6901960784313725)" d="M11 6h1m-2 1h1"/><path stroke="#50201e" d="M4 7h1m2 0h1M2 8h6M6 9h2m-2 1h2m-5 1h3m1 0h1m-5 1h1m4 0h2"/><path stroke="rgba(200,158,128,0.9058823529411765)" d="M12 7h1"/><path stroke="rgba(128,140,200,0.9058823529411765)" d="M10 8h1"/><path stroke="rgba(201,127,127,0.6901960784313725)" d="M12 8h1"/><path stroke="rgba(166,127,201,0.6901960784313725)" d="M11 9h1m-2 1h1m0 1h1"/></svg>