<svg xmlns="http://www.w3.org/2000/svg" shape-rendering="crispEdges" viewBox="0 -0.5 16 16"><path stroke="#9b418f" d="M4 1h1m8 0h1M7 2h1m4 0h1m1 0h1M2 3h1m3 0h1m1 0h1m1 0h1m2 0h1M1 4h1m1 0h1m1 0h1m1 0h2m1 0h1M2 5h1m2 0h1m1 0h1m1 0h1m1 0h1M4 6h1m1 0h1m2 0h1m1 0h1m2 0h1M4 7h1m7 0h1M3 8h1m8 0h1M3 9h1m3 0h3m2 0h1M3 10h1m2 0h4m2 0h1m-9 1h1m2 0h2m3 0h1m-9 1h1m6 0h1m-7 1h2m3 0h1m-4 1h3"/><path stroke="#32283d" d="M13 2h1M7 3h1M2 4h1m5 1h1m1 0h1M5 6h1m1 0h2m1 0h1M5 7h7M4 8h8M4 9h3m3 0h2m-8 1h2m4 0h2m-7 1h2m2 0h3m-7 1h6m-4 1h3"/></svg>