<svg xmlns="http://www.w3.org/2000/svg" shape-rendering="crispEdges" viewBox="0 -0.5 16 16"><path stroke="#d8deea" d="M5 2h5M4 3h7M3 4h9M3 5h2m2 0h1m2 0h2M3 6h1m3 0h1m3 0h1M3 7h1m3 0h1m3 0h1M4 8h1m1 0h1m1 0h1m1 0h1M5 9h1m3 0h1m-6 1h2m1 0h1m1 0h2m-6 1h5m-5 1h1m1 0h1m1 0h1"/><path stroke="#9caac2" d="M5 5h2m1 0h2M3 8h1m3 0h1m3 0h1M4 9h1m1 0h1m1 0h1m1 0h1m-8 1h1m7 0h1m-7 3h1m1 0h1m1 0h1"/><path stroke="#2c374a" d="M4 6h3m1 0h3M4 7h3m1 0h3M5 8h1m3 0h1"/><path stroke="#3f4a5f" d="M7 9h1m-2 1h1m1 0h1"/></svg>