<svg xmlns="http://www.w3.org/2000/svg" shape-rendering="crispEdges" viewBox="0 -0.5 16 16"><path stroke="rgba(103,160,73,0.3686274509803922)" d="M7 1h2M6 6h1m2 0h1M1 7h1m12 0h1M1 8h1m12 0h1M6 9h1m2 0h1m-3 5h2"/><path stroke="rgba(130,234,78,0.5764705882352941)" d="M7 2h1M7 3h1M3 8h1"/><path stroke="rgba(129,233,78,0.7490196078431373)" d="M8 2h1M2 7h1m10 0h1m-6 6h1"/><path stroke="rgba(170,255,149,0.7176470588235294)" d="M8 3h1M7 4h1m0 1h1M3 7h1m8 0h1M4 8h1m5 0h2m-4 3h1m-2 1h2"/><path stroke="#c6ff8c" d="M8 4h1M7 5h1m0 1h1M4 7h1m1 0h1m3 0h2M5 8h1m3 0h1M7 9h1m0 1h1m-2 1h1"/><path stroke="#fff" d="M7 6h1M5 7h1m1 0h3M6 8h3M8 9h1m-2 1h1"/><path stroke="rgba(102,160,72,0.5686274509803921)" d="M2 8h1m9 0h2m-7 5h1"/></svg>