<svg xmlns="http://www.w3.org/2000/svg" shape-rendering="crispEdges" viewBox="0 -0.5 16 16"><path stroke="rgba(96,180,244,0.4980392156862745)" d="M7 2h1M7 3h2M7 4h1M6 6h1m2 0h1M3 7h2m6 0h1M3 8h1m2 1h1m2 0h1m-3 3h1"/><path stroke="rgba(96,179,244,0.2901960784313726)" d="M8 2h1m3 5h1M2 8h1m9 0h2m-6 4h1m-2 1h1"/><path stroke="#70c0de" d="M8 4h1M5 7h1M4 8h1m6 0h1m-4 2h1m-2 1h1"/><path stroke="#a5e1f7" d="M7 5h1M5 8h1m2 1h1m-2 1h1"/><path stroke="#fff" d="M8 5h1M7 6h1M7 7h2m1 0h1M6 8h4M7 9h1"/><path stroke="rgba(157,222,246,0.9921568627450981)" d="M8 6h1m0 1h1m0 1h1"/><path stroke="rgba(157,222,246,0.9215686274509803)" d="M6 7h1"/><path stroke="rgba(112,192,222,0.7176470588235294)" d="M8 11h1"/></svg>