<svg xmlns="http://www.w3.org/2000/svg" shape-rendering="crispEdges" viewBox="0 -0.5 16 16"><path stroke="rgba(234,81,58,0.9686274509803922)" d="M14 3h1m-2 1h1m-2 1h1m-2 1h1m-2 1h1m-1 1h1m0 1h1m0 1h1m0 1h1m0 1h1"/><path stroke="rgba(234,81,58,0.7843137254901961)" d="M8 4h1M7 5h1M6 6h1M5 7h1M5 8h1m0 1h1m0 1h1m0 1h1"/><path stroke="#fff" d="M14 4h1m-2 1h2m-3 1h3m-4 1h4m-4 1h4m-3 1h3m-2 1h2m-1 1h1"/><path stroke="rgba(234,81,58,0.5764705882352941)" d="M3 5h1M2 6h1M1 7h1M1 8h1m0 1h1m0 1h1"/><path stroke="rgba(255,255,255,0.6431372549019608)" d="M8 5h1M7 6h2M6 7h3M6 8h3M7 9h2m-1 1h1"/><path stroke="rgba(255,255,255,0.45098039215686275)" d="M3 6h1M2 7h2M2 8h2M3 9h1"/></svg>