<svg xmlns="http://www.w3.org/2000/svg" shape-rendering="crispEdges" viewBox="0 -0.5 16 16"><path stroke="#fff" d="M1 1h1m12 0h1M2 2h1m1 0h1m6 0h1m1 0h1M3 3h1m1 0h1m4 0h1m1 0h1M2 4h1m3 0h1m2 0h1m3 0h1M3 5h1m8 0h1M4 6h1m6 0h1M7 7h2M7 8h2M4 9h1m6 0h1m-9 1h1m8 0h1M2 11h1m3 0h1m2 0h1m3 0h1M3 12h1m1 0h1m4 0h1m1 0h1M2 13h1m1 0h1m6 0h1m1 0h1M1 14h1m12 0h1"/><path stroke="#222542" d="M1 2h1m12 0h1M2 3h1m1 0h1m6 0h1m1 0h1M3 4h1m1 0h1m4 0h1m1 0h1M2 5h1m3 0h1m2 0h1m3 0h1M3 6h1m8 0h1M4 7h1m6 0h1M7 9h2m-5 1h1m6 0h1m-9 1h1m8 0h1M2 12h1m3 0h1m2 0h1m3 0h1M3 13h1m1 0h1m4 0h1m1 0h1M2 14h1m1 0h1m6 0h1m1 0h1M1 15h1m12 0h1"/></svg>