<svg xmlns="http://www.w3.org/2000/svg" shape-rendering="crispEdges" viewBox="0 -0.5 16 16"><path stroke="#9b6f9a" d="M10 0h3M9 1h2M9 2h1M9 5h2M8 6h2M9 7h2M7 8h1m1 0h2M7 9h1m1 0h2m-2 2h2m-2 1h2m-3 1h3m-3 1h3m-4 1h4"/><path stroke="#f39317" d="M4 1h1M1 4h1m5 0h1M4 7h1"/><path stroke="#272125" d="M11 1h1m-2 1h2m-2 1h2"/><path stroke="#f7df7b" d="M2 2h1m3 0h1M4 3h1M3 4h3M4 5h1M2 6h1m3 0h1"/><path stroke="#f7c34f" d="M4 2h1M3 3h1m1 0h1M2 4h1m3 0h1M3 5h1m1 0h1M4 6h1"/><path stroke="#7f5476" d="M9 3h1M9 4h3m-1 1h1m-2 1h2M8 7h1m2 0h1m-1 1h1m-1 1h1m-1 2h1m-1 1h1m-1 1h1m-1 1h1m-1 1h1"/><path stroke="#594354" d="M12 7h1m-1 1h1"/><path stroke="#f0e49b" d="M7 10h1"/><path stroke="#d19b3d" d="M9 10h3"/><path stroke="#dbc067" d="M12 10h1"/></svg>