<svg xmlns="http://www.w3.org/2000/svg" shape-rendering="crispEdges" viewBox="0 -0.5 16 16"><path stroke="#9b6f9a" d="M8 0h3M7 1h2M7 2h1M7 5h2M6 6h2M7 7h2M5 8h1m1 0h2M5 9h1m1 0h2m-2 2h2m-2 1h2m-3 1h3m-3 1h3m-4 1h4"/><path stroke="#272125" d="M9 1h1M8 2h2M8 3h2"/><path stroke="#7f5476" d="M7 3h1M7 4h3M9 5h1M8 6h2M6 7h1m2 0h1M9 8h1M9 9h1m-1 2h1m-1 1h1m-1 1h1m-1 1h1m-1 1h1"/><path stroke="#594354" d="M10 7h1m-1 1h1"/><path stroke="#f0e49b" d="M5 10h1"/><path stroke="#d19b3d" d="M7 10h3"/><path stroke="#dbc067" d="M10 10h1"/></svg>