<svg xmlns="http://www.w3.org/2000/svg" shape-rendering="crispEdges" viewBox="0 -0.5 16 16"><path stroke="#fff" d="M12 1h1m-2 1h1m-2 1h1M9 4h1M8 5h1m1 2h5M8 9h1m0 1h1m0 1h1m0 1h1m0 1h1"/><path stroke="rgba(197,244,167,0.6941176470588235)" d="M3 3h1m-2 7h1"/><path stroke="rgba(198,246,168,0.23137254901960785)" d="M5 4h1M4 7h1m4 0h1M5 8h1m0 3h1"/><path stroke="rgba(197,245,166,0.43137254901960786)" d="M2 6h1m2 1h1M4 8h1m-1 4h1"/><path stroke="#8ad57a" d="M4 6h2M3 7h1m2 0h1M3 8h1m2 0h1M4 9h2"/></svg>