<svg xmlns="http://www.w3.org/2000/svg" shape-rendering="crispEdges" viewBox="0 -0.5 16 16"><path stroke="#e186e4" d="M2 0h1m1 0h1m6 0h3M3 1h1m1 0h1m4 0h2m2 0h2M2 2h1m1 0h1m4 0h1m2 0h2M1 3h1m1 0h2m5 0h1m1 0h1M1 4h1m1 0h2m2 0h4m1 0h1M2 5h1m2 0h2m4 0h1M3 6h2m5 0h1m1 0h2M0 7h1m2 0h3m4 0h2m2 0h2M1 8h2m6 0h1m2 0h2M0 9h1m2 0h1m1 0h2m3 0h1m3 0h2M1 10h2m1 0h1m4 0h1m1 0h1m-9 1h1m1 0h1m4 0h1m1 0h1m-9 1h1m1 0h1m3 0h1m2 0h1M4 13h1m1 0h1m2 0h1m1 0h2M3 14h1m1 0h2m1 0h1m1 0h1m-9 1h1m1 0h1m4 0h1m1 0h1"/><path stroke="#fff" d="M3 0h1m10 0h2M4 1h1m7 0h2M3 2h1m6 0h1M2 3h1m8 0h1m-1 1h1M4 5h1m3 0h2M5 6h5m1 0h1M7 7h2m3 0h1M0 8h1m2 0h6m5 0h2M2 9h1m1 0h1m3 0h1m-6 1h1m6 0h1m-7 1h1m6 0h1m-7 1h1m6 0h1m-3 1h1m-7 1h1m-2 1h1m6 0h1"/><path stroke="#623364" d="M7 0h1m0 1h1M7 2h1M6 3h1M6 4h1m7 0h1m-3 1h2m1 0h1m-9 5h1m-2 1h1m-5 1h1m-2 1h1m-2 1h1"/><path stroke="#fdbfff" d="M11 2h1M2 4h1m0 1h1m3 0h1m2 0h1M6 7h1m2 0h1m3 0h1M1 9h1m5 0h1m1 0h1m1 3h1m-7 1h1m3 1h1"/></svg>