<svg xmlns="http://www.w3.org/2000/svg" shape-rendering="crispEdges" viewBox="0 -0.5 16 16"><path stroke="rgba(99,99,99,0.7215686274509804)" d="M4 2h1M1 6h1"/><path stroke="rgba(153,163,181,0.5882352941176471)" d="M6 2h1M3 4h1M2 7h1M2 8h1M2 9h1m1 3h1"/><path stroke="#d2d7e3" d="M8 2h3m0 1h1m1 0h1M5 4h2m6 0h1M5 6h1m9 0h1M4 7h1m10 0h1M4 8h1m10 0h1M4 9h1m9 0h1m-9 2h1m6 0h2m-9 1h1m1 0h1m0 1h3"/><path stroke="#98a3b5" d="M9 3h2M8 4h5M6 5h7M6 6h3m2 0h3M5 7h3m4 0h3M5 8h3m4 0h3M6 9h3m2 0h3m-7 1h7m-7 1h5m-3 1h2"/><path stroke="rgba(99,99,99,0.45098039215686275)" d="M1 4h1M0 7h1M0 8h1M0 9h1m1 2h1m-1 1h1"/><path stroke="#b0b8ce" d="M7 4h1m5 1h1m-8 5h1m5 1h1"/><path stroke="rgba(152,163,181,0.7725490196078432)" d="M3 6h1m0 5h1"/><path stroke="#79879f" d="M9 6h2M8 7h1m2 0h1M8 8h1m2 0h1M9 9h2"/><path stroke="#636363" d="M9 7h2M9 8h2"/></svg>