<svg xmlns="http://www.w3.org/2000/svg" shape-rendering="crispEdges" viewBox="0 -0.5 16 16"><path stroke="#b0b3bd" d="M8 1h2M4 2h1m2 0h1M3 3h1m7 0h2M3 4h1m9 0h1M1 6h1M1 7h1m11 0h1M2 8h1m11 0h1m-1 1h1M2 11h1m9 0h1M3 12h2m7 0h1m-5 1h1m2 0h1m-6 1h2"/><path stroke="#7d8292" d="M10 1h1M8 2h2M4 3h1m1 0h3M4 4h9M1 5h1m2 0h8M2 6h1m1 0h3m1 0h1m1 0h3M2 7h4m3 0h4M3 8h4m3 0h4M3 9h3m1 0h1m1 0h3m1 0h1M4 10h8m2 0h1M3 11h9m-5 1h3m1 0h1m-6 1h2m-3 1h1"/><path stroke="#656a7a" d="M5 3h1m3 0h1m2 2h1M3 6h1m3 0h1m1 0h1M6 7h1m2 1h1M6 9h1m1 0h1m3 0h1M3 10h1m2 2h1m3 0h1"/><path stroke="#434762" d="M7 7h2M7 8h2"/></svg>