<svg xmlns="http://www.w3.org/2000/svg" shape-rendering="crispEdges" viewBox="0 -0.5 16 16"><path stroke="#537841" d="M9 3h2M8 4h1m1 0h1M8 5h3M8 6h2M9 7h2M9 8h2"/><path stroke="#8b6848" d="M5 4h1M5 5h2M6 6h2M6 7h3M5 8h1m1 0h2M3 9h1m4 0h3m-7 1h1m2 0h4m-6 1h1m2 0h1"/><path stroke="#0f0f0f" d="M9 4h1"/><path stroke="#e4b062" d="M11 5h3m-7 6h1m0 1h1"/><path stroke="#5c452f" d="M5 6h1m0 2h1m0 1h1"/><path stroke="#3d582f" d="M10 6h1m0 1h1m-1 1h1m-1 1h1"/><path stroke="#c78522" d="M11 6h2m-8 6h1m-2 1h2"/><path stroke="#9e917d" d="M3 7h1M3 8h2M4 9h3m-2 1h2m-1 1h1"/></svg>