<svg xmlns="http://www.w3.org/2000/svg" shape-rendering="crispEdges" viewBox="0 -0.5 16 16"><path stroke="#537841" d="M9 4h2M8 5h1m1 0h1M8 6h3M8 7h2M9 8h2M9 9h2"/><path stroke="#0f0f0f" d="M9 5h1"/><path stroke="#e4b062" d="M11 6h3"/><path stroke="#3d582f" d="M10 7h1m0 1h1m-1 1h1m-1 1h1"/><path stroke="#c78522" d="M11 7h2"/><path stroke="#9e917d" d="M3 8h1M3 9h2m1 0h1m-3 1h2m-1 1h1m0 1h1"/><path stroke="#8b6848" d="M5 9h1m1 0h2m-6 1h1m3 0h2m1 0h1m-7 1h1m4 0h2m-6 1h1m1 0h3"/><path stroke="#5c452f" d="M6 10h1m2 0h1m-4 1h3"/></svg>