<svg xmlns="http://www.w3.org/2000/svg" shape-rendering="crispEdges" viewBox="0 -0.5 16 16"><path stroke="#fff" d="M2 2h1m1 0h1m1 0h1m2 0h1m1 0h1m1 0h1M2 3h1m1 0h1m1 0h1m2 0h1m1 0h1m1 0h1M2 4h1m1 0h1m1 0h1m2 0h1m1 0h1m1 0h1M2 5h1m1 0h1m1 0h1m2 0h1m1 0h1m1 0h1M3 6h1m1 0h1m4 0h1m1 0h1M7 7h2M7 8h2M3 9h1m1 0h1m4 0h1m1 0h1M2 10h1m1 0h1m1 0h1m2 0h1m1 0h1m1 0h1M2 11h1m1 0h1m1 0h1m2 0h1m1 0h1m1 0h1M2 12h1m1 0h1m1 0h1m2 0h1m1 0h1m1 0h1M2 13h1m1 0h1m1 0h1m2 0h1m1 0h1m1 0h1"/><path stroke="#222542" d="M2 6h1m1 0h1m1 0h1m2 0h1m1 0h1m1 0h1M3 7h1m1 0h1m4 0h1m1 0h1M7 9h2m-7 5h1m1 0h1m1 0h1m2 0h1m1 0h1m1 0h1"/></svg>