<svg xmlns="http://www.w3.org/2000/svg" shape-rendering="crispEdges" viewBox="0 -0.5 16 16"><path stroke="rgba(224,241,255,0.592156862745098)" d="M6 1h4M4 2h2m4 0h2M3 3h1m8 0h1M2 4h1m10 0h1M2 5h1m10 0h1M1 6h1m12 0h1M1 7h1m12 0h1M1 8h1m12 0h1M1 9h1m12 0h1M2 10h1m10 0h1M2 11h1m10 0h1M3 12h1m8 0h1m-9 1h2m4 0h2m-6 1h4"/><path stroke="rgba(118,162,248,0.592156862745098)" d="M6 2h4M4 3h4m1 0h3M3 4h4m2 0h4M3 5h3m3 0h4M2 6h3m4 0h5M2 7h2m8 0h2M2 8h2m8 0h2M2 9h5m4 0h3M3 10h4m3 0h3M3 11h4m2 0h4m-9 1h3m1 0h4m-6 1h4"/><path stroke="#bfd7fa" d="M8 3h1M6 5h1M5 6h1m2 0h1M4 7h1m6 1h1M7 9h1m2 0h1m-2 1h1m-3 2h1"/><path stroke="#daedfd" d="M7 4h2M7 5h2M6 6h2M5 7h7M4 8h7M8 9h2m-3 1h2m-2 1h2"/></svg>