<svg xmlns="http://www.w3.org/2000/svg" shape-rendering="crispEdges" viewBox="0 -0.5 16 16"><path stroke="#cbcbcb" d="M7 1h1M5 2h2m1 0h1M3 3h1m1 0h1m3 0h3M3 4h2m2 0h1m1 0h1m2 0h2M6 5h3m2 0h2M9 6h2M8 7h1"/><path stroke="#dbdbdb" d="M8 1h1M7 2h1m1 0h2M4 3h1m1 0h3m3 0h1M5 4h2m1 0h1m1 0h2m2 0h1M5 5h1m3 0h2M7 6h2"/><path stroke="#a7a7a7" d="M1 4h2m0 1h2m8 0h1M5 6h2m4 0h2m1 0h1M7 7h1m1 0h2m1 0h3M9 8h1m2 0h1m1 0h1M8 9h1m2 0h1m2 0h1m-7 1h1m1 0h2m1 0h1m-4 1h1m1 0h1m-5 1h2m-2 1h1"/><path stroke="#979797" d="M1 5h1M1 6h1m1 0h1M2 7h3M1 8h1m2 0h1m1 0h1M3 9h1m1 0h2m-5 1h1m1 0h2m-3 1h2m2 0h1m5 0h2m-9 1h2m3 0h2m-8 1h2m2 0h2m-3 1h1"/><path stroke="#878787" d="M2 5h1M2 6h1m1 0h1M1 7h1m3 0h2M2 8h2m1 0h1m1 0h1M1 9h2m1 0h1m2 0h1m-7 1h1m1 0h1m2 0h2m-7 1h2m2 0h2m-4 1h3m1 1h1m-1 1h1"/><path stroke="#bbb" d="M14 5h1m-2 1h1m-3 1h1M8 8h1m1 0h2m1 0h1M9 9h2m1 0h2m-5 1h1m2 0h1m1 0h1m-7 1h2m1 0h1m-2 1h1"/></svg>