<svg xmlns="http://www.w3.org/2000/svg" shape-rendering="crispEdges" viewBox="0 -0.5 16 16"><path stroke="#b8ddfc" d="M6 1h4M4 2h2m4 0h2M3 3h1m8 0h1M2 4h1m10 0h1M2 5h1m10 0h1M1 6h1m12 0h1M1 7h1m12 0h1M1 8h1m12 0h1M1 9h1m12 0h1M2 10h1m10 0h1M2 11h1m10 0h1M3 12h1m8 0h1m-9 1h2m4 0h2m-6 1h4"/><path stroke="#6cb8f8" d="M6 2h4M4 3h2m4 0h2M3 4h1m8 0h1M3 5h1m8 0h1M2 6h1m10 0h1M2 7h1m10 0h1M2 8h1m10 0h1M2 9h1m10 0h1M3 10h1m8 0h1M3 11h1m8 0h1m-9 1h2m4 0h2m-6 1h4"/><path stroke="rgba(68,164,246,0.7176470588235294)" d="M6 3h1m2 0h1M4 4h1m6 0h1M3 6h1m8 0h1M3 9h1m8 0h1m-9 2h1m6 0h1m-6 1h1m2 0h1"/><path stroke="rgba(70,164,246,0.3411764705882353)" d="M7 3h2M5 4h6M4 5h8M4 6h8M3 7h10M3 8h10M4 9h8m-8 1h8m-7 1h6m-4 1h2"/></svg>