<svg xmlns="http://www.w3.org/2000/svg" shape-rendering="crispEdges" viewBox="0 -0.5 16 16"><path stroke="rgba(70,164,246,0.3411764705882353)" d="M4 1h1m0 1h1m0 1h2M7 4h2M7 5h3M8 6h2M8 7h3M8 8h3M8 9h2m-3 1h3m-3 1h2m-3 1h2m-3 1h1m-2 1h1"/><path stroke="#6cb8f8" d="M5 1h1m1 1h1m0 1h2m0 1h1m-1 1h1m0 1h1m-1 1h1m-1 1h1m-1 1h1m-2 1h1m-1 1h1m-3 1h2m-3 1h1m-3 1h1"/><path stroke="#b8ddfc" d="M6 1h2m0 1h2m0 1h1m0 1h1m-1 1h1m0 1h1m-1 1h1m-1 1h1m-1 1h1m-2 1h1m-1 1h1m-2 1h1m-3 1h2m-4 1h2"/><path stroke="rgba(108,185,248,0.7176470588235294)" d="M6 2h1M6 13h1"/><path stroke="rgba(68,164,246,0.7176470588235294)" d="M9 4h1m0 2h1m-1 3h1m-2 2h1"/></svg>