<svg xmlns="http://www.w3.org/2000/svg" shape-rendering="crispEdges" viewBox="0 -0.5 16 16"><path stroke="#fff" d="M6 1h1m2 0h1M3 2h1m2 0h1m2 0h1m2 0h1M2 3h1m1 0h1m6 0h1m1 0h1M3 4h1m8 0h1M1 6h2m10 0h2M4 7h1m6 0h1M5 8h1m4 0h1M1 9h2m3 0h4m3 0h2M3 11h1m8 0h1M2 12h1m1 0h1m6 0h1m1 0h1M3 13h1m3 0h2m3 0h1"/><path stroke="#222542" d="M3 3h1m2 0h1m2 0h1m2 0h1M2 4h1m1 0h1m6 0h1m1 0h1M3 5h1m8 0h1M1 7h2m10 0h2M4 8h1m6 0h1M5 9h1m4 0h1M1 10h2m3 0h4m3 0h2M3 12h1m8 0h1M2 13h1m1 0h1m6 0h1m1 0h1M3 14h1m3 0h2m3 0h1"/></svg>