<svg xmlns="http://www.w3.org/2000/svg" shape-rendering="crispEdges" viewBox="0 -0.5 16 16"><path stroke="#b8ddfc" d="M10 2h1m0 1h1m0 1h1m-1 1h1m0 1h1m-1 1h1m-1 1h1m-1 1h1m-2 1h1m-1 1h1m-2 1h1m-2 1h1"/><path stroke="rgba(70,166,247,0.3843137254901961)" d="M9 3h1m-1 9h1"/><path stroke="#6cb8f8" d="M10 3h1m0 1h1m-1 1h1m0 1h1m-1 1h1m-1 1h1m-1 1h1m-2 1h1m-1 1h1m-2 1h1"/><path stroke="rgba(69,165,246,0.6039215686274509)" d="M8 4h1"/><path stroke="rgba(70,164,246,0.3411764705882353)" d="M9 4h1M8 5h3M9 6h2m-1 1h2m-2 1h2M9 9h2m-3 1h3m-2 1h1"/><path stroke="rgba(68,164,246,0.7176470588235294)" d="M10 4h1m0 2h1m-1 3h1m-2 2h1"/><path stroke="#fff" d="M7 7h2M1 8h1m1 0h1m1 0h1m1 0h2"/><path stroke="rgba(69,164,247,0.6627450980392157)" d="M8 11h1"/></svg>