<svg xmlns="http://www.w3.org/2000/svg" shape-rendering="crispEdges" viewBox="0 -0.5 16 16"><path stroke="#b6bac1" d="M4 0h3M3 1h1m3 0h1m4 0h3M4 2h1m1 0h1M5 3h1m-4 8h3m6 0h3M3 12h1m6 0h1m1 0h1m1 0h1M3 13h1m7 0h1m1 0h1m-3 1h1m1 0h1"/><path stroke="#2f3c52" d="M4 1h1m1 0h1M5 2h1m7 0h1M2 12h1m1 0h1m6 0h1m1 0h1m-2 1h1"/><path stroke="#737a87" d="M5 1h1M3 2h1m3 0h1m4 0h1m1 0h1M4 3h1m1 0h1m6 0h1M4 4h1m1 0h1m-5 9h1m1 0h1m5 0h1m3 0h1M3 14h1m8 0h1m-2 1h1m1 0h1"/><path stroke="rgba(32,49,147,0.42745098039215684)" d="M11 2h1m3 0h1M3 3h1m7 0h1m3 0h1M5 4h1m1 0h1m0 1h1m2 0h3M9 6h1M8 7h1m5 0h1m-1 1h1M7 9h1m-5 1h1m1 0h1m1 0h1m2 0h1M1 11h1m3 0h1m3 0h1m-9 1h1m4 0h1m2 0h1m-9 1h1m7 0h1m-8 1h1m1 0h2m4 0h1"/><path stroke="rgba(24,49,189,0.6901960784313725)" d="M7 3h1m4 0h1m1 0h1m-2 1h1M1 8h1m2 2h1m1 1h1m3 0h1m-6 1h1m-1 1h1"/><path stroke="#4e93f9" d="M10 6h1M7 7h1m0 1h2m0 1h1m2 0h1"/><path stroke="#9deeff" d="M11 6h2m-3 1h1m2 0h1m-4 1h1m2 0h1m-3 1h2"/><path stroke="#2b68c3" d="M13 6h1"/><path stroke="rgba(34,77,217,0.803921568627451)" d="M2 7h1"/><path stroke="rgba(44,63,182,0.42745098039215684)" d="M4 7h1M3 8h1"/><path stroke="rgba(51,92,230,0.803921568627451)" d="M5 7h1M4 8h1m1 0h1m1 1h1"/><path stroke="#3777d5" d="M6 7h1m2 0h1M7 8h1m1 1h1"/><path stroke="#fff" d="M11 7h2m-2 1h2"/><path stroke="#275fb1" d="M11 10h2"/></svg>