<svg xmlns="http://www.w3.org/2000/svg" shape-rendering="crispEdges" viewBox="0 -0.5 16 16"><path stroke="#c4611a" d="M6 4h2M5 5h1M4 6h1M4 7h1M4 8h1M4 9h1m-1 1h1m0 1h1m0 1h2"/><path stroke="#faa40b" d="M9 4h1m1 0h1M7 5h1m5 0h1M6 7h1m7 0h1M6 9h1m7 0h1m-8 2h1m5 0h1m-5 1h1m1 0h1"/><path stroke="#ffff09" d="M10 4h1M8 5h5M7 6h7M7 7h3m1 0h3M6 8h3m1 0h1m1 0h3M7 9h3m1 0h3m-7 1h7m-6 1h5m-3 1h1"/><path stroke="#b2351e" d="M3 5h2M2 6h1m2 0h1M1 7h1M1 8h1M1 9h1m0 1h1m2 0h1m-3 1h2"/><path stroke="#710f1a" d="M2 7h1m0 1h1M2 9h1"/><path stroke="#ffe896" d="M10 7h1M9 8h1m1 0h1m-2 1h1"/></svg>