<svg xmlns="http://www.w3.org/2000/svg" shape-rendering="crispEdges" viewBox="0 -0.5 16 16"><path stroke="#fff" d="M6 3h4M5 4h1m4 0h1M4 5h1m6 0h1M4 6h1m2 0h2m2 0h1M1 7h1m2 0h1m2 0h2m2 0h1m2 0h1M1 8h1m2 0h1m6 0h1m2 0h1M2 9h1m2 0h1m4 0h1m2 0h1m-8 1h4m-8 1h1m10 0h1M1 12h1m12 0h1M1 13h1m2 0h1m1 0h1m2 0h1m1 0h1m2 0h1M2 14h2m2 0h1m2 0h1m2 0h2"/><path stroke="#222542" d="M6 4h4M5 5h1m4 0h1M7 8h2M1 9h1m2 0h1m6 0h1m2 0h1M2 10h1m2 0h1m4 0h1m2 0h1m-8 1h4m-8 1h1m10 0h1M1 14h1m2 0h1m6 0h1m2 0h1M2 15h2m2 0h1m2 0h1m2 0h2"/></svg>