<svg xmlns="http://www.w3.org/2000/svg" shape-rendering="crispEdges" viewBox="0 -0.5 16 16"><path stroke="#c99253" d="M13 1h1M9 2h1m4 0h1m-2 4h1M3 9h1m-2 4h1m4 0h1m-5 1h1"/><path stroke="rgba(143,97,45,0.4823529411764706)" d="M8 2h1m4 5h1M3 8h1m4 5h1"/><path stroke="#ffe8ce" d="M10 2h1m0 1h1m0 1h1m0 1h1M3 10h1m0 1h1m0 1h1m0 1h1"/><path stroke="#f7c34f" d="M7 5h1M7 6h4m-1 1h1M6 8h1m3 0h1M6 9h1m2 0h1m-3 1h1m2 0h1"/><path stroke="#f3870b" d="M9 5h1M5 6h1m2 4h1"/><path stroke="#f7e787" d="M7 7h3M7 8h3M7 9h2"/></svg>