<svg xmlns="http://www.w3.org/2000/svg" shape-rendering="crispEdges" viewBox="0 -0.5 16 16"><path stroke="#ff2828" d="M2 2h1m10 0h1M3 3h1m8 0h1M4 4h1m6 0h1M5 5h1m4 0h1M6 6h1m2 0h1M7 7h2M7 8h2M6 9h1m2 0h1m-5 1h1m4 0h1m-7 1h1m6 0h1m-9 1h1m8 0h1M2 13h1m10 0h1"/><path stroke="#912626" d="M3 2h1m8 0h1M2 3h1m1 0h1m6 0h1m1 0h1M3 4h1m1 0h1m4 0h1m1 0h1M4 5h1m1 0h1m2 0h1m1 0h1M5 6h1m1 0h2m1 0h1M6 7h1m2 0h1M6 8h1m2 0h1M5 9h1m1 0h2m1 0h1m-7 1h1m1 0h1m2 0h1m1 0h1m-9 1h1m1 0h1m4 0h1m1 0h1M2 12h1m1 0h1m6 0h1m1 0h1M3 13h1m8 0h1"/><path stroke="#f7c34f" d="M8 2h1M8 3h1M8 4h1M7 5h1m5 0h1m-2 1h1M5 7h1m5 0h1M5 8h1m5 0h3m-2 1h1m-6 1h1m5 0h1m-9 2h1m3 0h1m0 1h1"/><path stroke="#f3870b" d="M11 2h1M7 3h1m1 0h1M6 4h2m1 0h1m2 1h1m1 0h1M4 6h1m8 0h1M2 7h3m7 0h1M3 8h2M3 9h2m6 0h1m2 1h1m-8 1h1m-2 1h1m1 1h1m-5 1h1m3 0h1m2 0h1"/><path stroke="#f7e787" d="M8 5h1m2 1h1m-2 1h1m-1 1h1m-3 2h1m-3 1h1m1 0h2m-2 1h1"/></svg>