<svg xmlns="http://www.w3.org/2000/svg" shape-rendering="crispEdges" viewBox="0 -0.5 16 16"><path stroke="#902c80" d="M3 0h1"/><path stroke="#a33992" d="M3 1h1M2 3h1m1 0h1M2 4h1M1 5h1m3 0h1M1 6h1m0 1h1"/><path stroke="#c64db3" d="M3 2h1M3 3h1M3 4h2M2 5h2M2 6h1m2 0h1M3 7h2"/><path stroke="#f3870b" d="M6 2h1m7 1h1m-5 1h1M9 5h1M6 7h1m6 0h1M3 8h1m-3 2h1m3 1h1m5 0h1m-4 3h1"/><path stroke="#f7c34f" d="M6 4h1m6 0h1M7 5h1M7 6h4m-1 1h3M4 8h3m3 0h2M6 9h1m2 0h1m2 0h1m-7 1h3m1 0h1m-4 1h1m0 2h1"/><path stroke="#f890e7" d="M4 5h1M3 6h2"/><path stroke="#f7e787" d="M7 7h3M7 8h3M7 9h2"/></svg>