<svg xmlns="http://www.w3.org/2000/svg" shape-rendering="crispEdges" viewBox="0 -0.5 16 16"><path stroke="#9d6724" d="M2 0h1M1 3h1M1 5h1M1 6h2"/><path stroke="#c07e25" d="M2 1h1M2 3h1M2 5h1m0 1h1"/><path stroke="#dd973c" d="M2 2h1m0 1h1M3 5h1"/><path stroke="#f3870b" d="M6 2h1m7 1h1m-5 1h1M9 5h1M6 7h1m6 0h1M1 10h1m3 1h1m5 0h1m-4 3h1"/><path stroke="#3d6b3d" d="M1 4h1"/><path stroke="#4c854c" d="M2 4h1"/><path stroke="#599b59" d="M3 4h1"/><path stroke="#f7c34f" d="M6 4h1m6 0h1M7 5h1M5 6h1m1 0h4m-1 1h3M5 8h2m3 0h2M6 9h1m2 0h1m2 0h1m-7 1h3m1 0h1m-4 1h1m0 2h1"/><path stroke="#f7e787" d="M7 7h3M7 8h3M7 9h2"/><path stroke="#8c5f2d" d="M2 8h1m1 0h1"/></svg>