<svg xmlns="http://www.w3.org/2000/svg" shape-rendering="crispEdges" viewBox="0 -0.5 16 16"><path stroke="#f7c34f" d="M8 2h1M8 3h1M8 4h1M7 5h1m2 0h1m2 0h1M6 6h2m1 0h1m2 0h1M5 7h1m1 0h1m3 0h1M5 8h1m3 0h1m1 0h3M5 9h2m3 0h1m1 0h1m-9 1h2m1 0h1m2 0h2m1 0h1M3 11h1m6 0h1m-6 1h1m3 0h1m1 0h1m-2 1h1m3 1h1"/><path stroke="#f3870b" d="M11 2h1M3 3h1m2 0h2m1 0h1M5 4h3m1 0h2M5 5h2m2 0h1m2 0h1m1 0h1M4 6h2m7 0h1M2 7h3m7 0h1M3 8h2M3 9h2m6 0h1m2 1h1m-8 1h1m-6 1h1m3 0h1m1 1h1m-5 1h1m3 0h1m2 0h1"/><path stroke="#f7e787" d="M13 3h1m-2 1h1M8 5h1m2 0h1M8 6h1m1 0h2M6 7h1m1 0h3M6 8h3m1 0h1M7 9h3m-4 1h1m1 0h2m-5 1h2m1 0h2m1 0h1m-4 1h1m3 0h1"/></svg>