<svg xmlns="http://www.w3.org/2000/svg" shape-rendering="crispEdges" viewBox="0 -0.5 16 16"><path stroke="#902c80" d="M3 0h1"/><path stroke="#f7c34f" d="M8 0h1m6 0h1M8 1h1m5 0h1M8 2h1M7 3h1m1 0h1m4 0h1M6 4h2m3 0h1m2 0h1M6 5h1m3 0h1m2 0h1M6 6h1m5 0h1M5 7h1m5 0h2M3 8h1m2 0h1m4 0h1m1 0h3M3 9h2m7 0h1m-9 1h2m5 0h3M3 11h2m1 0h3m1 0h1m3 0h1M2 12h1m5 0h4m-8 1h1m5 0h1m1 0h1M3 14h1m7 0h1m3 1h1"/><path stroke="#a33992" d="M3 1h1M2 3h1m1 0h1M2 4h1M1 5h1m3 0h1M1 6h1m0 1h1"/><path stroke="#f3870b" d="M12 1h1m2 0h1M7 2h1m1 0h2M5 3h2m3 0h2m3 0h1M5 4h1m4 0h1m2 0h1m1 0h1m-2 1h1m-2 1h1M2 8h1M1 9h2m-1 1h2m11 1h1m-9 1h1m-7 1h1m3 0h1m2 0h2M0 14h1m3 0h1m5 0h1m-8 1h1m7 0h2"/><path stroke="#c64db3" d="M3 2h1M3 3h1M3 4h2M2 5h2M2 6h1m2 0h1M3 7h2"/><path stroke="#f7e787" d="M14 2h1M8 3h1m4 0h1M8 4h2m2 0h1M7 5h3m1 0h2M7 6h5M6 7h5M4 8h2m1 0h4m1 0h1M5 9h7m-6 1h5m-6 1h1m3 0h1m1 0h1m-8 1h2m6 0h1m0 1h1m0 1h1"/><path stroke="#f890e7" d="M4 5h1M3 6h2"/></svg>