<svg xmlns="http://www.w3.org/2000/svg" shape-rendering="crispEdges" viewBox="0 -0.5 16 16"><path stroke="#974b33" d="M7 0h1M7 1h1M7 2h1M7 3h1M7 4h2m0 1h2m0 1h1m0 2h1m-3 1h2m-3 1h1m-2 1h1m-2 1h1m-1 1h1m-1 1h1m-1 1h1"/><path stroke="#4f1713" d="M8 0h7M8 1h8M8 2h8M8 3h8M9 4h1m1 0h5m-5 1h5m-4 1h4m-2 1h2m-3 1h3m-3 1h3m-5 1h5m-7 1h2m1 0h4m-8 1h8m-8 1h8m-8 1h8m-8 1h7"/><path stroke="#f3870b" d="M3 3h1m6 1h1m2 3h1m-9 4h1m5 0h1"/><path stroke="#f7c34f" d="M6 4h1m0 1h1M5 6h1m1 0h4m-1 1h3M6 8h1m3 0h2M6 9h1m2 0h1m2 0h1m-7 1h3m1 0h1m-4 1h1"/><path stroke="#f7e787" d="M7 7h3M7 8h3M7 9h2"/><path stroke="#fff" d="M1 8h1m1 0h1m1 0h1"/></svg>