<svg xmlns="http://www.w3.org/2000/svg" shape-rendering="crispEdges" viewBox="0 -0.5 16 16"><path stroke="#68cb20" d="M5 1h1M2 2h1m5 0h1M7 3h1M2 5h1m3 1h1M3 7h1m3 0h1m1 1h1"/><path stroke="#97ff6d" d="M5 2h1M3 3h1m2 0h1M3 5h1m2 0h1M4 6h1"/><path stroke="#ff69ea" d="M12 2h1m-3 2h1m3 0h1m-3 2h1"/><path stroke="#fff" d="M4 3h2M3 4h4m5 0h1M4 5h2"/><path stroke="#ffa7f2" d="M12 3h1m-2 1h1m1 0h1m-2 1h1"/><path stroke="rgba(255,255,255,0.44313725490196076)" d="M12 8h1M7 9h1m0 1h1m2 0h1m-6 2h1m0 1h1"/><path stroke="#54a6ff" d="M2 9h1m1 0h1m-3 2h1m1 0h1"/><path stroke="rgba(255,255,255,0.38823529411764707)" d="M12 9h1m-5 2h1m2 0h1m-3 1h1m1 0h1m-3 1h1"/><path stroke="#c7e2ff" d="M3 10h1"/><path stroke="rgba(255,255,255,0.16470588235294117)" d="M11 13h1m-5 1h1m1 0h1m1 0h1"/></svg>