<svg xmlns="http://www.w3.org/2000/svg" shape-rendering="crispEdges" viewBox="0 -0.5 16 16"><path stroke="#d88634" d="M2 1h1m1 0h1m0 1h1M3 3h1m1 1h1m1 1h1m2 3h1m1 1h1m-2 1h1m2 0h1m-1 2h1m-2 1h1"/><path stroke="#fff" d="M3 1h1m0 1h1m0 1h1m2 3h2M8 7h2M6 9h1m5 1h1m-9 1h1m8 0h1M2 13h1"/><path stroke="#db4519" d="M2 2h1m9 10h1"/><path stroke="#ffe4ad" d="M3 2h1m0 1h1m1 1h1m4 5h1m1 1h1m-2 1h1m1 0h1m-2 1h1"/><path stroke="rgba(255,228,175,0.45098039215686275)" d="M8 5h2m0 1h1"/><path stroke="rgba(239,164,113,0.6431372549019608)" d="M7 6h1"/><path stroke="rgba(218,135,52,0.43529411764705883)" d="M10 7h1M9 8h1"/></svg>