<svg xmlns="http://www.w3.org/2000/svg" shape-rendering="crispEdges" viewBox="0 -0.5 16 16"><path stroke="#f55f1f" d="M2 1h1m6 1h2m3 0h1M3 3h1m2 0h1m1 0h1m2 0h1M2 4h1m4 0h1m3 0h2M3 5h1m7 0h2M2 6h2M3 7h2m7 0h2M4 8h1m6 0h3M3 9h1m8 0h2M2 10h2m7 0h2M2 11h1m1 0h1m-2 1h1m3 0h2m1 0h1m3 0h1M1 13h1m2 0h2m2 0h2m3 1h1"/><path stroke="#f8a668" d="M4 3h2m3 0h2M3 4h2m1 0h1m1 0h3M2 5h1m1 0h4m1 0h2M4 6h2m1 0h1m2 0h2M5 7h2m2 0h3M5 8h1m4 0h1M4 9h3m2 0h3m-8 1h1m1 0h2m1 0h2m-8 1h1m1 0h7m-8 1h3m2 0h1m1 0h1m-2 1h1"/><path stroke="#f7e787" d="M5 4h1m2 1h1M6 6h1m1 0h2M7 7h2M6 8h4M7 9h2m-4 1h1m2 0h1"/></svg>