<svg xmlns="http://www.w3.org/2000/svg" shape-rendering="crispEdges" viewBox="0 -0.5 16 16"><path stroke="#d88634" d="M8 0h1m5 0h1M1 1h1M0 2h1m4 0h1m2 0h1m3 0h1M3 3h1M1 4h1m10 0h1M3 5h1m8 2h1m1 0h1M2 9h2m9 0h2M1 10h1m1 1h1m2 2h1m7 0h1m0 1h1M6 15h1m7 0h1"/><path stroke="#ffe4ad" d="M8 1h1m4 0h1M2 2h1m11 0h1M1 3h1m10 0h1M2 4h2m7 0h1M4 5h1m8 2h1m0 1h1M4 9h1m-3 1h1m4 2h1m3 0h1m1 1h1m-8 1h1m5 0h1m1 0h1m-2 1h1"/><path stroke="#fff" d="M14 1h1M1 2h1m11 0h1M2 3h1m9 5h2M3 10h1m3 3h1m4 0h1m0 1h1"/><path stroke="#db4519" d="M15 1h1M0 3h1m7 0h1m4 0h1m1 5h1M1 9h1m10 0h1M0 10h1m1 1h1m8 2h1m-5 1h1m4 1h1"/><path stroke="rgba(218,135,52,0.43529411764705883)" d="M7 4h3M6 5h1m3 0h1M5 6h1m5 0h1M5 7h1m5 0h1M5 8h1m5 0h1M6 9h1m4 0h1m-5 1h1m1 0h1m1 0h1m-2 1h1"/><path stroke="#dfe8c0" d="M7 5h2M6 6h4M6 7h2M6 8h3M8 9h1"/><path stroke="#c7d792" d="M9 5h1m0 1h1M9 7h1m0 1h1M7 9h1m2 0h1m-3 1h1m1 0h1"/><path stroke="#3f4c1d" d="M8 7h1m1 0h1"/><path stroke="#6d8233" d="M9 8h1"/><path stroke="#9fbb53" d="M9 9h1"/></svg>