<svg xmlns="http://www.w3.org/2000/svg" shape-rendering="crispEdges" viewBox="0 -0.5 16 16"><path stroke="#d88634" d="M8 1h1M2 2h1m9 0h1M1 3h1m2 1h1m5 0h1M2 5h1m8 0h1M4 6h1m5 0h1m0 1h1m2 0h1M2 9h2m8 0h1m1 0h1M1 10h1m2 0h1m-2 1h1m7 0h1m-6 1h1m3 0h1m2 0h1m-7 1h1m6 0h1m-9 1h1m6 0h1"/><path stroke="#ffe4ad" d="M8 2h1M3 3h1m7 0h1M2 4h1m9 0h1M3 5h1m5 1h1M6 7h1m5 0h2m0 1h1M5 9h1m7 0h1M2 10h1m4 0h1m1 0h1m2 2h1m-7 1h1m4 0h1m1 0h1m-2 1h1"/><path stroke="#fff" d="M2 3h1m9 0h1M3 4h1m7 0h1M4 5h1m5 0h1M5 6h1m4 2h4M4 9h1m-2 1h1m3 1h1m2 0h1m-4 1h1m3 0h1m0 1h1"/><path stroke="rgba(218,135,52,0.43529411764705883)" d="M8 3h1M8 4h1M7 6h1M7 9h1m1 0h1m-2 1h1"/><path stroke="#db4519" d="M13 3h1M1 4h1m13 4h1M1 9h1m9 0h1M0 10h1m1 1h1m8 3h1"/><path stroke="rgba(255,228,175,0.45098039215686275)" d="M8 5h1M8 6h1M7 7h2M7 8h3M8 9h1"/><path stroke="rgba(239,164,113,0.6431372549019608)" d="M6 8h1"/></svg>