<svg xmlns="http://www.w3.org/2000/svg" shape-rendering="crispEdges" viewBox="0 -0.5 16 16"><path stroke="#fff" d="M3 1h1m8 0h1M3 2h1m8 0h1M2 3h1m3 0h4m3 0h1M5 4h1m4 0h1M4 5h1m6 0h1M4 6h1m2 0h2m2 0h1M4 7h1m2 0h2m2 0h1M1 8h1m2 0h1m6 0h1m2 0h1M1 9h1m3 0h1m4 0h1m3 0h1M2 10h1m3 0h4m3 0h1M4 12h1m6 0h1M2 13h1m2 0h2m2 0h2m2 0h1M1 14h1m12 0h1"/><path stroke="#222542" d="M3 3h1m8 0h1M2 4h1m3 0h4m3 0h1M5 5h1m4 0h1M4 9h1m6 0h1M1 10h1m3 0h1m4 0h1m3 0h1M2 11h1m3 0h4m3 0h1M4 13h1m6 0h1M2 14h1m2 0h2m2 0h2m2 0h1M1 15h1m12 0h1"/></svg>