<svg xmlns="http://www.w3.org/2000/svg" shape-rendering="crispEdges" viewBox="0 -0.5 16 16"><path stroke="rgba(255,255,255,0.8470588235294118)" d="M6 1h1m1 3h1m5 1h1M5 6h1m3 0h1M1 7h2m8 0h1M1 8h1m2 0h1m3 1h1m-3 1h1m6 0h1m-7 4h1"/><path stroke="rgba(198,179,179,0.8627450980392157)" d="M5 2h1M3 5h1m3 0h1m5 0h1M2 6h1m7 2h1M2 9h1m2 1h1m6 0h1m-7 3h1"/><path stroke="rgba(152,136,136,0.7490196078431373)" d="M4 3h1m7 1h1M9 5h1M6 6h1M4 7h1m4 1h1M4 9h1m-3 1h1m8 1h1m-9 1h1"/><path stroke="rgba(152,137,137,0.5254901960784314)" d="M4 4h1m4 6h1m-8 1h1m7 0h1m-7 1h2"/><path stroke="rgba(153,138,138,0.3333333333333333)" d="M11 4h1m-2 1h1M8 6h1M7 7h1M3 8h1m1 0h2m0 1h1"/><path stroke="rgba(255,255,255,0.5137254901960784)" d="M3 7h1M2 8h1"/></svg>