<svg xmlns="http://www.w3.org/2000/svg" shape-rendering="crispEdges" viewBox="0 -0.5 16 16"><path stroke="#d7360e" d="M14 3h1M8 4h1m2 0h1M7 6h1m2 0h2m2 0h1M9 7h1m2 0h1m1 1h1m-2 1h1m-4 2h2"/><path stroke="#f5852f" d="M11 5h1M7 7h2m1 0h1m3 0h1M2 8h1m3 0h1m1 0h1m2 0h1m1 0h1m-3 2h2M2 11h1m4 0h1m1 0h1"/><path stroke="#f7d76b" d="M4 7h3M3 8h1m3 0h1m1 0h1m2 0h1M1 9h1m4 0h1m4 0h1M1 10h1m5 0h1m1 0h2m-8 1h1m2 0h1m1 0h1m-5 1h3"/><path stroke="#fff" d="M4 8h2m4 0h1M2 9h4m1 0h4m1 0h1M2 10h5m1 0h1m-5 1h2"/></svg>