<svg xmlns="http://www.w3.org/2000/svg" shape-rendering="crispEdges" viewBox="0 -0.5 16 16"><path stroke="#fff" d="M4 2h1m6 0h1M3 3h1m1 0h1m4 0h1m1 0h1M2 4h1m3 0h1m2 0h1m3 0h1M1 5h1m4 0h1m2 0h1m4 0h1M1 6h1m3 0h1m4 0h1m3 0h1M1 7h1m12 0h1M1 8h1m12 0h1M1 9h1m3 0h1m4 0h1m3 0h1M1 10h1m4 0h1m2 0h1m4 0h1M2 11h1m3 0h1m2 0h1m3 0h1M3 12h3m4 0h3"/><path stroke="#222542" d="M4 3h1m6 0h1M3 4h1m1 0h1m4 0h1m1 0h1M2 5h1m10 0h1M6 6h1m2 0h1M5 7h1m4 0h1m-6 3h1m4 0h1M1 11h1m12 0h1M2 12h1m3 0h1m2 0h1m3 0h1M3 13h3m4 0h3"/></svg>