<svg xmlns="http://www.w3.org/2000/svg" shape-rendering="crispEdges" viewBox="0 -0.5 16 16"><path stroke="rgba(53,142,255,0.37254901960784315)" d="M7 1h1M6 2h1m1 0h1m3 0h2M5 3h1m1 0h1m2 0h2m2 0h1M4 4h1m1 0h1m1 0h2m2 0h2M3 5h1m1 0h3m2 0h2M2 6h1m1 0h2m2 0h2M1 7h1m1 0h1m2 0h8m0 1h1M1 9h1m1 0h1m2 0h8M2 10h1m1 0h2m2 0h2m-7 1h1m1 0h3m2 0h2m-8 1h1m1 0h1m1 0h2m2 0h2m-9 1h1m1 0h1m2 0h2m2 0h1m-9 1h1m1 0h1m3 0h2m-7 1h1"/><path stroke="#4395ff" d="M7 2h1m2 2h2m-2 4h3m-4 3h1m0 1h2m-5 2h1"/><path stroke="#5899ff" d="M6 3h1M5 4h1m2 1h2M7 6h1m0 2h2m-5 4h1m0 1h1"/><path stroke="#348cff" d="M12 3h2m-1 5h1m-2 5h2"/><path stroke="#6fc1ff" d="M4 5h1m1 1h1M5 7h1m0 1h2M5 9h1m0 1h2m-4 1h1m3 0h1"/><path stroke="#92dfff" d="M3 6h1M2 7h1m1 0h1M1 8h5M2 9h1m1 0h1m-2 1h1"/></svg>