<svg xmlns="http://www.w3.org/2000/svg" shape-rendering="crispEdges" viewBox="0 -0.5 16 16"><path stroke="rgba(211,224,236,0.592156862745098)" d="M6 1h4M4 2h2m4 0h2M3 3h1m8 0h1M2 4h1m10 0h1M2 5h1m10 0h1M1 6h1m12 0h1M1 7h1m12 0h1M1 8h1m12 0h1M1 9h1m12 0h1M2 10h1m10 0h1M2 11h1m10 0h1M3 12h1m8 0h1m-9 1h2m4 0h2m-6 1h4"/><path stroke="rgba(138,162,189,0.592156862745098)" d="M6 2h4M4 3h8M3 4h1m8 0h1M3 5h1m8 0h1M2 6h3m6 0h3M2 7h3m3 0h1m2 0h3M2 8h3m3 0h1m1 0h4M2 9h4m2 0h1m1 0h4M3 10h3m1 0h2m1 0h3M3 11h3m1 0h6m-9 1h2m1 0h5m-6 1h4"/><path stroke="#9ed0f2" d="M4 4h1m1 0h4m1 0h1M5 5h1m1 0h2m1 0h1M6 6h1m1 0h1m1 0h1M5 7h2"/><path stroke="#47a6e6" d="M5 4h1m4 0h1M9 5h1"/><path stroke="#cef2f8" d="M4 5h1m1 0h1m4 0h1M5 6h1m1 0h1m1 0h1M7 7h1m1 0h1M5 8h2M6 9h1m-1 1h1"/><path stroke="#fff" d="M10 7h1M7 8h1m1 0h1M7 9h1m1 0h1m-1 1h1m-4 1h1m-1 1h1"/></svg>