<svg xmlns="http://www.w3.org/2000/svg" shape-rendering="crispEdges" viewBox="0 -0.5 16 16"><path stroke="#9ed0f2" d="M2 1h1m2 0h2m1 0h4m1 0h1M3 2h1m2 0h1m1 0h1m1 0h1m1 0h1M4 3h2m2 0h1m1 0h1m1 0h1M5 4h1M3 5h1m1 0h1"/><path stroke="#47a6e6" d="M3 1h2m7 0h1M4 2h1m6 0h1"/><path stroke="#cef2f8" d="M7 1h1M2 2h1m2 0h1m1 0h1m1 0h1m3 0h1M3 3h1m2 0h1m2 0h1m1 0h1M3 4h2m1 0h1m1 0h3m1 0h1M4 5h1m1 0h1m2 0h2M4 6h3m2 0h1M4 7h2M5 8h1m3 0h1M5 9h1m-1 1h1"/><path stroke="#fff" d="M12 5h1m-3 1h1M6 7h1m2 0h1M4 8h1m1 0h1M6 9h1m2 0h1m-1 1h1m-5 1h1m-1 1h1m-1 1h1"/></svg>