<svg xmlns="http://www.w3.org/2000/svg" shape-rendering="crispEdges" viewBox="0 -0.5 16 16"><path stroke="#c3e8fb" d="M7 1h1m1 0h1M4 2h1m7 0h1M3 3h1m9 0h1M7 4h1m1 0h1M2 6h1m2 0h1m2 0h1m2 0h1m2 0h1M7 7h1m1 0h1M2 8h1m2 0h1m2 0h1m2 0h1m2 0h1m-8 2h1m1 0h1m-7 1h1m9 0h1M4 12h1m7 0h1m-6 1h1m1 0h1"/><path stroke="#fff" d="M7 2h1m1 0h1M5 3h1m2 0h1m2 0h1M4 4h2m2 0h1m2 0h2M6 5h1m1 0h1m1 0h1M3 6h1m3 0h1m1 0h1m3 0h1M4 7h3m3 0h3M3 8h1m3 0h1m1 0h1m3 0h1M6 9h1m1 0h1m1 0h1m-7 1h2m2 0h1m2 0h2m-8 1h1m2 0h1m2 0h1m-5 1h1m1 0h1"/></svg>