<svg xmlns="http://www.w3.org/2000/svg" shape-rendering="crispEdges" viewBox="0 -0.5 16 16"><path stroke="#f4a1bd" d="M11 1h1m1 0h1m-2 1h1m1 0h1"/><path stroke="rgba(170,65,102,0.42745098039215684)" d="M2 2h2m3 0h1M1 3h1m2 0h3m1 0h1M1 4h1m4 0h1m2 0h1M1 5h1m7 0h1M2 6h1m7 0h2M3 7h1m8 0h1M4 8h1m8 0h1M3 9h1m9 0h1M2 10h1m5 0h1m1 0h1m1 0h1M1 11h1m6 0h1m1 0h1m1 0h1M1 12h1m5 0h1m1 0h1m1 0h1M2 13h1m2 0h1m1 0h1m1 0h1m-7 1h2m1 0h1m1 0h1"/><path stroke="#aa4065" d="M10 2h1m0 1h1m0 1h1"/><path stroke="#ea5387" d="M11 2h1m1 0h1m-2 1h2"/><path stroke="#7ea1df" d="M2 3h2m3 0h1M2 4h1m1 0h2m2 0h1M2 5h1m3 0h1M3 6h1m5 0h1M4 7h2m1 0h1"/><path stroke="#d0e0fd" d="M3 4h1M3 5h3M4 6h3M6 7h1"/><path stroke="#466fb7" d="M7 4h1M7 5h2M7 6h2M8 7h1"/><path stroke="#495868" d="M9 7h3M6 8h1m1 0h1m1 0h2M4 9h2m2 0h5M3 10h4m2 0h1m1 0h1m-9 1h2m-2 1h1"/><path stroke="#2e3b48" d="M5 8h1m1 0h1M6 9h2m-1 1h1m-3 1h3m1 0h1m1 0h1m-8 1h3m1 0h1m-3 1h1m1 0h1"/><path stroke="#bec6ce" d="M9 8h1m2 0h1"/><path stroke="#57708a" d="M2 11h1m-1 1h1m0 1h2"/></svg>