<svg xmlns="http://www.w3.org/2000/svg" shape-rendering="crispEdges" viewBox="0 -0.5 16 16"><path stroke="#dd5959" d="M10 1h4M9 2h2m2 0h2m-3 1h2m-3 1h2m-2 2h2"/><path stroke="#3b6bcb" d="M2 3h6M1 4h1m6 0h1M1 5h1m1 0h1m1 0h1m2 0h1M1 6h1m2 0h1m1 0h1m1 0h1M1 7h1m1 0h1m1 0h1m2 0h1M1 8h1m2 0h1m1 0h1m1 0h1M1 9h1m1 0h1m1 0h1m2 0h1m-8 1h1m2 0h1m1 0h1m1 0h1m-8 1h1m6 0h1m-7 1h6"/><path stroke="#7fa7ef" d="M2 4h1m4 0h1M4 5h1m1 0h1M3 6h1m1 0h1M4 7h1m1 0h1M3 8h1m1 0h1M4 9h1m1 0h1m-4 1h1m1 0h1m-4 1h1m4 0h1m-7 2h1m6 0h1m-6 1h1m1 0h1"/><path stroke="#c3d7f7" d="M3 4h4M2 5h1m4 0h1M2 6h1m4 0h1M2 7h1m4 0h1M2 8h1m4 0h1M2 9h1m4 0h1m-6 1h1m4 0h1m-5 1h4"/><path stroke="#e1ebfa" d="M1 12h1m6 0h1m-7 1h2m1 0h1m1 0h1"/><path stroke="#abc7f3" d="M4 13h1m1 0h1m-5 1h1m1 0h1m1 0h2"/></svg>