<svg xmlns="http://www.w3.org/2000/svg" shape-rendering="crispEdges" viewBox="0 -0.5 16 16"><path stroke="rgba(104,104,104,0.5843137254901961)" d="M7 0h1M2 3h1m4 1h1m0 1h1m1 2h1m0 1h1m3 0h1m-2 5h1"/><path stroke="rgba(153,153,153,0.5411764705882353)" d="M8 0h1m5 0h1m0 1h1m-1 6h1"/><path stroke="rgba(183,183,183,0.7568627450980392)" d="M9 0h5m1 2h1m-1 1h1m-1 1h1m-1 1h1m-1 1h1"/><path stroke="rgba(136,136,136,0.6901960784313725)" d="M4 1h1m2 0h1M7 2h1M7 3h1m4 5h3m-1 3h1"/><path stroke="rgba(255,255,255,0.8196078431372549)" d="M8 1h1m5 0h1m-1 6h1"/><path stroke="#fff" d="M9 1h5M8 2h7M9 3h6M9 4h6m-5 1h5m-4 1h4m-2 1h1M2 11h2m-3 1h4m-4 1h4m-3 1h2"/><path stroke="rgba(234,234,234,0.6470588235294118)" d="M5 3h1m2 1h1m2 3h1m0 3h1"/><path stroke="#eaeaea" d="M8 3h1m0 2h1M9 6h2M8 7h1m3 0h1M7 8h1M6 9h1m-2 1h1m-2 1h2m-1 1h1"/><path stroke="#b7b7b7" d="M8 6h1M7 7h1m1 0h1M6 8h1m1 0h1M4 9h2m1 0h1m-6 1h3m1 0h1m-6 1h1m4 0h1m-2 2h1m-2 1h1"/></svg>