<svg xmlns="http://www.w3.org/2000/svg" shape-rendering="crispEdges" viewBox="0 -0.5 16 16"><path stroke="#9ea37e" d="M2 1h1m11 0h1M4 2h1m1 0h1m2 0h2M5 3h3m2 0h1M5 4h1m5 0h1M9 5h1m1 0h1M9 6h1M7 7h1m1 0h1M6 8h1m3 0h1M5 9h1"/><path stroke="#ccd2aa" d="M3 1h1m3 0h1m1 0h1m3 0h1M5 2h1m2 0h1m2 1h1M6 4h1m1 0h1m1 0h1M8 5h1m1 0h1M6 6h1m3 0h1M6 7h1m1 0h1m1 0h1M7 9h2m-3 1h5m-5 1h1m1 0h3m-5 1h3m1 0h1m-4 1h3"/><path stroke="#f6fce3" d="M4 1h3m1 0h1m1 0h3m-2 1h1M8 3h1M6 5h1m1 1h1M7 8h2M6 9h1m2 0h2m-6 1h1m5 0h1m-7 1h1m1 0h1m3 0h1m-7 1h1m3 0h1m1 0h1m-6 1h1m3 0h1m-4 1h3"/></svg>