<svg xmlns="http://www.w3.org/2000/svg" shape-rendering="crispEdges" viewBox="0 -0.5 16 16"><path stroke="#ffe690" d="M2 0h1M1 1h1m1 0h1M2 2h1m4 0h3M6 3h2M1 4h1m1 1h1m2 0h4m1 0h3M1 6h1m1 0h1m1 0h5m1 0h3M3 7h1m1 0h5M1 8h1m1 0h1m1 0h4m1 0h3M3 9h1m1 0h4m1 0h3M1 10h1m1 0h1m1 0h4m-3 1h2m1 0h2m-8 2h1m9 0h1m-2 1h1m1 0h1m-2 1h1"/><path stroke="#fffbe7" d="M2 1h1m10 13h1"/><path stroke="#f1b03b" d="M10 2h1m2 0h1M8 3h3M2 4h2m1 0h5m1 0h2M1 5h1m2 0h2m4 0h1m3 0h1M2 6h1m1 0h1m5 0h1m3 0h1M1 7h1m2 0h1m6 0h2M2 8h1m1 0h1m4 0h1m3 0h1M1 9h1m2 0h1m4 0h1m3 0h1M2 10h1m1 0h1m5 0h2M1 11h1m1 0h1m1 0h1m2 0h1m2 0h2m-6 1h3"/><path stroke="#cb570e" d="M10 4h1m2 0h1M2 5h1M2 7h1m7 0h1m2 0h1M2 9h1m6 1h1m2 0h1M2 11h1m3 1h1m3 0h1"/></svg>