<svg xmlns="http://www.w3.org/2000/svg" shape-rendering="crispEdges" viewBox="0 -0.5 16 16"><path stroke="rgba(238,145,249,0.592156862745098)" d="M6 1h4M4 2h2m4 0h2M3 3h1m8 0h1M2 4h1m10 0h1M2 5h1m10 0h1M1 6h1m12 0h1M1 7h1m12 0h1M1 8h1m12 0h1M1 9h1m12 0h1M2 10h1m10 0h1M2 11h1m10 0h1M3 12h1m8 0h1m-9 1h2m4 0h2m-6 1h4"/><path stroke="rgba(172,109,217,0.592156862745098)" d="M6 2h4M4 3h2m4 0h2M3 4h1m8 0h1M3 5h1m8 0h1M2 6h1m10 0h1M2 7h1m10 0h1M2 8h1m10 0h1M2 9h1m10 0h1M3 10h1m8 0h1M3 11h1m8 0h1m-9 1h2m4 0h2m-6 1h4"/><path stroke="rgba(121,71,166,0.4627450980392157)" d="M6 3h4M4 4h2m4 0h2M4 5h1m6 0h1M3 6h1m8 0h1M3 7h1m8 0h1M3 8h1m8 0h1M3 9h1m8 0h1m-9 1h1m6 0h1m-8 1h2m4 0h2m-6 1h4"/><path stroke="rgba(92,52,138,0.3254901960784314)" d="M6 4h4M5 5h1m4 0h1M4 6h1m6 0h1M4 7h1m6 0h1M4 8h1m6 0h1M4 9h1m6 0h1m-7 1h1m4 0h1m-5 1h4"/><path stroke="#dfe8c0" d="M6 5h2M5 6h4M5 7h2M5 8h3M7 9h1"/><path stroke="#c7d792" d="M8 5h1m0 1h1M8 7h1m0 1h1M6 9h1m2 0h1m-3 1h1m1 0h1"/><path stroke="rgba(72,36,114,0.19215686274509805)" d="M9 5h1m0 1h1m-1 1h1m-1 1h1M5 9h1m4 0h1m-5 1h1m1 0h1"/><path stroke="#3f4c1d" d="M7 7h1m1 0h1"/><path stroke="#6d8233" d="M8 8h1"/><path stroke="#9fbb53" d="M8 9h1"/></svg>