<svg xmlns="http://www.w3.org/2000/svg" shape-rendering="crispEdges" viewBox="0 -0.5 16 16"><path stroke="#f27127" d="M6 1h1m2 0h1M6 4h1m2 0h1M6 7h2M5 8h1m4 0h1m0 1h1m-1 1h1m-8 1h1m-1 1h1m0 1h1m4 0h1m-3 1h2"/><path stroke="#db2d12" d="M7 1h2M7 4h2M8 7h1m-5 3h1m6 1h1m-5 3h1"/><path stroke="#f3af33" d="M5 2h1m4 0h1M5 5h1m4 0h1M4 6h1m6 0h1M6 8h1m2 0h1M5 9h1m4 0h1m-6 3h1m4 0h1m-5 1h1m2 0h1"/><path stroke="#f7df7b" d="M7 8h2M6 9h1m2 0h1m-5 1h1m4 0h1m-6 1h1m4 0h1m-5 1h1m2 0h1m-3 1h2"/><path stroke="#fff" d="M7 9h2m-3 1h4m-4 1h4m-3 1h2"/></svg>