<svg xmlns="http://www.w3.org/2000/svg" shape-rendering="crispEdges" viewBox="0 -0.5 16 16"><path stroke="#626262" d="M10 1h3M9 2h1m3 0h1M8 3h1m1 0h3m1 0h1M9 4h1m1 0h2m1 0h1m-5 1h1m2 0h1m-4 1h1m1 0h1m-2 1h1m-2 1h1m1 0h1m-2 1h1"/><path stroke="#fff" d="M10 2h3M9 3h1m3 0h1m-1 1h1m-3 1h2m-2 1h1M5 8h2m4 0h1M4 9h4m-4 1h4m-3 1h2"/><path stroke="#f58b44" d="M5 6h1M4 7h1m3 1h1m0 1h1m-8 1h1m0 1h1m3 1h1m-2 1h1"/><path stroke="#ed4015" d="M6 6h1M2 9h1m6 1h1m-5 3h1"/><path stroke="#f7e787" d="M5 7h1M4 8h1m2 0h1m0 1h1m-6 1h1m0 1h1m2 0h1m-2 1h1"/><path stroke="#f7cf5f" d="M6 7h1M3 9h1m4 1h1m-4 2h1"/></svg>