<svg xmlns="http://www.w3.org/2000/svg" shape-rendering="crispEdges" viewBox="0 -0.5 16 16"><path stroke="#eec2ff" d="M2 1h1M1 2h1m1 0h1M2 3h1m5 2h1M6 6h1m2 0h1M5 7h1m4 1h1M6 9h1m2 0h1m-3 1h1"/><path stroke="#fff" d="M2 2h1m4 4h2M6 7h4M6 8h4M7 9h2"/><path stroke="#8d5cff" d="M8 2h1m5 0h1M6 4h1m2 0h1M5 5h1m4 0h1M4 6h1m6 0h1M2 7h1m10 1h1M4 9h1m6 0h1m-7 1h1m4 0h1m-9 1h1m3 0h1m2 0h1m3 0h1m-7 2h1"/><path stroke="#d294ff" d="M8 3h1M8 4h1m3 0h1M7 5h1m1 0h1M5 6h1M3 7h2m5 0h1M5 8h1m5 0h2m-3 1h1m-5 1h1m1 0h1m-2 1h1m-1 1h1m-5 2h1"/><path stroke="#b380ff" d="M7 4h1M6 5h1m3 1h1m0 1h1M4 8h1m0 1h1m3 1h1m-2 1h1m2 2h1"/></svg>