<svg xmlns="http://www.w3.org/2000/svg" shape-rendering="crispEdges" viewBox="0 -0.5 16 16"><path stroke="#f39317" d="M4 1h1M1 4h1m5 0h1M4 7h1"/><path stroke="#f7df7b" d="M2 2h1m3 0h1M4 3h1M3 4h3M4 5h1M2 6h1m3 0h1"/><path stroke="#f7c34f" d="M4 2h1M3 3h1m1 0h1M2 4h1m3 0h1M3 5h1m1 0h1M4 6h1"/><path stroke="#ed4015" d="M7 7h1m3 3h1m-8 1h1m3 3h1"/><path stroke="#f58b44" d="M8 7h1m0 1h1M5 9h1m-2 1h1m6 1h1m-2 1h1m-5 1h1m0 1h1"/><path stroke="#f7cf5f" d="M7 8h1m2 2h1m-6 1h1m2 2h1"/><path stroke="#f7e787" d="M8 8h1M6 9h1m2 0h1m-5 1h1m4 1h1m-5 1h1m2 0h1m-3 1h1"/><path stroke="#fff" d="M7 9h2m-3 1h4m-4 1h4m-3 1h2"/></svg>