<svg xmlns="http://www.w3.org/2000/svg" shape-rendering="crispEdges" viewBox="0 -0.5 16 16"><path stroke="#fff" d="M5 1h2m2 0h2M4 2h1m6 0h1M3 3h1m8 0h1M1 4h1m1 0h1m1 0h1m4 0h1m1 0h1m1 0h1M1 5h1m1 0h1m1 0h1m4 0h1m1 0h1m1 0h1M6 6h1m2 0h1M7 7h2M7 8h2M6 9h1m2 0h1m-9 1h1m1 0h1m1 0h1m4 0h1m1 0h1m1 0h1M1 11h1m1 0h1m1 0h1m4 0h1m1 0h1m1 0h1M3 12h1m8 0h1m-9 1h1m6 0h1m-7 1h2m2 0h2"/><path stroke="#222542" d="M5 2h2m2 0h2M4 3h1m6 0h1M1 6h1m1 0h1m1 0h1m4 0h1m1 0h1m1 0h1M6 7h1m2 0h1M7 9h2m-3 1h1m2 0h1m-9 2h1m3 0h1m4 0h1m3 0h1M3 13h1m8 0h1m-9 1h1m6 0h1m-7 1h2m2 0h2"/></svg>