<svg xmlns="http://www.w3.org/2000/svg" shape-rendering="crispEdges" viewBox="0 -0.5 16 16"><path stroke="#f39317" d="M4 1h1M1 4h1m5 0h1M4 7h1"/><path stroke="#f7df7b" d="M2 2h1m3 0h1M4 3h1M3 4h3M4 5h1M2 6h1m3 0h1"/><path stroke="#f7c34f" d="M4 2h1M3 3h1m1 0h1M2 4h1m3 0h1M3 5h1m1 0h1M4 6h1"/><path stroke="#8fc327" d="M7 10h1m-5 1h1m1 0h1m-5 1h4m0 1h2"/><path stroke="#b3df4b" d="M8 10h1m-5 1h1m1 0h1m-2 1h1m8 0h1m-8 1h3m2 0h1"/><path stroke="#dbff7b" d="M9 10h2m1 0h2m-7 1h1m6 0h1m-9 1h5m1 0h2m-4 1h2"/><path stroke="#fff" d="M11 10h1m-4 1h6m-3 1h1"/></svg>