<svg xmlns="http://www.w3.org/2000/svg" shape-rendering="crispEdges" viewBox="0 -0.5 16 16"><path stroke="#2b5397" d="M2 1h1m3 0h1M1 2h1m5 0h1M1 6h1m5 0h1M2 7h1m3 0h1"/><path stroke="#3b6bcb" d="M3 1h3M2 2h1m3 0h1M1 3h1m5 0h1M1 4h1m5 0h1M1 5h1m5 0h1M2 6h1m3 0h1M3 7h3"/><path stroke="#c3d7f7" d="M3 2h1m1 0h1M2 3h1m3 0h1M2 5h1m3 0h1M3 6h1m1 0h1"/><path stroke="#a7a7a7" d="M4 2h1M2 4h1m3 0h1M4 6h1"/><path stroke="#ebebeb" d="M3 3h2M3 4h1m1 0h1M3 5h3"/><path stroke="#1b3767" d="M5 3h1M4 4h1"/><path stroke="#8fc327" d="M7 10h1m-5 1h1m1 0h1m-5 1h4m0 1h2"/><path stroke="#b3df4b" d="M8 10h1m-5 1h1m1 0h1m-2 1h1m8 0h1m-8 1h3m2 0h1"/><path stroke="#dbff7b" d="M9 10h2m1 0h2m-7 1h1m6 0h1m-9 1h5m1 0h2m-4 1h2"/><path stroke="#fff" d="M11 10h1m-4 1h6m-3 1h1"/></svg>