<svg xmlns="http://www.w3.org/2000/svg" shape-rendering="crispEdges" viewBox="0 -0.5 16 16"><path stroke="#fff" d="M5 1h2m2 0h2M5 2h2m2 0h2M2 3h1m10 0h1M3 4h1m2 0h4m2 0h1M1 5h1m3 0h1m4 0h1m3 0h1M2 6h1m1 0h1m6 0h1m1 0h1M4 7h1m2 0h2m2 0h1M1 8h2m1 0h1m2 0h2m2 0h1m1 0h2M5 9h1m4 0h1m-8 1h1m2 0h1m2 0h1m2 0h1M2 11h1m3 0h4m3 0h1m-9 2h2m2 0h2m-6 1h2m2 0h2"/><path stroke="#222542" d="M5 3h2m2 0h2M2 4h1m10 0h1M3 5h1m2 0h4m2 0h1M1 6h1m3 0h1m4 0h1m3 0h1M2 7h1m10 0h1M1 9h2m1 0h1m2 0h2m2 0h1m1 0h2M5 10h1m4 0h1m-8 1h1m8 0h1M2 12h1m3 0h4m3 0h1m-9 3h2m2 0h2"/></svg>