<svg xmlns="http://www.w3.org/2000/svg" shape-rendering="crispEdges" viewBox="0 -0.5 16 16"><path stroke="#bf43bf" d="M4 0h2m4 0h2M3 1h1m2 0h1m2 0h1m2 0h1M3 2h1m2 0h1m2 0h1m2 0h1M4 3h1m6 0h2M1 6h2m10 0h2M0 7h1m6 0h2m6 0h1M0 8h1m2 0h1m3 0h2m3 0h1m2 0h1M1 9h2m10 0h2M4 12h1m6 0h1m-9 1h1m2 0h1m2 0h1m2 0h1M3 14h1m2 0h1m2 0h1m2 0h1m-9 1h2m4 0h2"/><path stroke="#fff" d="M4 1h2m4 0h2M4 2h2m4 0h2M1 7h2m10 0h2M1 8h2m10 0h2M4 13h2m4 0h2m-8 1h2m4 0h2"/><path stroke="#ffd0ff" d="M5 3h1m4 0h1M5 4h1m4 0h1M3 7h2m6 0h2m-8 4h1m4 0h1m-6 1h1m4 0h1"/><path stroke="#df7bdf" d="M6 5h1m2 0h1M6 6h1m2 0h1M5 8h2m2 0h2M6 9h1m2 0h1m-4 1h1m2 0h1"/><path stroke="#ae1eae" d="M7 6h1M6 7h1m2 0h1M8 9h1"/><path stroke="#821282" d="M8 6h1M7 9h1"/></svg>