<svg xmlns="http://www.w3.org/2000/svg" shape-rendering="crispEdges" viewBox="0 -0.5 16 16"><path stroke="#f7c34f" d="M5 0h1m5 1h1M6 2h1m4 1h1m2 0h1M7 4h2m2 0h1M9 5h2M5 6h1m1 0h1m4 0h1M6 7h1m6 0h1M6 8h1m6 0h1M6 9h1m6 0h1M2 10h1m2 0h1m1 0h1m4 0h1m-9 1h2m2 0h2m1 0h1m-9 1h1m4 0h1m1 0h1M1 14h1m5 0h1m2 0h1"/><path stroke="#974b33" d="M9 0h1M9 1h1M9 2h1M9 3h1M9 4h2m2 1h1m0 1h1m-1 1h1m-1 1h1m-1 1h1m-2 1h1m-2 1h1m-4 1h1m-1 1h1m-1 1h1m-1 1h1"/><path stroke="#4f1713" d="M10 0h6m-6 1h1m1 0h4m-6 1h6m-6 1h1m1 0h2m1 0h1m-3 1h2m-1 1h2m-1 1h1m-1 2h1m-1 1h1m-1 1h1m-3 1h3m-4 1h2m1 0h1m-6 1h2m1 0h3m-5 1h5m-6 1h6"/><path stroke="#e9764c" d="M1 1h3M1 2h1m1 0h1M1 3h1m1 0h1M1 4h1m1 0h1M1 5h1m1 0h1M1 7h3M1 8h1m1 0h1"/><path stroke="#e54118" d="M2 2h1M2 3h1M2 4h1M2 5h1M2 8h1"/><path stroke="#f7e787" d="M7 3h1m0 2h1m2 0h2M8 6h4m1 0h1M7 7h2m2 0h2M7 8h1m4 0h1M7 9h2m2 0h2m-7 1h1m1 0h4"/><path stroke="#f3870b" d="M12 4h1m2 0h1m-1 3h1m-2 3h1m-8 1h1m2 0h1m-5 1h1m4 0h1m2 0h1m-3 1h1"/><path stroke="#fff" d="M9 7h2M5 8h1m2 0h4M9 9h2"/></svg>