<svg xmlns="http://www.w3.org/2000/svg" shape-rendering="crispEdges" viewBox="0 -0.5 16 16"><path stroke="#d77070" d="M12 0h1m-1 1h1m-1 1h1M9 3h3m1 0h3m-4 1h1m-1 1h1m-1 1h1"/><path stroke="rgba(157,210,255,0.5843137254901961)" d="M6 1h3M4 2h2M3 3h1M2 4h1M2 5h1M1 6h1M1 7h1m12 0h1m-1 1h1M1 9h1m12 0h1M2 10h1m10 0h1M2 11h1m10 0h1M3 12h1m8 0h1m-9 1h2m4 0h2m-6 1h4"/><path stroke="#cb4444" d="M10 1h2m1 0h2m-5 1h1m3 0h1m-5 2h1m3 0h1m-5 1h2m1 0h2"/><path stroke="#fff" d="M3 7h1m3 0h2M1 8h1m3 0h1m1 0h2"/></svg>