<svg xmlns="http://www.w3.org/2000/svg" shape-rendering="crispEdges" viewBox="0 -0.5 16 16"><path stroke="rgba(15,96,167,0.4549019607843137)" d="M4 4h1m6 0h1M6 6h1m2 0h1M6 8h1m2 0h1m-6 2h1m6 0h1"/><path stroke="#207bca" d="M3 5h1m8 0h1M3 9h1m8 0h1"/><path stroke="#68b5f7" d="M2 6h1m10 0h1M1 7h1m1 0h1m8 0h1m1 0h1M2 8h1m10 0h1"/><path stroke="rgba(18,106,184,0.4980392156862745)" d="M3 6h1m3 0h2m3 0h1M3 8h1m3 0h2m3 0h1"/><path stroke="rgba(13,79,136,0.22745098039215686)" d="M5 6h1m4 0h1M5 8h1m4 0h1"/><path stroke="rgba(20,119,202,0.6705882352941176)" d="M2 7h1m10 0h1"/><path stroke="#a9d7ff" d="M4 7h2m4 0h2"/><path stroke="#fff" d="M6 7h4"/></svg>