<svg xmlns="http://www.w3.org/2000/svg" shape-rendering="crispEdges" viewBox="0 -0.5 16 16"><path stroke="#1f98f4" d="M7 0h1M7 1h1M3 2h1m4 0h2m1 0h1M3 3h1m7 0h1M4 4h2m6 0h2M1 6h1m11 0h1M1 7h1m11 0h1M2 8h2m10 0h2M3 10h1m7 0h1m-9 1h1m7 0h1m-8 1h2m1 0h1m4 0h2m-7 1h1m0 1h2"/><path stroke="#7cc3f9" d="M8 0h1M8 1h2M4 2h1m7 0h1M4 3h2m6 0h2M2 6h1m11 0h1M2 7h2m10 0h2M4 10h1m7 0h1m-9 1h2m6 0h2m-6 1h1m-1 1h2"/><path stroke="#0864aa" d="M6 1h1M6 2h2M2 3h1m4 0h2m1 0h1M2 4h2m6 0h2M3 5h2m6 0h2M0 7h1m11 0h1M0 8h2m10 0h2M1 9h2m10 0h2M2 11h1m7 0h1m-9 1h2m6 0h2m-9 1h2m1 0h1m4 0h2m-7 1h2m-1 1h2"/></svg>