<svg xmlns="http://www.w3.org/2000/svg" shape-rendering="crispEdges" viewBox="0 -0.5 16 16"><path stroke="#198fe9" d="M9 3h1m4 0h1m-4 1h1M9 5h1m1 0h1m2 0h1M7 6h1m3 0h2m1 0h1M8 7h1m1 0h1m2 0h1m0 1h1m-2 1h1m-4 2h1m-5 1h2"/><path stroke="#5cc0f2" d="M9 6h2M4 7h1m2 0h1m1 0h1m1 0h2m1 0h1M2 8h1m3 0h1m1 0h1m2 0h1m1 0h1m-4 1h1m1 0h1m-2 1h1M2 11h1m4 0h1m1 0h1m-5 1h1"/><path stroke="#b1e7fb" d="M5 7h2M3 8h1m3 0h1m1 0h1m2 0h1M1 9h1m4 0h1m1 0h1m2 0h1M1 10h1m5 0h1m1 0h2m1 0h1M3 11h1m2 0h1m1 0h1m-5 1h1"/><path stroke="#fff" d="M4 8h2m4 0h1M2 9h4m1 0h1m1 0h1m-8 1h5m1 0h1m-5 1h2"/></svg>