<svg xmlns="http://www.w3.org/2000/svg" shape-rendering="crispEdges" viewBox="0 -0.5 16 16"><path stroke="rgba(35,131,159,0.2823529411764706)" d="M1 0h1M0 1h1m1 0h1M1 2h1m1 0h1M2 3h1m1 0h1M2 4h1m1 0h1M3 5h1m1 0h1M3 6h1m1 0h1M3 7h1m1 0h1M3 8h1M3 9h1m-1 1h1m-2 1h1m1 0h1m-3 1h1m1 0h1m-4 1h1m1 0h1m-4 1h1m1 0h1m-2 1h1"/><path stroke="rgba(52,181,218,0.43529411764705883)" d="M10 0h1M9 1h1m1 0h1M8 2h1m1 0h1m1 0h1M7 3h1m1 0h1m1 0h1m1 0h1M7 4h1m1 0h1m1 0h1m1 0h1M8 5h1m1 0h1m1 0h1M9 6h1m1 0h1M6 7h9M5 8h1m4 0h1m4 0h1M5 9h1m1 0h2m1 0h4m1 0h1M5 10h1m1 0h2m1 0h1m2 0h1m1 0h1M5 11h1m1 0h1m1 0h1m2 0h1m1 0h1M5 12h1m1 0h2m2 0h1m1 0h2M5 13h1m1 0h1m2 0h1m1 0h2m1 0h1M6 14h1m4 0h1m2 0h1"/><path stroke="#5bb7d1" d="M1 1h1m0 1h1m0 1h1m0 2h1m-1 5h1m-2 2h1m-2 1h1m-2 1h1"/><path stroke="#99e9ff" d="M10 1h1M9 2h1m1 0h1M3 4h1m5 1h1m1 0h1M4 6h1m5 0h1M4 7h1M4 8h1m6 0h2M4 9h1m4 1h1m-7 1h1m2 0h1m1 0h1m-3 1h1m5 0h1m-7 1h1m4 0h1"/><path stroke="#fff" d="M8 3h1m3 0h1M8 4h1m3 0h1M6 8h4m3 0h2M6 9h1m2 0h1m4 0h1m-9 1h1m7 0h1m-2 1h1m0 2h1"/></svg>