<svg xmlns="http://www.w3.org/2000/svg" shape-rendering="crispEdges" viewBox="0 -0.5 16 16"><path stroke="rgba(35,131,159,0.2823529411764706)" d="M1 0h1m4 0h1m2 0h1m4 0h1M0 1h1m1 0h1m10 0h1m1 0h1M1 2h1m1 0h1m8 0h1m1 0h1M2 3h1m1 0h1m6 0h1m1 0h1M2 4h1m1 0h1m6 0h1m1 0h1M3 5h1m1 0h1m4 0h1m1 0h1M3 6h1m1 0h1m6 0h1M3 7h1m1 0h1m4 0h1m1 0h1M3 8h1m1 0h1m4 0h1m1 0h1M3 9h1m8 0h1M3 10h1m1 0h1m4 0h1m1 0h1M2 11h1m1 0h1m6 0h1m1 0h1M2 12h1m1 0h1m6 0h1m1 0h1M1 13h1m1 0h1m8 0h1m1 0h1M0 14h1m1 0h1m10 0h1m1 0h1M1 15h1m4 0h1m2 0h1m4 0h1"/><path stroke="#99e9ff" d="M7 0h2M6 1h1m2 0h1M3 4h1m2 0h1m2 0h1m2 0h1M8 5h1M4 6h1m4 0h1m1 0h1M4 7h1m6 0h1M4 8h1m6 0h1M4 9h1m1 0h1m2 0h1m1 0h1m-4 1h1m-6 1h1m3 0h1m4 0h1m-7 3h1m2 0h1m-3 1h2"/><path stroke="#5bb7d1" d="M1 1h1m12 0h1M2 2h1m10 0h1M3 3h1m8 0h1M4 5h1m6 0h1m-8 5h1m6 0h1m-9 2h1m8 0h1M2 13h1m10 0h1M1 14h1m12 0h1"/><path stroke="rgba(52,181,218,0.43529411764705883)" d="M5 1h1m1 0h2m1 0h1M6 2h1m2 0h1M6 3h4M5 4h1m4 0h1M6 5h2m1 0h1M7 6h2m1 0h1M6 7h1m1 0h2M6 8h2m1 0h1M5 9h1m4 0h1m-5 1h2m1 0h1m-4 1h1m1 0h1m-2 1h2m-3 1h1m2 0h1m-5 1h1m1 0h2m1 0h1"/><path stroke="#fff" d="M7 2h2M7 4h2M7 7h1m0 1h1M7 9h2m-2 4h2"/></svg>