<svg xmlns="http://www.w3.org/2000/svg" shape-rendering="crispEdges" viewBox="0 -0.5 16 16"><path stroke="rgba(52,181,218,0.43529411764705883)" d="M2 0h1m6 0h1M1 1h1m1 0h1m4 0h1m1 0h1M1 2h1m1 0h1m3 0h1m1 0h1M1 3h1m1 0h1m2 0h1m1 0h1M2 4h1m1 0h2m1 0h1m1 0h1M1 5h3m1 0h1m1 0h1m1 0h1M0 6h1m4 0h1m1 0h2m1 0h1M1 7h6m2 0h1M3 8h1m3 0h1M2 9h1m5 0h1m-7 1h1m5 0h1m-7 1h1m5 0h1m-6 1h1m4 0h1m-5 1h1m1 0h1m1 0h1m-4 1h1m1 0h1"/><path stroke="rgba(35,131,159,0.2823529411764706)" d="M14 0h1m-2 1h1m1 0h1m-4 1h1m1 0h1m-4 1h1m1 0h1m-3 1h1m1 0h1m-4 1h1m1 0h1m-1 1h1m-3 1h1m1 0h1m-3 1h1m1 0h1m-3 1h1m1 0h1m-3 1h1m1 0h1m-2 1h1m1 0h1m-3 1h1m1 0h1m-2 1h1m1 0h1m-2 1h1m1 0h1m-2 1h1"/><path stroke="#99e9ff" d="M2 1h1m6 0h1M2 2h1m5 0h1m3 2h1M6 5h1m1 0h1M1 6h2m3 0h1m2 0h1m1 0h1m-1 1h1m-1 1h1m-1 1h1m0 2h1"/><path stroke="#5bb7d1" d="M14 1h1m-2 1h1m-2 1h1m-2 2h1m-1 5h1m0 2h1m0 1h1m0 1h1"/><path stroke="#fff" d="M2 3h1m4 0h1M3 4h1m2 0h1m1 0h1M4 5h1M3 6h2"/><path stroke="#dfe8c0" d="M4 8h2M3 9h4m-4 1h2m-2 1h3m-1 1h1"/><path stroke="#c7d792" d="M6 8h1m0 1h1m-2 1h1m0 1h1m-4 1h1m2 0h1m-3 1h1m1 0h1"/><path stroke="#3f4c1d" d="M5 10h1m1 0h1"/><path stroke="#6d8233" d="M6 11h1"/><path stroke="#9fbb53" d="M6 12h1"/></svg>