<svg xmlns="http://www.w3.org/2000/svg" shape-rendering="crispEdges" viewBox="0 -0.5 16 16"><path stroke="rgba(52,181,218,0.43529411764705883)" d="M2 0h1m6 0h1M1 1h1m1 0h1m4 0h1m1 0h1M1 2h1m1 0h1m3 0h1m1 0h1M1 3h1m1 0h1m2 0h1m1 0h1M2 4h1m1 0h2m1 0h1m1 0h1M1 5h3m1 0h1m1 0h1m1 0h1M0 6h1m4 0h1m1 0h2m1 0h1M1 7h4m1 0h1m2 0h1M2 8h3M1 9h1m3 0h3m-6 1h1m5 0h1m-8 1h1m7 0h1m-8 1h1m5 0h1m-8 1h1m3 0h3m-6 1h3"/><path stroke="rgba(35,131,159,0.2823529411764706)" d="M14 0h1m-2 1h1m1 0h1m-4 1h1m1 0h1m-4 1h1m1 0h1m-3 1h1m1 0h1m-4 1h1m1 0h1m-1 1h1m-3 1h1m1 0h1m-3 1h1m1 0h1m-3 1h1m1 0h1m-3 1h1m1 0h1m-2 1h1m1 0h1m-3 1h1m1 0h1m-2 1h1m1 0h1m-2 1h1m1 0h1m-2 1h1"/><path stroke="#99e9ff" d="M2 1h1m6 0h1M2 2h1m5 0h1m3 2h1M6 5h1m1 0h1M1 6h2m3 0h1m2 0h1m1 0h1m-1 1h1m-1 1h1m-1 1h1m0 2h1"/><path stroke="#5bb7d1" d="M14 1h1m-2 1h1m-2 1h1m-2 2h1m-1 5h1m0 2h1m0 1h1m0 1h1"/><path stroke="#fff" d="M2 3h1m4 0h1M3 4h1m2 0h1m1 0h1M4 5h1M3 6h2"/><path stroke="#ca9400" d="M2 9h2m-2 2h3m-3 2h2"/><path stroke="#e6ad13" d="M4 9h1m1 2h1m-3 2h1"/><path stroke="#a7a7a7" d="M3 10h3m1 0h1m-3 1h1m1 0h2"/><path stroke="#696969" d="M6 10h1"/><path stroke="#878787" d="M3 12h3m1 0h1"/><path stroke="#585858" d="M6 12h1"/></svg>