<svg xmlns="http://www.w3.org/2000/svg" shape-rendering="crispEdges" viewBox="0 -0.5 16 16"><path stroke="#e3cc91" d="M6 1h1M2 4h1m8 0h1M3 5h1m1 0h1m3 0h1M4 6h1m3 0h1m1 0h1M3 7h1m2 0h1m3 0h1m2 0h1M5 8h1m1 0h1m2 0h1M7 9h1m2 0h1m-6 1h1m1 0h1m2 0h1m-8 1h1m1 0h1m1 0h1m-5 1h1m1 0h1m1 0h1m-5 1h1m1 0h1m-2 1h3"/><path stroke="#f0e2be" d="M7 1h1M3 2h1m2 0h1m3 0h1M2 3h1m4 0h1m2 0h2M6 4h1m1 0h1m1 0h1M4 5h1m3 0h1M3 6h1m1 0h3m1 0h1M5 7h1"/><path stroke="#f5ecd4" d="M8 1h1M4 2h2m1 0h3M3 3h4m1 0h2M3 4h3m1 0h1m1 0h1M6 5h2m2 0h1m1 1h1M3 8h1M3 9h1m1 0h1m-3 1h1"/><path stroke="#d5b050" d="M2 5h1m8 0h1m-1 1h1m0 1h1M4 8h1m3 0h1m4 0h1M4 9h1m1 0h1m1 0h1m4 0h1M4 10h1m1 0h1m1 0h1m3 0h1m-9 1h1m1 0h1m1 0h1m1 0h2m-8 1h1m1 0h1m1 0h1m1 0h1m-7 1h1m1 0h2m1 0h1m-3 1h1"/><path stroke="#ba8e32" d="M4 7h1m2 0h3m1 0h1M6 8h1m2 0h1m2 0h1M9 9h1m2 0h1m-4 1h1m1 0h1m-3 1h1m-1 1h1m-2 1h1m-1 1h1"/><path stroke="#9f681b" d="M13 10h1m-2 1h1m-3 2h1m-2 1h1"/></svg>