<svg xmlns="http://www.w3.org/2000/svg" shape-rendering="crispEdges" viewBox="0 -0.5 16 16"><path stroke="#4c5879" d="M5 5h1m-1 5h1"/><path stroke="#5a6ea3" d="M6 5h1M1 6h1m3 0h1M5 9h1m0 1h1"/><path stroke="#395398" d="M1 7h1M1 8h1"/><path stroke="#38456a" d="M2 7h1m1 0h1M1 9h1"/><path stroke="#263358" d="M3 7h1M2 8h1m1 0h1"/><path stroke="#6e97bd" d="M5 7h1M5 8h1"/><path stroke="#b4eaff" d="M6 7h1m0 1h8"/><path stroke="#fff" d="M7 7h7"/><path stroke="#1c243b" d="M3 8h1"/><path stroke="#83ddff" d="M6 8h1"/></svg>