<svg xmlns="http://www.w3.org/2000/svg" shape-rendering="crispEdges" viewBox="0 -0.5 16 16"><path stroke="#fff" d="M11 1h1M7 2h1m3 0h1M6 3h1m2 0h4M5 4h1m2 0h1m1 0h4M9 5h4m1 0h1M8 6h1m2 0h1M7 7h1m2 0h1m3 0h1m-5 1h1m2 0h1m-2 1h1m-2 1h1"/><path stroke="#f7d76b" d="M2 6h2M1 7h1m2 0h1M1 8h1m2 0h1M2 9h4m2 0h1m-7 1h1m3 0h2m1 0h1m-8 1h1m3 0h1m1 0h1m-7 1h1m3 0h1m-4 1h3m2 0h1m-8 1h1"/><path stroke="#fef9ae" d="M2 7h2M2 8h2m-1 2h3m2 0h1m-6 1h3m-3 1h3"/><path stroke="#f39317" d="M5 8h1m0 1h1m-6 2h1m5 0h1m-6 2h1m3 0h1m-3 1h1"/></svg>