<svg xmlns="http://www.w3.org/2000/svg" shape-rendering="crispEdges" viewBox="0 -0.5 16 16"><path stroke="#fff" d="M5 1h2m2 0h2M7 2h2M2 5h1m1 0h1m2 0h2m2 0h1m1 0h1M1 6h1m1 0h1m2 0h1m2 0h1m2 0h1m1 0h1M1 7h1m1 0h1m1 0h1m4 0h1m1 0h1m1 0h1M1 8h1m1 0h1m1 0h1m4 0h1m1 0h1m1 0h1M1 9h1m1 0h1m2 0h1m2 0h1m2 0h1m1 0h1M2 10h1m1 0h1m2 0h2m2 0h1m1 0h1m-7 3h2m-4 1h2m2 0h2"/><path stroke="#222542" d="M5 2h2m2 0h2M7 3h2M2 6h1m1 0h1m2 0h2m2 0h1m1 0h1M6 7h1m2 0h1M5 9h1m4 0h1M1 10h1m1 0h1m2 0h1m2 0h1m2 0h1m1 0h1M2 11h1m1 0h1m2 0h2m2 0h1m1 0h1m-7 3h2m-4 1h2m2 0h2"/></svg>