<svg xmlns="http://www.w3.org/2000/svg" shape-rendering="crispEdges" viewBox="0 -0.5 16 16"><path stroke="#fff" d="M4 2h1m1 0h1m2 0h1m1 0h1M3 3h1m2 0h1m2 0h1m2 0h1M2 4h1m4 0h2m4 0h1M1 5h1m4 0h1m2 0h1m4 0h1M1 6h1m4 0h1m2 0h1m4 0h1M7 7h2M6 8h1m2 0h1M1 9h3m2 0h1m2 0h1m2 0h3M1 10h1m5 0h2m5 0h1M1 11h1m4 0h1m2 0h1m4 0h1M2 12h1m3 0h1m2 0h1m3 0h1M3 13h1m3 0h2m3 0h1m-9 1h1m6 0h1"/><path stroke="#222542" d="M4 3h1m6 0h1M3 4h1m2 0h1m2 0h1m2 0h1M2 5h1m4 0h2m4 0h1M1 7h1m4 0h1m2 0h1m4 0h1M7 8h2m-7 2h2m2 0h1m2 0h1m2 0h2m-7 1h2m-8 1h1m12 0h1M2 13h1m3 0h1m2 0h1m3 0h1M3 14h1m3 0h2m3 0h1m-9 1h1m6 0h1"/></svg>