<svg xmlns="http://www.w3.org/2000/svg" shape-rendering="crispEdges" viewBox="0 -0.5 16 16"><path stroke="#974b33" d="M9 0h1M9 1h1M9 2h1M9 3h1M9 4h1M9 5h1m0 1h1m0 1h1m-1 1h1m-2 1h1m-2 1h1m-1 1h1m-1 1h1m-1 1h1m-1 1h1m-1 1h1"/><path stroke="#4f1713" d="M10 0h5m-5 1h6m-6 1h6m-6 1h6m-6 1h6m-6 1h6m-5 1h5m-4 1h4m-4 1h4m-5 1h5m-6 1h6m-6 1h6m-6 1h6m-6 1h6m-6 1h6m-6 1h5"/><path stroke="#fff" d="M6 1h1M2 2h1m5 5h2M8 8h2m-8 5h1m3 1h1"/><path stroke="#ecf" d="M6 2h1M3 3h1M2 7h1m3 0h1M0 8h1m3 0h1m-2 4h1m2 1h1"/><path stroke="#a669c4" d="M7 3h1M4 4h1m-1 7h1m2 1h1"/><path stroke="#77458f" d="M7 4h1M5 5h1m-1 5h1m1 1h1"/></svg>