<svg xmlns="http://www.w3.org/2000/svg" shape-rendering="crispEdges" viewBox="0 -0.5 16 16"><path stroke="#77458f" d="M11 1h1m-2 1h1m-1 1h1m0 1h1m2 0h1m-3 1h2M7 6h1m3 0h1M6 7h1m3 0h1M5 8h1m3 0h1M4 9h1m3 0h1m-6 1h1m3 0h1m-2 1h1m-3 2h1m-2 1h1m-2 1h1"/><path stroke="#ecf" d="M12 1h2m-3 1h1m2 0h1m-4 1h1m2 0h1m-5 1h1m1 0h2M9 5h1m0 1h1M9 7h1M6 8h1m1 0h1m-5 2h1m0 1h1m-3 2h1m-2 1h1"/><path stroke="#fff" d="M12 2h2m-2 1h2m-4 2h1M8 7h1M6 9h1m-3 2h1m-3 2h1"/><path stroke="#a669c4" d="M9 4h1m1 1h1M8 6h2M7 7h1M7 8h1M5 9h1m1 0h1m-3 1h2m-4 1h1m-2 1h3m-4 1h1m-1 1h1"/></svg>