<svg xmlns="http://www.w3.org/2000/svg" shape-rendering="crispEdges" viewBox="0 -0.5 16 16"><path stroke="#fff" d="M5 1h1M4 2h1m1 0h1m3 0h3M3 3h1m2 0h1m2 0h1m3 0h1M2 4h1m3 0h1m2 0h1m3 0h1M1 5h1m4 0h1m2 0h1m3 0h1M1 6h1m4 0h1m3 0h3M1 7h1m3 0h1M1 8h1m2 0h1M1 9h1m2 0h1m4 0h5M1 10h1m3 0h1m2 0h1m5 0h1M2 11h1m3 0h2m5 0h1M3 12h1m8 0h1m-9 1h1m6 0h1m-7 1h6"/><path stroke="#222542" d="M5 2h1M4 3h1m5 0h3M3 4h1M2 5h1m6 1h1m3 0h1M6 7h1m3 0h3M5 8h1m-2 2h1m4 0h5M1 11h1m3 0h1m2 0h1m5 0h1M2 12h1m3 0h2m5 0h1M3 13h1m8 0h1m-9 1h1m6 0h1m-7 1h6"/></svg>