<svg xmlns="http://www.w3.org/2000/svg" shape-rendering="crispEdges" viewBox="0 -0.5 16 16"><path stroke="#458321" d="M3 3h4M2 4h1m4 0h7M1 5h1M1 6h1M1 9h1m-1 1h1m0 1h1m4 0h7M3 12h4"/><path stroke="#69b33d" d="M3 4h1m2 0h1M2 5h1m11 0h1M1 7h1M1 8h1m0 2h1m11 0h1M3 11h1m2 0h1"/><path stroke="#97e569" d="M4 4h2m6 1h2M2 6h1m11 0h1m-1 1h1m-1 1h1M2 9h1m11 0h1m-3 1h2M4 11h2"/><path stroke="#cfff9e" d="M3 5h1m2 0h6m1 1h1M2 7h1m3 0h3m1 0h1m2 0h1M2 8h1m6 0h1m2 0h2m-1 1h1M3 10h1m2 0h6"/><path stroke="#fff" d="M4 5h2M3 6h10M3 7h3m3 0h1m1 0h2M3 8h6m1 0h2M3 9h10m-9 1h2"/></svg>