<svg xmlns="http://www.w3.org/2000/svg" shape-rendering="crispEdges" viewBox="0 -0.5 16 16"><path stroke="#baf0ff" d="M7 0h2M8 2h1M7 4h1M7 5h1M0 7h1m1 0h1m7 0h3m1 0h2M0 8h2m1 0h3m7 0h1m1 0h1m-8 2h1m-1 1h1m-2 2h1m-1 2h2"/><path stroke="#85c0ff" d="M6 1h1m2 0h1M1 6h1m4 0h1m2 0h1m4 0h1M1 9h1m4 0h1m2 0h1m4 0h1m-9 5h1m2 0h1"/><path stroke="#fff" d="M7 1h2M7 2h1M7 3h2M8 4h1M8 5h1M7 6h2M1 7h1m1 0h7m3 0h1M2 8h1m3 0h7m1 0h1M7 9h2m-2 1h1m-1 1h1m-1 1h2m-1 1h1m-2 1h2"/><path stroke="#3281d5" d="M6 2h1m2 0h1M2 6h1m10 0h1M2 9h1m10 0h1m-8 4h1m2 0h1"/><path stroke="rgba(29,94,165,0.7176470588235294)" d="M6 3h1m2 0h1M3 6h2m5 0h3M3 9h2m5 0h3m-7 1h1m2 0h1m-4 1h1m2 0h1m-4 1h1m2 0h1"/><path stroke="rgba(28,94,166,0.9215686274509803)" d="M6 4h1m2 0h1M6 5h1m2 0h1M5 6h1M5 9h1"/></svg>