<svg xmlns="http://www.w3.org/2000/svg" shape-rendering="crispEdges" viewBox="0 -0.5 16 16"><path stroke="#baf0ff" d="M10 0h2M9 1h1m1 0h1m2 2h1M1 4h2m12 0h1M1 5h1m12 0h1M2 6h1m-2 7h1m13 0h1M0 14h1m1 0h1m5 0h1m1 0h1m3 0h2M0 15h2m7 0h1"/><path stroke="#85c0ff" d="M4 1h1m4 1h1m1 0h1m-2 1h1M3 4h1m8 0h2M4 5h1M3 6h1m9 0h1M6 7h1m2 0h1M1 9h1m4 0h1m8 0h1m-3 2h1M2 12h1m4 0h1m6 0h1M3 13h1m4 0h1m1 0h1m2 0h1"/><path stroke="#fff" d="M10 1h1m-1 1h1M9 3h1M9 4h1m4 0h1M2 5h2m4 0h1m3 0h2M4 6h2m2 0h1m1 0h2M7 7h2M6 8h4M5 9h1m2 0h1m1 0h1m-6 1h1m2 0h1m2 0h1m-8 1h1m3 0h1m3 0h1M3 12h1m4 0h1m4 0h1M2 13h1m6 0h1m4 0h1M1 14h1m7 0h1"/><path stroke="#3281d5" d="M5 2h1M5 3h1m2 0h1M8 4h1m1 0h1M5 5h1m1 0h1m1 0h3M6 6h2m4 0h1M4 7h2m5 0h1m1 1h1M2 9h1m11 0h1M4 10h1m2 0h1m1 0h1m2 0h1M3 11h1m3 0h1m1 0h1m1 0h1m-8 1h1m4 0h1m2 0h1"/><path stroke="rgba(28,94,166,0.9215686274509803)" d="M6 4h1M6 5h1m2 1h1m0 1h1M3 8h3m4 0h3M4 9h1m2 0h1m1 0h1m1 0h1m-6 1h1m3 0h1"/></svg>