<svg xmlns="http://www.w3.org/2000/svg" shape-rendering="crispEdges" viewBox="0 -0.5 16 16"><path stroke="#cb490e" d="M3 0h1"/><path stroke="#e37122" d="M3 1h1M2 3h1m1 0h1M1 5h1m3 0h1M1 6h1m0 1h1"/><path stroke="#fdbc4c" d="M3 2h1M2 4h1m1 0h1M2 6h1m2 0h1M3 7h2"/><path stroke="#ffea92" d="M3 3h1M3 4h1M2 5h3M3 6h2"/><path stroke="#fff" d="M6 6h1m0 1h1m0 1h1m0 1h1"/><path stroke="#771212" d="M12 6h1"/><path stroke="#f0e186" d="M9 7h1M7 9h1"/><path stroke="#ac1a1a" d="M12 7h1m-2 2h1m1 0h1m-3 1h1m-2 1h1m3 0h1m-5 1h1m0 1h1"/><path stroke="#fff6c0" d="M9 8h1M8 9h1"/><path stroke="#d63f3f" d="M12 8h1m-1 1h1m-1 1h2m-3 1h2m-2 1h1m2 0h1m-3 1h2"/><path stroke="#f89595" d="M13 11h1m-2 1h2"/></svg>