<svg xmlns="http://www.w3.org/2000/svg" shape-rendering="crispEdges" viewBox="0 -0.5 16 16"><path stroke="#7d7e8a" d="M4 1h1m3 0h1M3 2h1m4 0h1M3 3h1m5 0h1M3 4h1M3 5h1m8 0h1M4 6h1m6 0h1M3 7h1m1 0h1m5 0h1M3 8h1m1 0h1m6 0h1M1 9h1m2 0h1m1 0h1m3 0h1m-7 1h2m1 0h3m1 0h1"/><path stroke="#a7a8b0" d="M5 1h3m1 0h3M4 2h4m1 0h4M4 3h5m1 0h3M4 4h9M4 5h8M5 6h6m1 0h1M4 7h1m1 0h5m1 0h1M4 8h1m1 0h6M5 9h1m1 0h3m1 0h1m2 2h1"/><path stroke="#5e5f69" d="M3 6h1M3 9h1m8 0h1m-7 1h1m3 0h1m-9 2h1"/><path stroke="#8cc7dc" d="M6 12h1m2 0h1m-3 2h2"/><path stroke="#fff" d="M7 12h2"/></svg>