<svg xmlns="http://www.w3.org/2000/svg" shape-rendering="crispEdges" viewBox="0 -0.5 16 16"><path stroke="rgba(248,207,96,0.592156862745098)" d="M6 1h4M4 2h2m4 0h2M3 3h1m8 0h1M2 4h1m10 0h1M2 5h1m10 0h1M1 6h1m12 0h1M1 7h1m12 0h1M1 8h1m12 0h1M1 9h1m12 0h1M2 10h1m10 0h1M2 11h1m10 0h1M3 12h1m8 0h1m-9 1h2m4 0h2m-6 1h4"/><path stroke="rgba(233,118,18,0.592156862745098)" d="M6 2h4M4 3h8M3 4h3m4 0h3M3 5h2m6 0h2M2 6h3m6 0h3M2 7h3m6 0h3M2 8h1m1 0h1m6 0h3M2 9h4m4 0h4M3 10h9m-9 1h1m1 0h1m4 0h3m-9 1h8m-6 1h1m2 0h1"/><path stroke="#7d7e8a" d="M6 4h1m1 0h1M5 5h1m0 1h1m2 0h1M5 7h1m1 0h1m2 0h1M3 8h1m2 0h1m1 0h1M6 9h2m1 0h1m2 1h1"/><path stroke="#a7a8b0" d="M7 4h1m1 0h1M6 5h5M7 6h2m1 0h1M6 7h1m1 0h2M7 8h1m1 0h1"/><path stroke="#5e5f69" d="M5 6h1M5 8h1m4 0h1M8 9h1m-5 2h1"/><path stroke="#8cc7dc" d="M6 11h1m2 0h1m-3 2h2"/><path stroke="#fff" d="M7 11h2"/></svg>