<svg xmlns="http://www.w3.org/2000/svg" shape-rendering="crispEdges" viewBox="0 -0.5 16 16"><path stroke="#cb3b54" d="M4 1h1m1 0h1m1 0h1M6 2h1M5 4h3M3 5h1m5 0h1M2 6h1m7 0h1M1 8h1m9 0h1M1 9h1m9 0h1M1 10h1m9 0h1M2 12h1m7 0h1m-8 1h1m5 0h1m-5 1h3"/><path stroke="#903645" d="M5 1h1m1 0h1M5 2h1m1 0h1M6 3h1M4 4h1m3 0h1M1 7h1m9 0h1M1 11h1m9 0h1m-8 3h1m3 0h1"/><path stroke="#e4526c" d="M12 1h1m-3 2h1m3 0h1"/><path stroke="#61232d" d="M4 2h1m3 0h1M6 5h1M6 6h1m2 0h1M6 7h1m1 0h2M6 8h3M7 9h1"/><path stroke="#ffb8c5" d="M12 2h1m-2 2h1m1 0h1M5 5h1m1 0h1m4 0h1M2 8h1m6 0h2M8 9h1m-7 1h1m3 0h2m2 0h1m-6 3h1m1 0h1"/><path stroke="#ebebeb" d="M12 3h1m-1 1h1M5 6h1m1 0h1M4 7h2m1 0h1M3 8h3M4 9h2m-3 1h3m2 0h2m-6 1h5m-4 1h1m1 0h1"/><path stroke="#d3a9a9" d="M4 5h1m3 0h1M3 6h2m3 0h1M2 7h2m6 0h1M2 9h2m5 0h2m-9 2h2m5 0h2m-8 1h2m1 0h1m1 0h2m-6 1h1m1 0h1m1 0h1"/><path stroke="#833340" d="M6 9h1"/></svg>