<svg xmlns="http://www.w3.org/2000/svg" shape-rendering="crispEdges" viewBox="0 -0.5 16 16"><path stroke="#6b4c3e" d="M6 1h4M4 2h1m6 0h1M3 3h1m8 0h1M2 4h1m10 0h1M1 6h1m12 0h1M1 7h1m12 0h1M1 8h1m12 0h1M1 9h1m12 0h1M2 11h1m10 0h1M3 12h1m8 0h1m-9 1h1m6 0h1m-6 1h4"/><path stroke="#bd7741" d="M5 2h2m2 0h2M4 3h1m6 0h1M3 4h1m8 0h1M2 5h1m10 0h1M2 6h1m10 0h1M2 9h1m10 0h1M2 10h1m10 0h1M3 11h1m8 0h1m-9 1h1m6 0h1m-7 1h2m2 0h2"/><path stroke="#f7c34f" d="M7 2h2M5 3h6M4 4h2m4 0h2M3 5h2m6 0h2M3 6h1m8 0h1M2 7h2m8 0h2M2 8h2m8 0h2M3 9h1m8 0h1M3 10h2m6 0h2m-9 1h2m4 0h2m-7 1h6m-4 1h2"/><path stroke="#fffffe" d="M6 4h4M5 5h6M4 6h8M4 7h8M4 8h8M4 9h8m-7 1h6m-5 1h4"/></svg>