<svg xmlns="http://www.w3.org/2000/svg" shape-rendering="crispEdges" viewBox="0 -0.5 16 16"><path stroke="#fff" d="M6 1h4M6 2h1m2 0h1M6 3h1m2 0h1M6 4h1m2 0h1M3 5h1m2 0h1m2 0h1m2 0h1M4 6h1m1 0h1m2 0h1m1 0h1M4 7h1m1 0h1m2 0h1m1 0h1M3 8h1m2 0h1m2 0h1m2 0h1M2 9h1m3 0h1m2 0h1m3 0h1M1 10h1m4 0h1m2 0h1m4 0h1M2 11h1m3 0h1m2 0h1m3 0h1M3 12h1m2 0h1m2 0h1m2 0h1m-9 1h1m1 0h1m2 0h1m1 0h1m-7 1h2m2 0h2"/><path stroke="#222542" d="M7 2h2M3 6h1m8 0h1M4 8h1m6 0h1M3 9h1m8 0h1M2 10h1m10 0h1M1 11h1m12 0h1M2 12h1m10 0h1M3 13h1m8 0h1m-9 1h1m6 0h1m-7 1h2m2 0h2"/></svg>