<svg xmlns="http://www.w3.org/2000/svg" shape-rendering="crispEdges" viewBox="0 -0.5 16 16"><path stroke="#fffffe" d="M1 0h1m0 1h1m4 0h1M3 2h1m10 0h1M3 3h1m8 1h1m0 2h1M0 7h1m2 0h1M1 8h1m13 0h1M2 9h1m-2 1h1m-2 1h1m5 0h1m-2 1h1m3 0h1m-2 1h1m5 0h1m-2 1h1"/><path stroke="#87d6f2" d="M8 0h1m6 0h1M1 1h1m9 0h1m2 0h1M2 2h1m5 0h1m1 0h1m2 1h1m1 0h1M3 4h2m9 1h1M2 7h1m9 0h1m2 0h1M2 8h1m-1 2h1m-2 1h1m3 0h1m0 2h1m3 0h1m2 0h1m-3 1h1m3 0h1M4 15h1m8 0h1"/><path stroke="rgba(226,141,56,0.07058823529411765)" d="M14 0h1M5 2h1m6 0h1"/><path stroke="rgba(255,240,184,0.07058823529411765)" d="M8 1h1m4 0h1m-2 2h1"/><path stroke="rgba(226,70,28,0.07058823529411765)" d="M15 1h1"/><path stroke="#3eb2d5" d="M9 2h1M8 3h1M5 4h1m5 0h1M4 7h1m7 1h1m1 0h1m-9 2h1m1 1h1m3 0h1m-5 1h1m4 0h1m-9 2h1"/><path stroke="rgba(255,255,255,0.07058823529411765)" d="M13 2h1"/><path stroke="rgba(218,135,52,0.43529411764705883)" d="M7 4h3M6 5h1m3 0h1M5 6h1m5 0h1M5 7h1m5 0h1M5 8h1m5 0h1M6 9h1m4 0h1m-5 1h1m1 0h1m1 0h1m-2 1h1"/><path stroke="#dfe8c0" d="M7 5h2M6 6h4M6 7h2M6 8h3M8 9h1"/><path stroke="#c7d792" d="M9 5h1m0 1h1M9 7h1m0 1h1M7 9h1m2 0h1m-3 1h1m1 0h1"/><path stroke="#3f4c1d" d="M8 7h1m1 0h1"/><path stroke="#6d8233" d="M9 8h1"/><path stroke="#9fbb53" d="M9 9h1"/></svg>