<svg xmlns="http://www.w3.org/2000/svg" shape-rendering="crispEdges" viewBox="0 -0.5 16 16"><path stroke="#fffffe" d="M1 0h1m0 1h1m4 0h1M3 2h1m10 0h1M3 3h1m8 1h1M7 6h3m3 0h1M0 7h1m2 0h1m3 0h3M1 8h1m5 0h3m5 0h1M2 9h1m-2 1h1m-2 1h1m5 0h1m-2 1h1m3 0h1m-2 1h1m5 0h1m-2 1h1"/><path stroke="#87d6f2" d="M8 0h1m6 0h1M1 1h1m9 0h1m2 0h1M2 2h1m5 0h1m1 0h1m2 1h1m1 0h1M3 4h2m3 0h1M6 5h1m1 0h3m3 0h1M2 7h1m2 0h2m3 0h3m2 0h1M2 8h1m3 0h1m3 0h1M6 9h4m-8 1h1m7 0h1M1 11h1m3 0h1m0 2h1m3 0h1m2 0h1m-3 1h1m3 0h1M4 15h1m8 0h1"/><path stroke="#3eb2d5" d="M9 2h1M8 3h1M5 4h1m5 0h1M4 7h1m7 1h1m1 0h1m-9 2h1m1 1h1m3 0h1m-5 1h1m4 0h1m-9 2h1"/></svg>