<svg xmlns="http://www.w3.org/2000/svg" shape-rendering="crispEdges" viewBox="0 -0.5 16 16"><path stroke="#f39317" d="M4 1h1m7 0h1M1 4h1m5 0h1m1 0h1m5 0h1M4 7h1m7 0h1"/><path stroke="#f7df7b" d="M2 2h1m3 0h1m3 0h1m3 0h1M4 3h1m7 0h1M3 4h3m5 0h3M4 5h1m7 0h1M2 6h1m3 0h1m3 0h1m3 0h1"/><path stroke="#f7c34f" d="M4 2h1m7 0h1M3 3h1m1 0h1m5 0h1m1 0h1M2 4h1m3 0h1m3 0h1m3 0h1M3 5h1m1 0h1m5 0h1m1 0h1M4 6h1m7 0h1"/><path stroke="#418ed3" d="M7 9h1m4 0h1m-8 1h1m-4 1h1m3 0h1m2 1h1m3 0h1m-4 1h1"/><path stroke="#75caff" d="M8 10h2m1 0h1m1 0h1m-9 1h1m1 0h1m2 0h1m1 0h1m1 0h1M4 12h1m2 0h1m2 0h2m-4 1h1"/><path stroke="#f9ebfd" d="M12 10h1m-4 1h1m1 0h1m-4 1h1"/></svg>