<svg xmlns="http://www.w3.org/2000/svg" shape-rendering="crispEdges" viewBox="0 -0.5 16 16"><path stroke="#23336a" d="M3 0h1"/><path stroke="#3a4f97" d="M3 1h1M2 3h1m1 0h1M2 4h1M1 5h1m3 0h1M1 6h1m0 1h1"/><path stroke="#5770c7" d="M3 2h1M3 3h1M3 4h2M2 5h2M2 6h1m2 0h1M3 7h2"/><path stroke="#859ff5" d="M4 5h1M3 6h2"/><path stroke="#f3870b" d="M9 5h1m3 2h1m-2 1h1m-7 3h1m-3 2h1m3 1h1m5 0h1"/><path stroke="#fff" d="M6 6h1m0 1h1m0 1h1m0 1h1"/><path stroke="#f0e186" d="M9 7h1M7 9h1"/><path stroke="#fff6c0" d="M9 8h1M8 9h1"/><path stroke="#f7c34f" d="M11 9h3m-1 1h3m-9 1h3m3 0h2m-6 1h1m2 0h1m2 0h1m-7 1h3m1 0h1m-4 1h1"/><path stroke="#f7e787" d="M10 10h3m-3 1h3m-3 1h2"/></svg>