<svg xmlns="http://www.w3.org/2000/svg" shape-rendering="crispEdges" viewBox="0 -0.5 16 16"><path stroke="rgba(2,127,0,0.3843137254901961)" d="M1 1h1"/><path stroke="#2b5397" d="M2 1h1m3 0h1M1 2h1m5 0h1M1 6h1m5 0h1M2 7h1m3 0h1"/><path stroke="#3b6bcb" d="M3 1h3M2 2h1m3 0h1M1 3h1m5 0h1M1 4h1m5 0h1M1 5h1m5 0h1M2 6h1m3 0h1M3 7h3"/><path stroke="rgba(17,144,0,0.5058823529411764)" d="M7 1h1"/><path stroke="#c3d7f7" d="M3 2h1m1 0h1M2 3h1m3 0h1M2 5h1m3 0h1M3 6h1m1 0h1"/><path stroke="#a7a7a7" d="M4 2h1M2 4h1m3 0h1M4 6h1"/><path stroke="rgba(55,170,0,0.592156862745098)" d="M8 2h2M8 3h1"/><path stroke="#ebebeb" d="M3 3h2M3 4h1m1 0h1M3 5h3"/><path stroke="#1b3767" d="M5 3h1M4 4h1"/><path stroke="rgba(122,192,22,0.6549019607843137)" d="M9 3h3M8 4h3M8 5h2M8 6h1M4 8h2M3 9h2"/><path stroke="rgba(157,220,68,0.7764705882352941)" d="M11 4h2m-3 1h4M9 6h4m1 0h1M7 7h4M6 8h4M5 9h3m5 0h1M3 10h3m5 0h1M2 11h2m5 0h1m-3 1h1m-3 1h1m-3 1h1"/><path stroke="rgba(215,255,159,0.8901960784313725)" d="M13 6h1m-3 1h3m-4 1h2M8 9h2m-4 1h2m-4 1h2m-4 1h2m-3 1h1m-1 1h1"/><path stroke="rgba(234,255,202,0.9490196078431372)" d="M14 7h1m-3 1h1m-3 1h1m-3 1h1m-3 1h1m-3 1h1m-3 1h1"/><path stroke="#fff" d="M13 8h2m-4 1h2m-4 1h2m-4 1h2m-4 1h2m-4 1h2m-3 1h1"/><path stroke="#027d00" d="M14 9h1m-3 1h1m-3 1h1m-3 1h1m-3 1h1m-3 1h1"/></svg>