<svg xmlns="http://www.w3.org/2000/svg" shape-rendering="crispEdges" viewBox="0 -0.5 16 16"><path stroke="rgba(2,127,0,0.3843137254901961)" d="M1 1h4M3 2h2"/><path stroke="rgba(17,144,0,0.5058823529411764)" d="M5 1h3M5 2h2M4 3h2M4 4h1M4 5h1"/><path stroke="rgba(55,170,0,0.592156862745098)" d="M7 2h3M6 3h3M5 4h3M5 5h2M4 6h2M4 7h1"/><path stroke="rgba(122,192,22,0.6549019607843137)" d="M9 3h3M8 4h3M7 5h3M6 6h3M5 7h2M4 8h2M3 9h2"/><path stroke="rgba(157,220,68,0.7764705882352941)" d="M11 4h2m-3 1h4M9 6h4m1 0h1M7 7h4M6 8h4M5 9h3m5 0h1M3 10h3m5 0h1M2 11h2m5 0h1m-3 1h1m-3 1h1m-3 1h1"/><path stroke="rgba(215,255,159,0.8901960784313725)" d="M13 6h1m-3 1h3m-4 1h2M8 9h2m-4 1h2m-4 1h2m-4 1h2m-3 1h1m-1 1h1"/><path stroke="rgba(234,255,202,0.9490196078431372)" d="M14 7h1m-3 1h1m-3 1h1m-3 1h1m-3 1h1m-3 1h1m-3 1h1"/><path stroke="#fff" d="M13 8h2m-4 1h2m-4 1h2m-4 1h2m-4 1h2m-4 1h2m-3 1h1"/><path stroke="#027d00" d="M14 9h1m-3 1h1m-3 1h1m-3 1h1m-3 1h1m-3 1h1"/></svg>