<svg xmlns="http://www.w3.org/2000/svg" shape-rendering="crispEdges" viewBox="0 -0.5 16 16"><path stroke="rgba(45,97,187,0.5764705882352941)" d="M6 2h1m1 0h1M7 4h1m5 2h1M2 7h1m8 0h1M4 8h1m8 0h1M2 9h1m5 2h1m-2 2h1m1 0h1"/><path stroke="rgba(56,137,200,0.7137254901960784)" d="M7 2h1M4 3h1m2 0h1m4 1h1M6 5h1m3 1h1m1 1h2M2 8h2m1 1h1m3 1h1m-7 1h1m3 0h1m0 1h1m2 0h1m-4 1h1"/><path stroke="#499ddd" d="M5 3h2m2 0h1m1 0h1M3 4h1m1 0h2m2 1h1m1 0h2M3 6h1m1 0h1m5 0h2M3 9h2m5 0h1m1 0h1M3 10h2m1 0h1m2 1h2m1 0h1m-9 1h1m1 0h1m2 0h2"/><path stroke="#94d0ee" d="M10 3h1M4 4h1m4 0h1m1 0h1M3 5h1m1 0h1m4 0h1M4 6h1m6 3h1m-7 1h1m4 0h1m1 0h1m-9 1h1m1 0h1m4 0h1m-7 1h1"/><path stroke="#fff" d="M10 4h1M4 5h1m6 5h1m-7 1h1"/></svg>