<svg xmlns="http://www.w3.org/2000/svg" shape-rendering="crispEdges" viewBox="0 -0.5 16 16"><path stroke="rgba(110,205,237,0.4)" d="M6 4h1m2 0h1M4 6h1m6 0h1M4 9h1m6 0h1m-6 2h1m2 0h1"/><path stroke="rgba(108,203,236,0.7764705882352941)" d="M7 4h2M4 7h1m6 0h1M4 8h1m6 0h1m-5 3h2"/><path stroke="rgba(109,203,236,0.6039215686274509)" d="M5 5h1m4 0h1m-6 5h1m4 0h1"/><path stroke="#6ccbec" d="M6 5h4M5 6h2m2 0h2M5 7h1m4 0h1M5 8h1m4 0h1M5 9h2m2 0h2m-5 1h4"/><path stroke="#90f1ff" d="M7 6h2M6 7h4M6 8h4M7 9h2"/></svg>