<svg xmlns="http://www.w3.org/2000/svg" shape-rendering="crispEdges" viewBox="0 -0.5 16 16"><path stroke="#1962d0" d="M7 1h2M6 3h1m2 0h1M3 6h1m8 0h1M1 7h1m12 0h1M1 8h1m12 0h1M3 9h1m8 0h1m-7 3h1m2 0h1m-3 2h2"/><path stroke="#699afb" d="M4 2h2m4 0h2M3 3h1m3 0h2m3 0h1M2 4h1m2 0h2m2 0h2m2 0h1M2 5h1m1 0h1m6 0h1m1 0h1M4 6h1m6 0h1M3 7h1m8 0h1M3 8h1m8 0h1M4 9h1m6 0h1M2 10h1m1 0h1m6 0h1m1 0h1M2 11h1m2 0h2m2 0h2m2 0h1M3 12h1m3 0h2m3 0h1m-9 1h2m4 0h2"/><path stroke="#fff" d="M7 4h2M5 5h6M5 6h6M4 7h8M4 8h8M5 9h6m-6 1h6m-4 1h2"/></svg>