<svg xmlns="http://www.w3.org/2000/svg" shape-rendering="crispEdges" viewBox="0 -0.5 16 16"><path stroke="#7fa7ef" d="M1 2h1m1 1h1m0 1h2M4 5h1m1 0h2M5 6h1m2 0h2m3 0h1M6 7h1m2 0h1M7 8h1m4 0h1M6 9h1m2 0h1m4 0h1m-6 1h1m1 0h1m1 0h1m-2 1h1m-3 1h1m4 1h1"/><path stroke="#5787e7" d="M2 3h1m0 1h1m1 1h1m1 1h1M7 7h2m1 0h1M8 8h1m1 0h1m2 0h1m-2 2h1"/><path stroke="#c3d7f7" d="M13 3h1m1 3h1m-5 1h1m1 0h1M9 8h1m1 0h1m2 0h1M8 9h1m1 0h4m1 0h1m-2 1h1"/><path stroke="#4377e7" d="M6 6h1"/><path stroke="#535c23" d="M0 10h1m1 0h1m2 0h3"/><path stroke="#6c5629" d="M1 10h1"/><path stroke="#3c5519" d="M3 10h2"/><path stroke="#974b33" d="M8 10h1m1 0h1m4 0h1"/><path stroke="#423716" d="M0 11h1m5 1h1m2 0h1m-9 1h1m3 0h1m2 0h1m-6 1h2m1 0h1"/><path stroke="#323f11" d="M1 11h1m5 0h1m-6 1h2m-1 1h1"/><path stroke="#2d4a12" d="M2 11h1m-2 1h1m2 0h1"/><path stroke="#2a5013" d="M3 11h1"/><path stroke="#285513" d="M4 11h1"/><path stroke="#3a4a18" d="M5 11h2m-7 1h1m4 0h1m1 0h1m-4 1h1m1 0h1"/><path stroke="#4f1713" d="M8 11h4m1 0h3m-8 1h1m2 0h5M0 13h1m1 0h1m4 0h1m1 0h6M0 14h3m2 0h1m1 0h9M0 15h16"/></svg>