<svg xmlns="http://www.w3.org/2000/svg" shape-rendering="crispEdges" viewBox="0 -0.5 16 16"><path stroke="#f7cf5f" d="M7 2h2M5 3h1m4 0h1M9 4h3M9 5h2m1 0h1m-2 1h1m1 1h1m-1 1h1"/><path stroke="#f3af33" d="M6 3h2m1 0h1M4 4h1m1 0h1m1 0h1M3 5h1m3 0h2m2 0h1M8 6h3M3 7h1m2 0h1m2 0h1m2 0h1M9 8h1M4 9h1m2 0h1m3 0h1m-4 1h1m-2 2h1m0 1h1"/><path stroke="#f37700" d="M8 3h1M5 4h1m1 0h1M4 5h1m1 0h1M5 6h1m1 0h1M5 7h1m1 0h2m1 0h1M3 8h1m1 0h2m1 0h1m2 0h2M3 9h1m2 0h1m1 0h3m1 0h1m-9 1h1m1 0h2m1 0h2m-4 1h1m1 0h1m-4 1h1m1 0h1m1 0h1m-4 1h1"/><path stroke="#f04c23" d="M5 5h1M3 6h2m1 0h1m5 0h1M2 7h1m1 0h1m6 0h1M2 8h1m1 0h1m2 0h1m2 0h1M5 9h1m-3 1h1m1 0h1m5 0h2m-9 1h3m1 0h1m1 0h2m-7 1h1m3 0h1"/></svg>