<svg xmlns="http://www.w3.org/2000/svg" shape-rendering="crispEdges" viewBox="0 -0.5 16 16"><path stroke="#5f5731" d="M7 1h1M6 2h1m1 0h1m1 0h1M4 3h1m2 0h1m1 0h1m2 0h1M1 4h1m3 0h1m2 0h1m2 0h1m1 0h1M3 5h2m2 0h1m1 0h1M5 6h2m5 0h3M7 7h1m0 1h1m0 1h1m1 0h1m1 0h1m-2 1h1m0 1h2m-6 1h1m-2 1h1m1 0h1m-3 1h1"/><path stroke="#686841" d="M8 1h1M5 3h2m3 0h1M6 4h1m3 1h1m1 0h1m1 0h1M8 6h1m1 0h1M8 7h1m3 0h1m-1 1h1m1 0h1m-5 1h1m-3 1h1m2 0h1m2 0h1m-6 1h1m2 0h1"/><path stroke="#737347" d="M5 2h1m1 0h1m1 0h1M3 3h1m4 0h1m2 0h1M2 4h1m1 0h1m2 0h1m1 0h2m1 0h1m1 0h1M5 5h2m1 0h1m2 0h1M7 6h1m1 0h1"/><path stroke="#464128" d="M3 4h1M1 5h1m11 0h1M2 6h2m7 0h1M1 7h2m1 0h1m1 0h1m2 0h2m2 0h1M1 8h1m1 0h1m1 0h2m2 0h1m1 0h1m1 0h1M2 9h1m1 0h1m2 0h2m5 0h1M1 10h1m2 0h1m1 0h2m1 0h2m2 0h1M2 11h2m1 0h2m1 0h1m-4 1h1m1 0h1m2 0h3m-7 1h1m2 0h1m-3 1h1"/><path stroke="#3b3325" d="M2 5h1M1 6h1m2 0h1M3 7h1m1 0h1m5 0h1m2 0h1M2 8h1m1 0h1m2 0h1m2 0h1M1 9h1m1 0h1m1 0h2m5 0h1M2 10h2m1 0h1m-5 1h1m2 0h1m2 0h1m2 0h2m-9 1h2m1 0h1m1 0h1m-4 1h1m1 0h1"/></svg>