<svg xmlns="http://www.w3.org/2000/svg" shape-rendering="crispEdges" viewBox="0 -0.5 16 16"><path stroke="#d2a96c" d="M7 1h1M5 2h1m0 1h1M4 4h1m2 0h1m1 0h1m2 0h1m1 0h1M6 5h1m4 0h1m1 0h1M5 6h1m2 0h1m4 0h1M7 7h1m1 0h1m1 0h1m2 0h1m-3 1h1m-3 1h1m-3 1h1m2 0h1m2 0h1m-3 1h1m-4 1h1"/><path stroke="#e6c593" d="M8 1h1M7 2h1m1 0h1M8 3h1m2 0h1M3 4h1m2 0h1m2 1h1m2 0h1M7 6h1m2 0h1"/><path stroke="#bd7d52" d="M6 2h1m1 0h1m1 0h1M3 3h1m1 0h1m1 0h1m1 0h1m2 0h1M2 4h1m2 0h1m2 0h1m1 0h2m1 0h1M3 5h2m2 0h1m2 0h1M6 6h1m2 0h1m2 0h1m-3 1h1M8 8h1m1 0h1m3 0h1m-4 1h1m1 0h1m-5 1h1m2 0h1m-5 1h1m1 0h1m2 0h1m-6 2h1"/><path stroke="#ab5e4f" d="M4 3h1m5 0h1M1 4h1m0 1h1m2 0h1m2 0h1m5 0h1M1 6h1m2 0h1M2 7h1m1 0h1m3 0h1m4 0h1M5 8h1m1 0h1m3 0h1m1 0h1M1 9h1m1 0h1m2 0h1m2 0h1m4 0h1M2 10h1m1 0h2m1 0h1m2 0h1m2 0h1M1 11h1m1 0h2m-1 1h2m1 0h2m1 0h3m-7 1h1m2 0h1m-2 1h1"/><path stroke="#77524f" d="M1 5h1m0 1h2m7 0h1m2 0h1M1 7h1m1 0h1m1 0h2m5 0h1M1 8h4m1 0h1m2 0h1M2 9h1m1 0h2m1 0h2m3 0h1M1 10h1m1 0h1m2 0h1m-5 1h1m2 0h3m1 0h1m1 0h1m2 0h1M3 12h1m2 0h1m-2 1h1m1 0h1m2 0h1m-4 1h1"/></svg>