<svg xmlns="http://www.w3.org/2000/svg" shape-rendering="crispEdges" viewBox="0 -0.5 16 16"><path stroke="#fff" d="M10 1h4M4 2h1m4 0h6M8 3h8M3 4h1m4 0h8M8 5h8M0 6h1m1 0h1m3 0h1m1 0h8M4 7h1m2 0h8M1 8h2m2 0h1m1 0h1m2 0h4M2 9h2m2 0h1m-3 1h2m1 0h2m-3 1h1m2 0h2m-4 1h2m2 0h2m-4 1h2m3 0h1"/><path stroke="#b5ff6a" d="M7 2h1M7 4h1M5 5h3M3 6h3M3 7h1m4 1h1M1 9h1m1 1h1m-4 1h1m4 0h1m6 2h2m-3 1h1m2 0h2"/><path stroke="#5c9000" d="M1 3h1m3 1h1m-4 8h1"/><path stroke="#9de500" d="M4 3h1M3 5h1m3 1h1M2 7h1m2 0h2M3 8h2m1 0h1m2 0h1M4 9h2m1 0h2m-7 1h1m3 0h1m2 0h2m-7 1h1m2 0h2m2 0h2m-7 1h1m2 0h2m2 0h2m-4 1h1m0 1h2"/></svg>