<svg xmlns="http://www.w3.org/2000/svg" shape-rendering="crispEdges" viewBox="0 -0.5 16 16"><path stroke="#f18c5a" d="M2 0h1m8 0h1M2 1h1m0 1h1M1 3h1m11 2h1M7 6h1M7 7h1M3 8h1m4 0h1M6 9h1m1 5h1"/><path stroke="#eb5031" d="M3 0h1m10 0h1M3 1h1M1 2h1m2 0h1m2 0h1M4 3h1m2 1h1M7 5h2M8 6h1M8 7h1M6 8h1m2 0h1M9 9h1"/><path stroke="#fff" d="M12 0h1m-1 1h2M2 2h1m8 0h4M2 3h1m8 0h4M2 4h2m8 0h2M1 5h4M1 6h4M2 7h2m3 1h1M7 9h1m-1 1h2m-3 1h4m-4 1h4m-3 1h2"/><path stroke="#f7d76b" d="M13 0h1m-3 1h1m2 0h1M3 3h1M1 4h1m2 0h1m6 0h1m2 0h1m-3 1h1M1 7h1m2 0h1M2 8h1m5 1h1m-3 1h1m2 0h1m-4 3h1m2 0h1m-3 1h1"/></svg>