<svg xmlns="http://www.w3.org/2000/svg" shape-rendering="crispEdges" viewBox="0 -0.5 16 16"><path stroke="#fff" d="M6 0h1m2 0h1M3 1h1m1 0h1m1 0h2m1 0h1m1 0h1M2 2h1m1 0h1m6 0h1m1 0h1M1 3h1m12 0h1M1 4h1m4 0h1m2 0h1m4 0h1M1 5h1m5 0h2m5 0h1M1 6h1m12 0h1M1 7h1m2 0h1m6 0h1m2 0h1M1 8h1m3 0h1m4 0h1m3 0h1M1 9h1m4 0h1m2 0h1m4 0h1M1 10h1m5 0h2m5 0h1M2 11h1m10 0h1M3 12h1m8 0h1m-9 1h1m6 0h1m-7 1h6"/><path stroke="#222542" d="M6 1h1m2 0h1M3 2h1m1 0h1m1 0h2m1 0h1m1 0h1M2 3h1m1 0h1m6 0h1m1 0h1M6 5h1m2 0h1M7 6h2M4 8h1m6 0h1M5 9h1m4 0h1m-5 1h1m2 0h1m-9 1h1m5 0h2m5 0h1M2 12h1m10 0h1M3 13h1m8 0h1m-9 1h1m6 0h1m-7 1h6"/></svg>