<svg xmlns="http://www.w3.org/2000/svg" shape-rendering="crispEdges" viewBox="0 -0.5 16 16"><path stroke="#f17934" d="M1 1h1m0 1h2m1 0h1M2 3h1m1 0h1m1 0h1m1 1h1M3 5h1m7 1h1M5 7h1m8 2h1m-9 1h1m7 2h1m-6 2h1m2 0h1"/><path stroke="#d8461a" d="M2 1h1m1 0h1"/><path stroke="#f7cf5f" d="M3 3h1m0 1h1m1 0h1M4 5h3M5 6h1m1 0h1m0 1h1m2 0h1M6 8h1m5 0h1M7 9h1m0 3h1"/><path stroke="#f3af33" d="M5 3h1M3 4h1m1 0h1m1 0h1m0 1h2M4 6h1m5 0h1m1 1h1M5 8h1m7 0h1M6 9h1m7 1h1m-8 1h1m6 0h1m-8 1h1m0 1h1m4 0h1m-4 1h2"/><path stroke="#fbef97" d="M7 5h1M6 6h1m1 0h2M6 7h2m1 0h2M7 8h1m1 0h3M8 9h2m2 0h2m-7 1h2m4 0h1m-6 1h1m4 0h1m-5 1h1m2 0h2m-5 1h4"/><path stroke="#fff" d="M8 8h1m1 1h2m-3 1h4m-4 1h4m-3 1h2"/></svg>