<svg xmlns="http://www.w3.org/2000/svg" shape-rendering="crispEdges" viewBox="0 -0.5 16 16"><path stroke="#fff" d="M1 1h1m5 0h3m4 0h1M2 2h1m3 0h1m3 0h1m2 0h1M6 3h1M6 4h1M6 5h1M6 6h2m1 0h1M6 7h1m1 0h1m1 0h1M6 8h1m1 0h1m1 0h1M6 9h1m1 0h1m1 0h1M1 10h1m4 0h1m1 0h1m1 0h1m3 0h1M1 11h1m3 0h1m2 0h1m1 0h1m3 0h1M2 12h1m10 0h1M2 13h2m8 0h2M1 14h1m2 0h1m6 0h1m2 0h1"/><path stroke="#222542" d="M1 2h1m5 0h3m4 0h1M2 3h1m7 0h1m2 0h1M7 7h1m1 0h1m-4 4h1m-6 1h1m3 0h1m2 0h1m1 0h1m3 0h1M2 14h2m8 0h2M1 15h1m2 0h1m6 0h1m2 0h1"/></svg>