<svg xmlns="http://www.w3.org/2000/svg" shape-rendering="crispEdges" viewBox="0 -0.5 16 16"><path stroke="#ffeff0" d="M4 2h1M4 3h2M4 4h3m5 0h1M5 5h1m5 0h2m-3 1h3m-2 1h1M9 9h1m-2 1h3m-2 1h1m2 0h1"/><path stroke="#ff757c" d="M3 4h1M3 5h2m8 1h1m-2 1h2"/><path stroke="#fd919c" d="M6 5h1M5 6h2M5 7h3m2 0h1M6 8h2m1 0h2M6 9h2m2 0h1m-8 1h1m7 0h1m-7 1h1m2 0h1m2 0h1m-6 1h1m1 0h1m3 0h1m-6 1h1"/><path stroke="#f14a53" d="M3 6h2M4 7h1M4 8h2M5 9h1m6 0h1m-7 1h2"/><path stroke="#db3224" d="M3 7h1m9 1h1M4 9h1m0 1h1m6 0h1m-7 1h2m-1 1h1m3 0h1m-4 1h1m1 0h1"/><path stroke="#e93e47" d="M11 8h2M8 9h1m2 0h1m-8 1h1m-2 1h2m5 0h1m-7 1h2m3 0h2m2 0h1M3 13h1m2 0h1m2 0h1m2 0h1"/></svg>