<svg xmlns="http://www.w3.org/2000/svg" shape-rendering="crispEdges" viewBox="0 -0.5 16 16"><path stroke="#f39317" d="M11 1h1M8 4h1m5 0h1m-4 3h1"/><path stroke="#ffeff0" d="M3 2h1M3 3h2M3 4h3M4 5h1m5 1h1m-1 1h1M8 9h1m-2 1h3m-2 1h1m2 0h1"/><path stroke="#f7df7b" d="M9 2h1m3 0h1m-3 1h1m-2 1h3m-2 1h1M9 6h1m3 0h1"/><path stroke="#f7c34f" d="M11 2h1m-2 1h1m1 0h1M9 4h1m3 0h1m-4 1h1m1 0h1m-2 1h1"/><path stroke="#ff757c" d="M2 4h1M2 5h2m8 1h1m-1 1h1"/><path stroke="#fd919c" d="M5 5h1M4 6h2M4 7h3m2 0h1M5 8h2m1 0h2M5 9h2m2 0h1m-8 1h1m7 0h1m-7 1h1m2 0h1m2 0h1m-6 1h1m1 0h1m3 0h1m-6 1h1"/><path stroke="#f14a53" d="M2 6h2M3 7h1M3 8h2M4 9h1m6 0h1m-7 1h2"/><path stroke="#db3224" d="M2 7h1m9 1h1M3 9h1m0 1h1m6 0h1m-7 1h2m-1 1h1m3 0h1m-4 1h1m1 0h1"/><path stroke="#e93e47" d="M10 8h2M7 9h1m2 0h1m-8 1h1m-2 1h2m5 0h1m-7 1h2m3 0h2m2 0h1M2 13h1m2 0h1m2 0h1m2 0h1"/></svg>