<svg xmlns="http://www.w3.org/2000/svg" shape-rendering="crispEdges" viewBox="0 -0.5 16 16"><path stroke="#945ca9" d="M2 1h1m0 1h1m1 0h1m2 2h2M4 5h1m3 0h1M3 6h1m5 0h1m2 0h1M2 7h1m1 0h1m2 0h1m2 0h2M1 8h1m4 0h2m6 0h1m-4 3h1m2 2h1M2 14h1"/><path stroke="#a669bd" d="M3 1h1m6 3h1M5 5h1m3 0h3M4 6h3m3 0h2M5 7h2m5 4h1m0 1h1"/><path stroke="#824b98" d="M1 2h1m6 4h1m0 1h1m2 0h1M5 8h1M4 9h1m6 0h1m-7 1h1m2 0h1m1 2h1m1 0h1m-2 1h1m1 0h1"/><path stroke="#76428a" d="M2 2h1m4 3h1M7 6h1M3 7h1m4 0h1M2 8h3m3 0h6M5 9h6m-5 1h2m3 2h1m0 1h1"/></svg>