<svg xmlns="http://www.w3.org/2000/svg" shape-rendering="crispEdges" viewBox="0 -0.5 16 16"><path stroke="rgba(249,212,112,0.7843137254901961)" d="M1 1h1m1 0h1m10 0h1M4 3h1m5 1h1M5 6h1m3 1h1M6 9h1m1 1h1m-8 4h1m1 0h1m7 0h1m2 0h1"/><path stroke="#f9d470" d="M2 1h1m9 0h2M2 2h2m7 0h3M2 3h2m7 0h3M2 4h3m7 0h2M2 5h1m1 0h1m5 0h1m1 0h2M2 6h1m1 0h1m5 0h1m1 0h2M2 7h1m1 0h2m6 0h2M2 8h1m2 0h1m3 0h1m2 0h2M2 9h1m2 0h1m3 0h1m2 0h2M2 10h1m2 0h2m5 0h2M2 11h1m3 0h1m1 0h1m3 0h2M2 12h1m3 0h3m3 0h2M2 13h1m4 0h1m4 0h2M2 14h1m4 0h1m4 0h2"/><path stroke="rgba(249,213,114,0.3411764705882353)" d="M11 1h1M4 2h1m5 1h1m0 1h1M3 5h1m1 0h1m5 0h1M9 6h1m0 1h1M4 8h1m1 0h1m3 0h1M8 9h1m0 1h1m-5 1h1m1 0h1m1 0h1m-4 2h1m1 0h1"/></svg>