<svg xmlns="http://www.w3.org/2000/svg" shape-rendering="crispEdges" viewBox="0 -0.5 16 16"><path stroke="rgba(255,255,255,0.2549019607843137)" d="M1 1h1m12 13h1"/><path stroke="rgba(255,255,255,0.7764705882352941)" d="M2 1h1M1 2h1m1 0h1M2 3h1m3 0h1m2 0h1M5 4h1M4 5h1m1 0h1M3 6h1m1 0h1m1 0h1m4 0h1M6 7h1m1 0h1M7 8h1m1 0h1M3 9h1m4 0h1m1 0h1m1 0h1m-4 1h1m1 0h1m-2 1h1m-5 1h1m2 0h1m3 0h1m-2 1h1m1 0h1m-2 1h1"/><path stroke="rgba(255,255,255,0.1568627450980392)" d="M5 1h1m4 0h1M1 5h1m12 0h1M1 10h1m12 0h1M5 14h1m4 0h1"/><path stroke="rgba(255,255,255,0.611764705882353)" d="M6 1h1m2 0h1M1 6h1m12 0h1M1 9h1m12 0h1m-9 5h1m2 0h1"/><path stroke="#fff" d="M7 1h2M2 2h1m3 0h4M3 3h3m4 0h2M3 4h2m6 0h2M3 5h1m1 0h1m6 0h1M2 6h1m3 0h1m6 0h1M1 7h2m4 0h1m5 0h2M1 8h2m5 0h1m4 0h2M2 9h1m6 0h1m3 0h1M3 10h1m6 0h1m1 0h1M3 11h2m6 0h2m-9 1h2m4 0h3m-7 1h4m3 0h1m-7 1h2"/><path stroke="rgba(255,255,255,0.3764705882352941)" d="M4 2h1m6 0h1m0 1h1M2 4h1m10 0h1M2 11h1m10 0h1M3 12h1m0 1h1m6 0h1"/><path stroke="rgba(255,255,255,0.8)" d="M5 2h1m4 0h1M2 5h1m10 0h1M2 10h1m10 0h1m-9 3h1m4 0h1"/><path stroke="rgba(255,255,255,0.4392156862745098)" d="M7 3h2M3 7h1m8 0h1M3 8h1m8 0h1m-6 4h2"/><path stroke="rgba(255,255,255,0.6274509803921569)" d="M10 4h1m0 1h1m-8 5h1m0 1h1"/></svg>