<svg xmlns="http://www.w3.org/2000/svg" shape-rendering="crispEdges" viewBox="0 -0.5 16 16"><path stroke="#fff" d="M4 2h3m2 0h3M3 3h1m2 0h1m2 0h1m2 0h1M2 4h1m3 0h1m2 0h1m3 0h1M1 5h1m4 0h1m2 0h1m4 0h1M1 6h1m2 0h1m1 0h1m2 0h1m1 0h1m2 0h1M4 7h1m2 0h2m2 0h1M3 8h1m8 0h1M2 9h1m10 0h1M1 10h1m4 0h1m2 0h1m4 0h1M2 11h1m2 0h1m4 0h1m2 0h1M3 12h3m4 0h3m-8 1h1m4 0h1m-6 1h6"/><path stroke="#222542" d="M4 3h2m4 0h2M3 4h1m8 0h1M2 5h1m10 0h1M1 7h1m4 0h1m2 0h1m4 0h1M4 8h1m2 0h2m2 0h1M3 9h1m8 0h1M2 10h1m10 0h1M1 11h1m4 0h1m2 0h1m4 0h1M2 12h1m10 0h1M3 13h2m6 0h2m-8 2h6"/></svg>