<svg xmlns="http://www.w3.org/2000/svg" shape-rendering="crispEdges" viewBox="0 -0.5 16 16"><path stroke="#ca9400" d="M1 2h1m0 1h1m0 1h3M1 7h1M1 8h6m3 1h1m-2 1h1m1 0h1m-9 1h4m-5 1h4m-5 1h3"/><path stroke="#e6ad13" d="M2 2h2M3 3h3m0 1h1m3 1h1M9 6h1m1 0h1M2 7h5m3 0h1M9 8h1m1 0h1"/><path stroke="#878787" d="M2 5h2M3 6h1M3 9h3m8 0h1M2 10h7m3 0h2"/><path stroke="#a7a7a7" d="M4 5h5m3 0h2M4 6h5m3 0h3M7 7h2m3 0h3M7 8h2m3 0h3M6 9h3m3 0h2"/><path stroke="#696969" d="M9 5h1m1 0h1m-2 1h1M9 7h1m1 0h1m-2 1h1M9 9h1m1 0h1"/><path stroke="#585858" d="M10 10h1"/></svg>