<svg xmlns="http://www.w3.org/2000/svg" shape-rendering="crispEdges" viewBox="0 -0.5 16 16"><path stroke="rgba(127,214,120,0.4470588235294118)" d="M0 0h3m0 1h2M0 2h1m4 0h1M1 3h1m4 0h8M0 4h1m13 0h1M1 5h1m13 0h1M0 6h1M0 9h1m0 1h1m13 0h1M0 11h1m13 0h1M1 12h1m4 0h8M0 13h1m4 0h1m-3 1h2m-5 1h3"/><path stroke="#ca9400" d="M0 1h1m0 1h1m0 1h3M0 7h1M0 8h6m5 1h1m-2 1h1m1 0h1m-2 1h1M2 12h4m-5 1h4m-5 1h3"/><path stroke="#e6ad13" d="M1 1h2M2 2h3m0 1h1m4 1h1m1 0h1m-2 1h1m-2 1h1m1 0h1M1 7h5m5 0h1m-2 1h1m1 0h1"/><path stroke="#878787" d="M1 4h2M2 5h1M1 6h2M1 9h4m10 0h1M2 10h8m4 0h1M1 11h9m3 0h1"/><path stroke="#a7a7a7" d="M3 4h7m3 0h1M3 5h7m3 0h2M3 6h7m3 0h3M6 7h4m3 0h3M6 8h4m3 0h3M5 9h5m3 0h2m-2 1h1"/><path stroke="#696969" d="M11 4h1m-2 1h1m1 0h1m-2 1h1m-2 1h1m1 0h1m-2 1h1m-2 1h1m1 0h1m-2 1h1m-2 1h1m1 0h1"/></svg>