<svg xmlns="http://www.w3.org/2000/svg" shape-rendering="crispEdges" viewBox="0 -0.5 16 16"><path stroke="#9ed0f2" d="M1 1h1m1 0h3m1 0h1M2 2h1m1 0h3M3 3h1m1 0h2"/><path stroke="#47a6e6" d="M2 1h1m3 0h1"/><path stroke="#cef2f8" d="M1 2h1m1 0h1m3 0h1M2 3h1m1 0h1M2 4h2M3 5h1M3 6h1"/><path stroke="#5e5e36" d="M7 3h4M8 4h2M5 5h1m1 0h2M4 6h1m2 0h2m4 0h1M6 7h4m2 0h3M3 8h1m2 0h7m1 0h1M3 9h1m2 0h9m-8 1h6m1 0h1M4 11h1m3 0h4m1 0h1m-9 1h1m6 0h1m-7 1h1m4 0h1m-4 1h2"/><path stroke="#fff" d="M4 4h1m1 0h1M4 5h1m1 0h1M6 6h1M3 7h1"/><path stroke="#464628" d="M7 4h1M5 6h1M4 7h2M4 8h2M4 9h2m-3 1h4m6 0h1m-9 1h3m4 0h1m-7 1h6m-5 1h4m-4 1h1m2 0h1"/><path stroke="#7e7e48" d="M10 4h2M9 5h4M9 6h4m-3 1h2m1 1h1"/></svg>