<svg xmlns="http://www.w3.org/2000/svg" shape-rendering="crispEdges" viewBox="0 -0.5 16 16"><path stroke="#6c3939" d="M2 1h7M1 2h2m5 0h1M1 3h1M1 4h1M1 5h1M1 6h1m0 1h1"/><path stroke="#e25757" d="M3 2h1m1 0h1m1 0h1M3 3h1m1 0h1m1 0h1M2 4h1m0 1h1m1 0h4M7 6h1"/><path stroke="#4f3131" d="M4 2h1m1 0h1M2 3h1m1 0h1m1 0h1m1 0h1M3 4h6M4 5h1m0 1h2"/><path stroke="#625137" d="M9 3h1M9 4h1M8 7h1M3 8h1m3 0h1M6 9h1"/><path stroke="#5e5e36" d="M10 3h1m2 3h1M9 7h1m2 0h3M8 8h5m1 0h1M3 9h1m3 0h8m-8 1h6m1 0h1M4 11h1m3 0h4m1 0h1m-9 1h1m6 0h1m-7 1h1m4 0h1m-4 1h2"/><path stroke="#7e7e48" d="M10 4h2m-2 1h3m-3 1h3m-3 1h2m1 1h1"/><path stroke="#cc3a3a" d="M2 5h1M2 6h3m3 0h1M3 7h5M4 8h3"/><path stroke="#786643" d="M9 5h1M9 6h1"/><path stroke="#53422e" d="M4 9h2"/><path stroke="#464628" d="M3 10h4m6 0h1m-9 1h3m4 0h1m-7 1h6m-5 1h4m-4 1h1m2 0h1"/></svg>