<svg xmlns="http://www.w3.org/2000/svg" shape-rendering="crispEdges" viewBox="0 -0.5 16 16"><path stroke="#c48a90" d="M5 0h1M4 1h1m2 0h2m3 1h1M2 3h1m11 1h1M0 6h1m0 1h1m13 2h1M1 11h1m11 1h1M4 13h1m7 0h1m-7 2h1m3 0h1"/><path stroke="#b0b3bd" d="M9 0h3m-1 2h1M0 4h1m1 0h1M0 5h1m14 0h1m-2 2h1m-1 1h1M0 10h1m12 1h1m-3 3h1m-8 1h2"/><path stroke="#a66d76" d="M5 1h1m0 1h1M3 3h1m7 1h1m1 0h1M4 5h1m5 0h1m1 0h1m1 0h1M3 6h1m1 0h1m4 0h1m1 1h1m0 1h1M2 9h1m11 1h1m-7 1h1m-6 1h1m4 0h1m1 2h1"/><path stroke="#7d8292" d="M9 1h2M7 2h3M5 3h7M3 4h1m2 0h5M1 5h1m1 0h1m1 0h5M1 6h2m1 0h1m2 0h2m2 0h3M2 7h5m2 0h3M3 8h4m2 0h4M3 9h3m1 0h2m1 0h5M1 10h1m1 0h10M2 11h6m1 0h4m-9 1h4m1 0h4m-7 1h2m3 0h1m-7 1h2"/><path stroke="#d07175" d="M3 2h1m9 1h1M1 8h1m13 2h1m-1 1h1M2 12h1m0 1h1m3 1h2"/><path stroke="#d55456" d="M4 2h1"/><path stroke="#975e68" d="M5 2h1"/><path stroke="#656a7a" d="M10 2h1M2 5h1m10 0h1M6 6h1m2 0h1M6 9h1m2 0h1m-8 1h1m10 0h1m-9 3h1m4 0h1"/><path stroke="#be6066" d="M4 3h1m7 0h1M4 4h2m6 0h1m-2 1h1m1 2h1M2 8h1m5 5h2"/><path stroke="#434762" d="M7 7h2M7 8h2"/></svg>