<svg xmlns="http://www.w3.org/2000/svg" shape-rendering="crispEdges" viewBox="0 -0.5 16 16"><path stroke="rgba(249,212,112,0.7137254901960784)" d="M6 1h1m2 0h1M4 2h1m6 0h1M3 3h1m1 0h1m4 0h1m1 0h1M2 5h1m1 0h1m6 0h1m1 0h1M4 6h1m6 0h1M2 7h1m1 0h1m6 0h1m1 0h1M5 9h1m4 0h1m1 0h1m-7 2h1m2 0h1m-4 1h1m2 0h1m-4 1h1m2 0h1"/><path stroke="#f9d470" d="M7 1h2M5 2h6M4 3h1m6 0h1M3 4h2m6 0h2M3 5h1m8 0h1M2 6h2m8 0h2M3 7h1m8 0h1M3 8h2m6 0h2M4 9h1m6 0h1m-8 1h2m4 0h2M2 11h1m2 0h1m4 0h1m2 0h1M2 12h4m4 0h4M3 13h3m4 0h3"/><path stroke="rgba(250,212,112,0.47058823529411764)" d="M6 3h1m2 0h1M2 4h1m2 0h1m4 0h1m2 0h1M2 8h1m10 0h1m-8 2h1m2 0h1m-6 1h1m6 0h1"/><path stroke="rgba(249,212,112,0.792156862745098)" d="M3 9h1m-2 4h1m10 0h1"/></svg>