<svg xmlns="http://www.w3.org/2000/svg" shape-rendering="crispEdges" viewBox="0 -0.5 16 16"><path stroke="#fff" d="M7 1h1m0 1h1M3 7h1m3 0h2M1 8h1m3 0h1m1 0h2m-1 5h1m-2 1h1"/><path stroke="#f1baff" d="M8 1h1M7 2h1M7 13h1m0 1h1"/><path stroke="rgba(248,213,255,0.5803921568627451)" d="M10 2h1M5 13h1"/><path stroke="rgba(242,174,255,0.5803921568627451)" d="M11 3h1m0 1h1M3 11h1m0 1h1"/><path stroke="rgba(243,173,255,0.17254901960784313)" d="M3 4h1M3 5h1M2 6h1m10 3h1m-2 1h1m-1 1h1"/><path stroke="rgba(242,174,255,0.40784313725490196)" d="M12 5h1m0 1h1M2 9h1m0 1h1"/><path stroke="rgba(243,175,255,0.2627450980392157)" d="M2 7h1m10 0h1M2 8h1m10 0h1"/></svg>