<svg xmlns="http://www.w3.org/2000/svg" shape-rendering="crispEdges" viewBox="0 -0.5 16 16"><path stroke="#db2d12" d="M7 1h1m1 1h1M6 3h1m1 1h1m-2 7h1m1 1h1m-4 1h1m1 1h1"/><path stroke="#f27127" d="M8 1h1M6 2h1m2 1h1M7 4h1m0 7h1m-3 1h1m2 1h1m-3 1h1"/><path stroke="#ffec78" d="M7 2h1m0 1h1m-2 9h1m0 1h1"/><path stroke="#fff" d="M8 2h1M7 3h1M3 7h1m3 0h2M1 8h1m3 0h1m1 0h2m-1 4h1m-2 1h1"/><path stroke="rgba(242,113,39,0.5803921568627451)" d="M11 3h1m0 1h1M3 11h1m0 1h1"/><path stroke="rgba(242,116,43,0.23137254901960785)" d="M3 4h1M3 5h1M2 6h1m10 3h1m-2 1h1m-1 1h1"/><path stroke="rgba(243,114,40,0.4470588235294118)" d="M12 5h1m0 1h1M2 9h1m0 1h1"/><path stroke="rgba(242,113,40,0.3176470588235294)" d="M2 7h1m10 0h1M2 8h1m10 0h1"/></svg>