<svg xmlns="http://www.w3.org/2000/svg" shape-rendering="crispEdges" viewBox="0 -0.5 16 16"><path stroke="rgba(29,94,165,0.7176470588235294)" d="M6 0h1m2 0h1M6 1h1m2 0h1M6 2h1m2 0h1M5 3h1m4 0h1M5 5h1m4 0h1M6 6h1m2 0h1M6 9h1m2 0h1m-5 1h1m4 0h1m-6 2h1m4 0h1m-5 1h1m2 0h1m-4 1h1m2 0h1m-4 1h1m2 0h1"/><path stroke="#fff" d="M7 0h2M7 1h1M7 2h1M7 3h2M6 4h4M7 5h2M3 7h1m3 0h2M1 8h1m3 0h1m1 0h2m-2 2h2m-3 1h4m-3 1h2m-2 1h1m0 1h1m-2 1h2"/><path stroke="#baf0ff" d="M8 1h1M8 2h1M8 13h1m-2 1h1"/><path stroke="#85c0ff" d="M6 3h1m2 0h1M6 5h1m2 0h1m-4 5h1m2 0h1m-4 2h1m2 0h1"/><path stroke="rgba(134,192,255,0.4980392156862745)" d="M11 3h1m0 1h1M3 11h1m0 1h1"/><path stroke="rgba(28,94,166,0.9215686274509803)" d="M4 4h1m6 0h1m-8 7h1m6 0h1"/><path stroke="#3281d5" d="M5 4h1m4 0h1M7 6h2M7 9h2m-4 2h1m4 0h1"/><path stroke="rgba(135,192,255,0.19215686274509805)" d="M3 5h1M2 6h1m10 3h1m-2 1h1"/><path stroke="rgba(134,194,255,0.3803921568627451)" d="M12 5h1m0 1h1M2 9h1m0 1h1"/><path stroke="rgba(136,193,255,0.2784313725490196)" d="M2 7h1m10 0h1M2 8h1m10 0h1"/></svg>