<svg xmlns="http://www.w3.org/2000/svg" shape-rendering="crispEdges" viewBox="0 -0.5 16 16"><path stroke="#d2d7e3" d="M7 0h1M7 1h1M5 2h2m1 0h2M7 3h1M7 4h1m0 7h1m-1 1h1m-3 1h2m1 0h2m-3 1h1m-1 1h1"/><path stroke="#b0b8ce" d="M6 1h1m1 0h1M6 3h1m1 0h1m-2 9h1m1 0h1m-3 2h1m1 0h1"/><path stroke="#636363" d="M7 2h1m0 11h1"/><path stroke="rgba(236,236,236,0.5803921568627451)" d="M11 3h1m-8 9h1"/><path stroke="rgba(203,203,203,0.25098039215686274)" d="M3 4h1M3 5h1M2 6h1m10 3h1m-2 1h1m-1 1h1"/><path stroke="rgba(203,203,203,0.5803921568627451)" d="M12 4h1M3 11h1"/><path stroke="rgba(204,204,204,0.4392156862745098)" d="M12 5h1m0 1h1M2 9h1m0 1h1"/><path stroke="rgba(205,205,205,0.36470588235294116)" d="M2 7h1m10 0h1M2 8h1m10 0h1"/><path stroke="#fff" d="M3 7h1m3 0h2M1 8h1m3 0h1m1 0h2"/></svg>