<svg xmlns="http://www.w3.org/2000/svg" shape-rendering="crispEdges" viewBox="0 -0.5 16 16"><path stroke="#e6ad13" d="M8 0h1M6 2h1m1 2h1m-2 7h1m1 2h1m-3 2h1"/><path stroke="#ca9400" d="M9 0h2M8 2h3M9 4h2m-6 7h2m-2 2h3m-3 2h2"/><path stroke="#a7a7a7" d="M5 1h1m1 0h3M4 2h2m1 0h1M6 12h3m1 0h1m-3 1h1m1 0h2"/><path stroke="#696969" d="M6 1h1m2 11h1"/><path stroke="#878787" d="M5 3h1m1 0h3M6 14h3m1 0h1"/><path stroke="#585858" d="M6 3h1m2 11h1"/><path stroke="rgba(242,113,39,0.5803921568627451)" d="M11 3h1m0 1h1M3 11h1m0 1h1"/><path stroke="rgba(242,116,43,0.23137254901960785)" d="M3 4h1M3 5h1M2 6h1m10 3h1m-2 1h1m-1 1h1"/><path stroke="rgba(243,114,40,0.4470588235294118)" d="M12 5h1m0 1h1M2 9h1m0 1h1"/><path stroke="rgba(242,113,40,0.3176470588235294)" d="M2 7h1m10 0h1M2 8h1m10 0h1"/><path stroke="#fff" d="M3 7h1m3 0h2M1 8h1m3 0h1m1 0h2"/></svg>