<svg xmlns="http://www.w3.org/2000/svg" shape-rendering="crispEdges" viewBox="0 -0.5 16 16"><path stroke="#657990" d="M8 1h1M7 2h1m1 0h1M5 4h2m2 0h2M5 5h1m1 0h1m1 0h3M7 6h1m1 0h1M4 8h1m0 1h1"/><path stroke="#79bc79" d="M8 2h1m0 1h1M4 5h1m3 1h1m2 0h1M7 7h1m2 0h1M6 8h1m-1 3h1m-2 1h1"/><path stroke="#505f72" d="M6 3h1m0 1h1M6 5h1m1 0h1M3 6h1m2 0h1m3 0h1m1 0h1M3 7h1m1 0h2m5 0h1M3 8h1m1 0h1m6 0h1M3 9h2m5 0h1m1 0h1M3 10h2m1 0h1m3 0h1m1 0h1M3 11h1m1 0h1m1 0h1m1 0h1m1 0h1m-5 1h2m3 0h1M3 13h1m2 0h1m2 0h1"/><path stroke="#4d9c4d" d="M7 3h1m0 1h1M5 6h1M4 7h1m4 0h1m0 1h1M6 9h1m4 0h1m-5 1h1m1 0h1m-2 1h1"/><path stroke="#cfe97b" d="M8 3h1M4 6h1m3 1h1m2 0h1M7 8h3m1 0h1M7 9h3m-2 1h1m-3 2h1"/><path stroke="#2d3640" d="M5 10h1m5 0h1m-8 1h1m5 0h1m-7 1h1m4 0h3m-8 1h1m7 0h1M3 14h1m2 0h1m3 0h1"/></svg>