<svg xmlns="http://www.w3.org/2000/svg" shape-rendering="crispEdges" viewBox="0 -0.5 16 16"><path stroke="#bf43bf" d="M7 0h2M6 1h1m2 0h1M6 2h1m2 0h1M8 3h1M1 4h2m10 0h2M0 5h1m2 0h1m8 0h1m2 0h1M0 6h1m14 0h1M1 7h2m4 0h2m4 0h2M7 8h2m-7 4h2m8 0h2M1 13h1m2 0h1m6 0h1m2 0h1M1 14h1m2 0h1m6 0h1m2 0h1M2 15h2m8 0h2"/><path stroke="#fff" d="M7 1h2M7 2h2M1 5h2m10 0h2M1 6h2m10 0h2M2 13h2m8 0h2M2 14h2m8 0h2"/><path stroke="#ffd0ff" d="M7 3h1M7 4h1M3 6h2m6 0h2m-8 5h1m4 0h1m-7 1h1m6 0h1"/><path stroke="#df7bdf" d="M8 5h1M8 6h1M5 7h2m2 0h2M7 9h2m-3 1h1m2 0h1"/><path stroke="#ae1eae" d="M7 6h1M6 8h1m2 0h1"/></svg>