<svg xmlns="http://www.w3.org/2000/svg" shape-rendering="crispEdges" viewBox="0 -0.5 16 16"><path stroke="#495060" d="M4 1h1M2 2h1m6 1h1m0 1h1M0 5h1m10 1h1M0 7h1M0 8h1m13 0h1M0 9h2m11 0h1M0 10h1m10 0h2M0 11h1m3 0h1m6 0h1M1 12h1m2 0h1m5 0h1m-8 1h1m0 1h1m1 0h2"/><path stroke="#70788c" d="M5 1h2M3 2h5M2 3h4m2 0h1m1 0h1M1 4h3m4 0h2m1 0h2M2 5h1m6 0h2m1 0h2M2 6h1m7 0h1m1 0h2M2 7h1m7 0h1M2 8h1m8 0h1M3 9h1m6 0h2M2 10h1m1 0h1m5 0h1m-9 1h1m2 0h2m2 0h2m-4 1h3"/><path stroke="#676f7d" d="M8 2h1M6 3h2M4 4h1M3 5h1m10 1h1m-3 1h2M1 10h1m1 1h1"/><path stroke="#9d7e66" d="M5 4h3M4 5h1m3 0h1M3 6h1m5 0h1M3 7h1m5 0h1M3 8h1m5 0h1M4 9h1m0 1h1m1 0h1m1 0h1m-2 1h1"/><path stroke="#545c6b" d="M1 5h1m9 0h1M0 6h2M1 7h1m9 0h1m2 0h1M1 8h1m8 0h1m1 0h2M2 9h1m9 0h1M3 10h1m-3 1h1m5 0h1m-6 1h2m1 0h2m-3 1h5m-4 1h1"/><path stroke="#dfe8c0" d="M5 5h2M4 6h4M4 7h2M4 8h3M6 9h1"/><path stroke="#c7d792" d="M7 5h1m0 1h1M7 7h1m0 1h1M5 9h1m2 0h1m-3 1h1m1 0h1"/><path stroke="#3f4c1d" d="M6 7h1m1 0h1"/><path stroke="#6d8233" d="M7 8h1"/><path stroke="#9fbb53" d="M7 9h1"/><path stroke="#8d6e53" d="M9 9h1"/></svg>