<svg xmlns="http://www.w3.org/2000/svg" shape-rendering="crispEdges" viewBox="0 -0.5 16 16"><path stroke="#87cafe" d="M7 0h2M6 1h1m2 0h1M3 2h2m1 0h1m2 0h1m2 0h2M2 3h1m2 0h1m1 0h2m2 0h1m2 0h1M2 4h1m2 0h1m5 0h1m2 0h1M3 5h2m7 0h2M1 6h2m4 0h3M0 7h1m2 0h1m2 0h1m3 0h1M0 8h1m2 0h1m2 0h1m3 0h2M1 9h3m3 0h3m2 0h1M2 10h2m5 0h1m2 0h1M1 11h1m2 0h1m4 0h3M1 12h1m2 0h3m1 0h1m2 0h1M2 13h3m2 0h2m2 0h1m-8 1h1m2 0h1m1 0h2m-6 1h2"/><path stroke="#fff" d="M7 1h2M7 2h2M3 3h2m7 0h2M3 4h2m7 0h2M1 7h2m4 0h3M1 8h2m4 0h3m0 1h2m-2 1h2M2 11h2m-2 1h2m5 0h2m-6 1h2m2 0h2m-6 1h2"/></svg>