<svg xmlns="http://www.w3.org/2000/svg" shape-rendering="crispEdges" viewBox="0 -0.5 16 16"><path stroke="rgba(249,212,112,0.7843137254901961)" d="M6 1h1m2 0h1M5 3h1m4 0h1M5 4h1m4 0h1M4 5h1m6 0h1M2 6h1m10 0h1M2 9h1m10 0h1M4 10h1m6 0h1m-7 1h1m4 0h1m-6 1h1m4 0h1m-5 2h1m2 0h1"/><path stroke="#f9d470" d="M7 1h2M7 2h2M6 3h4M4 4h1m2 0h2m2 0h1M3 5h1m3 0h2m3 0h1M3 6h1m3 0h2m3 0h1M2 7h2m3 0h2m3 0h2M2 8h2m3 0h2m3 0h2M3 9h1m3 0h2m3 0h1M3 10h1m3 0h2m3 0h1m-9 1h1m2 0h2m2 0h1m-6 1h4m-3 1h2m-2 1h2"/><path stroke="rgba(249,213,114,0.3411764705882353)" d="M4 3h1m6 0h1M3 4h1m8 0h1M2 5h1m10 0h1M2 10h1m10 0h1M3 11h1m8 0h1m-9 1h1m6 0h1"/><path stroke="rgba(251,215,114,0.2784313725490196)" d="M1 6h1m2 0h1m6 0h1m2 0h1M1 7h1m12 0h1M1 8h1m12 0h1M1 9h1m2 0h1m6 0h1m2 0h1"/></svg>