<svg xmlns="http://www.w3.org/2000/svg" shape-rendering="crispEdges" viewBox="0 -0.5 16 16"><path stroke="rgba(242,105,165,0.24705882352941178)" d="M5 1h1m4 0h1M1 5h1m12 0h1M1 10h1m12 0h1M5 14h1m4 0h1"/><path stroke="rgba(242,106,166,0.4980392156862745)" d="M6 1h1m2 0h1M4 2h1m6 0h1M3 3h1m8 0h1M2 4h1m10 0h1M1 6h1m12 0h1M1 9h1m12 0h1M2 11h1m10 0h1M3 12h1m8 0h1m-9 1h1m6 0h1m-6 1h1m2 0h1"/><path stroke="rgba(248,122,190,0.4980392156862745)" d="M7 1h2M1 7h1m12 0h1M1 8h1m12 0h1m-8 6h2"/><path stroke="rgba(242,105,165,0.7490196078431373)" d="M5 2h1m4 0h1M2 5h1m10 0h1M2 10h1m10 0h1m-9 3h1m4 0h1"/><path stroke="rgba(248,122,189,0.7490196078431373)" d="M6 2h1m2 0h1M4 3h1m6 0h1M3 4h1m8 0h1M2 6h1m10 0h1M2 9h1m10 0h1M3 11h1m8 0h1m-9 1h1m6 0h1m-6 1h1m2 0h1"/><path stroke="rgba(249,149,204,0.7490196078431373)" d="M7 2h2M5 3h1m4 0h1M3 5h1m8 0h1M2 7h1m10 0h1M2 8h1m10 0h1M3 10h1m8 0h1m-8 2h1m4 0h1m-4 1h2"/><path stroke="rgba(251,173,215,0.9215686274509803)" d="M6 3h4M3 6h1m8 0h1M3 7h1m8 0h1M3 8h1m8 0h1M3 9h1m8 0h1m-7 3h4"/><path stroke="rgba(249,149,204,0.9215686274509803)" d="M4 4h1m6 0h1m-8 7h1m6 0h1"/><path stroke="#fbadd7" d="M5 4h1m4 0h1M4 5h1m6 0h1m-8 5h1m6 0h1m-7 1h1m4 0h1"/><path stroke="#fde2f1" d="M6 4h4M5 5h1m4 0h1M4 6h1m6 0h1M4 7h1m6 0h1M4 8h1m6 0h1M4 9h1m6 0h1m-7 1h1m4 0h1m-5 1h4"/><path stroke="#fff" d="M6 5h4M5 6h6M5 7h6M5 8h6M5 9h6m-5 1h4"/></svg>