<svg xmlns="http://www.w3.org/2000/svg" shape-rendering="crispEdges" viewBox="0 -0.5 16 16"><path stroke="#f39317" d="M4 1h1M1 4h1m5 0h1M4 7h1"/><path stroke="#ec74d7" d="M10 1h1M9 2h2M8 3h3M8 4h3m1 1h3m-3 1h3m-3 1h3m-3 1h3m-3 1h3m-3 1h3"/><path stroke="#fff" d="M11 1h1m-1 1h2m-2 1h3m-3 1h4"/><path stroke="#f7df7b" d="M2 2h1m3 0h1M4 3h1M3 4h3M4 5h1M2 6h1m3 0h1"/><path stroke="#f7c34f" d="M4 2h1M3 3h1m1 0h1M2 4h1m3 0h1M3 5h1m1 0h1M4 6h1"/><path stroke="#d054bb" d="M7 5h3M7 6h3M7 7h3M7 8h3M7 9h3m-3 1h3m1 1h4m-4 1h3m-3 1h2m-2 1h1"/><path stroke="#f08edf" d="M10 5h2m-2 1h2m-2 1h2m-2 1h2m-2 1h2m-2 1h2"/><path stroke="#962983" d="M7 11h4m-3 1h3m-2 1h2m-1 1h1"/></svg>