<svg xmlns="http://www.w3.org/2000/svg" shape-rendering="crispEdges" viewBox="0 -0.5 16 16"><path stroke="#ec74d7" d="M3 1h1m3 0h1M6 2h2m3 0h1M6 3h2m3 0h1m0 1h2m-3 2h1M4 8h1m3 0h1m3 0h2m-2 1h3m-9 1h1m6 0h2M3 11h1m4 1h2m2 1h2M2 14h1"/><path stroke="#fff" d="M8 1h1m3 0h1M8 2h1m3 0h2m-2 1h3M2 5h1m8 0h1M4 7h1m3 0h1m5 1h1m-6 3h1"/><path stroke="#962983" d="M2 2h1m1 2h2M1 6h1m1 2h1m3 0h1m-6 3h1m3 0h1m-5 1h2m0 1h2m1 0h1m3 0h1m-7 1h1m1 0h1"/><path stroke="#d054bb" d="M3 2h1m1 1h1m0 1h1M1 5h1m1 2h1m3 0h1M5 9h1m5 1h1m-4 3h2m-2 1h1m3 0h1"/></svg>