<svg xmlns="http://www.w3.org/2000/svg" shape-rendering="crispEdges" viewBox="0 -0.5 16 16"><path stroke="rgba(234,52,93,0.24705882352941178)" d="M5 3h1m4 0h1M2 4h1m10 0h1M0 6h1m14 0h1M0 9h1m14 0h1M2 11h1m10 0h1m-9 1h1m4 0h1"/><path stroke="rgba(232,50,92,0.4980392156862745)" d="M6 3h4M3 4h1m8 0h1M1 5h1m12 0h1M0 7h1m14 0h1M0 8h1m14 0h1M1 10h1m12 0h1M3 11h1m8 0h1m-7 1h4"/><path stroke="rgba(232,49,92,0.7490196078431373)" d="M4 4h3m2 0h3M2 5h1m10 0h1M1 6h1m12 0h1M1 7h1m12 0h1M1 8h1m12 0h1M1 9h1m12 0h1M2 10h1m10 0h1M4 11h3m2 0h3"/><path stroke="rgba(242,105,165,0.7490196078431373)" d="M7 4h2m-2 7h2"/><path stroke="rgba(231,49,91,0.9215686274509803)" d="M3 5h1m8 0h1M2 6h1m10 0h1M2 9h1m10 0h1M3 10h1m8 0h1"/><path stroke="#f269a5" d="M4 5h2m4 0h2M3 6h1m8 0h1M3 9h1m8 0h1m-9 1h2m4 0h2"/><path stroke="#fbadd7" d="M6 5h4M4 6h2m4 0h2M3 7h1m8 0h1M3 8h1m8 0h1M4 9h2m4 0h2m-6 1h4"/><path stroke="#fff" d="M6 6h4M4 7h8M4 8h8M6 9h4"/><path stroke="rgba(243,105,166,0.9215686274509803)" d="M2 7h1m10 0h1M2 8h1m10 0h1"/></svg>