<svg xmlns="http://www.w3.org/2000/svg" shape-rendering="crispEdges" viewBox="0 -0.5 16 16"><path stroke="#fff" d="M2 1h2m2 0h1m2 0h1m2 0h2M1 2h1m2 0h1m6 0h1m2 0h1M1 3h1m2 0h1m6 0h1m2 0h1M2 4h2m3 0h1m4 0h2M6 5h1M1 6h1m4 0h1m7 0h1M6 7h1m2 0h1M6 8h1m2 0h1M1 9h1m4 0h1m2 0h1m4 0h1m-9 1h1m2 0h1m-8 1h2m3 0h2m3 0h2M1 12h1m2 0h1m6 0h1m2 0h1M1 13h1m2 0h1m6 0h1m2 0h1M2 14h2m2 0h1m2 0h1m2 0h2"/><path stroke="#222542" d="M2 2h2m2 0h1m2 0h1m2 0h2M1 4h1m2 0h1m6 0h1m2 0h1M2 5h2m3 0h1m4 0h2M1 7h1m12 0h1M1 10h1m12 0h1m-9 1h1m2 0h1m-8 1h2m3 0h2m3 0h2M1 14h1m2 0h1m6 0h1m2 0h1M2 15h2m2 0h1m2 0h1m2 0h2"/></svg>