<svg xmlns="http://www.w3.org/2000/svg" shape-rendering="crispEdges" viewBox="0 -0.5 16 16"><path stroke="#7b2b7f" d="M2 1h1m0 2h1m4 0h1M2 4h1m4 0h1M2 6h2M3 7h4m2 0h2M4 8h2M3 9h1m5 0h1m-8 1h2m7 0h1M2 11h1m2 0h1m1 0h1m-5 1h1m2 0h3m1 0h1m3 0h1M4 13h2m2 0h2m3 1h1"/><path stroke="#97479b" d="M9 2h2M6 3h1M3 4h2m3 0h1m3 0h1M2 5h4m1 0h3m1 0h2M4 6h8m-1 1h1M6 8h1m2 0h2M4 9h5m1 0h1m2 0h1M4 10h1m2 0h2m1 0h1m1 0h1m-9 1h1m1 0h1m1 0h2m1 0h1m-8 1h2m3 0h1m1 0h1m-2 1h1"/><path stroke="#6f1f73" d="M14 2h1M1 13h1"/><path stroke="#bf7bc7" d="M4 3h2m3 0h3M5 4h2m2 0h3M6 5h1m3 0h1M7 7h2m3 0h1M7 8h2m2 0h3m-3 1h2m-8 1h2m2 0h1m-7 1h1m6 0h1"/></svg>