<svg xmlns="http://www.w3.org/2000/svg" shape-rendering="crispEdges" viewBox="0 -0.5 16 16"><path stroke="rgba(186,193,154,0.2784313725490196)" d="M5 1h1m3 0h1M3 3h1m7 0h1M3 7h1m7 0h1M5 9h1m3 0h1m-8 1h1m-2 1h1m1 0h1"/><path stroke="rgba(186,192,151,0.43529411764705883)" d="M6 1h3M3 4h1m7 0h1M3 5h1m7 0h1M3 6h1m7 0h1M6 9h1m1 0h1"/><path stroke="rgba(188,191,153,0.3137254901960784)" d="M4 2h1m5 0h1M4 8h1"/><path stroke="rgba(187,191,151,0.5490196078431373)" d="M5 2h1m3 0h1M4 3h1m5 0h1M4 7h1m5 0h1M5 8h1m3 0h1"/><path stroke="rgba(200,205,167,0.6274509803921569)" d="M6 2h3M4 4h1m5 0h1M4 5h1m5 0h1M4 6h1m5 0h1M6 8h1m1 0h1"/><path stroke="rgba(221,225,193,0.6823529411764706)" d="M5 3h5M5 4h2m1 0h2M5 5h1m3 0h1M5 6h2m1 0h2M5 7h2m1 0h2m3 3h1m-2 1h1m1 0h1"/><path stroke="rgba(221,225,193,0.7686274509803922)" d="M7 4h1M6 5h1m1 0h1"/><path stroke="rgba(232,236,216,0.8470588235294118)" d="M7 5h1M7 6h1M7 7h1M7 8h1M7 9h1m-1 1h1m-6 1h1m10 0h1"/><path stroke="rgba(187,191,152,0.42745098039215684)" d="M10 8h1m1 2h1m1 0h1m-3 2h1m1 0h1"/><path stroke="rgba(177,179,160,0.8470588235294118)" d="M7 11h1m-1 1h1m5 0h1m-1 1h1m-1 1h1"/><path stroke="rgba(131,133,118,0.8470588235294118)" d="M2 12h1m4 1h1m-1 1h1"/></svg>