<svg xmlns="http://www.w3.org/2000/svg" shape-rendering="crispEdges" viewBox="0 -0.5 16 16"><path stroke="rgba(241,229,251,0.592156862745098)" d="M6 1h4M4 2h2m4 0h2M3 3h1m8 0h1M2 4h1m10 0h1M2 5h1m10 0h1M1 6h1m12 0h1M1 7h1m12 0h1M1 8h1m12 0h1M1 9h1m12 0h1M2 10h1m10 0h1M2 11h1m10 0h1M3 12h1m8 0h1m-9 1h2m4 0h2m-6 1h4"/><path stroke="rgba(207,177,234,0.592156862745098)" d="M6 2h4M4 3h8M3 4h2m5 0h3M3 5h1m8 0h1M2 6h1m10 0h1M2 9h1m9 2h1m-8 1h1m1 0h1m1 0h1m1 0h1m-6 1h4"/><path stroke="rgba(207,177,235,0.5686274509803921)" d="M5 4h5M4 5h1m2 0h1m2 0h2M3 6h1m8 0h1M2 7h1m10 0h1M2 8h1m10 0h1M3 9h1m9 0h1M3 10h1m1 0h1m3 0h1m1 0h2M3 11h1m1 0h1m1 0h1m1 0h1m1 0h1m-8 1h1m1 0h1m1 0h1m1 0h1"/><path stroke="#fffffe" d="M5 5h2m1 0h2M4 6h2m1 0h5M4 7h6M4 8h6M6 9h2m1 0h1"/><path stroke="#dbdbdb" d="M6 6h1M3 7h1M3 8h1m0 1h2m2 0h1m-3 1h2"/><path stroke="#efa367" d="M10 7h1m-1 2h2m-8 1h1m3 0h1"/><path stroke="#ffb373" d="M11 7h2m-2 1h1m0 1h1m-9 2h1m3 0h1"/><path stroke="#8b3f2b" d="M10 8h1m1 0h1"/><path stroke="#974b33" d="M10 10h1m-5 1h1m3 0h1"/></svg>