<svg xmlns="http://www.w3.org/2000/svg" shape-rendering="crispEdges" viewBox="0 -0.5 16 16"><path stroke="#fffffe" d="M8 2h2M4 3h2m2 0h3M3 4h3m1 0h7M2 5h13M2 6h10M2 7h10M3 8h1m2 0h6M5 9h3m2 0h1m-4 1h1"/><path stroke="#dbdbdb" d="M7 3h1M6 4h1M1 7h1M1 8h2m1 0h2M2 9h3m3 0h2m1 0h1m-9 1h4m1 0h5m-8 1h3"/><path stroke="#efa367" d="M12 6h1m-1 2h1m-1 1h2M2 10h1m-1 1h2m4 0h2"/><path stroke="#ffb373" d="M13 6h2m-2 1h1m-1 1h2m-1 1h1M2 12h2m4 0h2"/><path stroke="#8b3f2b" d="M12 7h1m1 0h1"/><path stroke="#974b33" d="M11 11h2m-8 1h2m4 0h2"/></svg>