<svg xmlns="http://www.w3.org/2000/svg" shape-rendering="crispEdges" viewBox="0 -0.5 16 16"><path stroke="#fff" d="M6 1h1m2 0h1M7 2h2M3 3h1m3 0h2m3 0h1M2 4h1m3 0h1m2 0h1m3 0h1M1 5h1m4 0h1m2 0h1m4 0h1M1 6h1m1 0h2m2 0h2m2 0h2m1 0h1M1 7h1m3 0h2m2 0h2m3 0h1M1 8h1m3 0h2m2 0h2m3 0h1M1 9h1m1 0h2m2 0h2m2 0h2m1 0h1M1 10h1m4 0h1m2 0h1m4 0h1M2 11h1m3 0h1m2 0h1m3 0h1M3 12h1m3 0h2m3 0h1m-6 1h2m-3 1h1m2 0h1"/><path stroke="#222542" d="M6 2h1m2 0h1M3 4h1m3 0h2m3 0h1M2 5h1m10 0h1M6 6h1m2 0h1M3 7h2m2 0h2m2 0h2M5 9h2m2 0h2m-8 1h2m2 0h2m2 0h2M1 11h1m12 0h1M2 12h1m3 0h1m2 0h1m3 0h1M3 13h1m8 0h1m-6 1h2m-3 1h1m2 0h1"/></svg>