<svg xmlns="http://www.w3.org/2000/svg" shape-rendering="crispEdges" viewBox="0 -0.5 16 16"><path stroke="#f7bb43" d="M10 3h1m3 1h1m-1 1h1m-1 5h1m-1 1h1m-5 1h1"/><path stroke="#b36357" d="M3 4h1m1 0h1M4 5h2m1 0h2M2 6h3m1 0h2m1 0h2M3 7h1m1 0h2m1 0h2m1 0h2M4 8h2m1 0h2m1 0h1M3 9h2m1 0h2"/><path stroke="#83443b" d="M4 4h1m1 1h1M1 6h1m3 0h1m2 0h1m2 0h1M2 7h1m4 0h1m2 0h1m2 0h1M2 8h1m6 0h1m1 0h1m1 0h1M1 9h2m2 0h1m3 0h2m-8 1h1m1 0h2m1 0h1m-5 1h2"/><path stroke="#542c26" d="M3 5h1m0 2h1M3 8h1m2 0h1m5 0h1M8 9h1m2 0h1m-8 1h1m2 0h1m-5 1h1"/><path stroke="#f7e787" d="M12 5h1m0 1h2m-1 1h1m-1 1h1m-2 1h2m-3 1h1"/></svg>