<svg xmlns="http://www.w3.org/2000/svg" shape-rendering="crispEdges" viewBox="0 -0.5 16 16"><path stroke="#fff" d="M1 1h1m1 1h1m0 2h2M4 5h2"/><path stroke="rgba(232,138,255,0.7058823529411765)" d="M7 5h6M6 6h1m6 0h1M5 7h1m8 0h1M5 8h1m8 0h1M5 9h1m8 0h1M5 10h1m8 0h1M5 11h1m8 0h1M5 12h1m8 0h1m-9 1h1m6 0h1m-7 1h6"/><path stroke="rgba(194,86,229,0.592156862745098)" d="M7 6h3M6 7h3M7 8h1m5 1h1m-1 1h1m-1 1h1m-2 1h1m-2 1h2"/><path stroke="rgba(162,64,185,0.592156862745098)" d="M10 6h3M9 7h1m2 0h2M6 8h1m1 0h1M7 9h2m3 0h1m-1 1h1m-1 1h1m-7 1h1m4 0h1m1 0h1m-7 1h4"/><path stroke="#537841" d="M10 7h2M9 8h1m1 0h1M9 9h2m-1 1h2"/><path stroke="#0f0f0f" d="M10 8h1"/><path stroke="#e4b062" d="M12 8h2"/><path stroke="#9e917d" d="M6 9h1m-1 1h1m1 0h1m-2 1h1"/><path stroke="#3d582f" d="M11 9h1"/><path stroke="#8b6848" d="M7 10h1m1 0h1m-4 1h1m2 0h1m1 0h1m-5 1h1m2 0h1"/><path stroke="#5c452f" d="M8 11h1m1 0h1m-3 1h2"/></svg>