<svg xmlns="http://www.w3.org/2000/svg" shape-rendering="crispEdges" viewBox="0 -0.5 16 16"><path stroke="#fff" d="M1 1h1m1 1h1m0 2h2M4 5h2"/><path stroke="rgba(232,138,255,0.7058823529411765)" d="M7 5h1m4 0h1M6 6h1m6 0h1M5 7h1m8 0h1M5 12h1m8 0h1m-9 1h1m6 0h1m-7 1h1m4 0h1"/><path stroke="rgba(235,156,255,0.8196078431372549)" d="M8 5h4M5 8h1m8 0h1M5 9h1m8 0h1M5 10h1m8 0h1M5 11h1m8 0h1m-7 3h4"/><path stroke="rgba(194,86,229,0.592156862745098)" d="M7 6h3m2 0h1M6 7h2m4 0h2M6 8h1m6 0h1M6 9h1m6 0h1m-8 1h1m6 0h1m-8 1h1m6 0h1m-8 1h2m4 0h1m-6 1h6"/><path stroke="rgba(162,64,185,0.592156862745098)" d="M10 6h2M8 7h4M7 8h2m2 0h2M7 9h1m4 0h1m-6 1h1m4 0h1m-6 1h2m2 0h2m-5 1h4m1 0h1"/><path stroke="rgba(155,60,177,0.4627450980392157)" d="M9 8h2M8 9h4m-4 1h4m-3 1h2"/></svg>