<svg xmlns="http://www.w3.org/2000/svg" shape-rendering="crispEdges" viewBox="0 -0.5 16 16"><path stroke="#fff" d="M1 1h1m1 1h1m0 2h2M4 5h2"/><path stroke="rgba(138,201,255,0.7058823529411765)" d="M7 5h6M6 6h1m6 0h1M5 7h1m8 0h1M5 8h1m8 0h1M5 9h1m8 0h1m-1 1h1M5 11h1m8 0h1M5 12h1m8 0h1m-9 1h1m6 0h1m-7 1h6"/><path stroke="rgba(86,133,229,0.592156862745098)" d="M7 6h5M6 7h2m1 0h2M6 8h1m1 0h2m2 0h2M7 9h3m3 0h1m-8 2h2m2 0h2m-6 1h7m-6 1h4m1 0h1"/><path stroke="rgba(64,104,185,0.592156862745098)" d="M12 6h1m-2 1h1m1 0h1M7 8h1m2 0h1m-5 2h1m1 0h1m2 0h1m0 1h1m0 1h1"/><path stroke="#87d6f2" d="M8 7h1m1 2h1m1 0h1m-8 1h1m1 0h1m1 1h1m3 0h1"/><path stroke="#fffffe" d="M12 7h1M6 9h1m4 0h1m-3 1h2m2 0h1m-6 1h1"/><path stroke="#3eb2d5" d="M11 8h1m0 2h1m-2 3h1"/></svg>