<svg xmlns="http://www.w3.org/2000/svg" shape-rendering="crispEdges" viewBox="0 -0.5 16 16"><path stroke="#8777ae" d="M6 1h3M7 2h1M7 3h1M7 6h1M7 7h1M7 8h1M7 9h1m-1 1h1"/><path stroke="#60547a" d="M5 2h1m3 0h1M5 3h1m3 0h1M4 5h1m5 0h1M3 6h1m1 0h1m3 0h1m1 0h1M3 7h1m1 0h1m3 0h1m1 0h1M5 8h1m3 0h1M5 9h1m3 0h1m-5 1h1m3 0h1m-5 1h1m3 0h1m-5 2h2m1 0h2m-4 1h3"/><path stroke="#78669d" d="M6 2h1m1 0h1M6 3h1m1 0h1M6 6h1m1 0h1M6 7h1m1 0h1M6 8h1m1 0h1M6 9h1m1 0h1m-3 1h1m1 0h1m-3 1h3m-2 2h1"/><path stroke="#8f7340" d="M5 4h1m2 0h2M7 5h2m-4 7h1m1 0h1m1 0h1"/><path stroke="#cfbf6f" d="M6 4h2M5 5h2m2 0h1m-4 7h1m1 0h1"/><path stroke="#534c64" d="M3 8h1m7 0h1M4 9h1m5 0h1m-6 5h1m3 0h1"/></svg>