<svg xmlns="http://www.w3.org/2000/svg" shape-rendering="crispEdges" viewBox="0 -0.5 16 16"><path stroke="#bf43bf" d="M7 0h2M6 1h1m2 0h1M6 2h1m2 0h1M8 3h1M1 6h2m5 0h1m4 0h2M0 7h1m2 0h1m2 0h1m1 0h1m6 0h1M0 8h1m6 0h1m1 0h1m2 0h1m2 0h1M1 9h2m4 0h1m5 0h2m-8 3h1m-2 1h1m2 0h1m-4 1h1m2 0h1m-3 1h2"/><path stroke="#fff" d="M7 1h2M7 2h2M1 7h2m10 0h2M1 8h2m10 0h2m-8 5h2m-2 1h2"/><path stroke="#ffd0ff" d="M7 3h1M7 4h1m3 3h2M3 8h2m3 3h1m-1 1h1"/><path stroke="#821282" d="M8 4h1M7 5h1M4 7h1m2 0h1m2 0h1M5 8h1m2 0h1m2 0h1m-4 2h1m-2 1h1"/><path stroke="#df7bdf" d="M8 5h1M7 6h1M5 7h1m3 0h1M6 8h1m3 0h1M8 9h1m-2 1h1"/></svg>