<svg xmlns="http://www.w3.org/2000/svg" shape-rendering="crispEdges" viewBox="0 -0.5 16 16"><path stroke="#43d201" d="M7 5h1M7 6h1m-1 4h1"/><path stroke="#02bd3b" d="M8 5h1M8 7h1"/><path stroke="#00afac" d="M9 5h1M9 6h1"/><path stroke="#007bde" d="M10 5h1m-1 1h1"/><path stroke="#fff" d="M12 5h1m0 1h1"/><path stroke="#1d0093" d="M13 5h1"/><path stroke="#fa4527" d="M3 6h1M3 9h1m-1 3h1"/><path stroke="#fdd20c" d="M5 6h1m-1 4h1m-1 3h1"/><path stroke="#0039b5" d="M11 6h1"/><path stroke="#090796" d="M12 6h1"/><path stroke="#c5ed00" d="M6 7h1"/><path stroke="#dd0303" d="M1 8h1"/><path stroke="#ff8f24" d="M4 8h1"/><path stroke="#ea1b13" d="M2 10h1"/></svg>