<svg xmlns="http://www.w3.org/2000/svg" shape-rendering="crispEdges" viewBox="0 -0.5 16 16"><path stroke="rgba(127,191,201,0.6901960784313725)" d="M3 0h1M2 1h1m1 0h1M3 2h1m3 5h1M6 8h1"/><path stroke="#fff" d="M3 1h1m2 1h4m3 0h1M5 3h6M4 4h3m2 0h3M4 5h2m4 0h2M9 6h3M8 7h3M7 8h3M1 9h1m5 0h2m-2 1h2m4 1h1m-7 1h2m-5 1h1m2 0h2"/><path stroke="rgba(139,127,201,0.6901960784313725)" d="M6 1h1M5 2h1"/><path stroke="rgba(127,166,201,0.6901960784313725)" d="M7 1h2"/><path stroke="rgba(127,201,181,0.6901960784313725)" d="M9 1h1m0 1h1"/><path stroke="rgba(201,127,159,0.6901960784313725)" d="M13 1h1m-2 1h1m1 0h1m-2 1h1M3 5h1m0 1h1m4 7h1m-2 1h1"/><path stroke="rgba(192,127,201,0.6901960784313725)" d="M4 3h1M3 4h1"/><path stroke="rgba(127,201,134,0.6901960784313725)" d="M11 3h1m0 1h1m0 6h1m-2 1h1m1 0h1m-2 1h1"/><path stroke="rgba(152,201,127,0.6901960784313725)" d="M7 4h2"/><path stroke="rgba(185,201,127,0.6901960784313725)" d="M6 5h1M5 6h1m-2 6h1m-2 1h1m1 0h1m-2 1h1"/><path stroke="rgba(127,201,156,0.6901960784313725)" d="M9 5h1M8 6h1"/><path stroke="rgba(170,201,127,0.6901960784313725)" d="M12 5h1m-1 1h1"/><path stroke="rgba(201,191,127,0.6901960784313725)" d="M11 7h1m-2 1h1"/><path stroke="rgba(166,127,201,0.6901960784313725)" d="M1 8h1M0 9h1m1 0h1m-2 1h1m5 1h1m-2 1h1"/><path stroke="rgba(127,140,201,0.6901960784313725)" d="M6 9h1m-1 1h1"/><path stroke="rgba(201,159,127,0.6901960784313725)" d="M9 9h1m-1 1h1"/><path stroke="rgba(201,127,127,0.6901960784313725)" d="M8 11h1m0 1h1"/><path stroke="rgba(201,127,197,0.6901960784313725)" d="M6 13h1m0 1h1"/></svg>