<svg xmlns="http://www.w3.org/2000/svg" shape-rendering="crispEdges" viewBox="0 -0.5 16 16"><path stroke="rgba(127,191,201,0.6901960784313725)" d="M2 0h1M1 1h1m1 0h1M2 2h1m3 4h1M5 7h1"/><path stroke="#fff" d="M2 1h1m2 1h3m5 0h1M4 3h1m3 0h1M4 4h1m3 0h1M8 5h1M7 6h1M6 7h1M6 8h1M1 9h1m4 1h1m6 0h1m-3 2h1m-8 1h1"/><path stroke="rgba(127,166,201,0.6901960784313725)" d="M5 1h2"/><path stroke="rgba(127,201,181,0.6901960784313725)" d="M7 1h1"/><path stroke="rgba(201,127,159,0.6901960784313725)" d="M13 1h1m-2 1h1m1 0h1m-2 1h1M3 4h1"/><path stroke="rgba(139,127,201,0.6901960784313725)" d="M4 2h1"/><path stroke="rgba(127,201,134,0.6901960784313725)" d="M8 2h1m0 1h1"/><path stroke="rgba(192,127,201,0.6901960784313725)" d="M3 3h1"/><path stroke="rgba(185,201,127,0.6901960784313725)" d="M5 3h1M5 4h1M4 5h1m-1 7h1m-2 1h1m1 0h1m-2 1h1"/><path stroke="rgba(152,201,127,0.6901960784313725)" d="M6 3h2M7 4h1"/><path stroke="rgba(170,201,127,0.6901960784313725)" d="M9 4h1"/><path stroke="rgba(127,201,156,0.6901960784313725)" d="M7 5h1"/><path stroke="rgba(201,191,127,0.6901960784313725)" d="M9 5h1M8 6h1"/><path stroke="rgba(200,158,128,0.9058823529411765)" d="M7 7h1"/><path stroke="#60bbf7" d="M9 7h4M8 8h1m4 0h1M7 9h1m6 0h1m-8 1h1m6 0h1m-8 1h1m6 0h1m-8 1h1m6 0h1m-7 1h1m4 0h1m-5 1h4"/><path stroke="rgba(166,127,201,0.6901960784313725)" d="M1 8h1M0 9h1m1 0h1m3 0h1m-6 1h1m3 0h1"/><path stroke="rgba(128,140,200,0.9058823529411765)" d="M5 8h1"/><path stroke="rgba(201,127,127,0.6901960784313725)" d="M7 8h1"/><path stroke="#251b35" d="M9 8h4M8 9h2m1 0h3m-6 1h5m-4 1h2m1 0h2m-6 1h2m3 0h1m-5 1h2m1 0h1"/><path stroke="#7f67a4" d="M10 9h1m-3 2h1m2 0h1m-2 1h1m1 0h1m-2 1h1"/><path stroke="rgba(201,127,197,0.6901960784313725)" d="M6 11h1"/></svg>