<svg xmlns="http://www.w3.org/2000/svg" shape-rendering="crispEdges" viewBox="0 -0.5 16 16"><path stroke="#efeded" d="M6 1h1m2 0h1M4 2h1m6 0h1M3 3h1m1 0h1m4 0h1m1 0h1M2 4h1m1 0h1m6 0h1m1 0h1m-2 1h1M3 6h1m10 0h1M3 7h1M3 8h1m10 0h1M2 9h1m6 0h1m-6 1h1m5 0h1m2 0h1M3 11h1m1 0h1m5 0h1m-8 1h1m2 0h1m4 0h1m-7 1h1m6 0h1m0 1h1"/><path stroke="#fff" d="M7 1h2M5 2h6M4 3h1m6 0h1M3 4h1m8 0h1M2 5h2m9 0h1M2 6h1m10 0h1M2 7h1m10 0h2M2 8h1m10 0h1M3 9h1m9 0h1M3 10h1m8 0h1m-9 1h1m5 0h1m1 0h1m-8 1h2m3 0h2m-5 1h1m2 0h3"/><path stroke="#d3d3d3" d="M6 3h1m2 0h1M5 4h1m4 0h1M4 5h1m6 0h1M1 6h1m10 0h1M1 7h1M1 8h1m10 1h1m1 0h1M2 10h1m6 0h1m-1 1h1m3 0h1m-9 2h1m1 1h1m4 0h2"/><path stroke="#a6a6a6" d="M7 3h2m3 4h1m-1 1h1M1 9h1m0 2h1m0 1h1m5 0h1m-6 1h1m4 0h1m-4 1h1m2 0h3"/><path stroke="rgba(103,103,103,0.4549019607843137)" d="M6 4h1m2 0h1M5 5h1m4 0h1M4 6h1m6 0h1M4 9h1m0 1h1m5 0h1m-6 1h1m6 1h1"/></svg>