<svg xmlns="http://www.w3.org/2000/svg" shape-rendering="crispEdges" viewBox="0 -0.5 16 16"><path stroke="rgba(246,149,24,0.24705882352941178)" d="M3 2h1M3 3h1M2 4h1M1 5h1m11 7h1m-1 1h1m-2 1h1"/><path stroke="rgba(248,208,96,0.6235294117647059)" d="M6 2h1M5 3h1M5 4h1M4 5h1M3 6h1M2 7h1M2 8h1m9 1h1m-1 1h1m-2 1h1m-1 1h1m-3 1h2"/><path stroke="#fff" d="M7 4h1M7 5h1M6 6h2M5 7h4M4 8h1m2 0h3M7 9h1m2 0h1m-4 1h1"/><path stroke="#c4b39d" d="M8 6h1"/><path stroke="#a68b73" d="M9 7h1m0 1h1"/><path stroke="#dfcfb9" d="M6 8h1m1 1h1m0 1h1m-1 1h1"/></svg>