<svg xmlns="http://www.w3.org/2000/svg" shape-rendering="crispEdges" viewBox="0 -0.5 16 16"><path stroke="#fff" d="M3 1h1m3 0h2m3 0h1M3 2h1m1 0h2m2 0h2m1 0h1M3 3h1m8 0h1M2 5h1m1 0h1m2 0h2m2 0h1m1 0h1M1 6h1m1 0h1m2 0h1m2 0h1m2 0h1m1 0h1M1 7h1m1 0h1m1 0h1m4 0h1m1 0h1m1 0h1M1 8h1m1 0h1m1 0h1m4 0h1m1 0h1m1 0h1M1 9h1m1 0h1m2 0h1m2 0h1m2 0h1m1 0h1M2 10h1m1 0h1m2 0h2m2 0h1m1 0h1M3 12h1m8 0h1M3 13h1m1 0h2m2 0h2m1 0h1M3 14h1m3 0h2m3 0h1"/><path stroke="#222542" d="M7 2h2M5 3h2m2 0h2M3 4h1m8 0h1M2 6h1m1 0h1m2 0h2m2 0h1m1 0h1M6 7h1m2 0h1M5 9h1m4 0h1M1 10h1m1 0h1m2 0h1m2 0h1m2 0h1m1 0h1M2 11h1m1 0h1m2 0h2m2 0h1m1 0h1m-9 3h2m2 0h2m-8 1h1m3 0h2m3 0h1"/></svg>