<svg xmlns="http://www.w3.org/2000/svg" shape-rendering="crispEdges" viewBox="0 -0.5 16 16"><path stroke="#fff" d="M6 1h4M4 2h2m4 0h2M3 3h1m8 0h1M2 4h1m3 0h1m6 0h1M2 5h1m3 0h1m6 0h1M1 6h1m4 0h1m7 0h1M1 7h1m4 0h1m2 0h1m4 0h1M1 8h1m5 0h3m4 0h1M1 9h1m7 0h1m4 0h1M2 10h1m3 0h1m2 0h1m3 0h1M2 11h1m4 0h2m4 0h1M3 12h1m8 0h1m-9 1h2m4 0h2m-6 1h4"/><path stroke="#222542" d="M6 2h4M4 3h2m4 0h2M3 4h1m8 0h1M2 6h1m10 0h1M6 8h1m0 1h2m-8 1h1m12 0h1m-9 1h1m2 0h1m-8 1h1m4 0h2m4 0h1M3 13h1m8 0h1m-9 1h2m4 0h2m-6 1h4"/></svg>