<svg xmlns="http://www.w3.org/2000/svg" shape-rendering="crispEdges" viewBox="0 -0.5 16 16"><path stroke="rgba(211,249,180,0.592156862745098)" d="M6 1h4M4 2h2m4 0h2M3 3h1m8 0h1M2 4h1m10 0h1M2 5h1m10 0h1M1 6h1m12 0h1M1 7h1m12 0h1M1 8h1m12 0h1M1 9h1m12 0h1M2 10h1m10 0h1M2 11h1m10 0h1M3 12h1m8 0h1m-9 1h2m4 0h2m-6 1h4"/><path stroke="rgba(151,189,47,0.592156862745098)" d="M6 2h4M4 3h2m4 0h2M3 4h3m4 0h3M3 5h3m4 0h3M2 6h1m10 0h1M2 7h1m10 0h1M2 8h1m10 0h1M2 9h1m10 0h1M3 10h3m4 0h3M3 11h3m4 0h3m-9 1h2m4 0h2m-6 1h4"/><path stroke="#b3df4b" d="M6 3h4M6 4h1m2 0h1M3 6h2m6 0h2M3 7h1m8 0h1M3 8h1m8 0h1M3 9h2m6 0h2m-7 2h1m2 0h1m-4 1h4"/><path stroke="#fff" d="M7 4h2M7 5h2M7 6h2M4 7h8M4 8h8M7 9h2m-2 1h2m-2 1h2"/><path stroke="#dbff7b" d="M6 5h1m2 0h1M5 6h2m2 0h2M5 9h2m2 0h2m-5 1h1m2 0h1"/></svg>