<svg xmlns="http://www.w3.org/2000/svg" shape-rendering="crispEdges" viewBox="0 -0.5 16 16"><path stroke="rgba(255,238,227,0.1843137254901961)" d="M5 1h1m4 0h1M3 2h1m8 0h1M2 3h1m10 0h1M1 5h1m12 0h1M1 10h1m12 0h1M2 12h1m10 0h1M3 13h1m8 0h1m-8 1h1m4 0h1"/><path stroke="rgba(255,236,226,0.8549019607843137)" d="M6 1h4M4 2h1m6 0h1M3 3h1m8 0h1M2 4h1m10 0h1M1 6h1m12 0h1M1 7h1m12 0h1M1 8h1m12 0h1M1 9h1m12 0h1M2 11h1m10 0h1M3 12h1m8 0h1m-9 1h1m6 0h1m-6 1h4"/><path stroke="rgba(255,237,226,0.5176470588235295)" d="M5 2h1m4 0h1M2 5h1m10 0h1M2 10h1m10 0h1m-9 3h1m4 0h1"/></svg>