<svg xmlns="http://www.w3.org/2000/svg" shape-rendering="crispEdges" viewBox="0 -0.5 16 16"><path stroke="rgba(128,79,131,0.615686274509804)" d="M5 1h1m4 0h1M5 2h2m2 0h2M6 3h2m1 0h1M7 7h1"/><path stroke="rgba(141,90,144,0.7725490196078432)" d="M4 3h1m6 0h1M6 4h2m1 0h1M8 5h1"/><path stroke="#a860ad" d="M4 4h1m6 0h1M3 5h1m2 0h1m2 0h1m2 0h1M5 6h1m2 0h1m1 0h1M5 7h1m4 0h1M7 8h1m0 1h1"/><path stroke="#cb79d0" d="M3 6h1m8 0h1M2 7h1m10 0h1M5 8h1m4 0h1M5 9h1m4 0h1m-3 1h1m-2 1h1"/><path stroke="#ebb5ef" d="M2 8h1m10 0h1M1 9h1m11 0h1M2 10h1m1 0h1m6 0h1m2 0h1M4 11h1m6 0h1m-9 1h1m3 0h1m4 0h1m-9 1h1m3 0h1m2 0h1m-5 1h1"/><path stroke="#fff" d="M2 9h1m11 0h1M1 10h1m11 0h1M4 12h1m6 0h1m-9 1h1m3 0h1m4 0h1m-5 1h1"/></svg>