<svg xmlns="http://www.w3.org/2000/svg" shape-rendering="crispEdges" viewBox="0 -0.5 16 16"><path stroke="#ebb5ef" d="M7 1h1m0 1h1M3 3h1m4 0h1m2 0h1M4 4h1m7 0h1M1 7h1m1 0h1m9 0h1M2 8h1m9 0h1m1 0h1M3 11h1m8 0h1m-9 1h1m2 0h1m3 0h1m-4 1h1m-2 1h1"/><path stroke="#fff" d="M8 1h1M7 2h1M4 3h1m7 0h1M3 4h1m7 0h1M2 7h1m11 0h1M1 8h1m11 0h1M4 11h1m6 0h1m-9 1h1m8 0h1m-6 1h1m0 1h1"/><path stroke="#cb79d0" d="M8 4h1M5 5h1m1 0h1m2 0h1M4 7h1m5 0h1M5 8h1m5 0h1m-7 2h1m2 0h1m1 0h1m-4 1h1"/><path stroke="rgba(168,96,173,0.8470588235294118)" d="M6 6h2m1 0h1M9 7h1M6 8h1M6 9h1m1 0h2"/><path stroke="rgba(127,78,130,0.7607843137254902)" d="M7 7h2M7 8h2"/></svg>