<svg xmlns="http://www.w3.org/2000/svg" shape-rendering="crispEdges" viewBox="0 -0.5 16 16"><path stroke="#ed4015" d="M6 3h2M3 4h1m1 1h1M2 7h1m1 1h1m-3 3h1m3 1h2"/><path stroke="#f58b44" d="M7 4h2M6 5h1m2 0h1M7 6h1m2 0h1M1 7h1m3 0h1m3 0h1M3 8h1m2 0h1m1 0h1M7 9h1m2 0h1m-6 1h1m3 0h1m-3 1h1"/><path stroke="#f7cf5f" d="M9 4h1M7 5h1m0 1h1M6 7h1m0 1h1m0 1h1m-3 1h1m1 1h1"/><path stroke="#f7e787" d="M10 5h1M9 6h1m1 0h1M8 7h1m1 0h1m1 0h1M9 8h1m1 0h1M9 9h1m1 0h1m-5 1h1m2 0h1m-2 1h1"/><path stroke="#fff" d="M11 5h1m0 1h2m-3 1h1m1 0h2m-5 1h1m1 0h3m-3 1h2m-3 1h1"/></svg>