<svg xmlns="http://www.w3.org/2000/svg" shape-rendering="crispEdges" viewBox="0 -0.5 16 16"><path stroke="#f39317" d="M4 1h1M1 4h1m5 0h1M4 7h1"/><path stroke="#f7df7b" d="M2 2h1m3 0h1M4 3h1M3 4h3M4 5h1M2 6h1m3 0h1"/><path stroke="#f7c34f" d="M4 2h1M3 3h1m1 0h1M2 4h1m3 0h1M3 5h1m1 0h1M4 6h1"/><path stroke="#a30f4f" d="M6 7h1M5 8h1M4 9h2m-2 1h2m-2 1h2m-2 1h3m4 0h1m-7 1h6m-5 1h4"/><path stroke="#da1c74" d="M7 7h3M6 8h3M6 9h3m2 0h1m-6 1h6m-6 1h6m-5 1h4"/><path stroke="#880c42" d="M2 8h1m10 0h1M1 9h1m12 0h1M1 10h1m12 0h1M1 11h1m12 0h1M1 12h1m12 0h1M2 13h1m10 0h1"/><path stroke="#e3287e" d="M9 8h2M9 9h2"/></svg>