<svg xmlns="http://www.w3.org/2000/svg" shape-rendering="crispEdges" viewBox="0 -0.5 16 16"><path stroke="#804002" d="M1 3h1m3 0h1m4 0h1m3 0h1M2 4h1m1 0h1m1 0h1m2 0h1m1 0h1m1 0h1M3 5h1m3 0h2m3 0h1M3 7h1m7 0h1M2 8h1m1 0h1m2 0h2M3 9h1m2 0h1m2 0h1m-4 1h1m2 0h1m2 0h1M3 11h1m3 0h2m2 0h1m1 0h1m-2 1h1M1 13h1m4 0h1m7 0h1M2 14h1m10 0h1"/><path stroke="#ad5200" d="M1 4h1m3 0h1m4 0h1m3 0h1M1 5h2m1 0h3m2 0h3m1 0h2M1 6h14M1 7h2m1 0h7m1 0h3M1 8h1m1 0h1m1 0h2m2 0h6M1 9h2m1 0h2m1 0h2m1 0h5M1 10h5m1 0h2m1 0h2m1 0h2M1 11h2m1 0h3m2 0h2m1 0h1m1 0h1M1 12h11m1 0h2M2 13h4m1 0h7M3 14h10"/></svg>