<svg xmlns="http://www.w3.org/2000/svg" shape-rendering="crispEdges" viewBox="0 -0.5 16 16"><path stroke="#617d3c" d="M1 3h1m3 0h1m4 0h1m3 0h1M2 4h1m1 0h1m1 0h1m2 0h1m1 0h1m1 0h1M3 5h1m3 0h2m3 0h1"/><path stroke="#272707" d="M1 4h1m3 0h1m4 0h1M1 5h2m6 0h2m2 0h1M1 6h2m7 0h1m1 0h3M1 7h2m1 0h2m2 0h2m2 0h1m1 0h1M1 8h2m1 0h2m1 0h3m1 0h4M1 9h3m7 0h4M1 10h1m1 0h1m1 0h1m1 0h1m3 0h1m1 0h2M1 11h1m1 0h2m1 0h1m1 0h1m1 0h2m1 0h2M3 12h2m4 0h3m2 0h1M2 13h2m4 0h7M3 14h1m2 0h5m1 0h2"/><path stroke="#2f2f0a" d="M14 4h1M4 5h3m4 0h1m2 0h1M3 6h7m1 0h1M3 7h1m2 0h2m2 0h2m1 0h1M3 8h1m2 0h1m3 0h1M4 9h7m-9 1h1m1 0h1m1 0h1m1 0h3m1 0h1M2 11h1m2 0h1m1 0h1m1 0h1m2 0h1M1 12h2m2 0h4m3 0h2M1 13h1m2 0h4m-6 1h1m1 0h2m5 0h1"/></svg>