<svg xmlns="http://www.w3.org/2000/svg" shape-rendering="crispEdges" viewBox="0 -0.5 16 16"><path stroke="#56563c" d="M1 3h1m3 0h1m4 0h1m3 0h1M2 4h1m1 0h1m1 0h1m2 0h1m1 0h1m1 0h1M3 5h1m3 0h2m3 0h1M5 7h1M4 8h1m1 0h1m2 0h2M5 9h1m2 0h1m2 0h1m-4 1h1m2 0h1m-3 1h2m-5 1h1m-6 1h1m12 0h1M2 14h1m10 0h1"/><path stroke="#5e5e46" d="M1 4h1m3 0h1m4 0h1m3 0h1M1 5h2m1 0h3m2 0h3m1 0h2M1 6h14M1 7h4m1 0h9M1 8h3m1 0h1m1 0h2m2 0h4M1 9h4m1 0h2m1 0h2m1 0h3M1 10h7m1 0h2m1 0h3M1 11h8m2 0h4M1 12h5m1 0h8M2 13h12M3 14h10"/></svg>