<svg xmlns="http://www.w3.org/2000/svg" shape-rendering="crispEdges" viewBox="0 -0.5 16 16"><path stroke="#5e824b" d="M2 1h1m4 0h1m2 1h1m1 1h1M3 4h1m3 1h1M1 6h1m3 0h1m4 0h1m3 0h1M2 7h1m1 0h1m1 0h1m2 0h1m1 0h1m1 0h1M3 8h1m3 0h2m3 0h1M2 10h1m3 0h1m2 0h1m-5 1h1m1 0h1m3 0h1m1 0h1M3 12h1m2 0h1m3 0h1m1 0h1M1 13h1m9 0h1m2 0h1M2 14h1m10 0h1"/><path stroke="#72a256" d="M4 2h1m3 2h1m4 0h1M1 7h1m3 0h1m4 0h1m3 0h1M1 8h2m1 0h3m2 0h3m1 0h2M1 9h14M1 10h1m1 0h3m1 0h2m1 0h5M1 11h4m1 0h1m1 0h3m1 0h1m1 0h1M1 12h2m1 0h2m1 0h3m1 0h1m1 0h2M2 13h9m1 0h2M3 14h10"/></svg>