<svg xmlns="http://www.w3.org/2000/svg" shape-rendering="crispEdges" viewBox="0 -0.5 16 16"><path stroke="#544f51" d="M1 3h1m0 1h1"/><path stroke="#5e6645" d="M5 3h1m0 1h1m0 1h1"/><path stroke="#6f4138" d="M10 3h1m0 1h1"/><path stroke="#654740" d="M14 3h1m-2 1h1m-2 1h1"/><path stroke="#66869d" d="M1 4h1M1 5h2M1 6h2M1 7h2"/><path stroke="#515152" d="M4 4h1"/><path stroke="#8ec187" d="M5 4h1M5 5h2M5 6h2"/><path stroke="#6f5935" d="M9 4h1M8 5h1"/><path stroke="#c37262" d="M10 4h1m-1 1h2m-2 1h2"/><path stroke="#ac8a76" d="M14 4h1m-2 1h2m-3 1h3m-3 1h3"/><path stroke="#545350" d="M3 5h1"/><path stroke="#93928d" d="M4 5h1M3 6h2"/><path stroke="#c39d5e" d="M9 5h1M8 6h2"/><path stroke="#79c277" d="M7 6h1"/><path stroke="#b7bbb6" d="M3 7h1"/><path stroke="#91968f" d="M4 7h1"/><path stroke="#73c388" d="M5 7h3M7 9h1"/><path stroke="#94b079" d="M8 7h2M9 8h1M8 9h1"/><path stroke="#889f5e" d="M10 7h1m-1 1h2m-2 1h2"/><path stroke="#b2c196" d="M11 7h1"/><path stroke="#738195" d="M1 8h1M1 9h2"/><path stroke="#a4adba" d="M2 8h1"/><path stroke="#879b97" d="M3 8h1m0 1h1"/><path stroke="#b1bebb" d="M4 8h1M3 9h1"/><path stroke="#68bf88" d="M5 8h2M5 9h1"/><path stroke="#9dd5b2" d="M7 8h1M6 9h1"/><path stroke="#99d7b9" d="M8 8h1m0 1h1"/><path stroke="#a8b077" d="M12 8h3m-3 1h3m-1 1h1"/><path stroke="#977b83" d="M1 10h2m-2 1h2"/><path stroke="#7b989e" d="M3 10h2m-1 1h1"/><path stroke="#85ab86" d="M5 10h1m-1 1h2"/><path stroke="#b0c8b0" d="M6 10h1"/><path stroke="#8ebf8e" d="M7 10h1"/><path stroke="#769695" d="M8 10h1m0 1h1"/><path stroke="#a6bbba" d="M9 10h1m-2 1h1"/><path stroke="#848a93" d="M10 10h2m-2 1h1"/><path stroke="#c3cfa9" d="M12 10h1m0 1h1"/><path stroke="#a3b57b" d="M13 10h1m-2 1h1"/><path stroke="#a9bcc0" d="M3 11h1"/><path stroke="#b5d5b5" d="M7 11h1"/><path stroke="#afb3b9" d="M11 11h1"/><path stroke="#9fa381" d="M14 11h1m-2 1h2m-3 1h2"/><path stroke="#9b917a" d="M1 12h2m-1 1h1"/><path stroke="#6a88a3" d="M3 12h2m-2 1h2m-2 1h2"/><path stroke="#89a096" d="M5 12h3m-3 1h1m1 0h1m-3 1h3"/><path stroke="#8e6593" d="M8 12h2m-2 1h2m-2 1h2"/><path stroke="#9b9985" d="M10 12h2m-2 1h2m-2 1h2"/><path stroke="#c1c3ad" d="M12 12h1"/><path stroke="#585245" d="M1 13h1m0 1h1"/><path stroke="#bdbfb1" d="M6 13h1"/><path stroke="#505e4c" d="M14 13h1m-2 1h1"/><path stroke="#8da686" d="M12 14h1"/></svg>