<svg xmlns="http://www.w3.org/2000/svg" shape-rendering="crispEdges" viewBox="0 -0.5 16 16"><path stroke="rgba(219,231,251,0.592156862745098)" d="M6 1h4M4 2h2m4 0h2M3 3h1m8 0h1M2 4h1m10 0h1M2 5h1m10 0h1M1 6h1m12 0h1M1 7h1m12 0h1M1 8h1m12 0h1M1 9h1m12 0h1M2 10h1m10 0h1M2 11h1m10 0h1M3 12h1m8 0h1m-9 1h2m4 0h2m-6 1h4"/><path stroke="rgba(151,184,239,0.592156862745098)" d="M6 2h1m2 0h1M4 3h1m6 0h1M3 4h1m8 0h1M2 6h1m10 0h1M2 9h1m10 0h1M3 11h1m8 0h1m-9 1h1m6 0h1m-6 1h1m2 0h1"/><path stroke="rgba(108,151,236,0.592156862745098)" d="M7 2h2M5 3h6M4 4h2m4 0h2M3 5h2m6 0h2M3 6h1m8 0h1M2 7h2m8 0h2M2 8h2m8 0h2M3 9h1m8 0h1M3 10h2m6 0h2m-9 1h2m4 0h2m-7 1h6m-4 1h2"/><path stroke="rgba(219,231,251,0.8431372549019608)" d="M6 4h4M5 5h1m4 0h1M4 6h1m6 0h1M4 7h1m6 0h1M4 8h1m6 0h1M4 9h1m6 0h1m-7 1h1m4 0h1m-5 1h4"/><path stroke="rgba(171,199,243,0.8431372549019608)" d="M6 5h4M5 6h1m4 0h1M5 7h1m4 0h1M5 8h1m4 0h1M5 9h1m4 0h1m-5 1h4"/><path stroke="rgba(151,183,239,0.8431372549019608)" d="M6 6h1m2 0h1M6 9h1m2 0h1"/><path stroke="rgba(107,151,236,0.8431372549019608)" d="M7 6h2M6 7h4M6 8h4M7 9h2"/></svg>