<svg xmlns="http://www.w3.org/2000/svg" shape-rendering="crispEdges" viewBox="0 -0.5 16 16"><path stroke="#2b5397" d="M9 1h1m3 0h1M8 2h1m5 0h1M8 6h1m5 0h1M9 7h1m3 0h1"/><path stroke="#3b6bcb" d="M10 1h3M9 2h1m3 0h1M8 3h1m5 0h1M8 4h1m5 0h1M8 5h1m5 0h1M9 6h1m3 0h1m-4 1h3"/><path stroke="#c3d7f7" d="M10 2h1m1 0h1M9 3h1m3 0h1M9 5h1m3 0h1m-4 1h1m1 0h1"/><path stroke="#a7a7a7" d="M11 2h1M9 4h1m3 0h1m-3 2h1"/><path stroke="#ebebeb" d="M10 3h2m-2 1h1m1 0h1m-3 1h3"/><path stroke="#1b3767" d="M12 3h1m-2 1h1"/><path stroke="#9c4429" d="M2 6h2m1 0h2M2 7h2m1 0h2m1 0h1M8 8h2M1 9h5m2 0h2m-9 1h5m2 0h2m-9 1h2m3 0h1m1 0h2m-9 1h2m1 0h4m-6 1h8m-7 1h6"/><path stroke="#4a2013" d="M4 7h1m2 0h1M2 8h6M6 9h2m-2 1h2m-5 1h3m1 0h1m-5 1h1m4 0h2"/></svg>