<svg xmlns="http://www.w3.org/2000/svg" shape-rendering="crispEdges" viewBox="0 -0.5 16 16"><path stroke="rgba(249,212,112,0.7843137254901961)" d="M3 1h1m0 1h1m1 1h1m6 0h1M5 4h1m1 0h1m0 4h1m-2 2h1m-3 1h2m6 0h1m-1 1h1M4 13h1m1 0h7M3 14h1"/><path stroke="#f9d470" d="M4 1h10M5 2h1m7 0h1M5 3h1m0 1h1M6 5h2M7 6h2M7 7h2M7 8h1M7 9h1m-2 1h1m-2 2h1m-1 1h1m7 0h1M4 14h10"/><path stroke="rgba(249,213,114,0.3411764705882353)" d="M6 2h1m5 0h1M4 3h1m3 2h1M8 9h1m-2 2h1m-4 1h1m1 0h1m5 0h1"/><path stroke="rgba(250,213,112,0.43529411764705883)" d="M6 6h1M6 9h1"/></svg>