<svg xmlns="http://www.w3.org/2000/svg" shape-rendering="crispEdges" viewBox="0 -0.5 16 16"><path stroke="#838383" d="M6 1h1m1 0h1m1 0h1M8 2h1M8 4h2M5 5h1m5 0h1M4 6h1m7 0h1M3 8h1m9 0h1m-1 1h1M3 10h1m9 0h1m-1 1h1M4 12h1m7 0h1m-8 1h1m5 0h1m-5 1h3"/><path stroke="#616161" d="M7 1h1m1 0h1M6 2h2m1 0h1M8 3h1M6 4h2m2 0h1M8 5h1M3 7h1m4 0h1m2 0h1m1 0h1m-4 1h1M3 9h1m5 0h1m-7 2h1m-1 1h1m9 0h1M4 13h1m8 0h1M4 14h1m1 0h1m3 0h2m-1 1h1"/><path stroke="#414141" d="M10 2h1M8 6h1m2 0h1m-2 1h1M8 8h2"/><path stroke="#a7a7a7" d="M6 5h1m3 0h1M5 6h1m4 0h1M4 7h1m7 0h1M4 9h2m5 0h2m-9 2h2m5 0h2m-8 1h2m1 0h1m1 0h2m-6 1h1m1 0h1m1 0h1"/><path stroke="#d1d1d1" d="M7 5h1m1 0h1M6 6h2M5 7h2M6 8h1m3 1h1m-1 1h1m-3 1h1"/><path stroke="#ebebeb" d="M9 6h1M7 7h1m1 0h1M5 8h1m1 0h1M6 9h2m-3 1h3m3 0h1m-6 1h2m1 0h2m-4 1h1m1 0h1"/><path stroke="#ddd" d="M4 8h1m6 0h2m-9 2h1m3 0h2m2 0h1m-6 3h1m1 0h1"/><path stroke="#5c5c5c" d="M8 9h1"/></svg>