<svg xmlns="http://www.w3.org/2000/svg" shape-rendering="crispEdges" viewBox="0 -0.5 16 16"><path stroke="#2b5397" d="M2 1h1m3 0h1m3 0h1m3 0h1M1 2h1m5 0h1m1 0h1m5 0h1M1 6h1m5 0h1m1 0h1m5 0h1M2 7h1m3 0h1m3 0h1m3 0h1"/><path stroke="#3b6bcb" d="M3 1h3m5 0h3M2 2h1m3 0h1m3 0h1m3 0h1M1 3h1m5 0h1m1 0h1m5 0h1M1 4h1m5 0h1m1 0h1m5 0h1M1 5h1m5 0h1m1 0h1m5 0h1M2 6h1m3 0h1m3 0h1m3 0h1M3 7h3m5 0h3"/><path stroke="#c3d7f7" d="M3 2h1m1 0h1m5 0h1m1 0h1M2 3h1m3 0h1m3 0h1m3 0h1M2 5h1m3 0h1m3 0h1m3 0h1M3 6h1m1 0h1m5 0h1m1 0h1"/><path stroke="#a7a7a7" d="M4 2h1m7 0h1M2 4h1m3 0h1m3 0h1m3 0h1M4 6h1m7 0h1"/><path stroke="#ebebeb" d="M3 3h2m6 0h2M3 4h1m1 0h1m5 0h1m1 0h1M3 5h3m5 0h3"/><path stroke="#1b3767" d="M5 3h1m7 0h1M4 4h1m7 0h1"/><path stroke="#3680ef" d="M8 5h1M3 8h1m8 0h1M3 9h1m8 0h1M3 10h1m8 0h1M3 11h1m8 0h1m-9 1h1m6 0h1m-7 1h1m4 0h1m-5 1h4m2 0h1"/><path stroke="#fff" d="M8 6h1M8 7h2m0 1h1m-7 2h1m2 0h3m1 0h1m-7 1h5m-4 1h1m1 0h2"/><path stroke="#9cc0f7" d="M7 7h1M4 8h6m1 0h1M4 9h8m-7 1h2m3 0h1m-7 1h1m5 0h2m-7 1h1m1 0h1m2 0h1m3 0h1m-9 1h4m-9 1h1"/></svg>