<svg xmlns="http://www.w3.org/2000/svg" shape-rendering="crispEdges" viewBox="0 -0.5 16 16"><path stroke="#fff" d="M5 1h1m1 3h2M6 5h1m1 0h2m0 1h1M4 8h1m2 0h3m1 0h1M5 9h5m-4 1h1m1 0h2m3 3h1"/><path stroke="#9cc0f7" d="M12 1h1M1 2h2M2 3h1m3 1h1m2 0h1M5 5h1m1 0h1m2 0h1M4 6h6m1 0h1M4 7h8M5 8h2m3 0h1M4 9h1m5 0h2m-7 1h1m1 0h1m2 0h1m-5 1h4m2 2h1m-1 1h2"/><path stroke="#3680ef" d="M1 3h1m4 0h4m4 0h1M5 4h1m4 0h1M4 5h1m6 0h1M3 6h1m8 0h1M3 7h1m8 0h1M3 8h1m8 0h1M3 9h1m8 0h1m-9 1h1m6 0h1m-7 1h1m4 0h1m-5 1h4m-8 2h1"/><path stroke="#0b4295" d="M5 3h1m4 0h1M4 4h1m6 0h1M3 5h1m8 0h1M3 10h1m8 0h1m-9 1h1m6 0h1m-7 1h1m4 0h1"/></svg>