<svg xmlns="http://www.w3.org/2000/svg" shape-rendering="crispEdges" viewBox="0 -0.5 16 16"><path stroke="#f39317" d="M4 1h1M1 4h1m5 0h1M4 7h1"/><path stroke="#f7df7b" d="M2 2h1m3 0h1M4 3h1M3 4h3M4 5h1M2 6h1m3 0h1"/><path stroke="#f7c34f" d="M4 2h1M3 3h1m1 0h1M2 4h1m3 0h1M3 5h1m1 0h1M4 6h1"/><path stroke="#9cc0f7" d="M12 2h1M9 6h1M5 7h1m1 0h1m2 0h1M4 8h6m1 0h1M4 9h8m-7 1h2m3 0h1m-7 1h1m5 0h2m-7 1h1m1 0h1m2 0h1m-5 1h4"/><path stroke="#3680ef" d="M14 4h1M6 5h4M5 6h1m4 0h1m0 1h1M3 8h1m8 0h1M3 9h1m8 0h1M3 10h1m8 0h1M3 11h1m8 0h1m-9 1h1m6 0h1m-7 1h1m4 0h1m-9 1h1m3 0h4"/><path stroke="#fff" d="M7 6h2M6 7h1m1 0h2m0 1h1m-7 2h1m2 0h3m1 0h1m-7 1h5m-4 1h1m1 0h2"/></svg>