<svg xmlns="http://www.w3.org/2000/svg" shape-rendering="crispEdges" viewBox="0 -0.5 16 16"><path stroke="#fff" d="M7 2h2M6 3h1m2 0h1M7 5h2M6 6h1m2 0h1M1 7h1m12 0h1M1 8h1m5 0h2m5 0h1M2 9h1m3 0h1m2 0h1m3 0h1m-8 1h1m2 0h1m-8 1h1m4 0h2m4 0h1M1 12h1m12 0h1M1 13h1m2 0h1m1 0h1m2 0h1m1 0h1m2 0h1M2 14h2m2 0h1m2 0h1m2 0h2"/><path stroke="#222542" d="M7 3h2M6 4h1m2 0h1M7 6h2M6 7h1m2 0h1M1 9h1m5 0h2m5 0h1M2 10h1m10 0h1m-8 1h1m2 0h1m-8 1h1m4 0h2m4 0h1M1 14h1m2 0h1m6 0h1m2 0h1M2 15h2m2 0h1m2 0h1m2 0h2"/></svg>