<svg xmlns="http://www.w3.org/2000/svg" shape-rendering="crispEdges" viewBox="0 -0.5 16 16"><path stroke="#ff3c44" d="M11 0h1M5 1h1m8 0h1m-5 5h1M6 7h2m1 0h1M7 8h3M9 9h2m2 0h1m-9 5h1m8 0h1m-6 1h1"/><path stroke="rgba(169,20,28,0.7843137254901961)" d="M11 1h1M6 2h1m7 0h1M1 8h1m4 5h1m7 0h1m-6 1h1"/><path stroke="rgba(150,29,34,0.4392156862745098)" d="M11 2h1M7 3h1m3 0h1m1 0h1M8 4h1m4 0h1m-3 1h2M9 6h1m3 0h1M4 7h1m3 0h1m5 0h1M3 8h1m10 0h1M7 9h1m2 1h3m-5 1h1m4 0h1m-7 1h1m2 0h1m2 0h1m-4 1h1"/><path stroke="#ff6493" d="M11 6h2m-3 1h1m2 0h1m-4 1h1m2 0h1m-3 1h2"/><path stroke="#d51119" d="M2 7h1m2 0h1M4 8h1m1 0h1m1 1h1"/><path stroke="#fff" d="M11 7h2m-2 1h2"/></svg>