<svg xmlns="http://www.w3.org/2000/svg" shape-rendering="crispEdges" viewBox="0 -0.5 16 16"><path stroke="#fff" d="M1 1h1m1 0h1m10 0h1M1 2h1m1 0h1m10 0h1M1 3h1m1 0h1m4 0h5m1 0h1M1 4h1m1 0h1m3 0h1m4 0h1m1 0h1M1 5h6m5 0h1m1 0h1m-4 1h1m-2 1h1M9 8h1M8 9h1m3 0h1m1 0h1M1 10h1m1 0h1m3 0h1m4 0h1m1 0h1M1 11h1m1 0h1m2 0h1m5 0h1m1 0h1M3 12h1m1 0h1m6 0h1m1 0h1M3 13h2m7 0h3M3 14h1"/><path stroke="#222542" d="M8 4h4M7 5h1M1 6h6m5 0h1m1 0h1m-4 1h1m-2 1h1M9 9h1m-2 1h1m-2 1h1m-7 1h1m4 0h1m-2 1h1m-2 1h1m7 0h3M3 15h1"/></svg>