<svg xmlns="http://www.w3.org/2000/svg" shape-rendering="crispEdges" viewBox="0 -0.5 16 16"><path stroke="#2b5397" d="M2 1h1m3 0h1M1 2h1m5 0h1M1 6h1m5 0h1M2 7h1m3 0h1"/><path stroke="#3b6bcb" d="M3 1h3M2 2h1m3 0h1M1 3h1m5 0h1M1 4h1m5 0h1M1 5h1m5 0h1M2 6h1m3 0h1M3 7h3"/><path stroke="rgba(185,140,240,0.7490196078431373)" d="M12 1h2m-3 1h1m2 0h1m-4 1h1m2 0h1m-3 1h2M8 7h2M7 8h1m2 0h1M6 9h1m4 0h1m-7 1h1m6 0h1m-8 1h1m6 0h1m-7 1h1m4 0h1m-5 1h1m2 0h1m-3 1h2"/><path stroke="#c3d7f7" d="M3 2h1m1 0h1M2 3h1m3 0h1M2 5h1m3 0h1M3 6h1m1 0h1"/><path stroke="#a7a7a7" d="M4 2h1M2 4h1m3 0h1M4 6h1"/><path stroke="#e8c1ff" d="M12 2h2m-2 1h2M8 8h2M7 9h1m2 0h1m-5 1h1m4 0h1m-6 1h1m4 0h1m-5 1h1m2 0h1m-3 1h2"/><path stroke="#ebebeb" d="M3 3h2M3 4h1m1 0h1M3 5h3"/><path stroke="#1b3767" d="M5 3h1M4 4h1"/><path stroke="rgba(138,95,219,0.4196078431372549)" d="M7 7h1m2 0h1M6 8h1m4 0h1M5 9h1m6 0h1m-8 3h1m6 0h1m-7 1h1m4 0h1m-5 1h1m2 0h1"/><path stroke="#fff" d="M8 9h2m-3 1h4m-4 1h4m-3 1h2"/></svg>