<svg xmlns="http://www.w3.org/2000/svg" shape-rendering="crispEdges" viewBox="0 -0.5 16 16"><path stroke="#fff" d="M2 1h1m2 0h6m2 0h1M1 2h1m2 0h1m6 0h1m2 0h1M2 4h1m3 0h1m2 0h1m3 0h1M1 5h1m3 0h1m4 0h1m3 0h1M1 6h1m2 0h1m6 0h1m2 0h1M1 7h1m12 0h1M1 8h1m12 0h1M1 9h1m2 0h1m6 0h1m2 0h1M1 10h1m3 0h1m4 0h1m3 0h1M2 11h1m3 0h1m2 0h1m3 0h1M1 13h1m2 0h1m6 0h1m2 0h1M2 14h1m2 0h6m2 0h1"/><path stroke="#222542" d="M2 2h1m2 0h6m2 0h1M1 3h1m2 0h1m6 0h1m2 0h1M2 5h1m3 0h1m2 0h1m3 0h1M5 6h1m4 0h1M4 7h1m6 0h1m-8 3h1m6 0h1M1 11h1m3 0h1m4 0h1m3 0h1M2 12h1m3 0h1m2 0h1m3 0h1M1 14h1m2 0h1m6 0h1m2 0h1M2 15h1m2 0h6m2 0h1"/></svg>