<svg xmlns="http://www.w3.org/2000/svg" shape-rendering="crispEdges" viewBox="0 -0.5 16 16"><path stroke="#77daee" d="M6 2h2m1 0h1M5 3h1m4 0h1M4 4h1M3 5h1m8 0h1m0 1h1M1 7h1m12 0h1M1 8h1m12 0h1m-2 1h1M3 10h1m8 0h1"/><path stroke="#c9eaf2" d="M8 2h1M6 4h1m4 0h1M2 6h1m8 0h1M2 9h1"/><path stroke="#528ab7" d="M6 3h4M5 4h1m1 0h4M4 5h2m4 0h2M3 6h2m7 0h1M2 7h2m8 0h2M2 8h1m9 0h2M3 9h1m8 0h1m-7 1h1m1 0h1m-4 4h1"/><path stroke="#4a6485" d="M6 5h2m1 0h1M5 6h6M4 7h1m1 0h6M3 8h4m1 0h3M4 9h1m6 0h1"/><path stroke="#abdbdd" d="M8 5h1M5 7h1m1 1h1m3 0h1m2 1h1"/><path stroke="#43bfd2" d="M5 9h6m-7 1h1m6 0h1m-6 1h1m1 0h1m-4 1h1m2 0h1m-5 1h1m2 0h1m-2 1h1"/><path stroke="#334380" d="M7 10h1m-1 1h1m-2 1h1m-2 1h1"/><path stroke="#40539f" d="M7 12h1m-2 1h1"/></svg>