<svg xmlns="http://www.w3.org/2000/svg" shape-rendering="crispEdges" viewBox="0 -0.5 16 16"><path stroke="rgba(255,255,255,0.5568627450980392)" d="M1 1h1m3 0h1M1 5h1m3 0h1"/><path stroke="#fff" d="M2 1h3M1 2h1m3 0h1M1 3h1m3 0h1M1 4h1m3 0h1M2 5h3m1 2h1m0 1h1m0 1h1m0 1h1"/><path stroke="#f0e186" d="M9 8h1m-3 2h1"/><path stroke="#fff6c0" d="M9 9h1m-2 1h1"/><path stroke="#9b8a67" d="M12 10h1m-2 1h1m2 0h1m-3 1h1m-2 1h1m-3 1h2"/><path stroke="#7c684f" d="M12 11h1m0 2h1m-3 1h1m2 0h1"/><path stroke="#b5a687" d="M10 12h1m-2 1h1m2 0h1m0 1h1"/><path stroke="#d5cc98" d="M11 12h1m-2 1h1m1 1h1"/><path stroke="#624d3f" d="M8 14h1"/></svg>