<svg xmlns="http://www.w3.org/2000/svg" shape-rendering="crispEdges" viewBox="0 -0.5 16 16"><path stroke="#ffd052" d="M12 1h1m-2 1h1m2 1h1m-2 1h1"/><path stroke="#fff" d="M13 1h1m0 1h1m-4 1h1m0 1h1"/><path stroke="#70788c" d="M4 2h2M3 3h5M4 4h2m3 0h1M5 5h1m1 0h2m1 0h2M6 6h1m3 0h3M7 7h3m1 0h2M8 8h3M4 9h2m3 0h1m-6 1h1"/><path stroke="#495060" d="M2 4h1m5 0h1M6 5h1m2 0h1M2 6h1m4 0h1M2 7h1m7 0h1M2 8h2M2 9h1m10 0h1M2 10h1m3 0h1m5 0h1M3 11h1m2 0h1m3 0h2m-7 1h1m3 0h2m-5 1h1m1 0h2"/><path stroke="#545c6b" d="M3 4h1m2 0h2M2 5h2M3 6h2m3 0h2M3 7h3M4 8h3m6 0h1M6 9h2m2 0h3M3 10h1m3 0h5m-8 1h2m1 0h3m-4 1h3m-2 1h1"/><path stroke="#676f7d" d="M4 5h1m0 1h1m0 1h1m6 0h1M7 8h1m3 0h2M3 9h1m4 0h1m-4 1h1"/></svg>