<svg xmlns="http://www.w3.org/2000/svg" shape-rendering="crispEdges" viewBox="0 -0.5 16 16"><path stroke="#bf7bc7" d="M7 0h1M7 1h1M6 2h1m1 0h1m2 0h1M4 3h1m5 0h1M3 4h1m2 0h1m1 0h1m2 0h1M2 6h1m1 0h1m5 0h1m1 0h1M0 7h2m10 0h3M2 8h1m1 0h1m5 0h1m1 0h1M3 10h1m2 0h1m1 0h1m2 0h1m-8 1h1m5 0h1m-5 1h3m-6 1h1m3 0h1m-1 1h1m3 0h1"/><path stroke="#fbdbff" d="M13 1h1M7 2h1M1 3h1m5 0h1M7 4h1M5 5h1m3 0h1M2 7h3m5 0h2M5 9h1m3 0h1m-3 1h1m-1 1h1m4 1h1"/><path stroke="#885989" d="M5 2h1m3 0h1M2 5h1m9 0h1M2 9h1m9 0h1m-8 3h1m3 0h1"/><path stroke="#50374b" d="M5 3h1m3 0h1M3 5h1m7 0h1M6 6h1m1 0h1M6 8h1m1 0h1M3 9h1m7 0h1m-7 2h1m3 0h1"/><path stroke="#8b378f" d="M6 3h1m1 0h1M4 4h2m3 0h2M4 5h1m1 0h1m1 0h1m1 0h1M3 6h1m1 0h1m3 0h1m1 0h1M7 7h1M3 8h1m1 0h1m3 0h1m1 0h1M4 9h1m1 0h1m1 0h1m1 0h1m-7 1h2m3 0h2M1 11h1m4 0h1m1 0h1"/><path stroke="#fffffe" d="M7 5h1M5 7h1m3 0h1M7 9h1"/><path stroke="#392736" d="M7 6h1M6 7h1m1 0h1M7 8h1"/></svg>