<svg xmlns="http://www.w3.org/2000/svg" shape-rendering="crispEdges" viewBox="0 -0.5 16 16"><path stroke="#fffffe" d="M8 1h1m3 3h1m-2 1h3m-2 1h1"/><path stroke="#2f711a" d="M7 2h1M6 3h1m5 0h1M8 4h1m1 0h1m2 0h1m0 1h1M8 6h1m1 0h1m2 0h1M6 7h1m5 0h1M7 8h1"/><path stroke="rgba(112,210,194,0.7137254901960784)" d="M3 3h1m0 1h1M3 5h1M2 6h1m1 0h1M1 8h1M1 9h2m-2 1h1m0 1h1m-1 1h1m9 0h1M3 13h1m1 0h1m0 1h1m3 0h1"/><path stroke="#7fb717" d="M6 4h1M5 5h1m1 0h3M6 6h1"/><path stroke="#8ec4f4" d="M11 4h1m-2 1h1m0 1h1M8 9h1"/><path stroke="rgba(195,247,238,0.8235294117647058)" d="M4 5h1M3 6h1M2 7h1M2 8h1m-1 2h1m0 2h1m0 1h1m3 1h1"/></svg>