<svg xmlns="http://www.w3.org/2000/svg" shape-rendering="crispEdges" viewBox="0 -0.5 16 16"><path stroke="#ffd052" d="M12 1h1m-2 1h1m2 1h1m-2 1h1"/><path stroke="#fff" d="M13 1h1m0 1h1m-4 1h1m0 1h1"/><path stroke="#acdfe7" d="M7 2h2M6 3h1m2 0h1M5 4h1m1 0h1m2 0h1M9 5h1M4 8h1m6 0h1M5 9h1m4 0h1m-6 1h2m2 0h2m-5 1h4m-3 1h2"/><path stroke="#c6e9ea" d="M7 3h2M6 4h1m1 0h2M5 5h4m1 0h1M5 6h6M4 7h2m1 0h2m1 0h2M5 8h2m1 0h3M6 9h2m1 0h1m-3 1h2"/><path stroke="#90cbce" d="M4 6h1m6 0h1M4 9h1m6 0h1m-8 1h1m6 0h1m-7 1h1m4 0h1m-5 1h1m2 0h1m-3 1h2"/><path stroke="#a1d8e1" d="M6 7h1m2 0h1M7 8h1m0 1h1"/><path stroke="#679598" d="M4 11h1m6 0h1m-7 1h1m4 0h1m-5 1h1m2 0h1"/></svg>