<svg xmlns="http://www.w3.org/2000/svg" shape-rendering="crispEdges" viewBox="0 -0.5 16 16"><path stroke="#f39317" d="M4 1h1M1 4h1m5 0h1M4 7h1"/><path stroke="#ffd052" d="M12 1h1m-2 1h1m2 1h1m-2 1h1"/><path stroke="#fff" d="M13 1h1m0 1h1m-4 1h1m0 1h1"/><path stroke="#f7df7b" d="M2 2h1m3 0h1M4 3h1M3 4h3M4 5h1M2 6h1m3 0h1"/><path stroke="#f7c34f" d="M4 2h1M3 3h1m1 0h1M2 4h1m3 0h1M3 5h1m1 0h1M4 6h1"/><path stroke="#dddbd1" d="M7 2h2M6 3h1m2 0h1m0 1h1M9 5h1M6 7h1m0 1h1M5 9h1m2 0h1m1 0h1m-5 1h1m2 0h1m-3 1h1"/><path stroke="#f9f8f5" d="M7 3h2M8 4h2M6 5h2m2 0h1M5 6h1m1 0h2m1 0h1M7 7h2m1 0h1M5 8h1m3 0h1M6 9h1m2 0h1m-2 1h1"/><path stroke="#a8a7a2" d="M8 5h1m0 1h1m1 0h1M4 9h1m6 0h1m-8 1h1m2 0h1m3 0h1m-7 1h1m2 0h1m1 0h1m-5 1h1m2 0h1m-3 1h2"/><path stroke="#7a786c" d="M5 7h1m3 0h1m1 0h1M6 8h1m1 0h1m1 0h1M7 9h1m-4 2h1m6 0h1m-7 1h1m4 0h1m-5 1h1m2 0h1"/><path stroke="#c8c5ba" d="M4 8h1m6 0h1m-7 2h1m4 0h1m-5 1h1m2 0h1m-3 1h2"/></svg>