<svg xmlns="http://www.w3.org/2000/svg" shape-rendering="crispEdges" viewBox="0 -0.5 16 16"><path stroke="#7ea1df" d="M10 1h1M6 2h1m4 0h1M1 3h3m2 0h2M1 4h1m2 0h2M2 5h1m5 0h1M3 6h2m1 0h1m6 5h1m-3 1h1"/><path stroke="#466fb7" d="M11 1h1M6 4h2M6 5h2M7 6h1"/><path stroke="#e1ba74" d="M12 2h1m1 2h1m-5 2h1M5 7h1m1 0h1m2 0h1M7 8h5M3 9h2m-3 2h1m11 1h1m-2 1h1M2 14h1"/><path stroke="#b08c4a" d="M10 3h1M3 8h1m1 0h2m2 1h1m1 0h1m-8 1h3m0 1h1m-3 1h1m1 0h1m4 2h1"/><path stroke="#534937" d="M11 3h1M4 8h1M2 9h1m2 0h1m-4 1h2m-1 1h1m9 1h1M3 13h1m8 0h1m1 0h1"/><path stroke="#d0e0fd" d="M2 4h2M3 5h3M5 6h1m5 5h1m0 1h1"/><path stroke="#312a1c" d="M8 6h1m2 0h1M6 7h1m1 0h2m1 0h2M6 9h2m-4 2h2m7 3h1"/><path stroke="#f9efda" d="M9 6h1m2 0h1"/><path stroke="#2e3b48" d="M4 7h1"/></svg>