<svg xmlns="http://www.w3.org/2000/svg" shape-rendering="crispEdges" viewBox="0 -0.5 16 16"><path stroke="#c15f97" d="M10 1h1M6 2h1m4 0h1M1 3h3m3 0h1M1 4h1m2 0h2M2 5h1m5 0h1M3 6h2m1 0h1m6 5h1m-3 1h1"/><path stroke="#863463" d="M11 1h1M6 3h1M6 4h2M6 5h2M7 6h1"/><path stroke="#814739" d="M12 2h1m-2 1h1M8 6h2m3 0h1M5 7h1m1 0h1m1 0h1M3 8h2m2 0h4M2 9h4m2 0h1m1 0h1m-8 1h1m9 2h2m-2 1h2M2 14h1"/><path stroke="#d6ee3a" d="M10 3h1M8 7h1m1 0h1m-9 3h1m0 1h1m8 3h1"/><path stroke="#e2b5cf" d="M2 4h2M3 5h3M5 6h1m5 5h1m0 1h1"/><path stroke="#2e3b48" d="M4 7h1"/><path stroke="#60352a" d="M6 7h1M5 8h2M6 9h1m-3 1h3m1 0h1m1 0h1m-7 1h2m1 0h1m-3 1h1m1 0h1m-5 1h1m8 0h1m0 1h1"/></svg>