<svg xmlns="http://www.w3.org/2000/svg" shape-rendering="crispEdges" viewBox="0 -0.5 16 16"><path stroke="#bf43bf" d="M2 0h2M1 1h1m2 0h1M1 2h1m2 0h1M3 3h1m9 3h2M2 7h1m9 0h1m2 0h1M2 8h1m4 0h2m6 0h1m-3 1h2M3 12h1m-3 1h1m2 0h1m-4 1h1m2 0h1m-3 1h2"/><path stroke="#fff" d="M2 1h2M2 2h2m9 5h2m-2 1h2M2 13h2m-2 1h2"/><path stroke="#ffd0ff" d="M2 3h1M2 4h1m8 4h2M2 11h1m-1 1h1"/><path stroke="#df7bdf" d="M3 5h1M3 6h1m5 1h2M3 9h1m-1 1h1"/><path stroke="#821282" d="M3 7h1M3 8h2"/><path stroke="#ae1eae" d="M5 7h2"/></svg>