<svg xmlns="http://www.w3.org/2000/svg" shape-rendering="crispEdges" viewBox="0 -0.5 16 16"><path stroke="rgba(255,255,255,0.20392156862745098)" d="M4 1h1M4 2h1M2 3h3m1 0h1M1 4h1m1 1h1M3 6h1M3 7h1m1 0h1M3 8h1m1 0h1"/><path stroke="rgba(220,220,220,0.5490196078431373)" d="M5 2h1M5 3h1M3 4h5M2 5h1m1 0h1m1 0h1m1 0h1M4 6h2M4 7h1m1 0h1M4 8h1M4 9h1m1 0h1"/><path stroke="#fff" d="M5 5h1m0 1h1m0 1h2m2 0h1M7 8h2m2 0h1M9 9h5m-6 1h1m1 0h3m1 0h1m-5 1h3m-3 1h1m1 0h1m-3 1h1m1 0h1m-3 1h1m1 0h1"/><path stroke="#a9e9ff" d="M8 6h1M6 8h1"/></svg>