<svg xmlns="http://www.w3.org/2000/svg" shape-rendering="crispEdges" viewBox="0 -0.5 16 16"><path stroke="rgba(168,168,168,0.3254901960784314)" d="M10 0h1m-1 1h1M8 2h5M7 3h1m1 0h3m1 0h1M9 4h3m-1 1h1M9 6h1m1 0h1M9 7h1m1 0h1"/><path stroke="#fff" d="M6 2h1M6 3h1M4 4h5M3 5h1m1 0h3m1 0h1M5 6h3M5 7h1m1 0h1M5 8h1m1 0h1M5 9h1m1 0h1"/><path stroke="rgba(235,235,235,0.4549019607843137)" d="M4 7h1M4 8h1M2 9h3m1 0h1m-6 1h1m1 0h3m1 0h1m-5 1h3m-3 1h1m1 0h1m-3 1h1m1 0h1m-3 1h1m1 0h1"/><path stroke="rgba(255,255,255,0.7058823529411765)" d="M12 7h1m-1 1h1m-3 1h5m-6 1h1m1 0h3m1 0h1m-5 1h3m-3 1h1m1 0h1m-3 1h1m1 0h1m-3 1h1m1 0h1"/></svg>