<svg xmlns="http://www.w3.org/2000/svg" shape-rendering="crispEdges" viewBox="0 -0.5 16 16"><path stroke="rgba(167,227,246,0.592156862745098)" d="M6 1h4M4 2h2m4 0h2M3 3h1m8 0h1M2 4h1m10 0h1M2 5h1m10 0h1M1 6h1m12 0h1M1 7h1m12 0h1M1 8h1m12 0h1M1 9h1m12 0h1M2 10h1m10 0h1M2 11h1m10 0h1M3 12h1m8 0h1m-9 1h2m4 0h2m-6 1h4"/><path stroke="rgba(72,172,238,0.592156862745098)" d="M6 2h4M4 3h8M3 4h1m2 0h7M3 5h1m2 0h7M2 6h4m1 0h7M2 7h5m1 0h1m1 0h4M2 8h6m2 0h4M2 9h5m3 0h4M3 10h7m2 0h1M3 11h7m2 0h1m-9 1h8m-6 1h4"/><path stroke="#fff" d="M4 4h2M4 5h2m4 5h2m-2 1h2"/><path stroke="#a6e3f5" d="M6 6h1m0 1h1m1 0h1M8 8h2M7 9h3"/></svg>