<svg xmlns="http://www.w3.org/2000/svg" shape-rendering="crispEdges" viewBox="0 -0.5 16 16"><path stroke="rgba(251,239,151,0.592156862745098)" d="M6 1h4M4 2h2m4 0h2M3 3h1m8 0h1M2 4h1m10 0h1M2 5h1m10 0h1M1 6h1m12 0h1M1 7h1m12 0h1M1 8h1m12 0h1M1 9h1m12 0h1M2 10h1m10 0h1M2 11h1m10 0h1M3 12h1m8 0h1m-9 1h2m4 0h2m-6 1h4"/><path stroke="rgba(238,167,59,0.592156862745098)" d="M6 2h4M4 3h8M3 4h4m2 0h4M3 5h2m2 0h2m2 0h2M2 6h2m1 0h6m1 0h2M2 7h1m1 0h3m2 0h3m1 0h1M2 8h1m1 0h3m2 0h3m1 0h1M2 9h2m1 0h6m1 0h2M3 10h2m2 0h2m2 0h2M3 11h4m2 0h4m-9 1h8m-6 1h4"/><path stroke="#fff" d="M7 4h2M5 5h2m2 0h2M4 6h1m6 0h1M3 7h1m3 0h2m3 0h1M3 8h1m3 0h2m3 0h1M4 9h1m6 0h1m-7 1h2m2 0h2m-4 1h2"/></svg>