<svg xmlns="http://www.w3.org/2000/svg" shape-rendering="crispEdges" viewBox="0 -0.5 16 16"><path stroke="rgba(82,18,171,0.6549019607843137)" d="M2 1h1m2 0h1M2 14h1m2 0h1"/><path stroke="rgba(136,39,205,0.803921568627451)" d="M3 1h2M2 2h1m2 0h1M2 13h1m2 0h1m-3 1h2"/><path stroke="#fff" d="M12 1h1m-2 1h1m-2 1h1M9 4h1M8 5h1M7 6h1M6 7h2m0 1h2m0 1h1m0 1h1m0 2h2m-2 1h2"/><path stroke="#cc43ef" d="M3 2h2M2 3h1m2 0h1m-4 9h1m2 0h1m-3 1h2"/><path stroke="#ff75eb" d="M3 3h2M2 5h1m2 0h1M2 6h1m2 0h1M2 7h1m2 0h1M2 8h1m2 0h1M2 9h1m2 0h1m-4 1h1m2 0h1m-3 2h2"/><path stroke="#ea59fd" d="M2 4h1m2 0h1m-4 7h1m2 0h1"/><path stroke="#ff95f1" d="M3 4h2m-2 7h2"/><path stroke="#ffbdf6" d="M3 5h2M3 6h2M3 7h2M3 8h2M3 9h2m-2 1h2"/></svg>