<svg xmlns="http://www.w3.org/2000/svg" shape-rendering="crispEdges" viewBox="0 -0.5 16 16"><path stroke="#fff" d="M12 2h2M2 3h2m8 0h2M4 4h1m5 0h1M5 5h1m3 0h1M6 6h1m1 0h1M6 7h1m1 0h1M7 8h1M7 9h1"/><path stroke="rgba(82,18,171,0.6549019607843137)" d="M1 10h1m12 0h1M1 13h1m12 0h1"/><path stroke="rgba(136,39,205,0.803921568627451)" d="M2 10h1m10 0h1M1 11h1m12 0h1M1 12h1m12 0h1M2 13h1m10 0h1"/><path stroke="#cc43ef" d="M3 10h1m8 0h1M2 11h1m10 0h1M2 12h1m10 0h1M3 13h1m8 0h1"/><path stroke="#ea59fd" d="M4 10h1m6 0h1m-8 3h1m6 0h1"/><path stroke="#ff75eb" d="M5 10h6m-8 1h1m8 0h1M3 12h1m8 0h1m-8 1h6"/><path stroke="#ff95f1" d="M4 11h1m6 0h1m-8 1h1m6 0h1"/><path stroke="#ffbdf6" d="M5 11h6m-6 1h6"/></svg>