<svg xmlns="http://www.w3.org/2000/svg" shape-rendering="crispEdges" viewBox="0 -0.5 16 16"><path stroke="#696787" d="M5 1h3M3 2h6M2 3h2m4 0h2M1 4h2m6 0h2M1 5h1m8 0h2m2 0h1M1 6h1m10 0h2M1 7h1M1 8h1m0 1h1m-1 1h1m0 1h1m0 1h1m0 1h1m-1 1h1"/><path stroke="#8584a1" d="M4 3h1m1 0h2M3 4h2m3 0h1M2 5h1m6 0h1M2 6h2m7 0h1M3 7h1M2 8h2m0 1h1m-2 1h2m-1 1h3m-1 1h2m-2 1h1m-1 1h2"/><path stroke="#4a4960" d="M5 3h1M3 5h1M2 7h1m0 2h1m1 1h1m-1 2h1m1 1h1"/><path stroke="#2b5397" d="M9 8h1m3 0h1M8 9h1m5 0h1m-7 4h1m5 0h1m-6 1h1m3 0h1"/><path stroke="#3b6bcb" d="M10 8h3M9 9h1m3 0h1m-6 1h1m5 0h1m-7 1h1m5 0h1m-7 1h1m5 0h1m-6 1h1m3 0h1m-4 1h3"/><path stroke="#c3d7f7" d="M10 9h1m1 0h1m-4 1h1m3 0h1m-5 2h1m3 0h1m-4 1h1m1 0h1"/><path stroke="#a7a7a7" d="M11 9h1m-3 2h1m3 0h1m-3 2h1"/><path stroke="#ebebeb" d="M10 10h2m-2 1h1m1 0h1m-3 1h3"/><path stroke="#1b3767" d="M12 10h1m-2 1h1"/></svg>