<svg xmlns="http://www.w3.org/2000/svg" shape-rendering="crispEdges" viewBox="0 -0.5 16 16"><path stroke="#8584a1" d="M12 0h1M9 1h3M8 2h1M8 3h1M1 7h1m2 0h1m9 0h1M1 8h3m10 0h1m-2 1h2m-9 2h1m-2 1h2m3 0h1m-9 1h3m6 1h3"/><path stroke="#696787" d="M8 1h1m3 0h1M7 2h1m1 0h3M7 3h1m5 1h1M2 5h1m11 0h1M1 6h1m13 0h1M0 7h1m14 0h1M0 8h1m3 0h1m7 0h1m2 0h1M1 9h3m8 0h1m2 0h1m-3 1h2M0 11h1m6 0h1m1 0h1m-9 1h1m5 0h1m1 0h1m3 0h1M1 13h1m3 0h2m3 0h1m3 0h1M2 14h4m4 0h1m3 0h1m-4 1h3"/><path stroke="rgba(218,135,52,0.43529411764705883)" d="M7 4h3M6 5h1m3 0h1M5 6h1m5 0h1M5 7h1m5 0h1M5 8h1m5 0h1M6 9h1m4 0h1m-5 1h1m1 0h1m1 0h1m-2 1h1"/><path stroke="#dfe8c0" d="M7 5h2M6 6h4M6 7h2M6 8h3M8 9h1"/><path stroke="#c7d792" d="M9 5h1m0 1h1M9 7h1m0 1h1M7 9h1m2 0h1m-3 1h1m1 0h1"/><path stroke="#3f4c1d" d="M8 7h1m1 0h1"/><path stroke="#6d8233" d="M9 8h1"/><path stroke="#9fbb53" d="M9 9h1"/></svg>