<svg xmlns="http://www.w3.org/2000/svg" shape-rendering="crispEdges" viewBox="0 -0.5 16 16"><path stroke="rgba(206,132,218,0.8196078431372549)" d="M6 1h1m4 0h1M1 4h1m12 2h1M1 9h1m12 2h1M4 14h1m4 0h1"/><path stroke="#a85cb5" d="M7 1h1M5 2h2M6 3h1m2 0h1m1 0h1M3 4h1m6 0h1M4 5h1m8 0h1M3 6h1m8 0h2m0 1h1M1 8h1m0 1h2m8 0h1M2 10h1m8 0h1m-7 1h1m6 0h1m-9 1h1m1 0h1m2 0h1m-1 1h3m-4 1h1"/><path stroke="rgba(145,75,157,0.8117647058823529)" d="M4 2h1m4 0h1m1 0h1m-2 1h1M2 4h1m10 0h1M3 5h1M2 6h1m10 3h1m-2 1h1M2 11h1m10 0h1m-9 1h1m-2 1h1m1 0h1"/><path stroke="#e294ef" d="M7 2h1m4 0h1M2 3h3m3 0h1m3 0h1M5 4h1m6 0h1M8 5h1m2 0h1M6 6h2m1 0h1M3 7h1m1 0h1m3 0h1m3 0h1M2 8h1m3 0h1m3 0h1m1 0h1M6 9h1m1 0h2m-6 1h1m2 0h1m-5 1h1m6 0h1m-8 1h1m3 0h1m3 0h3M3 13h1m4 0h1"/><path stroke="#c36bd2" d="M8 2h1M5 3h1m1 0h1M4 4h1m1 0h2m1 0h1m1 0h1M5 5h1m1 0h1m1 0h2m1 0h1M4 6h2m5 0h1M2 7h1m7 0h3M3 8h3m7 0h1M4 9h1m5 0h2m-9 1h1m1 0h2m1 0h1m1 0h1m-7 1h1m1 0h1m1 0h2m1 0h1m-4 1h1m1 0h1m-4 1h1"/><path stroke="#fce9ff" d="M8 4h1M6 5h1m1 1h1m1 0h1M4 7h1m1 0h3M7 8h3m1 0h1M5 9h1m1 0h1m1 1h1m-3 1h1"/></svg>