<svg xmlns="http://www.w3.org/2000/svg" shape-rendering="crispEdges" viewBox="0 -0.5 16 16"><path stroke="#8584a1" d="M12 0h1M9 1h3M8 2h1M8 3h1M8 4h1M8 5h1M7 6h3M1 7h1m2 0h7m3 0h1M1 8h3m2 0h5m3 0h1M7 9h4m2 0h2m-9 1h4m-4 1h1m-2 1h2m3 0h1m-9 1h3m6 1h3"/><path stroke="#696787" d="M8 1h1m3 0h1M7 2h1m1 0h3M7 3h1M7 4h1m5 0h1M2 5h1m4 0h1m6 0h1M1 6h1m4 0h1m8 0h1M0 7h1m14 0h1M0 8h1m3 0h2m5 0h2m2 0h1M1 9h6m4 0h2m2 0h1m-6 1h5M0 11h1m6 0h3m-9 1h1m5 0h1m1 0h1m3 0h1M1 13h1m3 0h2m3 0h1m3 0h1M2 14h4m4 0h1m3 0h1m-4 1h3"/></svg>