<svg xmlns="http://www.w3.org/2000/svg" shape-rendering="crispEdges" viewBox="0 -0.5 16 16"><path stroke="#68cbfc" d="M1 1h1m5 0h1m1 0h1m4 1h1M2 3h1m8 0h1M2 12h1m9 0h1m-5 2h1m5 0h1M4 15h1"/><path stroke="#fff" d="M1 2h1m5 0h1m1 0h3m1 0h1M8 3h1m3 0h1M2 4h1m5 0h1M1 5h1m5 0h1M2 6h1m0 1h1m9 1h1m-5 2h1m-6 1h1m5 0h2m2 0h1M3 12h1m9 0h1M4 13h1m1 0h2m5 0h1m-9 1h1"/><path stroke="#333" d="M3 2h1m0 2h1M3 5h1m9 0h1M7 6h1M4 7h1M3 8h4M3 9h1m4 0h1m-5 1h1m6 0h1M2 11h1m2 0h2m3 1h1"/><path stroke="#979797" d="M5 4h2M6 5h1m1 1h3M8 7h2M8 8h1M4 9h1m1 0h1m2 0h1"/><path stroke="#636363" d="M7 4h1M4 5h2m2 0h2M3 6h4M5 7h3m2 0h2M7 8h1m1 0h3M5 9h1m1 0h1m-3 1h4m-2 1h2"/></svg>