<svg xmlns="http://www.w3.org/2000/svg" shape-rendering="crispEdges" viewBox="0 -0.5 16 16"><path stroke="#1b3767" d="M3 1h1m7 0h1M3 14h1m7 0h1"/><path stroke="#2b5397" d="M4 1h2m3 0h2M3 2h2m5 0h2M3 13h2m5 0h2m-8 1h2m3 0h2"/><path stroke="#3b6bcb" d="M6 1h3M5 2h5M5 13h5m-4 1h3"/><path stroke="#a7a7a7" d="M3 3h1m7 0h1m-1 1h1m-2 1h1M9 6h1M8 7h1M6 8h1M5 9h1m-2 1h1m-2 1h1m-1 1h1m7 0h1"/><path stroke="#727272" d="M3 4h1m0 1h1m0 1h1m0 1h1"/><path stroke="#a69969" d="M5 5h1m0 1h1m1 0h1M7 7h1m-2 5h1"/><path stroke="#d7c790" d="M6 5h4M7 6h1m-1 5h1m-1 1h2"/><path stroke="#ebebeb" d="M8 8h1m0 1h1m0 1h1m0 1h1"/></svg>