<svg xmlns="http://www.w3.org/2000/svg" shape-rendering="crispEdges" viewBox="0 -0.5 16 16"><path stroke="#c77070" d="M1 1h2m1 0h2m1 0h2m1 0h2m2 0h1M2 2h1m2 0h1m2 0h1M2 6h1m2 0h1m2 0h1m2 0h1m2 0h1M2 7h1m2 0h1m2 0h1m2 0h1m2 0h1M2 8h1m2 0h1m2 0h1m2 0h1m2 0h1M2 9h1m2 0h1m2 0h1m2 0h1m2 0h1M2 10h1m2 0h1m2 0h1m2 0h1m2 0h1M2 14h1m2 0h1m2 0h1m2 0h1m2 0h1"/><path stroke="#915252" d="M3 1h1m2 0h1m2 0h1M1 5h1m2 0h1m2 0h1m2 0h1m2 0h1M1 10h1m2 0h1m2 0h1m2 0h1m2 0h1M1 14h1m2 0h1m2 0h1m2 0h1m2 0h1"/><path stroke="#ffd052" d="M12 1h1m-2 1h1m2 1h1m-2 1h1"/><path stroke="#fff" d="M13 1h1m0 1h1m-4 1h1m0 1h1"/><path stroke="#a95656" d="M1 2h1m2 0h1m2 0h1m2 0h1m2 0h1M2 5h1m2 0h1m2 0h1m2 0h1m2 0h1M1 6h1m2 0h1m2 0h1m2 0h1m2 0h1M1 7h1m2 0h1m2 0h1m2 0h1m2 0h1M1 8h1m2 0h1m2 0h1m2 0h1m2 0h1M1 9h1m2 0h1m2 0h1m2 0h1m2 0h1M1 13h2m1 0h2m1 0h2m1 0h2m1 0h2"/><path stroke="#724141" d="M3 2h1m2 0h1m2 0h1m2 0h1M3 6h1m2 0h1m2 0h1m2 0h1M3 7h1m2 0h1m2 0h1m2 0h1M3 8h1m2 0h1m2 0h1m2 0h1M3 9h1m2 0h1m2 0h1m2 0h1M3 10h1m2 0h1m2 0h1m2 0h1M3 14h1m2 0h1m2 0h1m2 0h1"/><path stroke="#56473b" d="M1 3h1M1 4h1m-1 7h1m-1 1h1"/><path stroke="#705f51" d="M2 3h9m1 0h2m0 1h1M2 11h13m-1 1h1"/><path stroke="#605143" d="M2 4h10M2 12h12"/><path stroke="#5a3333" d="M3 5h1m2 0h1m2 0h1m2 0h1M3 13h1m2 0h1m2 0h1m2 0h1"/></svg>