<svg xmlns="http://www.w3.org/2000/svg" shape-rendering="crispEdges" viewBox="0 -0.5 16 16"><path stroke="#ffd052" d="M12 1h1m-2 1h1m2 1h1m-2 1h1"/><path stroke="#fff" d="M13 1h1m0 1h1m-4 1h1m0 1h1"/><path stroke="#c77070" d="M2 3h2m1 0h2m1 0h2m2 0h1M3 4h1m2 0h1m2 0h1M3 8h1m2 0h1m2 0h1m2 0h1M3 9h1m2 0h1m2 0h1m2 0h1M3 13h1m2 0h1m2 0h1m2 0h1"/><path stroke="#915252" d="M4 3h1m2 0h1m2 0h1M2 7h1m2 0h1m2 0h1m2 0h1M2 9h1m2 0h1m2 0h1m2 0h1M2 13h1m2 0h1m2 0h1m2 0h1"/><path stroke="#a95656" d="M2 4h1m2 0h1m2 0h1m2 0h1M3 7h1m2 0h1m2 0h1m2 0h1M2 8h1m2 0h1m2 0h1m2 0h1M2 12h2m1 0h2m1 0h2m1 0h2"/><path stroke="#724141" d="M4 4h1m2 0h1m2 0h1M4 8h1m2 0h1m2 0h1M4 9h1m2 0h1m2 0h1m-7 4h1m2 0h1m2 0h1"/><path stroke="#56473b" d="M2 5h1M2 6h1m-1 4h1m-1 1h1"/><path stroke="#705f51" d="M3 5h10m-1 1h1M3 10h10m-1 1h1"/><path stroke="#605143" d="M3 6h9m-9 5h9"/><path stroke="#5a3333" d="M4 7h1m2 0h1m2 0h1m-7 5h1m2 0h1m2 0h1"/></svg>