<svg xmlns="http://www.w3.org/2000/svg" shape-rendering="crispEdges" viewBox="0 -0.5 16 16"><path stroke="#fff" d="M7 3h2M2 4h1m3 0h1m2 0h1m3 0h1M1 5h1m3 0h1m4 0h1m3 0h1M1 6h1m2 0h1m6 0h1m2 0h1M2 7h1m1 0h1m1 0h1m2 0h1m1 0h1m1 0h1M4 8h1m2 0h2m2 0h1M5 9h1m4 0h1m-9 1h1m3 0h4m3 0h1M2 11h1m10 0h1M1 12h1m1 0h1m8 0h1m1 0h1M4 13h2m1 0h2m1 0h2m-9 1h1m3 0h2m3 0h1"/><path stroke="#222542" d="M7 4h2M2 5h1m3 0h1m2 0h1m3 0h1M5 6h1m4 0h1M1 7h1m12 0h1M2 8h1m3 0h1m2 0h1m3 0h1M4 9h1m2 0h2m2 0h1m-7 1h1m4 0h1m-5 1h4m-8 1h1m10 0h1M1 13h1m1 0h1m8 0h1m1 0h1M4 14h2m4 0h2m-9 1h1m3 0h2m3 0h1"/></svg>