<svg xmlns="http://www.w3.org/2000/svg" shape-rendering="crispEdges" viewBox="0 -0.5 16 16"><path stroke="#7ceeff" d="M5 1h1m4 1h1M3 3h1m9 0h1m-2 1h1m-3 1h1m3 1h1M3 7h2m1 0h1m0 1h1m2 0h1m-2 2h1m2 1h1m1 0h1m-6 1h1m3 0h1"/><path stroke="#39a3e7" d="M9 1h1m4 1h1M6 4h1m6 0h1M4 6h1m3 0h1m2 0h1m-2 1h1M2 8h1m3 0h1m4 0h1M6 9h1m7 1h1m-6 1h1m3 0h1m-4 2h1"/><path stroke="#fff" d="M11 3h1M4 4h1m6 0h1M5 5h1m5 0h1M5 6h2m2 0h2M7 7h3M8 8h2M7 9h5m-5 1h2m2 0h2m-5 1h1"/><path stroke="#c3974c" d="M6 11h1m-2 1h1"/><path stroke="#705a39" d="M7 11h1m-2 1h1m-2 1h1m-2 1h1"/><path stroke="#9f8052" d="M4 13h1m-2 1h1"/></svg>