<svg xmlns="http://www.w3.org/2000/svg" shape-rendering="crispEdges" viewBox="0 -0.5 16 16"><path stroke="#d7360e" d="M7 1h1M7 3h1m1 0h1M8 4h2M8 5h1M6 6h1m3 0h1M6 7h1"/><path stroke="#f5852f" d="M7 4h1M7 5h1m1 0h1M8 6h2M7 7h1m2 0h1M6 8h1m3 0h1m-1 1h1m-5 1h1m3 0h1m-5 1h1"/><path stroke="#f7d76b" d="M7 6h1m1 1h1M7 8h1M6 9h1m0 2h1m1 0h1m-3 1h2"/><path stroke="#fff" d="M8 7h1M8 8h2M7 9h3m-3 1h3m-2 1h1"/><path stroke="#c3974c" d="M5 12h2"/><path stroke="#9f8052" d="M4 13h1m-2 1h1"/><path stroke="#705a39" d="M5 13h1m-2 1h1"/></svg>