<svg xmlns="http://www.w3.org/2000/svg" shape-rendering="crispEdges" viewBox="0 -0.5 16 16"><path stroke="#658e2a" d="M3 0h1"/><path stroke="#8fbe2f" d="M3 1h1M2 3h1m1 0h1M2 4h1M1 5h1m3 0h1M1 6h1m0 1h1"/><path stroke="#bfe059" d="M3 2h1M3 3h1M3 4h2M2 5h2M2 6h1m2 0h1M3 7h2"/><path stroke="#e9fcbb" d="M4 5h1M3 6h2"/><path stroke="#fff" d="M6 7h1m0 1h1m0 1h1m0 1h1"/><path stroke="#327722" d="M12 7h1"/><path stroke="#f0e186" d="M9 8h1m-3 2h1"/><path stroke="#57a528" d="M12 8h1m-2 2h1m1 0h1m-3 1h1m-2 1h1m3 0h1m-5 1h1m0 1h1"/><path stroke="#fff6c0" d="M9 9h1m-2 1h1"/><path stroke="#80c24f" d="M12 9h1m-1 1h1m-1 1h2m-3 1h2m-2 1h1m2 0h1m-3 1h2"/><path stroke="#95d773" d="M13 12h1m-2 1h2"/></svg>