<svg xmlns="http://www.w3.org/2000/svg" shape-rendering="crispEdges" viewBox="0 -0.5 16 16"><path stroke="#db8484" d="M5 0h1m2 0h1"/><path stroke="#c94646" d="M6 0h2M5 1h1M5 2h3m0 1h1M8 4h1M5 5h3"/><path stroke="#3b6bcb" d="M2 1h3M3 2h1M2 3h3M1 4h1m3 0h1M0 5h1M0 6h1m5 0h1M0 7h1m5 0h1M1 8h1m3 0h1M2 9h3"/><path stroke="#2b5397" d="M1 3h1m3 0h1M0 4h1m5 0h1M0 8h1m5 0h1M1 9h1m3 0h1"/><path stroke="#c3d7f7" d="M2 4h1m1 0h1M1 5h1M1 7h1m3 0h1M2 8h1m1 0h1"/><path stroke="#a7a7a7" d="M3 4h1M1 6h1m3 0h1M3 8h1"/><path stroke="#ebebeb" d="M2 5h2M2 6h1m1 0h1M2 7h3"/><path stroke="#1b3767" d="M4 5h1M3 6h1"/><path stroke="#fff" d="M11 5h4m-2 1h2m-3 1h1m1 0h1m-4 1h1m2 0h1m-6 2h2m-2 1h2m-4 1h1m-3 1h1m-3 1h1"/></svg>