<svg xmlns="http://www.w3.org/2000/svg" shape-rendering="crispEdges" viewBox="0 -0.5 16 16"><path stroke="#fff" d="M3 1h1m0 2h1m6 1h4M5 5h1m7 0h2m-3 1h1m1 0h1M6 7h1m4 0h1m2 0h1m-5 1h1M7 9h2m-2 1h2"/><path stroke="#c7d792" d="M4 10h1m-2 1h1m-1 2h1m-1 1h1m2 0h1m-4 1h1m1 0h1"/><path stroke="#dfe8c0" d="M5 10h1m-2 1h3m-1 1h2m-3 1h3m-3 1h1m2 0h1m-2 1h2"/><path stroke="#9fbb53" d="M6 10h1m0 1h1m1 1h1m-1 1h3m-8 1h1m5 0h3m-2 1h2"/><path stroke="#3f4c1d" d="M3 12h3"/><path stroke="#6d8233" d="M8 12h1m-5 1h1m3 0h1m-2 1h1m1 0h1m-4 1h1m2 0h2"/></svg>