<svg xmlns="http://www.w3.org/2000/svg" shape-rendering="crispEdges" viewBox="0 -0.5 16 16"><path stroke="#f39317" d="M7 2h1M3 4h1m7 0h1M6 5h1m1 0h1M4 7h1m5 0h1M1 8h1m11 0h1M4 9h1m5 0h1m-5 2h1m1 0h1m-6 1h1m7 0h1m-5 2h1"/><path stroke="#f7c34f" d="M7 3h1M7 4h1M4 5h1m5 0h1M6 6h1m1 0h1M5 7h1m3 0h1M2 8h2m7 0h2M5 9h1m3 0h1m-4 1h1m1 0h1m-5 1h1m5 0h1m-4 1h1m-1 1h1"/><path stroke="rgba(215,107,11,0.6039215686274509)" d="M6 4h1m1 0h1M5 5h1m3 0h1M4 6h1m5 0h1M3 7h1m7 0h1M3 9h1m7 0h1m-8 1h1m5 0h1m-6 1h1m3 0h1m-4 1h1m1 0h1"/><path stroke="#f7df7b" d="M7 5h1M5 6h1m1 0h1m1 0h1M6 7h1m1 0h1M4 8h2m3 0h2M6 9h1m1 0h1m-4 1h1m1 0h1m1 0h1m-3 1h1"/><path stroke="#fff6a9" d="M7 7h1M6 8h3M7 9h1"/></svg>