<svg xmlns="http://www.w3.org/2000/svg" shape-rendering="crispEdges" viewBox="0 -0.5 16 16"><path stroke="#fff" d="M5 1h1m4 0h1M4 2h1m1 0h1m2 0h1m1 0h1M5 3h1m4 0h1M5 5h1m4 0h1M4 6h1m1 0h1m2 0h1m1 0h1M1 7h1m3 0h1m4 0h1m3 0h1M1 8h1m12 0h1M2 9h1m2 0h1m4 0h1m2 0h1M4 10h1m1 0h1m2 0h1m1 0h1M2 11h1m2 0h1m4 0h1m2 0h1M1 12h1m12 0h1M1 13h1m2 0h1m1 0h1m2 0h1m1 0h1m2 0h1M2 14h2m2 0h1m2 0h1m2 0h2"/><path stroke="#222542" d="M5 2h1m4 0h1M4 3h1m1 0h1m2 0h1m1 0h1M5 4h1m4 0h1M5 6h1m4 0h1M4 7h1m1 0h1m2 0h1m1 0h1M5 8h1m4 0h1M1 9h1m12 0h1M2 10h1m2 0h1m4 0h1m2 0h1M4 11h1m1 0h1m2 0h1m1 0h1M2 12h1m2 0h1m4 0h1m2 0h1M1 14h1m2 0h1m6 0h1m2 0h1M2 15h2m2 0h1m2 0h1m2 0h2"/></svg>