<svg xmlns="http://www.w3.org/2000/svg" shape-rendering="crispEdges" viewBox="0 -0.5 16 16"><path stroke="#f3870b" d="M5 0h1m4 4h1M5 5h1m6 3h1m-3 2h1M1 11h1m3 0h1m0 2h1m-4 1h1m5 0h1m-2 1h1"/><path stroke="#974b33" d="M7 0h1m0 1h1M8 2h1M7 3h1M7 4h2m0 1h1m0 1h1m0 1h1m-2 2h1m-2 1h1m-2 1h1m-2 1h1m-1 1h2m0 2h1"/><path stroke="#4f1713" d="M8 0h7M9 1h7M9 2h7M8 3h8M9 4h1m1 0h5m-6 1h6m-5 1h5m-4 1h4m-3 1h3m-5 1h5m-5 1h5m-7 1h7m-8 1h8m-7 1h7m-6 1h6m-6 1h5"/><path stroke="#f7e787" d="M6 1h2M7 2h1m0 5h2M7 8h3M8 9h1m-6 3h1m-2 1h1m4 1h1"/><path stroke="#f7c34f" d="M6 2h1M4 3h1m1 3h1m1 0h2M7 7h1m2 0h1m-1 1h2M7 9h1m1 0h1m-2 1h1m-6 3h1m4 1h1m-2 1h1"/><path stroke="#fff" d="M1 8h1m1 0h1m1 0h1"/></svg>