<svg xmlns="http://www.w3.org/2000/svg" shape-rendering="crispEdges" viewBox="0 -0.5 16 16"><path stroke="#8c5d9f" d="M5 1h1m1 0h1m1 0h1m1 1h1M3 3h1m9 1h1M1 5h1m12 1h1M1 7h1m12 1h1M1 9h1m12 1h1M2 11h1m9 1h1m-9 1h1m1 1h1m1 0h1m1 0h1"/><path stroke="#f5dbff" d="M6 1h1m1 0h1m1 0h1M4 2h1m7 1h1M2 4h1m11 1h1M1 6h1m12 1h1M1 8h1m12 1h1M1 10h1m11 1h1M3 12h1m7 1h1m-7 1h1m1 0h1m1 0h1"/><path stroke="rgba(113,81,124,0.592156862745098)" d="M5 2h6M4 3h8M3 4h5m1 0h4M2 5h5m4 0h3M2 6h4m6 0h2M2 7h3m6 0h3M2 8h2m7 0h3M2 9h1m9 0h2M2 10h2m7 0h3M3 11h10m-9 1h8m-7 1h6"/><path stroke="rgba(74,55,80,0.4823529411764706)" d="M8 4h1M7 5h1m1 0h2M6 6h1m2 0h1m1 0h1M5 7h1m3 0h2M4 8h1m5 0h1M3 9h1m7 0h1m-8 1h7"/><path stroke="#9b8a67" d="M8 5h1M7 6h1m2 0h1M8 7h1M7 8h1M5 9h2"/><path stroke="#7c684f" d="M8 6h1m0 2h1M7 9h1m2 0h1"/><path stroke="#b5a687" d="M6 7h1M5 8h1m2 0h1m0 1h1"/><path stroke="#d5cc98" d="M7 7h1M6 8h1m1 1h1"/><path stroke="#624d3f" d="M4 9h1"/></svg>