<svg xmlns="http://www.w3.org/2000/svg" shape-rendering="crispEdges" viewBox="0 -0.5 16 16"><path stroke="#5d6f9f" d="M5 1h1m1 0h1m1 0h1m1 1h1M3 3h1m9 1h1M1 5h1m12 1h1M1 7h1m12 1h1M1 9h1m12 1h1M2 11h1m9 1h1m-9 1h1m1 1h1m1 0h1m1 0h1"/><path stroke="#82a7e9" d="M6 1h1m1 0h1m1 0h1M4 2h1m7 1h1M2 4h1m11 1h1M1 6h1m12 1h1M1 8h1m12 1h1M1 10h1m11 1h1M3 12h1m7 1h1m-7 1h1m1 0h1m1 0h1"/><path stroke="rgba(81,101,124,0.592156862745098)" d="M5 2h6M4 3h8M3 4h3m3 0h4M2 5h3m5 0h4M2 6h2m7 0h3M2 7h2m7 0h3M2 8h2m7 0h3M2 9h3m6 0h3M2 10h4m5 0h3M3 11h4m1 0h1m1 0h3m-9 1h8m-7 1h6"/><path stroke="rgba(170,111,84,0.7686274509803922)" d="M6 4h3M5 5h1m3 0h1M4 6h1m5 0h1M4 7h1m5 0h1M4 8h1m5 0h1M5 9h1m4 0h1m-5 1h1m1 0h1m1 0h1m-4 1h1m1 0h1"/><path stroke="#dfe8c0" d="M6 5h2M5 6h4M5 7h2M5 8h3M7 9h1"/><path stroke="#c7d792" d="M8 5h1m0 1h1M8 7h1m0 1h1M6 9h1m2 0h1m-3 1h1m1 0h1"/><path stroke="#3f4c1d" d="M7 7h1m1 0h1"/><path stroke="#6d8233" d="M8 8h1"/><path stroke="#9fbb53" d="M8 9h1"/></svg>