<svg xmlns="http://www.w3.org/2000/svg" shape-rendering="crispEdges" viewBox="0 -0.5 16 16"><path stroke="rgba(159,96,31,0.8705882352941177)" d="M5 1h1m1 0h1m1 0h1m1 1h1M3 3h1m9 1h1M1 5h1m12 1h1M1 7h1m12 1h1M1 9h1m12 1h1M2 11h1m9 1h1m-9 1h1m1 1h1m1 0h1m1 0h1"/><path stroke="rgba(233,157,78,0.8705882352941177)" d="M6 1h1m1 0h1m1 0h1M4 2h1M2 4h1"/><path stroke="rgba(131,72,10,0.6627450980392157)" d="M5 2h6M4 3h4m1 0h3M3 4h4m3 0h3M2 5h4m4 0h4M2 6h4m4 0h4M2 7h3m6 0h3M2 8h2m8 0h2M2 9h2m8 0h2M2 10h2m8 0h2M3 11h2m6 0h2m-9 1h2m4 0h2m-7 1h6"/><path stroke="rgba(88,49,7,0.3843137254901961)" d="M8 3h1M7 4h1m1 0h1M6 5h1m2 0h1M6 6h1m2 0h1M5 7h1m4 0h1M4 8h1m6 0h1M4 9h1m6 0h1m-8 1h1m6 0h1m-7 1h1m4 0h1m-5 1h4"/><path stroke="rgba(251,192,129,0.8705882352941177)" d="M12 3h1m1 2h1M1 6h1m12 1h1M1 8h1m12 1h1M1 10h1m11 1h1M3 12h1m7 1h1m-7 1h1m1 0h1m1 0h1"/><path stroke="#2e5899" d="M8 4h1M7 5h1M5 8h1m4 0h1"/><path stroke="#4470b3" d="M8 5h1M7 6h1M6 7h1m2 0h1M5 9h1m4 0h1m-6 1h1m4 0h1m-5 1h1m2 0h1"/><path stroke="#699ae3" d="M8 6h1M7 7h1M6 8h1m2 0h1m-4 2h1m2 0h1m-3 1h2"/><path stroke="#a4c5f5" d="M8 7h1M7 8h2M6 9h3m-2 1h1"/><path stroke="#dceaff" d="M9 9h1m-2 1h1"/></svg>