<svg xmlns="http://www.w3.org/2000/svg" shape-rendering="crispEdges" viewBox="0 -0.5 16 16"><path stroke="#bf43bf" d="M12 0h2m-3 1h1m2 0h1m-1 1h1m-3 1h2M6 4h2m5 2h2m-3 1h1m2 0h1M7 8h2m6 0h1m-3 1h2m-9 2h2m4 1h2m0 1h1m-4 1h1m2 0h1m-3 1h2"/><path stroke="#fff" d="M12 1h2m-2 1h2m-1 5h2m-2 1h2m-3 5h2m-2 1h2"/><path stroke="#ffd0ff" d="M10 2h2m-1 6h2m-3 5h2"/><path stroke="#df7bdf" d="M8 3h2M9 7h2m-3 5h2"/><path stroke="#ae1eae" d="M4 5h2M5 7h2m-3 3h2"/><path stroke="#821282" d="M2 6h2M3 8h2M2 9h2"/></svg>