<svg xmlns="http://www.w3.org/2000/svg" shape-rendering="crispEdges" viewBox="0 -0.5 16 16"><path stroke="rgba(34,172,89,0.2901960784313726)" d="M2 1h1m10 0h1M1 2h1m12 0h1M1 13h1m12 0h1M2 14h1m10 0h1"/><path stroke="rgba(103,210,118,0.6666666666666666)" d="M3 1h1m1 0h1m1 0h6M1 3h1M1 4h1m12 0h1M6 14h4"/><path stroke="rgba(33,172,87,0.6627450980392157)" d="M4 1h1m1 0h1m0 3h2M1 5h1M1 6h1m9 1h1m2 0h1m-4 1h1m2 0h1M1 9h1m9 0h1m2 0h1M1 10h1m-1 1h1m12 0h1m-1 1h1M3 14h3m4 0h1"/><path stroke="#6ab064" d="M2 2h1m10 0h1M2 13h1m10 0h1"/><path stroke="#90e688" d="M3 2h2m4 0h1m1 0h2M2 3h1m1 0h2m5 0h1m1 0h1M3 4h1M3 5h1m8 0h1M2 6h1m10 3h1M3 10h1m-2 1h1m9 0h1M2 12h2m6 0h2m1 0h1m-8 1h1m5 0h1"/><path stroke="#d3fbd0" d="M5 2h4m1 0h1M3 3h1m2 0h5m1 0h1M2 4h1m9 0h2M2 5h1m10 0h1M3 6h1m8 0h2M2 7h2m8 0h2M2 8h2m8 0h2M2 9h2m8 0h1M2 10h1m9 0h2M3 11h1m9 0h1M4 12h6m2 0h1M3 13h3m1 0h5"/><path stroke="#31bf59" d="M14 3h1"/><path stroke="rgba(144,231,137,0.6705882352941176)" d="M4 4h1m6 0h1m-8 7h1m6 0h1"/><path stroke="rgba(145,231,138,0.42745098039215684)" d="M5 4h2m2 0h2M4 5h1m6 0h1m2 0h1M4 6h1m6 0h1m2 0h1M1 7h1m2 0h1M1 8h1m2 0h1M4 9h1m-1 1h1m6 0h1m2 0h1M5 11h6M1 12h1"/><path stroke="rgba(24,148,74,0.12156862745098039)" d="M0 11h1"/><path stroke="rgba(75,195,106,0.6666666666666666)" d="M11 14h2"/></svg>