<svg xmlns="http://www.w3.org/2000/svg" shape-rendering="crispEdges" viewBox="0 -0.5 16 16"><path stroke="rgba(24,148,74,0.12156862745098039)" d="M6 0h1m2 0h1M6 1h1m2 0h1M6 14h1m2 0h1m-4 1h1m2 0h1"/><path stroke="#20ac57" d="M7 0h2M7 1h1M7 14h1m-1 1h2"/><path stroke="#3dcc5a" d="M8 1h1M7 2h1M7 13h1m0 1h1"/><path stroke="rgba(33,173,88,0.4196078431372549)" d="M6 2h1m2 0h1M6 3h1m2 0h1M6 4h1m2 0h1m-4 7h1m2 0h1m-4 1h1m2 0h1m-4 1h1m2 0h1"/><path stroke="#90e688" d="M8 2h1M7 3h1M7 4h2M7 6h1m-1 4h1m0 1h1m-2 1h1m0 1h1"/><path stroke="#d3fbd0" d="M8 3h1M7 5h2M8 6h1M7 7h2M7 8h2M7 9h2m-1 1h1m-2 1h1m0 1h1"/><path stroke="rgba(145,231,138,0.42745098039215684)" d="M6 5h1m2 0h1M6 6h1m2 0h1M6 7h1m2 0h1M6 8h1m2 0h1M6 9h1m2 0h1m-4 1h1m2 0h1"/></svg>