<svg xmlns="http://www.w3.org/2000/svg" shape-rendering="crispEdges" viewBox="0 -0.5 16 16"><path stroke="rgba(24,148,74,0.12156862745098039)" d="M0 6h2m12 0h2M0 9h2m12 0h2"/><path stroke="rgba(33,173,88,0.4196078431372549)" d="M2 6h3m6 0h3M2 9h3m6 0h3"/><path stroke="rgba(145,231,138,0.42745098039215684)" d="M5 6h6M5 9h6"/><path stroke="#20ac57" d="M0 7h1m14 0h1M0 8h2m12 0h2"/><path stroke="#3dcc5a" d="M1 7h1m12 0h1M2 8h1m10 0h1"/><path stroke="#90e688" d="M2 7h1m1 0h1m6 0h1m1 0h1M3 8h2m1 0h1m3 0h1m1 0h1"/><path stroke="#d3fbd0" d="M3 7h1m1 0h6m1 0h1M5 8h1m1 0h3m1 0h1"/></svg>