<svg xmlns="http://www.w3.org/2000/svg" shape-rendering="crispEdges" viewBox="0 -0.5 16 16"><path stroke="#152142" d="M5 0h6M3 1h2m6 0h2M2 2h1m10 0h1M1 3h1m12 0h1M1 4h1m12 0h1M0 5h1m14 0h1M0 6h1m14 0h1M0 7h1m14 0h1M0 8h1m14 0h1M0 9h1m14 0h1M0 10h1m14 0h1M1 11h1m12 0h1M1 12h1m12 0h1M2 13h1m10 0h1M3 14h2m6 0h2m-8 1h6"/><path stroke="#3c2f6f" d="M5 1h1m4 0h1M1 5h1m12 0h1M1 10h1m12 0h1M5 14h1m4 0h1"/><path stroke="#4f3c6f" d="M6 1h4M3 2h2m1 0h7M2 3h9m1 0h2M2 4h8m3 0h1M2 5h9m1 0h2M1 6h2m1 0h3m1 0h5m1 0h1M1 7h14M1 8h14M1 9h9m1 0h4M2 10h12M2 11h2m1 0h9M2 12h1m3 0h8M3 13h1m1 0h4m1 0h3m-7 1h4"/><path stroke="#7f67a4" d="M5 2h1m5 1h1m-2 1h1m1 0h1m-2 1h1M7 6h1m5 0h1M4 11h1m-2 1h1m1 0h1m-2 1h1m4 0h1"/><path stroke="#fff" d="M11 4h1m-8 8h1"/><path stroke="#ccaddd" d="M3 6h1m6 3h1"/></svg>