<svg xmlns="http://www.w3.org/2000/svg" shape-rendering="crispEdges" viewBox="0 -0.5 16 16"><path stroke="rgba(77,99,155,0.37254901960784315)" d="M2 2h1m2 0h1M1 3h1m2 0h1m-4 9h1m2 0h1m-3 1h1m2 0h1"/><path stroke="#152142" d="M8 2h2M6 3h2m2 0h2M5 4h1m6 0h1M4 5h1m8 0h1M4 6h1m8 0h1M3 7h1m10 0h1M3 8h1m10 0h1M4 9h1m8 0h1M4 10h1m8 0h1m-9 1h1m6 0h1m-7 1h2m2 0h2m-4 1h2"/><path stroke="#4f3c6f" d="M8 3h2M6 4h6M5 5h2m1 0h5M5 6h1m3 0h4M4 7h3m1 0h4m1 0h1M4 8h10M5 9h1m1 0h3m1 0h2m-8 1h4m3 0h1m-7 1h4m1 0h1m-4 1h2"/><path stroke="rgba(76,97,155,0.615686274509804)" d="M3 4h1M2 5h1M2 6h1M2 9h1m-1 1h1m0 1h1"/><path stroke="#7f67a4" d="M7 5h1M6 6h1m1 0h1M7 7h1M6 9h1m3 0h1m-2 1h1m1 0h1m-2 1h1"/><path stroke="#fff" d="M7 6h1m2 4h1"/><path stroke="rgba(76,97,156,0.7294117647058823)" d="M1 7h1M1 8h1"/><path stroke="#997bc6" d="M12 7h1"/></svg>