<svg xmlns="http://www.w3.org/2000/svg" shape-rendering="crispEdges" viewBox="0 -0.5 16 16"><path stroke="#425c9a" d="M1 0h1m1 0h1m1 0h2m1 0h1m1 0h4M0 1h1m4 0h1m5 0h1m2 0h1M1 2h1m2 0h3m3 0h1M2 3h3m2 0h3m2 0h1m1 0h1M1 4h1m3 0h2m1 0h1m1 0h1M5 5h1m5 0h1m3 0h1M1 6h1m1 0h1m2 0h1m3 0h1M7 7h3M0 8h1m5 0h1m3 0h1m-5 2h1m1 0h1m1 0h1m-6 2h1m5 0h1"/><path stroke="#384475" d="M2 0h1m1 0h1m2 0h1m1 0h1M2 1h1m1 0h1m2 0h1m1 0h1m2 0h1m2 2h1M3 4h1m3 0h1m1 0h1M7 5h1m1 0h1M0 6h1m10 0h1m1 0h1M2 8h1m5 0h1M2 9h1m1 0h1m0 1h1m5 0h1m-5 2h1m-1 1h1m1 0h1"/><path stroke="#292a4d" d="M14 0h2M0 3h2m3 0h2m3 0h1m1 2h2M5 7h2m3 0h2M3 8h2m3 4h2"/><path stroke="#5a87c2" d="M1 1h1m1 0h1m2 0h1m1 0h1m1 0h1m2 0h1M2 2h1m4 0h1m1 0h1m4 0h1M2 4h1m1 0h1m9 0h1M1 5h1m4 0h1m1 0h1m1 0h1M5 6h1m1 0h1m1 0h1M1 7h1m5 1h1m1 0h1M6 9h1m3 0h1m-5 2h1m3 0h1"/><path stroke="#fff" d="M3 2h1m4 4h1m3 0h1m1 0h1m-3 1h1M1 9h1m1 0h1m1 0h1m-3 1h1m2 3h1m1 0h1m1 0h1m-3 1h1"/><path stroke="#e2ca82" d="M8 2h1m5 3h1M1 8h1m3 0h1m0 4h1m3 0h1"/><path stroke="#987a22" d="M11 2h1m1 0h1m-3 2h1m1 0h1M2 5h1m1 0h1M2 7h1m1 0h1m2 2h1m1 0h1m-3 2h1m1 0h1"/><path stroke="#d3ae3f" d="M12 2h1m-2 1h1m1 0h1m-2 1h1M3 5h1M2 6h1m1 0h1M3 7h1m4 2h1m-2 1h1m1 0h1m-2 1h1"/></svg>