<svg xmlns="http://www.w3.org/2000/svg" shape-rendering="crispEdges" viewBox="0 -0.5 16 16"><path stroke="#292a4d" d="M9 4h1m3 0h1M8 5h1m3 0h1M8 6h1m3 0h1M3 8h1M3 9h1m4 1h1m3 0h1m-5 1h1m3 0h1m-4 1h1m3 0h1"/><path stroke="#425c9a" d="M3 5h1m6 0h1m2 0h2M5 6h1m1 0h1m1 0h1m1 0h1m1 0h1m1 0h1M8 7h1m3 0h1M5 8h1m2 0h1m2 0h2m2 0h1M8 9h1m3 0h1m-8 1h1m1 0h1m1 0h1m1 0h1m1 0h1m1 0h1M3 11h1m6 0h1m2 0h2"/><path stroke="#384475" d="M5 5h1M2 7h2m6 0h2m2 0h2M7 8h1M2 9h1m7 0h2m2 0h2M5 11h1m3 0h1"/><path stroke="#5a87c2" d="M9 5h1M4 6h1m1 0h1m3 0h1m3 0h1M7 7h1m1 0h1m3 0h1m-4 1h1m3 0h1M7 9h1m1 0h1m3 0h1M4 10h1m1 0h1m3 0h1m3 0h1"/><path stroke="#fff" d="M2 6h1M1 8h2m6 0h1m3 0h1M2 10h1"/><path stroke="#e2ca82" d="M3 6h1m-1 4h1"/><path stroke="#987a22" d="M4 7h1m1 0h1M4 9h1m1 0h1"/><path stroke="#d3ae3f" d="M5 7h1M4 8h1m1 0h1M5 9h1"/></svg>