<svg xmlns="http://www.w3.org/2000/svg" shape-rendering="crispEdges" viewBox="0 -0.5 16 16"><path stroke="#bf7bc7" d="M6 0h4M5 1h1m4 0h1M4 2h1m2 0h2m2 0h1M3 3h1m1 0h1m4 0h1m1 0h1M1 4h2m10 0h2M3 5h1m2 0h4m2 0h1M3 6h1m8 0h1M3 7h1m8 0h1M4 8h1m6 0h1M4 9h1m6 0h1m-7 1h1m4 0h1m-6 1h1m4 0h1m-9 1h3m6 0h3M1 13h1m12 0h1M0 14h1m14 0h1M0 15h16"/><path stroke="#50374b" d="M6 1h4M5 2h1m4 0h1M4 6h1m6 0h1M5 7h6M5 8h6M6 9h4m-4 2h1m2 0h1m-4 1h4m-7 1h10M2 14h12"/><path stroke="#8b378f" d="M6 2h1m2 0h1M4 3h1m6 0h1M4 5h2m4 0h2M6 6h4"/><path stroke="#fbdbff" d="M6 3h1m2 0h1M3 4h2m6 0h2"/><path stroke="#fffffe" d="M7 3h2M5 4h6"/><path stroke="#55214a" d="M5 6h1m4 0h1"/><path stroke="#392736" d="M4 7h1m6 0h1M5 9h1m4 0h1m-5 1h4m-3 1h2m-4 1h1m4 0h1m-9 1h1m10 0h1M1 14h1m12 0h1"/></svg>