<svg xmlns="http://www.w3.org/2000/svg" shape-rendering="crispEdges" viewBox="0 -0.5 16 16"><path stroke="#fff" d="M7 1h2M3 2h2m1 0h1m2 0h1m1 0h2M2 3h1m3 0h1m2 0h1m3 0h1M1 4h1m5 0h2m5 0h1M1 5h1m2 0h1m6 0h1m2 0h1M1 6h1m1 0h1m2 0h1m2 0h1m2 0h1m1 0h1M3 7h1m2 0h1m2 0h1m2 0h1M3 8h1m2 0h1m2 0h1m2 0h1M3 9h1m2 0h1m2 0h1m2 0h1m-7 1h1m2 0h1m-4 1h1m2 0h1m-5 1h1m4 0h1m-8 1h2m6 0h2"/><path stroke="#222542" d="M7 2h2M3 3h2m6 0h2M2 4h1m3 0h1m2 0h1m3 0h1M7 5h2M4 6h1m6 0h1M1 7h1m12 0h1M3 10h1m8 0h1m-7 2h1m2 0h1m-5 1h1m4 0h1m-8 1h2m6 0h2"/></svg>