<svg xmlns="http://www.w3.org/2000/svg" shape-rendering="crispEdges" viewBox="0 -0.5 16 16"><path stroke="#fff" d="M6 1h4M5 2h1m4 0h1M4 3h1m6 0h1M3 4h1m4 0h1m3 0h1M2 5h1m5 0h1m4 0h1M1 6h1m6 0h1m5 0h1M1 7h1m6 0h4m2 0h1M1 8h1m5 0h1m6 0h1M1 9h1m4 0h1m7 0h1M2 10h1m2 0h1m7 0h1M3 11h1m8 0h1m-9 1h1m6 0h1m-7 1h1m4 0h1m-5 1h4"/><path stroke="#222542" d="M6 2h4M5 3h1m4 0h1M4 4h1m6 0h1M3 5h1m8 0h1M2 6h1m10 0h1M8 8h4M7 9h1m-7 1h1m4 0h1m7 0h1M2 11h1m2 0h1m7 0h1M3 12h1m8 0h1m-9 1h1m6 0h1m-7 1h1m4 0h1m-5 1h4"/></svg>