<svg xmlns="http://www.w3.org/2000/svg" shape-rendering="crispEdges" viewBox="0 -0.5 16 16"><path stroke="#dd5959" d="M1 1h1m12 0h1M2 2h1m10 0h1M3 3h1m8 0h1m-2 8h1m-9 1h1m8 0h1M2 13h1m10 0h1M1 14h1m12 0h1"/><path stroke="#50201e" d="M2 1h1m10 0h1M1 2h1m1 0h1m8 0h1m1 0h1M2 3h1m1 0h1m6 0h1m1 0h1M3 4h1m8 0h1M6 5h1m2 0h1M4 6h2m1 0h2m0 1h1M9 8h1M5 9h1m1 0h1m3 1h1m-9 1h1m8 0h1M2 12h1m1 0h1m6 0h1m1 0h1M1 13h1m1 0h1m8 0h1m1 0h1M2 14h1m10 0h1"/><path stroke="#c84141" d="M4 4h1m6 0h1M5 5h1m4 0h1M6 6h1m2 0h1M7 7h2M7 8h2M6 9h1m2 0h1m-5 1h1m4 0h1m-7 1h1"/><path stroke="#903c37" d="M5 4h1m1 0h2m1 0h1M4 5h1m2 0h2m2 0h1m-2 1h2M3 7h4m3 0h2M3 8h4m3 0h2M3 9h2m3 0h1m1 0h2m-9 1h2m1 0h4m-5 1h6m-6 1h6"/></svg>