<svg xmlns="http://www.w3.org/2000/svg" shape-rendering="crispEdges" viewBox="0 -0.5 16 16"><path stroke="#f9d470" d="M3 1h10M3 2h1m7 0h1m-1 1h1m-2 1h1M9 5h2M8 6h2M8 7h2M7 8h2M7 9h2m-3 1h2m-2 1h1m-2 1h1m-1 1h1m7 0h1M4 14h10"/><path stroke="rgba(249,212,112,0.7843137254901961)" d="M13 1h1m-2 1h1M3 3h1m6 0h1M9 4h1m1 0h1m-7 7h1m1 0h1m-2 1h1m6 0h1M4 13h1m-2 1h1"/><path stroke="rgba(249,213,114,0.3411764705882353)" d="M4 2h1m5 0h1m1 1h1M8 5h1M7 7h1m1 1h1m-2 2h1m-5 2h1m1 1h1m5 0h1"/><path stroke="rgba(250,213,112,0.43529411764705883)" d="M10 6h1M6 9h1"/></svg>