<svg xmlns="http://www.w3.org/2000/svg" shape-rendering="crispEdges" viewBox="0 -0.5 24 11">
    <path stroke="#96997a" d="M3 1h3M2 2h1M1 3h1m12 0h8m-5 2h5m-8 2h8"/>
    <path stroke="#7f816a" d="M6 1h2M3 2h1M2 3h1m9 0h2m-1 2h4"/>
    <path stroke="#696a59" d="M4 2h3M3 3h1M2 4h1m8 1h2m-2 2h3"/>
    <path stroke="#5d5e4f" d="M7 2h1m3 1h1M1 4h1m9 0h11M10 5h1m-1 1h12M10 7h1"/>
    <path stroke="#747169" d="M8 2h3M8 3h2M7 4h1M1 5h2m1 0h1m1 0h1"/>
    <path stroke="#66635d" d="M10 3h1M8 4h1m1 0h1M8 5h2M1 6h2m1 0h1m1 0h1m1 0h2M2 7h1m1 0h1m1 0h1m1 0h1M3 8h5"/>
    <path stroke="#54524e" d="M9 4h1M3 5h1m1 0h1m1 0h1M1 7h1m7 0h1M2 8h1m5 0h3M3 9h6"/>
    <path stroke="#44423f" d="M3 6h1m1 0h1m1 0h1M3 7h1m1 0h1m1 0h1"/>
</svg>
