<svg xmlns="http://www.w3.org/2000/svg" shape-rendering="crispEdges" viewBox="0 -0.5 19 11">
    <path stroke="#3a7935" d="M14 3h1m-2 1h1M2 5h2m1 0h2m1 0h2m1 0h2m0 1h1m0 1h1"/>
    <path stroke="#4ea448" d="M15 3h1M4 4h1m5 0h1m2 1h1M7 6h1m4 0h1m2 1h1"/>
    <path stroke="#2b5929" d="M1 4h1M1 6h1"/>
    <path stroke="#7d2d05" d="M14 4h1m-1 2h1"/>
    <path stroke="#ffc2ba" d="M15 4h1m-2 1h1m1 0h1m-2 1h1"/>
    <path stroke="#ff5a09" d="M16 4h1m0 1h1m-2 1h1"/>
    <path stroke="#3f8c3d" d="M1 5h1"/>
    <path stroke="#2c5d29" d="M4 5h1m2 0h1m2 0h1"/>
    <path stroke="#ffe8e5" d="M15 5h1"/>
</svg>
