<svg xmlns="http://www.w3.org/2000/svg" shape-rendering="crispEdges" viewBox="0 -0.5 25 11">
    <path stroke="#625b41" d="M14 1h1m-4 2h1m1 0h1m1 0h1m1 0h1m2 0h1M5 4h1m4 0h1m7 0h1M7 5h2m7 0h1M5 6h1m4 0h1m7 0h1m-8 1h1m1 0h1m1 0h1m1 0h1m2 0h1m-7 2h1"/>
    <path stroke="#877851" d="M20 1h1m-3 1h1m-7 1h1m1 0h1m1 0h1m4 0h1M2 4h1m8 0h1M3 5h2m1 0h1m2 0h1m1 0h1m3 0h1m1 0h1m1 0h1m1 0h1m1 0h1M2 6h1m8 0h1m0 1h1m1 0h1m1 0h1m4 0h1m-4 1h1m1 1h1"/>
    <path stroke="#ad9a68" d="M21 1h1m0 2h1M1 5h1m16 0h1m3 2h1m-2 2h1"/>
    <path stroke="#3d3d31" d="M12 2h2m5 0h1M1 4h1m1 0h1m3 0h1m1 0h1m5 0h3m1 0h1M5 5h1m4 0h1m9 0h1m1 0h1M1 6h1m1 0h1m3 0h1m1 0h1m5 0h3m1 0h1m-8 2h2m5 0h1"/>
    <path stroke="#f7924f" d="M12 4h1"/>
    <path stroke="#c44f00" d="M13 4h1M2 5h1m9 0h2m0 1h1"/>
    <path stroke="#8c3800" d="M14 4h1m-3 2h1"/>
    <path stroke="#cc6d2d" d="M14 5h1m-2 1h1"/>
</svg>
