<svg xmlns="http://www.w3.org/2000/svg" shape-rendering="crispEdges" viewBox="0 -0.5 22 17">
    <path stroke="#fffffe" d="M11 1h1m1 2h1M7 7h1M6 8h3m11 0h1M7 9h1m5 4h1"/>
    <path stroke="#f07540" d="M10 2h1m1 0h1M9 4h1m3 0h1M9 5h1m3 0h1m-3 2h1M1 8h1m1 0h1m6 0h1m2 0h1m2 0h1m1 0h2m-9 1h1m-3 2h1m3 0h1m-5 1h1m3 0h1m-4 2h1m1 0h1"/>
    <path stroke="#d8f577" d="M9 3h1M6 7h1M5 8h1m0 1h1m2 4h1m1 2h1"/>
    <path stroke="#b92b0e" d="M7 6h1m2 0h1m1 0h1M5 7h1m2 0h1M2 8h1m1 0h1m4 0h1m1 0h2m1 0h2m1 0h1M5 9h1m2 0h1m-2 1h1m2 0h1m1 0h1"/>
</svg>
