<svg xmlns="http://www.w3.org/2000/svg" shape-rendering="crispEdges" viewBox="0 -0.5 21 11">
    <path stroke="#f07540" d="M5 1h1m1 0h1M5 3h1m9 0h1m1 0h1m-4 1h1m3 0h1M1 5h1m1 0h1m6 0h4m0 1h1m3 0h1m-4 1h1m1 0h1M5 8h1m1 0h1"/>
    <path stroke="#fffffe" d="M6 1h1m2 2h1M7 4h1m4 0h1M6 5h3m10 0h1M7 6h1"/>
    <path stroke="#b92b0e" d="M5 2h1m1 0h1M7 3h1m8 0h1M5 4h1m2 0h1M2 5h1m1 0h1m4 0h1m4 0h1m3 0h1M5 6h1m2 0h1M5 7h1m1 0h1m8 0h1M5 9h1m1 0h1"/>
    <path stroke="#d8f577" d="M6 4h1M5 5h1m0 1h1m5 0h1M9 7h1M6 9h1"/>
</svg>
