<svg xmlns="http://www.w3.org/2000/svg" shape-rendering="crispEdges" viewBox="0 -0.5 19 15">
    <path stroke="#fffffe" d="M5 1h1"/>
    <path stroke="#2b5397" d="M5 2h1m0 1h1m0 2h1m6 0h1m1 0h1m-5 1h1M2 7h1m1 0h1m2 0h1m1 0h1m2 1h1M7 9h1m6 0h1m1 0h1M6 11h1m-2 1h1"/>
    <path stroke="#5787e7" d="M7 4h1m7 0h1m-3 1h1M3 6h1m1 0h2M1 7h1m4 0h1m1 0h1m1 0h3M3 8h1m1 0h2m6 1h1m-7 1h1m7 0h1"/>
    <path stroke="#fff" d="M17 5h1"/>
    <path stroke="#f6bbe8" d="M17 9h1"/>
    <path stroke="#d8f577" d="M5 13h1"/>
</svg>
