<svg xmlns="http://www.w3.org/2000/svg" shape-rendering="crispEdges" viewBox="0 -0.5 20 15">
    <path stroke="#fffffe" d="M9 1h1m2 1h1M5 5h1m5 0h1M6 6h1m11 0h1M5 7h3M6 8h1m5 4h1"/>
    <path stroke="#d8f577" d="M6 2h1M5 6h1M4 7h1m0 1h1m12 0h1M5 9h1m5 0h1m-6 3h1m2 1h1"/>
    <path stroke="#b66615" d="M9 2h1M6 3h1m5 0h1M7 4h1m3 0h1M6 5h1M4 6h1m2 0h1m1 0h1m7 0h1M2 7h1m5 0h2m1 0h1m2 0h1m1 0h1M4 8h1m2 0h1m1 0h1m7 0h1M6 9h1m0 1h1m3 0h1m-6 1h1m5 0h1m-4 1h1"/>
    <path stroke="#f39f27" d="M8 3h1m1 0h1M8 5h1m1 0h1M3 6h1m7 0h1m1 0h1M1 7h1m8 0h1m1 0h1m2 0h1M3 8h1m7 0h1m1 0h1M8 9h1m1 0h1m-3 2h1m1 0h1"/>
</svg>
