<svg xmlns="http://www.w3.org/2000/svg" shape-rendering="crispEdges" viewBox="0 -0.5 19 17">
    <path stroke="#fffffe" d="M8 1h1m1 2h1m-1 10h1"/>
    <path stroke="#d16060" d="M7 2h1m1 0h1M6 4h1m3 0h1M6 5h1m3 0h1m4 0h1m-3 1h1M3 7h1m1 0h1m2 0h1M1 8h1m4 0h1m1 0h1m1 0h3M3 9h1m1 0h1m2 0h1m4 1h1m-8 1h1m3 0h1m4 0h1M6 12h1m3 0h1m-4 2h1m1 0h1"/>
    <path stroke="#8ec4f4" d="M6 3h1M6 13h1m1 2h1"/>
    <path stroke="#ab3131" d="M7 6h1m1 0h1m4 0h1m1 0h1m-5 1h1M2 8h1m1 0h1m2 0h1m1 0h1m2 1h1m-6 1h1m1 0h1m4 0h1m1 0h1"/>
    <path stroke="#fff" d="M17 6h1"/>
    <path stroke="#bee75f" d="M17 10h1"/>
</svg>
