<svg xmlns="http://www.w3.org/2000/svg" shape-rendering="crispEdges" viewBox="0 -0.5 21 11">
    <path stroke="#f39f27" d="M4 1h1m1 0h1m8 1h1M4 3h1m1 0h1m5 0h2m2 0h1M7 4h1m2 0h1m2 0h1M1 5h1m1 0h1m2 0h1m5 0h1m1 0h1m1 0h1m1 0h1M4 6h1m1 0h2m2 0h1m2 0h1m-2 1h2m2 0h1M4 8h1m1 0h1m8 0h1"/>
    <path stroke="#fffffe" d="M5 1h1m11 2h1m1 2h1m-3 2h1"/>
    <path stroke="#b66615" d="M4 2h1m1 0h1m7 1h1M4 4h1m1 0h1m1 0h2M2 5h1m1 0h2m5 0h1m1 0h1m1 0h1m1 0h1M8 6h2M4 7h1m1 0h1m7 0h1M4 9h1m1 0h1"/>
    <path stroke="#8ec4f4" d="M5 9h1"/>
</svg>
