<svg xmlns="http://www.w3.org/2000/svg" shape-rendering="crispEdges" viewBox="0 -0.5 24 11">
    <path stroke="#f39f27" d="M11 1h1m1 0h1m0 1h1m-4 1h1m1 0h1m1 0h1m-4 1h1m3 0h1m1 0h1M1 5h1m1 0h1m6 0h2m7 0h1m-9 1h3m2 0h1m1 0h1m-4 1h1m-5 1h1m1 0h2"/>
    <path stroke="#fffffe" d="M12 1h1M7 4h1m14 0h1M6 5h3m5 0h1M7 6h1"/>
    <path stroke="#b66615" d="M11 2h1m1 0h1M7 3h1M5 4h1m2 0h1m2 0h1m1 0h1m7 0h1M2 5h1m1 0h1m4 0h1m2 0h1m4 0h1m2 0h1M5 6h1m2 0h1m12 0h1M7 7h1m3 0h1m1 0h1m-3 2h1m1 0h1"/>
    <path stroke="#8ec4f4" d="M6 4h1M5 5h1m0 1h1m15 0h1M12 9h1"/>
</svg>
