<svg xmlns="http://www.w3.org/2000/svg" shape-rendering="crispEdges" viewBox="0 -0.5 21 17">
    <path stroke="#faddf3" d="M7 1h1m1 2h1M7 7h1M6 8h3M7 9h1m1 4h1"/>
    <path stroke="#5787e7" d="M6 2h1m1 0h1M5 4h1m3 0h1M5 5h1m3 0h1m7 0h1M4 6h1m10 0h1M9 7h3M1 8h1m1 0h1m8 0h3M9 9h3m-8 1h1m10 0h1M5 11h1m3 0h1m7 0h1M5 12h1m3 0h1m-4 2h1m1 0h1"/>
    <path stroke="#f6bbe8" d="M5 3h1m0 4h1M5 8h1m0 1h1m-2 4h1m1 2h1"/>
    <path stroke="#2b5397" d="M6 6h3m7 0h1m1 0h1M5 7h1m2 0h1m5 0h1M2 8h1m1 0h1m4 0h1m1 0h1M5 9h1m2 0h1m5 0h1m-9 1h3m7 0h1m1 0h1"/>
    <path stroke="#fff" d="M19 6h1"/>
    <path stroke="#bee75f" d="M19 10h1"/>
</svg>
