<svg xmlns="http://www.w3.org/2000/svg" shape-rendering="crispEdges" viewBox="0 -0.5 29 9">
    <path stroke="#d16060" d="M7 1h1m15 0h1M6 2h1m1 0h1m11 0h2m2 0h1M3 3h1m5 0h1m2 0h2m1 0h2m4 0h1M1 4h1m3 0h1m1 0h1m1 0h1m1 0h1m2 0h1m2 0h1m2 0h1m1 0h1m1 0h1m1 0h1M3 5h1m5 0h1m2 0h2m1 0h2m4 0h1M6 6h1m1 0h1m11 0h2m2 0h1M7 7h1m15 0h1"/>
    <path stroke="#ab3131" d="M22 2h1M5 3h1m12 0h1M2 4h1m1 0h1m1 0h1m1 0h1m3 0h2m1 0h2m2 0h1m1 0h1m1 0h1m1 0h1M5 5h1m12 0h1m3 1h1"/>
    <path stroke="#faddf3" d="M25 2h1M10 4h1m16 0h1m-3 2h1"/>
</svg>
