<svg xmlns="http://www.w3.org/2000/svg" shape-rendering="crispEdges" viewBox="0 -0.5 23 9">
    <path stroke="#7fb717" d="M17 1h1m-4 1h2m2 0h1m-8 1h1m3 0h1M1 4h1m1 0h1m1 0h1m6 0h1m1 0h1m1 0h1m1 0h1m1 0h1M11 5h1m3 0h1m-2 1h2m2 0h1m-2 1h1"/>
    <path stroke="#2f711a" d="M9 2h1m6 0h1M7 3h1m2 0h1M2 4h1m1 0h1m1 0h1m4 0h1m1 0h1m1 0h1m1 0h1m1 0h1M7 5h1m2 0h1M9 6h1m6 0h1"/>
    <path stroke="#fffffe" d="M19 2h1M9 3h1M8 4h3m10 0h1M9 5h1m9 1h1"/>
    <path stroke="#fac7a6" d="M8 3h1M7 4h1m0 1h1"/>
</svg>
