<svg xmlns="http://www.w3.org/2000/svg" shape-rendering="crispEdges" viewBox="0 -0.5 19 9">
    <path stroke="#b346b3" d="M15 1h1m-3 1h1M8 3h1M1 4h1m1 0h1m6 0h3M8 5h1m4 1h1m1 1h1"/>
    <path stroke="#612661" d="M6 2h1m7 0h1m1 0h1M4 3h1m2 0h1m4 0h1M2 4h1m5 0h2M4 5h1m2 0h1m4 0h1M6 6h1m7 0h1m1 0h1"/>
    <path stroke="#fae294" d="M9 2h1M6 3h1M5 4h3M6 5h1"/>
    <path stroke="#fff" d="M17 2h1"/>
    <path stroke="#f7af5c" d="M5 3h1M4 4h1m0 1h1m3 1h1"/>
    <path stroke="#f6bbe8" d="M17 6h1"/>
</svg>
