<svg xmlns="http://www.w3.org/2000/svg" shape-rendering="crispEdges" viewBox="0 -0.5 25 13">
    <path stroke="#7fb717" d="M8 1h1M8 2h1M8 3h1m12 0h1M4 4h1m14 0h1M8 5h1m5 0h1M1 6h1m1 0h1m1 0h1m1 0h1m4 0h1m3 0h3M8 7h1m1 0h1M4 8h1m14 0h1M8 9h1m12 0h1M8 10h1m-1 1h1"/>
    <path stroke="#d8f577" d="M3 4h1"/>
    <path stroke="#2f711a" d="M8 4h1m11 0h1m1 0h1M5 5h1m9 0h1m2 0h1M2 6h1m1 0h1m1 0h1m1 0h2m3 0h1M5 7h1m5 0h1m6 0h1M8 8h1m11 0h1m1 0h1"/>
    <path stroke="#fff" d="M23 4h1"/>
    <path stroke="#a1d920" d="M3 8h1"/>
    <path stroke="#bee75f" d="M23 8h1"/>
</svg>
