<svg xmlns="http://www.w3.org/2000/svg" shape-rendering="crispEdges" viewBox="0 -0.5 19 15">
    <path stroke="#b346b3" d="M4 1h1m1 0h1M3 2h1m3 0h1M4 3h1m1 0h1m6 2h1m1 0h1m-4 1h1m3 0h1M1 7h1m2 0h1m5 0h2m0 1h1m3 0h1m-4 1h1m1 0h1M4 11h1m1 0h1m-4 1h1m3 0h1m-4 1h1m1 0h1"/>
    <path stroke="#faddf3" d="M5 2h1m1 4h1m2 0h1M6 7h3m8 0h1M7 8h1"/>
    <path stroke="#612661" d="M4 4h1m1 0h1M5 5h1m1 0h1m6 0h1M5 6h1m2 0h1M2 7h2m5 0h1m2 0h1m3 0h1M5 8h1m2 0h1M5 9h1m1 0h1m6 0h1M4 10h1m1 0h1"/>
    <path stroke="#f6bbe8" d="M6 6h1M5 7h1m0 1h1m3 0h1m-6 4h1"/>
</svg>
