<svg xmlns="http://www.w3.org/2000/svg" shape-rendering="crispEdges" viewBox="0 -0.5 19 9">
    <path stroke="#b346b3" d="M3 1h1m11 0h1m-3 1h1M5 3h1M1 4h1m1 0h1m1 0h1m5 0h2M5 5h1m7 1h1M3 7h1m11 0h1"/>
    <path stroke="#fae294" d="M7 1h1m1 1h1M8 3h1M7 4h3M8 5h1"/>
    <path stroke="#612661" d="M4 2h1m1 0h1m1 0h1m5 0h1m1 0h1M6 3h1m2 0h1m2 0h1M2 4h1m1 0h1m5 0h1M6 5h1m2 0h1m2 0h1M4 6h1m1 0h1m1 0h1m5 0h1m1 0h1"/>
    <path stroke="#fff" d="M17 2h1"/>
    <path stroke="#f7af5c" d="M7 3h1M6 4h1m0 1h1m1 1h1M7 7h1"/>
    <path stroke="#fbef97" d="M17 6h1"/>
</svg>
