<svg xmlns="http://www.w3.org/2000/svg" shape-rendering="crispEdges" viewBox="0 -0.5 21 13">
    <path stroke="#2f711a" d="M9 1h1m5 0h1m-5 2h1m1 0h1m3 1h1M5 5h1m5 0h1m1 0h1m2 0h1M2 6h1m1 0h1m1 0h1m1 0h3m1 0h1m1 0h1m2 0h1M5 7h1m10 0h1m-6 1h1m1 0h1m3 0h1m-7 2h1m1 0h1m-5 1h1m5 0h1"/>
    <path stroke="#7fb717" d="M9 2h1m1 0h1m1 0h1m1 0h1m-6 1h1m3 0h1M4 4h1m6 0h1m1 0h1M8 5h1M1 6h1m1 0h1m1 0h1m1 0h1m7 0h2m1 0h1M8 7h1m2 0h1m1 0h1M4 8h1m5 1h2m1 0h2m-6 1h1m5 0h1"/>
    <path stroke="#a9e2f7" d="M12 2h1M3 4h1m6 0h1m3 0h1m3 0h1m0 2h1"/>
    <path stroke="#34baec" d="M3 8h1m6 0h1m3 0h1m3 0h1m-7 2h1"/>
</svg>
