<svg xmlns="http://www.w3.org/2000/svg" shape-rendering="crispEdges" viewBox="0 -0.5 27 15">
    <path stroke="#b346b3" d="M8 1h1m1 0h1M7 2h1m3 0h1M8 3h1m1 0h1m12 1h1M13 5h1m3 0h1m3 0h1M9 6h1m2 0h1m1 0h1m1 0h1m1 0h1M1 7h1m1 0h1m6 0h1m8 0h2M9 8h1m2 0h1m1 0h1m1 0h1m1 0h1m-6 1h1m3 0h1m3 0h1m1 1h1M8 11h1m1 0h1m-4 1h1m3 0h1m-4 1h1m1 0h1"/>
    <path stroke="#d8f577" d="M9 2h1M7 6h1M6 7h3M7 8h1"/>
    <path stroke="#612661" d="M8 4h1m1 0h1M7 5h1m1 0h1m12 0h1m1 0h1M5 6h1m2 0h1m11 0h1M2 7h1m1 0h1m4 0h1m1 0h1m1 0h1m1 0h1m1 0h1M5 8h1m2 0h1m11 0h1M7 9h1m1 0h1m12 0h1m1 0h1M8 10h1m1 0h1"/>
    <path stroke="#fff" d="M25 5h1"/>
    <path stroke="#a1d920" d="M6 6h1M5 7h1m0 1h1m2 4h1"/>
    <path stroke="#fbef97" d="M25 9h1"/>
</svg>
