<svg xmlns="http://www.w3.org/2000/svg" shape-rendering="crispEdges" viewBox="0 -0.5 26 9">
    <path stroke="#b346b3" d="M22 1h1m-3 1h1M10 3h1M1 4h1m7 0h3m2 0h1m2 0h3M10 5h1m9 1h1m1 1h1"/>
    <path stroke="#612661" d="M5 2h1m15 0h1m1 0h1M3 3h1m2 0h1m12 0h1M2 4h1m4 0h2m3 0h2m1 0h2M3 5h1m2 0h1m12 0h1M5 6h1m15 0h1m1 0h1"/>
    <path stroke="#fff" d="M24 2h1"/>
    <path stroke="#34baec" d="M4 3h1M3 4h1m0 1h1"/>
    <path stroke="#a9e2f7" d="M5 3h1M4 4h3M5 5h1"/>
    <path stroke="#fbef97" d="M24 6h1"/>
</svg>
