<svg xmlns="http://www.w3.org/2000/svg" shape-rendering="crispEdges" viewBox="0 -0.5 27 7">
    <path stroke="#2b5397" d="M9 1h1m12 0h1M7 2h1m2 0h2M2 3h1m1 0h1m1 0h1m4 0h2m1 0h1m5 0h1m3 0h1M7 4h1m2 0h2M9 5h1m12 0h1"/>
    <path stroke="#fffffe" d="M10 1h1m3 0h1M9 2h1m3 0h1m4 0h1M8 3h3m14 0h1M9 4h1m3 0h1"/>
    <path stroke="#5787e7" d="M11 1h1m9 0h1m1 0h1m-4 1h1m3 0h1M1 3h1m1 0h1m1 0h1m9 0h5m0 1h1m3 0h1M11 5h1m9 0h1m1 0h1"/>
    <path stroke="#fac7a6" d="M8 2h1M7 3h1m0 1h1m9 0h1m-9 1h1m3 0h1"/>
</svg>
