<svg xmlns="http://www.w3.org/2000/svg" shape-rendering="crispEdges" viewBox="0 -0.5 24 17">
    <path stroke="#faddf3" d="M10 1h1m1 2h1m1 5h1m7 0h1m-11 5h1"/>
    <path stroke="#4fb0b3" d="M9 2h1m1 0h1M8 4h1m3 0h1M7 5h2m3 0h1m1 0h1M6 6h1m6 0h1m1 0h1M6 7h1m2 0h2m1 0h1m3 0h1m1 0h1M1 8h1m2 0h1m1 0h3m1 0h2m8 0h2M6 9h1m2 0h2m1 0h1m3 0h1m1 0h1M6 10h1m6 0h1m1 0h1m-9 1h2m3 0h1m1 0h1m-7 1h1m3 0h1m-4 2h1m1 0h1"/>
    <path stroke="#f6bbe8" d="M8 3h1M8 13h1m1 2h1"/>
    <path stroke="#508383" d="M9 6h1m1 0h1M2 8h2m1 0h1m3 0h1m7 0h1m1 0h1M9 10h1m1 0h1"/>
</svg>
