<svg xmlns="http://www.w3.org/2000/svg" shape-rendering="crispEdges" viewBox="0 -0.5 21 15">
    <path stroke="#fffffe" d="M5 1h1m2 1h1m0 3h1m7 0h1M6 6h1M5 7h3m11 0h1M6 8h1m10 1h1M8 12h1"/>
    <path stroke="#f7d76b" d="M2 2h1m2 4h1M4 7h1m0 1h1m3 1h1m-8 3h1m2 1h1"/>
    <path stroke="#b66615" d="M5 2h1M2 3h1m5 0h1M3 4h1m3 0h1M6 5h1m7 0h1M4 6h1m2 0h1M2 7h1m5 0h2m1 0h1m1 0h1m1 0h1m1 0h1M4 8h1m2 0h1M6 9h1m7 0h1M3 10h1m3 0h1m-6 1h1m5 0h1m-4 1h1"/>
    <path stroke="#f39f27" d="M4 3h1m1 0h1m8 1h1M4 5h1m7 0h2m2 0h1M8 6h1m4 0h1M1 7h1m1 0h1m6 0h1m1 0h1m1 0h1m1 0h1m1 0h1M8 8h1m4 0h1M4 9h1m7 0h2m2 0h1m-2 1h1M4 11h1m1 0h1"/>
</svg>
