<svg xmlns="http://www.w3.org/2000/svg" shape-rendering="crispEdges" viewBox="0 -0.5 29 7">
    <path stroke="#2f711a" d="M5 1h1m18 0h1M3 2h1m2 0h2m1 0h2M2 3h1m4 0h1m3 0h1m1 0h1m1 0h1m1 0h1m4 0h1m3 0h1M3 4h1m2 0h2m1 0h2M5 5h1m18 0h1"/>
    <path stroke="#faddf3" d="M7 1h1M5 2h1m14 0h1M4 3h3m20 0h1M5 4h1"/>
    <path stroke="#7fb717" d="M9 1h1m3 0h1m3 0h1m5 0h1m1 0h1M12 2h1m1 0h1m1 0h1m1 0h1m3 0h1m3 0h1M1 3h1m6 0h1m1 0h1m8 0h3M12 4h1m1 0h1m1 0h1m1 0h1m3 0h1m3 0h1M9 5h1m3 0h1m3 0h1m5 0h1m1 0h1"/>
    <path stroke="#f6bbe8" d="M4 2h1M3 3h1m0 1h1m15 0h1M7 5h1"/>
</svg>
