<svg xmlns="http://www.w3.org/2000/svg" shape-rendering="crispEdges" viewBox="0 -0.5 27 17">
    <path stroke="#faddf3" d="M10 1h1m1 2h1M6 7h1M5 8h3M6 9h1m5 4h1"/>
    <path stroke="#5787e7" d="M9 2h1m1 0h1M8 4h1m3 0h1M7 5h2m3 0h1m10 0h1m-3 1h1M9 7h2m1 0h2m1 0h2M1 8h1m9 0h1m2 0h1m2 0h1m1 0h2M9 9h2m1 0h2m1 0h2m4 1h1M7 11h2m3 0h1m10 0h1M8 12h1m3 0h1m-4 2h1m1 0h1"/>
    <path stroke="#f6bbe8" d="M8 3h1M5 7h1M4 8h1m0 1h1m2 4h1m1 2h1"/>
    <path stroke="#2b5397" d="M6 6h1m2 0h1m1 0h1m10 0h1m1 0h1M4 7h1m2 0h1m10 0h1m1 0h1M2 8h2m4 0h3m1 0h2m1 0h2M4 9h1m2 0h1m10 0h1m1 0h1M6 10h1m2 0h1m1 0h1m10 0h1m1 0h1"/>
    <path stroke="#fff" d="M25 6h1"/>
    <path stroke="#bee75f" d="M25 10h1"/>
</svg>
