<svg xmlns="http://www.w3.org/2000/svg" shape-rendering="crispEdges" viewBox="0 -0.5 25 17">
    <path stroke="#fffffe" d="M7 1h1m1 2h1M5 6h1m10 1h1m6 1h1M9 13h1"/>
    <path stroke="#d16060" d="M6 2h1m1 0h1M5 4h1m3 0h1M5 5h1m3 0h1m9 1h1m1 0h1M3 7h1m1 0h1m1 0h1m2 0h3m5 0h1m3 0h1M1 8h1m2 0h1m10 0h3M3 9h1m1 0h1m1 0h4m1 0h3m3 0h1m3 0h1m-4 1h1m1 0h1M5 11h1m3 0h1m-5 1h1m3 0h1m-4 2h1m1 0h1"/>
    <path stroke="#8ec4f4" d="M5 3h1m10 6h1M5 10h1m-1 3h1m1 2h1"/>
    <path stroke="#ab3131" d="M6 6h1m1 0h1m11 0h1M2 8h1m3 0h1m1 0h1m1 0h1m1 0h1m1 0h1m3 0h1m3 0h1M6 10h1m1 0h1m11 0h1"/>
</svg>
