<svg xmlns="http://www.w3.org/2000/svg" shape-rendering="crispEdges" viewBox="0 -0.5 29 13">
    <path stroke="#b92b0e" d="M11 1h1M9 3h1m3 0h1M5 4h1m18 0h1M3 5h1m2 0h1m4 0h1M2 6h1m4 0h2m8 0h1m4 0h1m3 0h1M3 7h1m2 0h1m4 0h1M5 8h1m18 0h1M9 9h1m3 0h1m-3 2h1"/>
    <path stroke="#f07540" d="M10 2h1m1 0h1m1 1h1m-5 1h1m1 0h2m1 0h1m7 0h1m1 0h1M12 5h1m3 0h1m1 0h1m3 0h1m3 0h1M1 6h1m7 0h3m7 0h3M12 7h1m3 0h1m1 0h1m3 0h1m3 0h1M10 8h1m1 0h2m1 0h1m7 0h1m1 0h1M14 9h1m-5 1h1m1 0h1"/>
    <path stroke="#f7d76b" d="M4 5h1M3 6h1m0 1h1m15 0h1"/>
    <path stroke="#fffffe" d="M5 5h1m14 0h1M4 6h3m7 0h1m12 0h1M5 7h1"/>
</svg>
