<svg xmlns="http://www.w3.org/2000/svg" shape-rendering="crispEdges" viewBox="0 -0.5 23 13">
    <path stroke="#fffffe" d="M9 1h1m9 3h1m1 2h1m-3 2h1"/>
    <path stroke="#4fb0b3" d="M8 2h1m1 0h1m6 1h1M4 4h1m9 0h2m2 0h1M9 5h3m3 0h1M1 6h1m1 0h1m1 0h1m1 0h2m3 0h1m1 0h1m1 0h1m1 0h1m1 0h1M9 7h3m3 0h1M4 8h1m9 0h2m2 0h1m-2 1h1M8 10h1m1 0h1"/>
    <path stroke="#508383" d="M8 3h1m1 0h1M9 4h1m6 0h1M5 5h1M2 6h1m1 0h1m1 0h1m2 0h1m1 0h1m1 0h1m1 0h1m1 0h1m1 0h1M5 7h1m3 1h1m6 0h1M8 9h1m1 0h1"/>
    <path stroke="#d8f577" d="M9 11h1"/>
</svg>
