<svg xmlns="http://www.w3.org/2000/svg" shape-rendering="crispEdges" viewBox="0 -0.5 23 9">
    <path stroke="#f39f27" d="M7 1h1m6 0h1M6 2h1m4 0h1m1 0h1m1 0h1M3 3h1m8 0h1m3 0h1M1 4h1m3 0h1m5 0h1m7 0h2M3 5h1m8 0h1m3 0h1M6 6h1m4 0h1m1 0h1m1 0h1M7 7h1m6 0h1"/>
    <path stroke="#b66615" d="M8 2h1m10 0h1M5 3h2m2 0h2m7 0h1M2 4h1m1 0h1m5 0h1m6 0h1M5 5h2m2 0h2m7 0h1M8 6h1m10 0h1"/>
    <path stroke="#d8f577" d="M20 2h1M8 3h1M7 4h3m4 0h1m6 0h1M8 5h1"/>
    <path stroke="#a1d920" d="M7 3h1M6 4h1m0 1h1m12 1h1"/>
</svg>
