<svg xmlns="http://www.w3.org/2000/svg" shape-rendering="crispEdges" viewBox="0 -0.5 23 11">
    <path stroke="#5787e7" d="M11 1h2m1 0h1m-5 1h1m4 0h1m3 0h1m-8 1h1m1 0h1m2 0h1M3 4h1m1 0h1m1 0h1m2 0h3m2 0h1M1 5h1m2 0h1m10 0h2M3 6h1m1 0h1m1 0h4m1 0h4m-4 1h1m1 0h1m2 0h1m-8 1h1m4 0h1m3 0h1m-9 1h2m1 0h1"/>
    <path stroke="#d8f577" d="M13 1h1M5 3h1"/>
    <path stroke="#2b5397" d="M11 3h1m1 0h1m4 0h1m1 0h1m-5 1h1M2 5h1m3 0h1m1 0h1m1 0h1m1 0h1m1 0h1m1 1h1m-6 1h1m1 0h1m4 0h1m1 0h1"/>
    <path stroke="#fff" d="M21 3h1"/>
    <path stroke="#a1d920" d="M5 7h1m7 2h1"/>
    <path stroke="#fbef97" d="M21 7h1"/>
</svg>
