<svg xmlns="http://www.w3.org/2000/svg" shape-rendering="crispEdges" viewBox="0 -0.5 28 11">
    <path stroke="#f6bbe8" d="M12 1h1M5 7h1m1 0h1m1 0h1m2 2h1"/>
    <path stroke="#faddf3" d="M16 1h1M5 3h1m1 0h1m1 0h1m14 0h1m1 2h1m-3 2h1m-9 2h1"/>
    <path stroke="#7fb717" d="M12 2h1m3 0h1m5 0h1m-4 1h2m2 0h1M14 4h1m5 0h1M1 5h1m2 0h1m1 0h1m1 0h1m1 0h2m2 0h1m2 0h1m1 0h1m1 0h1m1 0h1m1 0h1M5 6h1m8 0h1m5 0h1m-2 1h2m2 0h1M12 8h1m3 0h1m5 0h1"/>
    <path stroke="#2f711a" d="M13 3h1m1 0h1m5 0h1M3 4h1m1 0h1m1 0h1m1 0h1M2 5h1m9 0h2m1 0h2m1 0h1m1 0h1m1 0h1m1 0h1M3 6h1m3 0h1m1 0h1m3 1h1m1 0h1m5 0h1"/>
</svg>
