<svg xmlns="http://www.w3.org/2000/svg" shape-rendering="crispEdges" viewBox="0 -0.5 27 9">
    <path stroke="#4fb0b3" d="M21 1h1m-9 1h1m1 0h1m2 0h2m2 0h1M11 3h1m1 0h1m2 0h1m2 0h1M1 4h1m1 0h1m1 0h1m1 0h1m7 0h2m1 0h1m1 0h1m1 0h1m1 0h1M11 5h1m1 0h1m2 0h1m2 0h1m-7 1h1m1 0h1m2 0h2m2 0h1m-2 1h1"/>
    <path stroke="#fffffe" d="M10 2h1m12 0h1m1 2h1m-3 2h1"/>
    <path stroke="#508383" d="M12 2h1m1 0h1m5 0h1M2 4h1m1 0h1m1 0h1m1 0h3m1 0h1m1 0h1m2 0h1m1 0h1m1 0h1m1 0h1M12 6h1m1 0h1m5 0h1"/>
    <path stroke="#fac7a6" d="M10 6h1"/>
</svg>
