<svg xmlns="http://www.w3.org/2000/svg" shape-rendering="crispEdges" viewBox="0 -0.5 28 7">
    <path stroke="#fae294" d="M5 1h1m1 0h1m1 0h1m9 1h1m6 1h1"/>
    <path stroke="#4fb0b3" d="M10 1h1m11 0h1m1 0h1m-4 1h1m3 0h1M1 3h1m2 0h1m1 0h1m1 0h1m1 0h2m2 0h1m2 0h4M5 4h1m15 0h1m3 0h1M10 5h1m11 0h1m1 0h1"/>
    <path stroke="#508383" d="M23 1h1M3 2h1m1 0h1m1 0h1m1 0h1m1 0h1M2 3h1m9 0h2m1 0h2m4 0h1m3 0h1M3 4h1m3 0h1m1 0h1m1 0h1m11 1h1"/>
    <path stroke="#f7af5c" d="M19 4h1M5 5h1m1 0h1m1 0h1"/>
</svg>
