<svg xmlns="http://www.w3.org/2000/svg" shape-rendering="crispEdges" viewBox="0 -0.5 23 9">
    <path stroke="#5787e7" d="M19 1h1m-3 1h1m-7 1h2M1 4h1m1 0h1m1 0h1m9 0h2m-5 1h3m2 1h1m1 1h1"/>
    <path stroke="#2b5397" d="M7 2h1m1 0h1m8 0h1m1 0h1M7 3h1m2 0h1m5 0h1M2 4h1m1 0h1m1 0h1m4 0h2m1 0h1M7 5h1m2 0h1m5 0h1M7 6h1m1 0h1m8 0h1m1 0h1"/>
    <path stroke="#fffffe" d="M8 2h1m0 1h1M8 4h3M9 5h1"/>
    <path stroke="#fff" d="M21 2h1"/>
    <path stroke="#d8f577" d="M8 3h1M7 4h1m0 1h1M8 6h1"/>
    <path stroke="#bee75f" d="M21 6h1"/>
</svg>
