<svg xmlns="http://www.w3.org/2000/svg" shape-rendering="crispEdges" viewBox="0 -0.5 29 9">
    <path stroke="#f39f27" d="M11 1h1m1 1h1m3 0h1m5 0h1m1 0h1M12 3h3m1 0h1m1 0h1m3 0h1m3 0h1M1 4h1m1 0h1m5 0h2m8 0h3M12 5h3m1 0h1m1 0h1m3 0h1m3 0h1M13 6h1m3 0h1m5 0h1m1 0h1M11 7h1"/>
    <path stroke="#d8f577" d="M15 1h1M6 3h1m13 0h1M5 4h3m19 0h1M6 5h1"/>
    <path stroke="#b66615" d="M6 2h1m5 0h1m1 0h1m9 0h1M4 3h1m2 0h1M2 4h1m5 0h1m2 0h1m1 0h1m1 0h1m1 0h1m4 0h1m3 0h1M4 5h1m2 0h1M6 6h1m5 0h1m1 0h1m9 0h1"/>
    <path stroke="#a1d920" d="M5 3h1M4 4h1m0 1h1m14 0h1m-6 2h1"/>
</svg>
