<svg xmlns="http://www.w3.org/2000/svg" shape-rendering="crispEdges" viewBox="0 -0.5 29 11">
    <path stroke="#5787e7" d="M9 1h1m1 0h1M9 3h1m1 0h1m1 0h1m3 0h1m5 0h1m1 0h1M12 4h1m1 0h1m1 0h1m1 0h1m3 0h1m3 0h1M1 5h1m1 0h1m1 0h1m1 0h1m1 0h1m9 0h3M9 6h1m1 0h2m1 0h1m1 0h1m1 0h1m3 0h1m3 0h1M13 7h1m3 0h1m5 0h1m1 0h1M9 8h1m1 0h1"/>
    <path stroke="#fffffe" d="M10 1h1m9 3h1m6 1h1"/>
    <path stroke="#2b5397" d="M9 2h1m1 0h1m12 1h1M9 4h1m1 0h1M2 5h1m1 0h1m1 0h1m1 0h1m1 0h2m1 0h1m1 0h1m1 0h1m4 0h1m3 0h1M9 7h1m1 0h1m12 0h1M9 9h1m1 0h1"/>
    <path stroke="#fac7a6" d="M20 6h1M10 9h1"/>
</svg>
