<svg xmlns="http://www.w3.org/2000/svg" shape-rendering="crispEdges" viewBox="0 -0.5 21 15">
    <path stroke="#b99560" d="M4 1h1m1 0h1M3 2h1m3 0h1M4 3h1m1 0h1m8 1h1m-4 1h2m2 0h1M5 6h1m2 0h1m4 0h1M1 7h1m1 0h1m1 0h2m1 0h1m1 0h1m1 0h1m1 0h1m1 0h1m1 0h1M5 8h1m2 0h1m4 0h1m-2 1h2m2 0h1m-2 1h1M4 11h1m1 0h1m-4 1h1m3 0h1m-4 1h1m1 0h1"/>
    <path stroke="#fffffe" d="M5 2h1m3 3h1m7 0h1m1 2h1m-3 2h1"/>
    <path stroke="#8d6d3e" d="M4 4h1m1 0h1M5 5h1m8 0h1M2 7h1m1 0h1m2 0h1m1 0h1m1 0h1m1 0h1m1 0h1m1 0h1M5 9h1m8 0h1M4 10h1m1 0h1"/>
    <path stroke="#fac7a6" d="M9 9h1m-5 3h1"/>
</svg>
