<svg xmlns="http://www.w3.org/2000/svg" shape-rendering="crispEdges" viewBox="0 -0.5 27 9">
    <path stroke="#b346b3" d="M21 1h1M4 2h1m8 0h1m1 0h1m2 0h2m2 0h1M8 3h1m2 0h1m2 0h1m1 0h1m2 0h1M1 4h1m1 0h1m1 0h1m1 0h1m4 0h1m3 0h1m1 0h1m1 0h1m1 0h1m1 0h1M8 5h1m1 0h2m4 0h1m2 0h1M4 6h1m8 0h1m1 0h1m2 0h2m2 0h1m-2 1h1"/>
    <path stroke="#a9e2f7" d="M3 2h1m19 0h1m1 2h1m-3 2h1"/>
    <path stroke="#612661" d="M12 2h1m1 0h1m5 0h1M5 3h1m9 0h1M2 4h1m1 0h1m1 0h1m1 0h2m3 0h1m3 0h1m1 0h1m1 0h1m1 0h1M5 5h1m6 1h1m1 0h1m5 0h1"/>
    <path stroke="#34baec" d="M3 6h1"/>
</svg>
