<svg xmlns="http://www.w3.org/2000/svg" shape-rendering="crispEdges" viewBox="0 -0.5 24 13">
    <path stroke="#7fb717" d="M11 1h1m-1 1h1M7 3h1m3 0h1m2 0h1M8 4h1m4 0h1m1 0h1M3 5h1m5 0h1m1 0h2m3 0h1m1 0h1M1 6h1m7 0h3m8 0h2M3 7h1m5 0h1m1 0h2m3 0h1m1 0h1M8 8h1m4 0h1m1 0h1M7 9h1m3 0h1m2 0h1m-4 1h1m-1 1h1"/>
    <path stroke="#2f711a" d="M6 4h1m4 0h1M4 5h1m2 0h1M2 6h1m5 0h1m8 0h1m1 0h1M4 7h1m2 0h1M6 8h1m4 0h1"/>
    <path stroke="#8ec4f4" d="M5 5h1M4 6h1m0 1h1"/>
    <path stroke="#fffffe" d="M6 5h1M5 6h3m6 0h1m7 0h1M6 7h1"/>
</svg>
