<svg xmlns="http://www.w3.org/2000/svg" shape-rendering="crispEdges" viewBox="0 -0.5 27 9">
    <path stroke="#b99560" d="M14 1h1m8 0h1M13 2h1m1 0h1m5 0h1M12 3h1m3 0h1m1 0h1M1 4h1m2 0h1m1 0h1m1 0h1m1 0h2m7 0h2M5 5h1m6 0h1m3 0h1m1 0h1m-6 1h1m1 0h1m5 0h1m-8 1h1m8 0h1"/>
    <path stroke="#faddf3" d="M5 2h1m1 0h1m1 0h1M9 3h1m4 1h1"/>
    <path stroke="#8d6d3e" d="M22 2h1m1 0h1M3 3h1m1 0h1m1 0h1m3 0h1m1 0h1m6 0h1M2 4h1m14 0h1M3 5h1m3 0h1m3 0h1m1 0h1m6 0h1m1 1h1m1 0h1"/>
    <path stroke="#fff" d="M25 2h1"/>
    <path stroke="#f6bbe8" d="M9 5h1M5 6h1m1 0h1m1 0h1"/>
    <path stroke="#fbef97" d="M25 6h1"/>
</svg>
