<svg xmlns="http://www.w3.org/2000/svg" shape-rendering="crispEdges" viewBox="0 -0.5 21 9">
    <path stroke="#f39f27" d="M4 1h1m10 1h1m1 0h1M5 3h2m7 0h1m3 0h1M1 4h1m1 0h1m1 0h2m5 0h2M5 5h2m7 0h1m3 0h1m-4 1h1m1 0h1M4 7h1"/>
    <path stroke="#a9e2f7" d="M8 1h1m0 2h1m2 0h1M8 4h3m8 0h1M9 5h1"/>
    <path stroke="#b66615" d="M5 2h1m1 0h1m1 0h1m6 0h1M7 3h1m2 0h1M2 4h1m1 0h1m6 0h1m2 0h1m3 0h1M7 5h1m2 0h1M5 6h1m1 0h1m1 0h1m6 0h1"/>
    <path stroke="#34baec" d="M8 3h1M7 4h1m0 1h1m3 0h1M8 7h1"/>
</svg>
