<svg xmlns="http://www.w3.org/2000/svg" shape-rendering="crispEdges" viewBox="0 -0.5 24 11">
    <path stroke="#d8f577" d="M8 1h1m13 3h1"/>
    <path stroke="#7fb717" d="M7 2h1M6 3h1m2 0h1m3 0h1m3 0h1M6 4h1m2 0h1m2 0h1m1 0h1m1 0h1m1 0h1M1 5h1m2 0h1m1 0h3m1 0h1m8 0h1M6 6h1m2 0h1m2 0h1m1 0h1m1 0h1m1 0h1M6 7h1m2 0h1m3 0h1m3 0h1M7 8h1"/>
    <path stroke="#2f711a" d="M10 4h1m10 0h1M2 5h2m1 0h1m3 0h1m1 0h1m1 0h1m1 0h1m1 0h1m2 0h1M10 6h1m10 0h1"/>
    <path stroke="#a1d920" d="M22 6h1M8 9h1"/>
</svg>
