<svg xmlns="http://www.w3.org/2000/svg" shape-rendering="crispEdges" viewBox="0 -0.5 27 9">
    <path stroke="#fffffe" d="M12 1h1m1 3h1"/>
    <path stroke="#4fb0b3" d="M14 1h1m8 0h1M13 2h1m1 0h1m5 0h1M10 3h1m1 0h1m3 0h1m1 0h1M1 4h1m1 0h1m1 0h1m1 0h1m1 0h3m7 0h2M10 5h1m1 0h1m3 0h1m1 0h1m-6 1h1m1 0h1m5 0h1m-8 1h1m8 0h1"/>
    <path stroke="#508383" d="M11 2h1m10 0h1m1 0h1m-5 1h1M2 4h1m1 0h1m1 0h1m1 0h1m8 0h1m2 1h1M11 6h1m10 0h1m1 0h1"/>
    <path stroke="#fff" d="M25 2h1"/>
    <path stroke="#fbef97" d="M25 6h1"/>
    <path stroke="#fac7a6" d="M12 7h1"/>
</svg>
