<svg xmlns="http://www.w3.org/2000/svg" shape-rendering="crispEdges" viewBox="0 -0.5 25 9">
    <path stroke="#d8f577" d="M11 1h1M6 6h1m4 1h1"/>
    <path stroke="#4fb0b3" d="M12 1h1m8 0h1m-3 1h1M5 3h1m2 0h1m1 0h1M1 4h1m2 0h1m1 0h5m2 0h1m2 0h3M5 5h1m2 0h1m1 0h1m8 1h1m-8 1h1m8 0h1"/>
    <path stroke="#508383" d="M4 2h1m6 0h1m8 0h1m1 0h1m-5 1h1M2 4h2m1 0h1m5 0h2m1 0h2m2 1h1M4 6h1m6 0h1m8 0h1m1 0h1"/>
    <path stroke="#fffffe" d="M6 2h1"/>
    <path stroke="#fff" d="M23 2h1"/>
    <path stroke="#f6bbe8" d="M23 6h1"/>
</svg>
