<svg xmlns="http://www.w3.org/2000/svg" shape-rendering="crispEdges" viewBox="0 -0.5 25 11">
    <path stroke="#b99560" d="M11 1h2m1 0h1m-5 1h1m4 0h1m3 0h1m-8 1h1m1 0h1m1 0h2m2 0h1M3 4h1m1 0h1m7 0h1m1 0h1m1 0h1M1 5h1m5 0h1m8 0h1m1 0h1m1 0h1m1 0h1M3 6h1m1 0h1m7 0h1m1 0h1m1 0h1m-6 1h1m1 0h1m1 0h2m2 0h1M10 8h1m4 0h1m3 0h1m-9 1h2m1 0h1"/>
    <path stroke="#faddf3" d="M13 1h1M4 3h1m16 0h1M10 4h1M9 5h3m11 0h1M10 6h1m10 1h1"/>
    <path stroke="#8d6d3e" d="M10 3h2m1 0h1m4 0h1M8 4h1m2 0h1M2 5h1m3 0h1m5 0h1m1 0h2m1 0h1m1 0h1m1 0h1M8 6h1m2 0h1m-2 1h2m1 0h1m4 0h1"/>
    <path stroke="#f6bbe8" d="M9 4h1M8 5h1m0 1h1M4 7h1m8 2h1"/>
</svg>
