<svg xmlns="http://www.w3.org/2000/svg" shape-rendering="crispEdges" viewBox="0 -0.5 19 9">
    <path stroke="#b346b3" d="M15 1h1M6 2h1m6 0h1M7 3h1m2 0h1M1 4h1m9 0h2M7 5h1m2 0h1M6 6h1m6 0h1m1 1h1"/>
    <path stroke="#612661" d="M5 2h1m8 0h1m1 0h1M3 3h1m2 0h1m1 0h2m2 0h1M2 4h1m4 0h1M3 5h1m2 0h1m1 0h2m2 0h1M5 6h1m8 0h1m1 0h1"/>
    <path stroke="#fff" d="M17 2h1"/>
    <path stroke="#f6bbe8" d="M4 3h1M3 4h1m0 1h1"/>
    <path stroke="#faddf3" d="M5 3h1M4 4h3M5 5h1"/>
    <path stroke="#fbef97" d="M17 6h1"/>
</svg>
