<svg xmlns="http://www.w3.org/2000/svg" shape-rendering="crispEdges" viewBox="0 -0.5 25 9">
    <path stroke="#f07540" d="M19 1h1m-4 1h2m2 0h1M3 3h1m7 0h1m1 0h1m3 0h1M1 4h1m8 0h1m1 0h1m3 0h1m1 0h1m1 0h1m1 0h1M3 5h1m7 0h1m1 0h1m3 0h1m-2 1h2m2 0h1m-2 1h1"/>
    <path stroke="#d8f577" d="M4 2h1m6 0h1m9 0h1M7 3h1M6 4h3m14 0h1M7 5h1m13 1h1"/>
    <path stroke="#b92b0e" d="M7 2h1m10 0h1M5 3h1m2 0h1M2 4h1m6 0h1m1 0h1m2 0h2m1 0h1m1 0h1m1 0h1M5 5h1m2 0h1M7 6h1m10 0h1"/>
    <path stroke="#a1d920" d="M6 3h1M5 4h1m0 1h1M4 6h1m6 0h1"/>
</svg>
