<svg xmlns="http://www.w3.org/2000/svg" shape-rendering="crispEdges" viewBox="0 -0.5 21 11">
    <path stroke="#b346b3" d="M7 1h1m1 0h1m7 1h1M4 3h1m2 0h1m1 0h1m5 0h1M1 5h1m1 0h1m1 0h1m1 0h1m1 0h1m1 0h1m1 0h2M7 6h1m1 0h1M4 7h1m10 0h1M7 8h1m1 0h1m7 0h1"/>
    <path stroke="#fae294" d="M8 1h1"/>
    <path stroke="#612661" d="M7 2h1m1 0h1m6 1h1m1 0h1M5 4h1m1 0h1m1 0h1m4 0h1M2 5h1m1 0h1m1 0h1m1 0h1m1 0h1m1 0h1M5 6h1m8 0h1M7 7h1m1 0h1m6 0h1m1 0h1M7 9h1m1 0h1"/>
    <path stroke="#fff" d="M19 3h1"/>
    <path stroke="#bee75f" d="M19 7h1"/>
    <path stroke="#f7af5c" d="M8 9h1"/>
</svg>
