<svg xmlns="http://www.w3.org/2000/svg" shape-rendering="crispEdges" viewBox="0 -0.5 24 11">
    <path stroke="#f07540" d="M13 1h2m1 0h1m-5 1h1m4 0h1m-4 1h1m1 0h1m-5 1h2m1 0h3M1 5h1m6 0h1m2 0h1m2 0h1m2 0h1m2 0h2M12 6h2m1 0h3m-4 1h1m1 0h1m-5 1h1m4 0h1m-5 1h2m1 0h1"/>
    <path stroke="#fffffe" d="M15 1h1M7 3h1m1 0h1M5 4h1M4 5h3m15 0h1M5 6h1"/>
    <path stroke="#b92b0e" d="M5 3h1m7 0h1m1 0h1M3 4h1m2 0h2m1 0h1m8 0h1M2 5h1m4 0h1m2 0h1m1 0h2m1 0h2m2 0h1M3 6h1m2 0h2m1 0h1m8 0h1M5 7h1m7 0h1m1 0h1"/>
    <path stroke="#fac7a6" d="M4 4h1M3 5h1m0 1h1m2 1h1m1 0h1m5 2h1"/>
</svg>
