<svg xmlns="http://www.w3.org/2000/svg" shape-rendering="crispEdges" viewBox="0 -0.5 19 13">
    <path stroke="#7fb717" d="M5 1h1M5 2h1M5 3h1m3 1h1m3 0h1m1 0h1M3 5h3m6 0h1m3 0h1M1 6h1m2 0h1m6 0h1M3 7h3m6 0h1m3 0h1M9 8h1m3 0h1m1 0h1M5 9h1m-1 1h1m-1 1h1"/>
    <path stroke="#faddf3" d="M4 3h1m5 0h1M8 5h1m1 0h1M7 6h3m7 0h1M8 7h1"/>
    <path stroke="#2f711a" d="M5 4h1m2 0h1m5 0h1M6 5h1m2 0h1M2 6h1m2 0h1m4 0h1m1 0h1m3 0h1M6 7h1m2 0h1M5 8h1m2 0h1m5 0h1"/>
    <path stroke="#f6bbe8" d="M7 5h1M6 6h1m0 1h1m2 0h1M4 9h1m5 0h1"/>
</svg>
