<svg xmlns="http://www.w3.org/2000/svg" shape-rendering="crispEdges" viewBox="0 -0.5 19 9">
    <path stroke="#2f711a" d="M6 1h1m0 1h1m6 0h1m1 0h1m-5 1h1M2 4h1m1 0h1m2 0h1m1 0h1m2 1h1M7 6h1m6 0h1m1 0h1M6 7h1"/>
    <path stroke="#7fb717" d="M15 1h1M5 2h1m7 0h1M5 3h2m1 0h1M1 4h1m1 0h1m1 0h2m1 0h1m1 0h3M5 5h2m1 0h1M5 6h1m7 0h1m1 1h1"/>
    <path stroke="#fffffe" d="M9 2h1"/>
    <path stroke="#fff" d="M17 2h1"/>
    <path stroke="#d8f577" d="M9 6h1"/>
    <path stroke="#fbef97" d="M17 6h1"/>
</svg>
