<svg xmlns="http://www.w3.org/2000/svg" shape-rendering="crispEdges" viewBox="0 -0.5 23 9">
    <path stroke="#b99560" d="M17 1h1m-7 1h1m1 0h3m2 0h1M5 3h1m8 0h2M1 4h1m1 0h1m7 0h1m2 0h1m1 0h1m1 0h1m1 0h1M5 5h1m8 0h2m-5 1h1m1 0h3m2 0h1m-2 1h1"/>
    <path stroke="#8d6d3e" d="M8 2h1m1 0h1m1 0h1m3 0h1M4 3h1m1 0h1m2 0h1M2 4h1m7 0h1m1 0h2m1 0h1m1 0h1m1 0h1M4 5h1m1 0h1m2 0h1M8 6h1m1 0h1m1 0h1m3 0h1"/>
    <path stroke="#a9e2f7" d="M19 2h1M8 3h1M7 4h3m11 0h1M8 5h1m10 1h1"/>
    <path stroke="#34baec" d="M7 3h1M6 4h1m0 1h1"/>
</svg>
