<svg xmlns="http://www.w3.org/2000/svg" shape-rendering="crispEdges" viewBox="0 -0.5 27 17">
    <path stroke="#d8f577" d="M11 1h1m1 2h1m9 3h1m1 2h1m-3 2h1m-11 3h1"/>
    <path stroke="#d16060" d="M10 2h1m1 0h1M9 4h1m3 0h1M9 5h1m3 0h1m7 0h1m-4 1h2m2 0h1M10 7h2m2 0h1m4 0h1M1 8h1m1 0h1m1 0h1m1 0h1m1 0h1m2 0h2m2 0h1m1 0h1m1 0h1m1 0h1m1 0h1M10 9h2m2 0h1m4 0h1m-2 1h2m2 0h1M9 11h1m3 0h1m7 0h1M9 12h1m3 0h1m-4 2h1m1 0h1"/>
    <path stroke="#a1d920" d="M9 3h1M9 13h1m1 2h1"/>
    <path stroke="#ab3131" d="M10 6h1m1 0h1m7 0h1m-6 1h1M2 8h1m1 0h1m1 0h1m1 0h1m8 0h1m1 0h1m1 0h1m1 0h1m-9 1h1m-6 1h1m1 0h1m7 0h1"/>
</svg>
