<svg xmlns="http://www.w3.org/2000/svg" shape-rendering="crispEdges" viewBox="0 -0.5 25 11">
    <path stroke="#b99560" d="M10 1h1m1 0h1m6 1h1M10 3h1m1 0h1m3 0h2m2 0h1M11 4h1m5 0h1M1 5h1m1 0h1m1 0h1m1 0h1m8 0h1m1 0h1m1 0h1m1 0h1M8 6h3m1 0h3m2 0h1m-2 1h2m2 0h1M10 8h1m1 0h1m6 0h1"/>
    <path stroke="#fffffe" d="M11 1h1m9 2h1m1 2h1m-3 2h1"/>
    <path stroke="#8d6d3e" d="M10 2h1m1 0h1m5 1h1m-9 1h1m1 0h1M2 5h1m1 0h1m1 0h1m1 0h1m1 0h3m1 0h2m1 0h1m1 0h1m1 0h1M10 7h1m1 0h1m5 0h1m-9 2h1m1 0h1"/>
    <path stroke="#fac7a6" d="M11 9h1"/>
</svg>
