<svg xmlns="http://www.w3.org/2000/svg" shape-rendering="crispEdges" viewBox="0 -0.5 27 7">
    <path stroke="#612661" d="M7 1h1m14 0h1M5 2h1m2 0h1m1 0h1M2 3h1m1 0h1m4 0h2m1 0h1m1 0h1m5 0h1m3 0h1M5 4h1m2 0h1m1 0h1M7 5h1m14 0h1"/>
    <path stroke="#fffffe" d="M10 1h1m3 0h1M7 2h1m10 0h1M6 3h3m16 0h1M7 4h1"/>
    <path stroke="#b346b3" d="M21 1h1m1 0h1M11 2h1m1 0h1m6 0h1m3 0h1M1 3h1m1 0h1m11 0h5m-9 1h1m1 0h1m6 0h1m3 0h1m-4 1h1m1 0h1"/>
    <path stroke="#f7d76b" d="M6 2h1M5 3h1m0 1h1m11 0h1m-9 1h1m3 0h1"/>
</svg>
