<svg xmlns="http://www.w3.org/2000/svg" shape-rendering="crispEdges" viewBox="0 -0.5 29 15">
    <path stroke="#f39f27" d="M9 1h1m1 0h1M8 2h1m3 0h1M9 3h1m1 0h1M7 4h1M6 5h1m1 0h1m14 0h1m1 0h1M3 6h1m8 0h2m1 0h2m5 0h1m3 0h1M1 7h1m3 0h1m8 0h1m2 0h1m1 0h3M3 8h1m8 0h2m1 0h2m5 0h1m3 0h1M6 9h1m1 0h1m14 0h1m1 0h1M7 10h1m1 1h1m1 0h1m-4 1h1m3 0h1m-4 1h1m1 0h1"/>
    <path stroke="#fffffe" d="M10 2h1M9 6h1m10 0h1M8 7h3m16 0h1M9 8h1"/>
    <path stroke="#b66615" d="M9 4h1m1 0h1M9 5h2m13 0h1M5 6h1m1 0h1m2 0h1m7 0h1M2 7h1m1 0h1m1 0h1m4 0h3m1 0h2m5 0h1m3 0h1M5 8h1m1 0h1m2 0h1m7 0h1M9 9h2m13 0h1M9 10h1m1 0h1"/>
    <path stroke="#d8f577" d="M8 6h1M7 7h1m0 1h1m11 0h1m-11 4h1"/>
</svg>
