<svg xmlns="http://www.w3.org/2000/svg" shape-rendering="crispEdges" viewBox="0 -0.5 23 7">
    <path stroke="#d8f577" d="M5 1h1m1 0h1m1 0h1M8 2h1m12 0h1M7 3h3M8 4h1"/>
    <path stroke="#b92b0e" d="M8 1h1m3 0h1m1 0h1M3 2h1m1 0h2m2 0h1m10 0h1M2 3h1m7 0h1m1 0h2m1 0h2m2 0h1M3 4h1m2 0h1m2 0h1m10 0h1M8 5h1m3 0h1m1 0h1"/>
    <path stroke="#f07540" d="M13 1h1m1 0h1m-5 1h1m4 0h1M1 3h1m2 0h1m6 0h1m2 0h1m2 0h2M5 4h1m5 0h1m4 0h1m-4 1h1m1 0h1"/>
    <path stroke="#a1d920" d="M7 2h1M6 3h1m0 1h1m13 0h1M5 5h1m1 0h1m1 0h1"/>
</svg>
