<svg xmlns="http://www.w3.org/2000/svg" shape-rendering="crispEdges" viewBox="0 -0.5 17 15">
    <path stroke="#f39f27" d="M4 1h1m1 0h1M3 2h1m3 0h1M4 3h1m1 0h1m6 1h1m-3 1h1M3 6h4M1 7h1m2 0h2M3 8h4m4 1h1m1 1h1M4 11h1m1 0h1m-4 1h1m3 0h1m-4 1h1m1 0h1"/>
    <path stroke="#d8f577" d="M5 2h1m3 4h1M8 7h3M9 8h1"/>
    <path stroke="#b66615" d="M4 4h1m1 0h1M5 5h1m3 0h1m2 0h1m1 0h1M7 6h1m2 0h1M2 7h1m3 0h1m4 0h1M7 8h1m2 0h1M5 9h1m3 0h1m2 0h1m1 0h1M4 10h1m1 0h1"/>
    <path stroke="#fff" d="M15 5h1"/>
    <path stroke="#a1d920" d="M8 6h1M7 7h1m0 1h1m-4 4h1"/>
    <path stroke="#fbef97" d="M15 9h1"/>
</svg>
