<svg xmlns="http://www.w3.org/2000/svg" shape-rendering="crispEdges" viewBox="0 -0.5 19 11">
    <path stroke="#fffffe" d="M6 1h1M4 2h1m5 0h1M7 4h1m2 0h1M6 5h3m8 0h1M7 6h1"/>
    <path stroke="#7fb717" d="M6 2h1M5 3h1m3 0h1m3 0h1m1 0h1m-4 1h1m3 0h1M1 5h1m2 0h1m5 0h2m0 1h1m3 0h1M5 7h1m3 0h1m3 0h1m1 0h1M6 8h1"/>
    <path stroke="#2f711a" d="M6 3h2m6 0h1M5 4h1m2 0h1M2 5h2m5 0h1m2 0h1m3 0h1M5 6h1m2 0h1M6 7h2m6 0h1"/>
    <path stroke="#f7d76b" d="M6 4h1M5 5h1m0 1h1m3 0h1M4 8h1m5 0h1M6 9h1"/>
</svg>
