<svg xmlns="http://www.w3.org/2000/svg" shape-rendering="crispEdges" viewBox="0 -0.5 19 11">
    <path stroke="#b346b3" d="M7 1h1m1 0h1M9 3h1m1 0h2m-3 1h1m2 0h1M1 5h1m1 0h1m11 0h2M9 6h2m2 0h1m-3 1h2M7 8h1m1 0h1"/>
    <path stroke="#fffffe" d="M8 1h1m7 2h1M7 4h1M6 5h3m8 0h1M7 6h1"/>
    <path stroke="#612661" d="M7 2h1m1 0h1M7 3h1m7 0h1M5 4h1m2 0h2m4 0h1M2 5h1m1 0h1m4 0h1m4 0h1M5 6h1m2 0h1m5 0h1M7 7h1m1 0h1m5 0h1M7 9h1m1 0h1"/>
    <path stroke="#8ec4f4" d="M6 4h1M5 5h1m0 1h1m9 1h1M8 9h1"/>
</svg>
