<svg xmlns="http://www.w3.org/2000/svg" shape-rendering="crispEdges" viewBox="0 -0.5 27 9">
    <path stroke="#d8f577" d="M10 1h1M3 6h1m10 0h1m-5 1h1"/>
    <path stroke="#f07540" d="M11 1h1m9 0h1M4 2h1m13 0h2m2 0h1M8 3h2m1 0h1m1 0h1m5 0h1M1 4h1m1 0h1m1 0h1m1 0h1m7 0h2m1 0h1m1 0h1m1 0h1m1 0h1M8 5h2m1 0h1m1 0h1m5 0h1M4 6h1m13 0h2m2 0h1M11 7h1m9 0h1"/>
    <path stroke="#fffffe" d="M3 2h1m10 0h1m8 0h1m1 2h1m-3 2h1"/>
    <path stroke="#b92b0e" d="M10 2h1m9 0h1M5 3h1M2 4h1m1 0h1m1 0h1m1 0h3m1 0h1m1 0h1m2 0h1m1 0h1m1 0h1m1 0h1M5 5h1m4 1h1m9 0h1"/>
</svg>
