<svg xmlns="http://www.w3.org/2000/svg" shape-rendering="crispEdges" viewBox="0 -0.5 17 13">
    <path stroke="#fffffe" d="M7 1h1M6 5h1M5 6h3M6 7h1"/>
    <path stroke="#f39f27" d="M6 2h1m1 0h1m4 1h1m-3 1h1M3 5h1m4 0h1M1 6h1m7 0h2M3 7h1m4 0h1m2 1h1m1 1h1m-8 1h1m1 0h1"/>
    <path stroke="#b66615" d="M6 3h1m1 0h1M6 4h2m4 0h1m1 0h1M4 5h1m2 0h1m2 0h1M2 6h2m4 0h1M4 7h1m2 0h1m2 0h1M6 8h2m4 0h1m1 0h1M6 9h1m1 0h1"/>
    <path stroke="#fff" d="M15 4h1"/>
    <path stroke="#fac7a6" d="M5 5h1M4 6h1m0 1h1m1 4h1"/>
    <path stroke="#bee75f" d="M15 8h1"/>
</svg>
