<svg xmlns="http://www.w3.org/2000/svg" shape-rendering="crispEdges" viewBox="0 -0.5 25 11">
    <path stroke="#a9e2f7" d="M15 1h1M3 3h1m4 1h1M7 5h3M8 6h1"/>
    <path stroke="#b66615" d="M14 2h1M8 3h1m4 0h1m6 0h1m1 0h1M5 4h2m2 0h1m1 0h1m3 0h1m2 0h1M2 5h1m1 0h1m5 0h1M5 6h2m2 0h1m1 0h1m3 0h1m2 0h1M8 7h1m4 0h1m6 0h1m1 0h1m-9 1h1"/>
    <path stroke="#f39f27" d="M21 2h1M4 3h1m14 0h1M10 4h1m2 0h2M1 5h1m1 0h1m1 0h1m6 0h2m2 0h3m-9 1h1m2 0h2M4 7h1m14 0h1m1 1h1"/>
    <path stroke="#fff" d="M23 3h1"/>
    <path stroke="#34baec" d="M7 4h1M6 5h1m0 1h1M3 7h1m11 2h1"/>
    <path stroke="#fbef97" d="M23 7h1"/>
</svg>
