<svg xmlns="http://www.w3.org/2000/svg" shape-rendering="crispEdges" viewBox="0 -0.5 27 13">
    <path stroke="#b66615" d="M8 1h1m5 0h1m-5 2h1m1 0h1M5 4h1m16 0h1M3 5h1m2 0h1m3 0h1m1 0h1m2 0h1M2 6h1m4 0h3m1 0h1m1 0h1m6 0h1m3 0h1M3 7h1m2 0h1m4 0h1M5 8h1m4 0h1m1 0h1m9 0h1m-13 2h1m1 0h1m-5 1h1m5 0h1"/>
    <path stroke="#f39f27" d="M8 2h1m1 0h1m1 0h1m1 0h1M9 3h1m3 0h1m-4 1h1m1 0h1m8 0h1m1 0h1M14 5h1m5 0h1m3 0h1M1 6h1m10 0h1m3 0h4M10 7h1m1 0h1m7 0h1m3 0h1m-4 1h1m1 0h1M9 9h2m1 0h2m-6 1h1m5 0h1"/>
    <path stroke="#fae294" d="M11 2h1M5 5h1m12 0h1M4 6h3m18 0h1M5 7h1"/>
    <path stroke="#f7af5c" d="M4 5h1M3 6h1m0 1h1m13 0h1m-8 3h1"/>
</svg>
