<svg xmlns="http://www.w3.org/2000/svg" shape-rendering="crispEdges" viewBox="0 -0.5 18 15">
    <path stroke="#f07540" d="M8 1h1m1 0h1M7 2h1m3 0h1M8 3h1m1 0h1M4 5h1m5 1h1M1 7h1m1 0h1m1 0h1m7 0h1m-4 1h1m1 0h1M4 9h1m6 0h1m-4 2h1m1 0h1m-4 1h1m3 0h1m-4 1h1m1 0h1"/>
    <path stroke="#fffffe" d="M9 2h1M8 6h1m7 0h1M7 7h3M8 8h1"/>
    <path stroke="#b92b0e" d="M8 4h1m1 0h1M8 5h2M5 6h2m2 0h1m5 0h1M2 7h1m1 0h1m5 0h1m1 0h1m1 0h1M5 8h2m2 0h1m5 0h1M8 9h2m-2 1h1m1 0h1"/>
    <path stroke="#fac7a6" d="M7 6h1M6 7h1m0 1h1m8 0h1m-8 4h1"/>
</svg>
