<svg xmlns="http://www.w3.org/2000/svg" shape-rendering="crispEdges" viewBox="0 -0.5 21 11">
    <path stroke="#d16060" d="M8 1h1m1 0h1M8 3h1m1 0h1m3 1h1M1 5h1m1 0h1m8 0h2m2 0h3M8 6h1m1 0h1m3 0h1M8 8h1m1 0h1"/>
    <path stroke="#faddf3" d="M9 1h1m8 2h1M6 4h1M5 5h3m11 0h1M6 6h1"/>
    <path stroke="#ab3131" d="M8 2h1m1 0h1M6 3h1m10 0h1M4 4h1m2 0h2m1 0h2m3 0h2M2 5h1m5 0h2M4 6h1m2 0h1m3 0h1m3 0h2M6 7h1m1 0h1m1 0h1m6 0h1M8 9h1m1 0h1"/>
    <path stroke="#f6bbe8" d="M5 4h1M4 5h1m0 1h1m12 1h1M9 9h1"/>
</svg>
