<svg xmlns="http://www.w3.org/2000/svg" shape-rendering="crispEdges" viewBox="0 -0.5 19 17">
    <path stroke="#fffffe" d="M7 1h1m1 2h1M8 7h1M7 8h3M8 9h1m0 4h1"/>
    <path stroke="#7fb717" d="M6 2h1m1 0h1M5 4h1m3 0h1M5 5h1m3 0h1m5 0h1m-3 1h1M5 7h1M1 8h1m1 0h1m1 0h1m5 0h2M5 9h1m7 1h1m-9 1h1m3 0h1m5 0h1M5 12h1m3 0h1m-4 2h1m1 0h1"/>
    <path stroke="#f7d76b" d="M5 3h1m1 4h1M6 8h1m0 1h1m-3 4h1m1 2h1"/>
    <path stroke="#2f711a" d="M5 6h2m1 0h1m5 0h1m1 0h1M6 7h1m2 0h1m2 0h1M2 8h1m1 0h1m5 0h1M6 9h1m2 0h1m2 0h1m-8 1h2m1 0h1m5 0h1m1 0h1"/>
    <path stroke="#fff" d="M17 6h1"/>
    <path stroke="#f6bbe8" d="M17 10h1"/>
</svg>
