<svg xmlns="http://www.w3.org/2000/svg" shape-rendering="crispEdges" viewBox="0 -0.5 19 17">
    <path stroke="#4fb0b3" d="M5 1h1M5 2h1M5 3h1M4 4h1m1 0h1M3 5h1m11 0h1m-3 1h1M9 7h2M1 8h1m1 0h1m7 0h2M9 9h2m2 1h1M3 11h1m11 0h1M4 12h1m1 0h1m-2 1h1m-1 1h1m-1 1h1"/>
    <path stroke="#faddf3" d="M6 1h1m0 4h1M6 7h1M5 8h3M6 9h1"/>
    <path stroke="#508383" d="M4 6h1m1 0h1m7 0h1m1 0h1M4 7h1m2 0h1m4 0h1M2 8h1m5 0h1M4 9h1m2 0h1m4 0h1m-9 1h1m1 0h1m7 0h1m1 0h1"/>
    <path stroke="#fff" d="M17 6h1"/>
    <path stroke="#f6bbe8" d="M5 7h1M4 8h1m0 1h1m11 1h1M7 11h1m-2 4h1"/>
</svg>
