<svg xmlns="http://www.w3.org/2000/svg" shape-rendering="crispEdges" viewBox="0 -0.5 21 15">
    <path stroke="#fae294" d="M7 1h1m2 1h1M9 5h1m7 0h1m1 2h1m-3 2h1m-8 3h1"/>
    <path stroke="#f7af5c" d="M4 2h1m4 7h1m-6 3h1m2 1h1"/>
    <path stroke="#b92b0e" d="M7 2h1M4 3h1m5 0h1M5 4h1m3 0h1m4 1h1M5 6h1m1 0h1M2 7h1m4 0h1m1 0h1m1 0h1m1 0h1m1 0h1m1 0h1M5 8h1m1 0h1m6 1h1M5 10h1m3 0h1m-6 1h1m5 0h1m-4 1h1"/>
    <path stroke="#f07540" d="M6 3h1m1 0h1m6 1h1M6 5h1m1 0h1m3 0h2m2 0h1M8 6h1m4 0h1M1 7h1m1 0h4m1 0h1m1 0h1m1 0h1m1 0h1m1 0h1m1 0h1M8 8h1m4 0h1M6 9h1m1 0h1m3 0h2m2 0h1m-2 1h1M6 11h1m1 0h1"/>
</svg>
