<svg xmlns="http://www.w3.org/2000/svg" shape-rendering="crispEdges" viewBox="0 -0.5 25 9">
    <path stroke="#b346b3" d="M19 1h1M7 2h1m3 0h2m3 0h2m2 0h1M3 3h1m1 0h1m4 0h1m2 0h1m3 0h1M1 4h1m5 0h2m7 0h1m1 0h1m1 0h1m1 0h1M3 5h1m1 0h1m4 0h1m2 0h1m3 0h1M7 6h1m3 0h2m3 0h2m2 0h1m-2 1h1"/>
    <path stroke="#fffffe" d="M4 2h1m16 0h1m1 2h1m-3 2h1"/>
    <path stroke="#612661" d="M18 2h1M6 3h1m1 0h1M2 4h1m3 0h1m2 0h1m4 0h2m1 0h1m1 0h1m1 0h1M6 5h1m1 0h1m9 1h1"/>
    <path stroke="#d8f577" d="M4 6h1"/>
</svg>
