<svg xmlns="http://www.w3.org/2000/svg" shape-rendering="crispEdges" viewBox="0 -0.5 17 13">
    <path stroke="#fffffe" d="M5 1h1m1 5h1"/>
    <path stroke="#d16060" d="M4 2h1m1 0h1m6 1h1m-3 1h1M3 5h4m1 0h1M1 6h1m2 0h2m3 0h2M3 7h4m1 0h1m2 1h1m1 1h1M4 10h1m1 0h1"/>
    <path stroke="#ab3131" d="M4 3h1m1 0h1M5 4h1m6 0h1m1 0h1M7 5h1m2 0h1M2 6h1m3 0h1m1 0h1M7 7h1m2 0h1M5 8h1m6 0h1m1 0h1M4 9h1m1 0h1"/>
    <path stroke="#fff" d="M15 4h1"/>
    <path stroke="#bee75f" d="M15 8h1"/>
    <path stroke="#fac7a6" d="M5 11h1"/>
</svg>
