<svg xmlns="http://www.w3.org/2000/svg" shape-rendering="crispEdges" viewBox="0 -0.5 23 11">
    <path stroke="#7fb717" d="M12 1h2m1 0h1M7 2h1m3 0h1m4 0h1M6 3h1m1 0h1m4 0h1m1 0h1m1 0h1M3 4h1m5 0h1m1 0h2m1 0h1m1 0h1M1 5h1m8 0h1m8 0h2M3 6h1m5 0h1m1 0h2m1 0h1m1 0h1M6 7h1m1 0h1m4 0h1m1 0h1m1 0h1M7 8h1m3 0h1m4 0h1m-5 1h2m1 0h1"/>
    <path stroke="#fffffe" d="M14 1h1m5 2h1M7 4h1M6 5h3m12 0h1M7 6h1"/>
    <path stroke="#2f711a" d="M7 3h1m4 0h1m1 0h1m4 0h1M5 4h1m2 0h1m9 0h1M2 5h1m1 0h1m4 0h1m1 0h1m1 0h1m1 0h1m1 0h1M5 6h1m2 0h1m9 0h1M7 7h1m4 0h1m1 0h1m4 0h1"/>
    <path stroke="#8ec4f4" d="M6 4h1M5 5h1m0 1h1m13 1h1m-7 2h1"/>
</svg>
