<svg xmlns="http://www.w3.org/2000/svg" shape-rendering="crispEdges" viewBox="0 -0.5 28 15">
    <path stroke="#fffffe" d="M12 1h1M5 5h1m1 0h1m1 0h1m14 0h1m1 2h1m-3 2h1"/>
    <path stroke="#2f711a" d="M12 2h1m0 1h1m0 2h1m6 0h1M3 6h1m1 0h1m1 0h1m1 0h1M2 7h1m9 0h2m1 0h2m1 0h1m1 0h1m1 0h1m1 0h1M3 8h1m3 0h1m1 0h1m4 1h1m6 0h1m-9 2h1m-2 1h1"/>
    <path stroke="#7fb717" d="M14 4h1m7 0h1m-4 1h2m2 0h1M13 6h1m6 0h1M1 7h1m2 0h1m1 0h1m1 0h1m1 0h2m2 0h1m2 0h1m1 0h1m1 0h1m1 0h1m1 0h1M5 8h1m7 0h1m6 0h1m-2 1h2m2 0h1m-10 1h1m7 0h1"/>
    <path stroke="#f7d76b" d="M5 9h1m1 0h1m1 0h1m2 4h1"/>
</svg>
