<svg xmlns="http://www.w3.org/2000/svg" shape-rendering="crispEdges" viewBox="0 -0.5 25 17">
    <path stroke="#a9e2f7" d="M8 1h1m1 2h1m-1 3h1m3 0h1M6 7h1M5 8h3M6 9h1m3 4h1"/>
    <path stroke="#5787e7" d="M7 2h1m1 0h1M6 4h1m3 0h1M6 5h1m3 0h1m10 0h1m-3 1h1M8 7h1m2 0h1m1 0h1M1 8h1m1 0h1m11 0h4M8 9h1m2 0h1m1 0h1m5 1h1M6 11h1m3 0h1m10 0h1M6 12h1m3 0h1m-4 2h1m1 0h1"/>
    <path stroke="#34baec" d="M6 3h1M5 7h1M4 8h1m0 1h1m4 1h1m3 0h1m-9 3h1m1 2h1"/>
    <path stroke="#2b5397" d="M6 6h2m1 0h1m10 0h1m1 0h1M4 7h1m2 0h1m10 0h1M2 8h1m5 0h3m1 0h1m1 0h1M4 9h1m2 0h1m10 0h1M6 10h2m1 0h1m10 0h1m1 0h1"/>
    <path stroke="#fff" d="M23 6h1"/>
    <path stroke="#f6bbe8" d="M23 10h1"/>
</svg>
