<svg xmlns="http://www.w3.org/2000/svg" shape-rendering="crispEdges" viewBox="0 -0.5 22 15">
    <path stroke="#fffffe" d="M8 1h1m2 1h1M3 5h1m6 0h1m3 0h1m5 1h1m-10 6h1"/>
    <path stroke="#8ec4f4" d="M5 2h1m14 6h1M3 9h1m6 0h1m3 0h1M5 12h1m2 1h1"/>
    <path stroke="#612661" d="M8 2h1M5 3h1m5 0h1M6 4h1m3 0h1M5 6h1m2 0h1m10 0h1M2 7h1m1 0h1m1 0h1m1 0h3m1 0h1m1 0h1m3 0h1M5 8h1m2 0h1m10 0h1M6 10h1m3 0h1m-6 1h1m5 0h1m-4 1h1"/>
    <path stroke="#b346b3" d="M7 3h1m1 0h1M4 5h1m2 0h1m1 0h1m1 1h1m1 0h1M1 7h1m1 0h1m1 0h1m1 0h1m7 0h3m-7 1h1m1 0h1M4 9h1m2 0h1m1 0h1m-3 2h1m1 0h1"/>
</svg>
