<svg xmlns="http://www.w3.org/2000/svg" shape-rendering="crispEdges" viewBox="0 -0.5 21 15">
    <path stroke="#d8f577" d="M11 1h1m2 1h1M3 5h1m14 0h1m0 2h1m-6 5h1"/>
    <path stroke="#a1d920" d="M8 2h1M3 9h1m14 0h1M8 12h1m2 1h1"/>
    <path stroke="#2f711a" d="M11 2h1M8 3h1m5 0h1M9 4h1m3 0h1m3 1h1M5 6h1m5 0h1m4 0h1M2 7h1m1 0h1m1 0h1m1 0h1m2 0h2m1 0h2M5 8h1m5 0h1m4 0h1m0 1h1m-9 1h1m3 0h1m-6 1h1m5 0h1m-4 1h1"/>
    <path stroke="#7fb717" d="M10 3h1m1 0h1M4 5h1m5 0h1m1 0h1M8 6h1M1 7h1m1 0h1m1 0h1m1 0h1m1 0h2m2 0h1m2 0h3M8 8h1M4 9h1m5 0h1m1 0h1m-3 2h1m1 0h1"/>
</svg>
