<svg xmlns="http://www.w3.org/2000/svg" shape-rendering="crispEdges" viewBox="0 -0.5 27 13">
    <path stroke="#508383" d="M6 1h1m5 0h1M8 3h1m1 0h1m11 1h1m1 0h1M3 5h1m1 0h1m1 0h4m9 0h1M2 6h1m6 0h1m7 0h1M3 7h1m3 0h1m1 0h1m10 0h1M8 8h1m1 0h1m11 0h1m1 0h1M8 10h1m1 0h1m-5 1h1m5 0h1"/>
    <path stroke="#4fb0b3" d="M6 2h1m1 0h1m1 0h1m1 0h1M7 3h1m3 0h1m2 0h1m8 0h1M8 4h1m1 0h1m2 0h1m1 0h1m5 0h1M12 5h1m3 0h1m1 0h1M1 6h1m2 0h1m1 0h1m1 0h1m1 0h2m7 0h2M5 7h1m2 0h1m1 0h1m1 0h1m3 0h1m1 0h1m-6 1h1m1 0h1m5 0h1M7 9h2m1 0h2m2 0h1m8 0h1M6 10h1m5 0h1"/>
    <path stroke="#d8f577" d="M9 2h1M5 4h1m1 0h1m1 0h1m4 2h1"/>
    <path stroke="#fff" d="M25 4h1"/>
    <path stroke="#a1d920" d="M5 8h1m1 0h1m1 0h1m-1 2h1"/>
    <path stroke="#f6bbe8" d="M25 8h1"/>
</svg>
