<svg xmlns="http://www.w3.org/2000/svg" shape-rendering="crispEdges" viewBox="0 -0.5 25 15">
    <path stroke="#a9e2f7" d="M10 1h1m2 1h1m7 3h1m1 2h1m-3 2h1m-9 3h1"/>
    <path stroke="#34baec" d="M7 2h1M7 12h1m2 1h1"/>
    <path stroke="#b66615" d="M10 2h1M7 3h1m5 0h1M8 4h1m3 0h1m5 1h1m-9 1h1M2 7h1m1 0h1m1 0h1m7 0h2m1 0h1m1 0h1m1 0h1M10 8h1m7 1h1M8 10h1m3 0h1m-6 1h1m5 0h1m-4 1h1"/>
    <path stroke="#f39f27" d="M9 3h1m1 0h1m7 1h1M9 5h1m1 0h1m4 0h2m2 0h1M9 6h1m1 0h1m1 0h1m3 0h1M1 7h1m1 0h1m1 0h1m1 0h2m1 0h1m1 0h1m3 0h1m1 0h1m1 0h1m1 0h1M9 8h1m1 0h1m1 0h1m3 0h1M9 9h1m1 0h1m4 0h2m2 0h1m-2 1h1M9 11h1m1 0h1"/>
</svg>
