<svg xmlns="http://www.w3.org/2000/svg" shape-rendering="crispEdges" viewBox="0 -0.5 27 9">
    <path stroke="#7fb717" d="M21 1h1M4 2h1m13 0h2m2 0h1M11 3h1m1 0h1m5 0h1M1 4h1m1 0h1m11 0h2m1 0h1m1 0h1m1 0h1m1 0h1M11 5h1m1 0h1m5 0h1M4 6h1m13 0h2m2 0h1m-2 1h1"/>
    <path stroke="#fffffe" d="M3 2h1m6 0h1m3 0h1m8 0h1M7 3h1m1 0h1M6 4h3m16 0h1M7 5h1m1 0h1m13 1h1"/>
    <path stroke="#2f711a" d="M7 2h1m12 0h1M5 3h1m2 0h1M2 4h1m1 0h1m4 0h2m1 0h1m1 0h1m2 0h1m1 0h1m1 0h1m1 0h1M5 5h1m2 0h1M7 6h1m12 0h1"/>
    <path stroke="#d8f577" d="M6 3h1M5 4h1m0 1h1M3 6h1m6 0h1m3 0h1"/>
</svg>
