<svg xmlns="http://www.w3.org/2000/svg" shape-rendering="crispEdges" viewBox="0 -0.5 22 11">
    <path stroke="#a9e2f7" d="M11 1h1"/>
    <path stroke="#ab3131" d="M10 2h1M9 3h1m7 0h1m1 0h1m-5 1h1M3 5h1m1 0h1m1 0h1m2 0h1m1 0h1m2 1h1M9 7h1m7 0h1m1 0h1M10 8h1"/>
    <path stroke="#d16060" d="M18 2h1m-3 1h1M4 4h1m1 0h1m2 0h4M1 5h2m5 0h2m3 0h3M4 6h1m1 0h1m2 0h4m3 1h1m1 1h1"/>
    <path stroke="#fff" d="M20 3h1"/>
    <path stroke="#bee75f" d="M20 7h1"/>
    <path stroke="#34baec" d="M11 9h1"/>
</svg>
