<svg xmlns="http://www.w3.org/2000/svg" shape-rendering="crispEdges" viewBox="0 -0.5 22 9">
    <path stroke="#d8f577" d="M7 1h1M5 3h1M4 4h3M5 5h1"/>
    <path stroke="#b346b3" d="M8 1h1m9 0h1m-3 1h1M8 3h1m1 0h3M1 4h2m5 0h2m3 0h3M8 5h1m1 0h3m3 1h1M8 7h1m9 0h1"/>
    <path stroke="#612661" d="M5 2h1m3 0h1m7 0h1m1 0h1M3 3h1m2 0h1m8 0h1M7 4h1m2 0h1m1 0h1M3 5h1m2 0h1m8 0h1M5 6h1m3 0h1m7 0h1m1 0h1"/>
    <path stroke="#fff" d="M20 2h1"/>
    <path stroke="#a1d920" d="M4 3h1M3 4h1m0 1h1m2 2h1"/>
    <path stroke="#bee75f" d="M20 6h1"/>
</svg>
