<svg xmlns="http://www.w3.org/2000/svg" shape-rendering="crispEdges" viewBox="0 -0.5 27 13">
    <path stroke="#ab3131" d="M9 1h1m5 0h1m-5 2h1m1 0h1m8 1h1m1 0h1M5 5h1m5 0h1m1 0h1m6 0h1M2 6h1m1 0h1m1 0h1m1 0h1m2 0h3m1 0h1m1 0h1M5 7h1m14 0h1M11 8h1m1 0h1m8 0h1m1 0h1m-14 2h1m1 0h1m-5 1h1m5 0h1"/>
    <path stroke="#d16060" d="M9 2h1m1 0h1m1 0h1m1 0h1M7 3h1m2 0h1m3 0h1m8 0h1M6 4h1m1 0h1m2 0h1m1 0h1m3 0h1m3 0h1M3 5h1m5 0h1m2 0h1m1 0h1m1 0h1m1 0h1M1 6h1m3 0h1m1 0h1m1 0h2m8 0h2M3 7h1m5 0h1m1 0h4m1 0h1m1 0h1M6 8h1m1 0h1m8 0h1m3 0h1M7 9h1m2 0h2m1 0h2m8 0h1M9 10h1m5 0h1"/>
    <path stroke="#fffffe" d="M12 2h1"/>
    <path stroke="#fff" d="M25 4h1"/>
    <path stroke="#f6bbe8" d="M25 8h1"/>
    <path stroke="#f7d76b" d="M12 10h1"/>
</svg>
