<svg xmlns="http://www.w3.org/2000/svg" shape-rendering="crispEdges" viewBox="0 -0.5 27 13">
    <path stroke="#d8f577" d="M11 1h1M6 4h1m2 1h1m8 0h1M8 6h3m14 0h1M9 7h1"/>
    <path stroke="#5787e7" d="M10 2h1m1 0h1m8 2h1m1 0h1M5 5h1m5 0h1m2 0h1m5 0h1m3 0h1M1 6h1m2 0h1m1 0h1m5 0h2m2 0h4M5 7h1m5 0h1m2 0h1m5 0h1m3 0h1m-4 1h1m1 0h1m-14 2h1m1 0h1"/>
    <path stroke="#2b5397" d="M10 3h1m1 0h1M4 4h1m4 0h1m1 0h1m10 0h1M7 5h1m2 0h1m4 0h1M2 6h2m1 0h1m5 0h1m8 0h1m3 0h1M7 7h1m2 0h1m4 0h1M4 8h1m4 0h1m1 0h1m10 0h1M10 9h1m1 0h1"/>
    <path stroke="#a1d920" d="M8 5h1M7 6h1m0 1h1m9 0h1M6 8h1m4 3h1"/>
</svg>
