<svg xmlns="http://www.w3.org/2000/svg" shape-rendering="crispEdges" viewBox="0 -0.5 20 13">
    <path stroke="#508383" d="M9 1h1M7 3h1m3 0h1m-2 1h1M8 5h1m2 0h1m5 0h1M2 6h1m3 0h1m5 0h1m1 0h1m1 0h1M8 7h1m2 0h1m5 0h1m-8 1h1M7 9h1m3 0h1m-3 2h1"/>
    <path stroke="#4fb0b3" d="M8 2h1m1 0h1M8 4h1M3 5h1m1 0h1m1 0h1m5 0h1M1 6h1m2 0h1m10 0h1M3 7h1m1 0h1m1 0h1m5 0h1M8 8h1m-1 2h1m1 0h1"/>
    <path stroke="#fffffe" d="M5 4h1m5 0h1m-2 1h1m7 0h1M9 6h3m-2 1h1"/>
    <path stroke="#d8f577" d="M9 5h1M8 6h1m0 1h1m8 0h1M5 8h1m5 0h1"/>
</svg>
