<svg xmlns="http://www.w3.org/2000/svg" shape-rendering="crispEdges" viewBox="0 -0.5 25 9">
    <path stroke="#5787e7" d="M21 1h1m-3 1h1M5 3h1m8 0h1M1 4h1m1 0h2m1 0h1m1 0h1m3 0h1m3 0h3M5 5h1m4 0h1m8 1h1m1 1h1"/>
    <path stroke="#d8f577" d="M5 2h1m4 2h1"/>
    <path stroke="#2b5397" d="M20 2h1m1 0h1M7 3h1m7 0h1m2 0h1M2 4h1m2 0h1m3 0h1m3 0h1M7 5h1m3 0h1m6 0h1m1 1h1m1 0h1"/>
    <path stroke="#fff" d="M23 2h1"/>
    <path stroke="#a1d920" d="M5 6h1"/>
    <path stroke="#f6bbe8" d="M23 6h1"/>
</svg>
