<svg xmlns="http://www.w3.org/2000/svg" shape-rendering="crispEdges" viewBox="0 -0.5 21 17">
    <path stroke="#a9e2f7" d="M8 1h1m1 2h1M6 6h1m3 0h1m3 0h1m3 0h1m0 2h1m-10 5h1"/>
    <path stroke="#f39f27" d="M7 2h1m1 0h1M6 4h1m3 0h1M6 5h1m3 0h1M5 7h1m2 0h1m2 0h1m1 0h1M1 8h1m2 0h1m1 0h3m6 0h2m1 0h1M5 9h1m2 0h1m2 0h1m1 0h1m-8 2h1m3 0h1m-5 1h1m3 0h1m-4 2h1m1 0h1"/>
    <path stroke="#34baec" d="M6 3h1m-1 7h1m3 0h1m3 0h1m3 0h1M6 13h1m1 2h1"/>
    <path stroke="#b66615" d="M4 6h1m2 0h1m1 0h1m7 0h1m-2 1h1M2 8h2m1 0h1m3 0h2m1 0h1m1 0h1m2 0h1m-2 1h1M4 10h1m2 0h1m1 0h1m7 0h1"/>
</svg>
