<svg xmlns="http://www.w3.org/2000/svg" shape-rendering="crispEdges" viewBox="0 -0.5 29 9">
    <path stroke="#34baec" d="M14 1h1m-1 6h1"/>
    <path stroke="#d16060" d="M15 1h1m7 0h1m-4 1h2m2 0h1M12 3h2m1 0h2m4 0h1M1 4h1m1 0h1m1 0h1m1 0h1m1 0h1m1 0h1m2 0h1m2 0h1m2 0h1m1 0h1m1 0h1m1 0h1M12 5h2m1 0h2m4 0h1m-2 1h2m2 0h1M15 7h1m7 0h1"/>
    <path stroke="#ab3131" d="M14 2h1m7 0h1m-5 1h1M2 4h1m1 0h1m1 0h1m1 0h1m1 0h1m1 0h2m1 0h2m2 0h1m1 0h1m1 0h1m1 0h1m-8 1h1m-5 1h1m7 0h1"/>
    <path stroke="#a9e2f7" d="M25 2h1m1 2h1m-3 2h1"/>
</svg>
