<svg xmlns="http://www.w3.org/2000/svg" shape-rendering="crispEdges" viewBox="0 -0.5 24 7">
    <path stroke="#612661" d="M8 1h1m1 0h1m8 0h1M6 2h1m2 0h1M3 3h1m1 0h1m4 0h2m1 0h1m3 0h1m3 0h1M6 4h1m2 0h1M8 5h1m1 0h1m8 0h1"/>
    <path stroke="#b346b3" d="M9 1h1m1 0h1m6 0h1m1 0h1M4 2h1m5 0h1m6 0h1m3 0h1M1 3h2m9 0h1m1 0h3M4 4h1m5 0h1m6 0h1m3 0h1M9 5h1m1 0h1m6 0h1m1 0h1"/>
    <path stroke="#34baec" d="M7 2h1M6 3h1m0 1h1m7 0h1"/>
    <path stroke="#a9e2f7" d="M8 2h1m6 0h1M7 3h3m12 0h1M8 4h1"/>
</svg>
