<svg xmlns="http://www.w3.org/2000/svg" shape-rendering="crispEdges" viewBox="0 -0.5 20 15">
    <path stroke="#fffffe" d="M10 1h1m2 1h1M7 6h1M6 7h3m9 0h1M7 8h1m5 4h1"/>
    <path stroke="#d8f577" d="M7 2h1M6 6h1M5 7h1m0 1h1m0 4h1m2 1h1"/>
    <path stroke="#2f711a" d="M10 2h1M7 3h1m5 0h1M8 4h1m3 0h1M7 5h1M5 6h1m2 0h1m1 0h1M2 7h1m1 0h1m4 0h1m4 0h2M5 8h1m2 0h1m1 0h1M7 9h1m0 1h1m3 0h1m-6 1h1m5 0h1m-4 1h1"/>
    <path stroke="#7fb717" d="M9 3h1m1 0h1M9 5h1m1 0h1M9 6h1m1 0h1m1 0h1M1 7h1m1 0h1m6 0h1m1 0h1m3 0h2M9 8h1m1 0h1m1 0h1M9 9h1m1 0h1m-3 2h1m1 0h1"/>
</svg>
