<svg xmlns="http://www.w3.org/2000/svg" shape-rendering="crispEdges" viewBox="0 -0.5 27 11">
    <path stroke="#ab3131" d="M11 1h1M9 3h1m2 0h1m9 0h1m1 0h1M3 4h1m1 0h1m1 0h1m2 0h1m9 0h1M2 5h1m8 0h1m5 0h1M3 6h1m3 0h1m2 0h1m9 0h1M9 7h1m2 0h1m9 0h1m1 0h1M11 9h1"/>
    <path stroke="#d16060" d="M12 2h1m1 0h1m8 0h1M13 3h1m1 0h1m5 0h1M11 4h2m3 0h1m1 0h1M1 5h1m2 0h1m1 0h1m12 0h2M5 6h1m5 0h2m3 0h1m1 0h1m-6 1h1m1 0h1m5 0h1M12 8h1m1 0h1m8 0h1"/>
    <path stroke="#fffffe" d="M5 3h1m1 0h1m1 1h1M8 5h3m3 0h1M9 6h1"/>
    <path stroke="#fff" d="M25 3h1"/>
    <path stroke="#fac7a6" d="M8 4h1M7 5h1m0 1h1M5 7h1m1 0h1"/>
    <path stroke="#f6bbe8" d="M25 7h1"/>
</svg>
