<svg xmlns="http://www.w3.org/2000/svg" shape-rendering="crispEdges" viewBox="0 -0.5 19 11">
    <path stroke="#d8f577" d="M8 1h1M5 4h1M4 5h3M5 6h1"/>
    <path stroke="#2b5397" d="M7 2h1M5 3h2m7 0h1m1 0h1M3 4h1m2 0h1m5 0h1M2 5h1m4 0h1m1 0h1M3 6h1m2 0h1m5 0h1M5 7h2m7 0h1m1 0h1M7 8h1"/>
    <path stroke="#5787e7" d="M15 2h1m-3 1h1M1 5h1m6 0h1m1 0h3m0 2h1m1 1h1"/>
    <path stroke="#fff" d="M17 3h1"/>
    <path stroke="#a1d920" d="M4 4h1M3 5h1m0 1h1m3 3h1"/>
    <path stroke="#bee75f" d="M17 7h1"/>
</svg>
