<svg xmlns="http://www.w3.org/2000/svg" shape-rendering="crispEdges" viewBox="0 -0.5 25 15">
    <path stroke="#a9e2f7" d="M12 1h1m2 1h1m-1 10h1"/>
    <path stroke="#34baec" d="M9 2h1M9 12h1m2 1h1"/>
    <path stroke="#2b5397" d="M12 2h1M9 3h1m5 0h1m-6 1h1m3 0h1m5 1h1m1 0h1M11 6h2m2 0h1m2 0h1M2 7h1m1 0h1m1 0h1m1 0h1m2 1h2m2 0h1m2 0h1m1 1h1m1 0h1m-13 1h1m3 0h1m-6 1h1m5 0h1m-4 1h1"/>
    <path stroke="#5787e7" d="M11 3h1m1 0h1m7 1h1M11 5h1m1 0h1m5 0h1M10 6h1m3 0h1M1 7h1m1 0h1m1 0h1m1 0h1m1 0h1m2 0h2m2 0h3m-9 1h1m3 0h1m-4 1h1m1 0h1m5 0h1m1 1h1m-11 1h1m1 0h1"/>
    <path stroke="#fff" d="M23 5h1"/>
    <path stroke="#bee75f" d="M23 9h1"/>
</svg>
