<svg xmlns="http://www.w3.org/2000/svg" shape-rendering="crispEdges" viewBox="0 -0.5 27 17">
    <path stroke="#fae294" d="M9 1h1m1 2h1M6 6h1m16 0h1M9 7h1M8 8h3m14 0h1M9 9h1m13 1h1m-13 3h1"/>
    <path stroke="#5787e7" d="M8 2h1m1 0h1M7 4h1m3 0h1M7 5h1m3 0h1m9 0h1m-4 1h2m2 0h1M5 7h1m8 0h1m4 0h1M1 8h1m2 0h1m1 0h1m5 0h2m2 0h1m1 0h1m1 0h1m1 0h1m1 0h1M5 9h1m8 0h1m4 0h1m-2 1h2m2 0h1M7 11h1m3 0h1m9 0h1M7 12h1m3 0h1m-4 2h1m1 0h1"/>
    <path stroke="#f7af5c" d="M7 3h1m0 4h1M7 8h1m0 1h1m-3 1h1m0 3h1m1 2h1"/>
    <path stroke="#2b5397" d="M4 6h1m3 0h3m9 0h1M7 7h1m2 0h2m3 0h1M2 8h2m1 0h1m5 0h1m5 0h1m1 0h1m1 0h1m1 0h1M7 9h1m2 0h2m3 0h1M4 10h1m3 0h3m9 0h1"/>
</svg>
