<svg xmlns="http://www.w3.org/2000/svg" shape-rendering="crispEdges" viewBox="0 -0.5 29 15">
    <path stroke="#fffffe" d="M12 1h1m2 1h1M8 3h1m11 3h1m6 1h1m-13 5h1"/>
    <path stroke="#d8f577" d="M9 2h1m10 6h1M8 11h1m0 1h1m2 1h1"/>
    <path stroke="#2f711a" d="M12 2h1M9 3h1m5 0h1m-6 1h1m3 0h1m9 1h1M12 6h1m5 0h1M2 7h2m1 0h1m3 0h2m1 0h2m1 0h2m5 0h1m3 0h1M12 8h1m5 0h1m5 1h1m-15 1h1m3 0h1m-6 1h1m5 0h1m-4 1h1"/>
    <path stroke="#7fb717" d="M11 3h1m1 0h1M7 4h1M6 5h1m4 0h1m1 0h1m9 0h1m1 0h1M6 6h1m2 0h1m3 0h1m1 0h2m5 0h1m3 0h1M1 7h1m2 0h1m1 0h3m2 0h1m2 0h1m2 0h1m1 0h3M6 8h1m2 0h1m3 0h1m1 0h2m5 0h1m3 0h1M6 9h1m4 0h1m1 0h1m9 0h1m1 0h1M7 10h1m3 1h1m1 0h1"/>
</svg>
