<svg xmlns="http://www.w3.org/2000/svg" shape-rendering="crispEdges" viewBox="0 -0.5 14 13">
    <path stroke="#2b5397" d="M2 1h1m5 0h1M4 3h1m1 0h1M6 4h1M4 5h1m2 0h1m3 0h1M2 6h2m4 0h1m1 0h1M4 7h1m2 0h1m3 0h1M4 8h1m1 0h1m-3 2h1m1 0h1m-5 1h1m5 0h1"/>
    <path stroke="#5787e7" d="M2 2h1m1 0h1m1 0h1m1 0h1M3 3h1m3 0h1M4 4h1m3 1h1M1 6h1m7 0h1M8 7h1M3 9h2m1 0h2m-6 1h1m5 0h1"/>
    <path stroke="#faddf3" d="M5 2h1m0 3h1m5 0h1M5 6h3M6 7h1"/>
    <path stroke="#f6bbe8" d="M5 5h1M4 6h1m0 1h1m6 0h1m-8 3h1"/>
</svg>
