<svg xmlns="http://www.w3.org/2000/svg" shape-rendering="crispEdges" viewBox="0 -0.5 17 11">
    <path stroke="#f39f27" d="M6 1h2m1 0h1M5 2h1m4 0h1m2 0h1M7 3h1m1 0h1m1 0h1M5 4h2m1 0h1m1 0h1M1 5h1m2 0h1m4 0h2M5 6h2m1 0h1m1 0h1M7 7h1m1 0h1m1 0h1M5 8h1m4 0h1m2 0h1M6 9h2m1 0h1"/>
    <path stroke="#fae294" d="M8 1h1"/>
    <path stroke="#b66615" d="M6 3h1m1 0h1m3 0h1m1 0h1M2 5h2m1 0h1m1 0h1M6 7h1m1 0h1m3 0h1m1 0h1"/>
    <path stroke="#fff" d="M15 3h1"/>
    <path stroke="#fbef97" d="M15 7h1"/>
    <path stroke="#f7af5c" d="M8 9h1"/>
</svg>
