<svg xmlns="http://www.w3.org/2000/svg" shape-rendering="crispEdges" viewBox="0 -0.5 27 11">
    <path stroke="#5787e7" d="M11 1h1m1 0h1m-3 2h1m1 0h1m7 0h1m1 0h1M5 4h1m2 0h1m11 0h1m3 0h1M1 5h1m2 0h1m1 0h5m2 0h1m2 0h4M5 6h1m2 0h1m2 0h1m1 0h1m6 0h1m3 0h1m-4 1h1m1 0h1M11 8h1m1 0h1"/>
    <path stroke="#d8f577" d="M12 1h1M6 3h1m11 1h1m6 1h1"/>
    <path stroke="#2b5397" d="M11 2h1m1 0h1M4 3h1m17 0h1M11 4h1m1 0h1M2 5h2m1 0h1m5 0h2m1 0h2m4 0h1m3 0h1M4 7h1m6 0h1m1 0h1m8 0h1M11 9h1m1 0h1"/>
    <path stroke="#a1d920" d="M18 6h1M6 7h1m5 2h1"/>
</svg>
