<svg xmlns="http://www.w3.org/2000/svg" shape-rendering="crispEdges" viewBox="0 -0.5 17 13">
    <path stroke="#508383" d="M4 1h1M2 3h1m3 0h1M6 4h1m5 0h1m1 0h1M4 5h1m2 0h1m2 0h1M2 6h1m5 0h1M4 7h1m2 0h1m2 0h1M6 8h1m5 0h1m1 0h1M2 9h1m3 0h1m-3 2h1"/>
    <path stroke="#4fb0b3" d="M3 2h1m1 0h1m7 1h1M3 4h1m1 0h1m3 0h1m1 0h1M3 5h1m4 0h1M1 6h1m7 0h2M3 7h1m4 0h1M3 8h1m1 0h1m3 0h1m1 0h1m1 1h1M3 10h1m1 0h1"/>
    <path stroke="#fffffe" d="M4 3h1m5 0h1M6 5h1M5 6h3M6 7h1"/>
    <path stroke="#fff" d="M15 4h1"/>
    <path stroke="#f7d76b" d="M5 5h1M4 6h1m0 1h1M4 9h1m5 0h1"/>
    <path stroke="#fbef97" d="M15 8h1"/>
</svg>
