<svg xmlns="http://www.w3.org/2000/svg" shape-rendering="crispEdges" viewBox="0 -0.5 19 13">
    <path stroke="#8d6d3e" d="M5 1h1m5 0h1M7 3h1m1 0h1m4 1h1m1 0h1M5 5h1m1 0h1m1 0h1m2 0h1M2 6h1m4 0h3M5 7h1m6 0h1M7 8h1m1 0h1m4 0h1m1 0h1M7 10h1m1 0h1m-5 1h1m5 0h1"/>
    <path stroke="#b99560" d="M5 2h1m1 0h1m1 0h1m1 0h1M6 3h1m3 0h1m4 0h1M6 4h2m1 0h1m3 0h1M8 5h1M1 6h1m1 0h4m3 0h3M7 7h3M6 8h1m6 0h1M6 9h2m1 0h2m4 0h1M5 10h1m5 0h1"/>
    <path stroke="#faddf3" d="M8 2h1"/>
    <path stroke="#fff" d="M17 4h1"/>
    <path stroke="#f6bbe8" d="M17 8h1M8 10h1"/>
</svg>
