<svg xmlns="http://www.w3.org/2000/svg" shape-rendering="crispEdges" viewBox="0 -0.5 23 9">
    <path stroke="#fffffe" d="M9 1h1M4 2h1"/>
    <path stroke="#f07540" d="M19 1h1m-3 1h1M3 3h1m1 0h1m1 0h1m2 0h3M1 4h1m5 0h1m7 0h2M3 5h1m1 0h1m1 0h4m1 0h3m2 1h1m1 1h1"/>
    <path stroke="#b92b0e" d="M8 2h1m9 0h1m1 0h1m-5 1h1M2 4h1m3 0h1m1 0h1m1 0h1m1 0h1m1 0h1m1 1h1M8 6h1m9 0h1m1 0h1"/>
    <path stroke="#fff" d="M21 2h1"/>
    <path stroke="#fac7a6" d="M4 6h1m4 1h1"/>
    <path stroke="#f6bbe8" d="M21 6h1"/>
</svg>
