<svg xmlns="http://www.w3.org/2000/svg" shape-rendering="crispEdges" viewBox="0 -0.5 24 9">
    <path stroke="#b346b3" d="M18 1h1M9 2h1m5 0h2m2 0h1M10 3h1m1 0h1m3 0h1M1 4h2m5 0h2m3 0h1m1 0h1m1 0h1m1 0h1m1 0h1M10 5h1m1 0h1m3 0h1M9 6h1m5 0h2m2 0h1m-2 1h1"/>
    <path stroke="#612661" d="M5 2h1m11 0h1M3 3h1m2 0h1m2 0h1M7 4h1m2 0h1m1 0h1m1 0h1m1 0h1m1 0h1m1 0h1M3 5h1m2 0h1m2 0h1M5 6h1m11 0h1"/>
    <path stroke="#a9e2f7" d="M20 2h1M5 3h1m5 0h1M4 4h3m15 0h1M5 5h1m5 0h1m8 1h1"/>
    <path stroke="#34baec" d="M4 3h1M3 4h1m0 1h1"/>
</svg>
