<svg xmlns="http://www.w3.org/2000/svg" shape-rendering="crispEdges" viewBox="0 -0.5 27 15">
    <path stroke="#fffffe" d="M9 1h1m2 1h1M5 5h1m8 0h1m8 0h1M6 6h1M5 7h3m17 0h1M6 8h1m16 1h1m-12 3h1"/>
    <path stroke="#8ec4f4" d="M6 2h1M5 6h1M4 7h1m0 1h1M5 9h1m8 0h1m-9 3h1m2 1h1"/>
    <path stroke="#612661" d="M9 2h1M6 3h1m5 0h1M7 4h1m3 0h1M6 5h1m13 0h1M4 6h1m2 0h1m1 0h1M2 7h1m5 0h3m1 0h1m1 0h1m2 0h1m1 0h1m1 0h1m1 0h1M4 8h1m2 0h1m1 0h1M6 9h1m13 0h1M7 10h1m3 0h1m-6 1h1m5 0h1m-4 1h1"/>
    <path stroke="#b346b3" d="M8 3h1m1 0h1m10 1h1M8 5h1m1 0h1m7 0h2m2 0h1M11 6h1m1 0h1m5 0h1M1 7h1m1 0h1m11 0h2m1 0h1m1 0h1m1 0h1m1 0h1M11 8h1m1 0h1m5 0h1M8 9h1m1 0h1m7 0h2m2 0h1m-2 1h1M8 11h1m1 0h1"/>
</svg>
