<svg xmlns="http://www.w3.org/2000/svg" shape-rendering="crispEdges" viewBox="0 -0.5 21 11">
    <path stroke="#4fb0b3" d="M9 1h2m1 0h1M8 2h1m4 0h1M4 3h1m5 0h1m1 0h1M8 4h1m2 0h1m1 0h1M1 5h1m1 0h1m1 0h1m1 0h1m7 0h2m1 0h1M8 6h1m2 0h1m1 0h1M4 7h1m5 0h1m1 0h1M8 8h1m4 0h1M9 9h2m1 0h1"/>
    <path stroke="#fffffe" d="M11 1h1M3 3h1m10 0h1m3 0h1m0 2h1"/>
    <path stroke="#508383" d="M9 3h1m1 0h1m5 0h1M5 4h1m10 0h1M2 5h1m1 0h1m1 0h1m1 0h3m1 0h1m1 0h1m2 0h1M5 6h1m10 0h1M9 7h1m1 0h1m5 0h1"/>
    <path stroke="#d8f577" d="M3 7h1m10 0h1m3 0h1m-8 2h1"/>
</svg>
