<svg xmlns="http://www.w3.org/2000/svg" shape-rendering="crispEdges" viewBox="0 -0.5 29 15">
    <path stroke="#faddf3" d="M14 1h1m2 1h1M8 3h1m16 2h1m1 2h1m-3 2h1m-9 3h1"/>
    <path stroke="#f6bbe8" d="M11 2h1m-4 9h1m2 1h1m2 1h1"/>
    <path stroke="#508383" d="M14 2h1m-4 1h1m5 0h1m-6 1h1m3 0h1m5 1h1m-9 1h1M2 7h2m1 0h1m3 0h1m1 0h1m1 0h1m1 0h1m1 0h1m1 0h1m1 0h1m1 0h1m1 0h1M14 8h1m7 1h1m-11 1h1m3 0h1m-6 1h1m5 0h1m-4 1h1"/>
    <path stroke="#4fb0b3" d="M13 3h1m1 0h1M7 4h1m15 0h1M6 5h1m6 0h1m1 0h1m1 0h1m2 0h2m2 0h1M6 6h1m2 0h1m2 0h1m3 0h1m1 0h1m2 0h1M1 7h1m2 0h1m1 0h3m1 0h1m9 0h1m1 0h1m1 0h1m1 0h1M6 8h1m2 0h1m2 0h1m3 0h1m1 0h1m2 0h1M6 9h1m6 0h1m1 0h1m1 0h1m2 0h2m2 0h1M7 10h1m15 0h1m-11 1h1m1 0h1"/>
</svg>
