<svg xmlns="http://www.w3.org/2000/svg" shape-rendering="crispEdges" viewBox="0 -0.5 20 11">
    <path stroke="#f07540" d="M9 1h1m1 0h1m-1 2h1M3 4h1m1 0h1m7 0h1M1 5h1m2 0h1m7 0h1m2 0h1M3 6h1m1 0h1m5 0h1m1 0h1M9 8h1m1 0h1"/>
    <path stroke="#a9e2f7" d="M10 1h1M5 3h1m3 1h1m8 0h1M8 5h3M9 6h1"/>
    <path stroke="#b92b0e" d="M9 2h1m1 0h1M9 3h1M7 4h1m2 0h2m5 0h1M2 5h1m3 0h1m4 0h1m2 0h1m1 0h1M7 6h1m2 0h1m6 0h1M9 7h1m1 0h1M9 9h1m1 0h1"/>
    <path stroke="#34baec" d="M8 4h1M7 5h1m0 1h1m9 0h1M5 7h1m4 2h1"/>
</svg>
