<svg xmlns="http://www.w3.org/2000/svg" shape-rendering="crispEdges" viewBox="0 -0.5 23 13">
    <path stroke="#7fb717" d="M10 1h1m-1 1h1m-1 1h1m8 0h1m-3 1h1M3 5h1m1 0h1m5 0h2M1 6h1m13 0h2M3 7h1m1 0h1m6 0h3m2 1h1m-8 1h1m8 0h1m-10 1h1m-1 1h1"/>
    <path stroke="#a9e2f7" d="M4 4h1m4 1h1M8 6h3M9 7h1"/>
    <path stroke="#2f711a" d="M9 4h2m7 0h1m1 0h1M7 5h1m2 0h1m5 0h1M2 6h1m3 0h1m4 0h2m1 0h1M7 7h1m2 0h1m5 0h1M9 8h2m7 0h1m1 0h1"/>
    <path stroke="#fff" d="M21 4h1"/>
    <path stroke="#34baec" d="M8 5h1M7 6h1m0 1h1M4 8h1"/>
    <path stroke="#f6bbe8" d="M21 8h1"/>
</svg>
