<svg xmlns="http://www.w3.org/2000/svg" shape-rendering="crispEdges" viewBox="0 -0.5 23 15">
    <path stroke="#b346b3" d="M5 1h1m1 0h1M4 2h1m3 0h1M5 3h1m1 0h1m9 1h1M4 5h1m9 0h2m2 0h1M9 6h3m3 0h1M1 7h1m1 0h1m8 0h1m1 0h1m1 0h1m1 0h1m1 0h1M9 8h3m3 0h1M4 9h1m9 0h2m2 0h1m-2 1h1M5 11h1m1 0h1m-4 1h1m3 0h1m-4 1h1m1 0h1"/>
    <path stroke="#fffffe" d="M6 2h1m12 3h1M6 6h1M5 7h3m13 0h1M6 8h1m12 1h1"/>
    <path stroke="#612661" d="M5 4h1m1 0h1M6 5h1m9 0h1M4 6h1m2 0h1M2 7h1m5 0h2m1 0h1m1 0h1m1 0h1m1 0h1m1 0h1M4 8h1m2 0h1M6 9h1m9 0h1M5 10h1m1 0h1"/>
    <path stroke="#fac7a6" d="M5 6h1M4 7h1m0 1h1m0 4h1"/>
</svg>
