<svg xmlns="http://www.w3.org/2000/svg" shape-rendering="crispEdges" viewBox="0 -0.5 19 15">
    <path stroke="#fffffe" d="M6 1h1m2 1h1m5 3h1M5 6h1m2 0h1M4 7h3m10 0h1M5 8h1m9 1h1m-7 3h1"/>
    <path stroke="#f7d76b" d="M3 2h1m0 4h1M3 7h1m0 1h1m3 0h1m-6 4h1m2 1h1"/>
    <path stroke="#b66615" d="M6 2h1M3 3h1m5 0h1M4 4h1m3 0h1M5 5h1m6 0h1M3 6h1m2 0h1M2 7h1m4 0h3m1 0h1m1 0h1m1 0h1M3 8h1m2 0h1M5 9h1m6 0h1m-9 1h1m3 0h1m-6 1h1m5 0h1m-4 1h1"/>
    <path stroke="#f39f27" d="M5 3h1m1 0h1m5 1h1M7 5h1m2 0h2m2 0h1M7 6h1m3 0h1M1 7h1m8 0h1m1 0h1m1 0h1m1 0h1M7 8h1m3 0h1M7 9h1m2 0h2m2 0h1m-2 1h1m-9 1h1m1 0h1"/>
</svg>
