<svg xmlns="http://www.w3.org/2000/svg" shape-rendering="crispEdges" viewBox="0 -0.5 29 9">
    <path stroke="#f07540" d="M7 1h1m15 0h1M8 2h1m2 0h1m1 0h1m3 0h1m2 0h2m2 0h1M3 3h1m5 0h1m2 0h1m1 0h1m1 0h1m1 0h1m2 0h1M1 4h1m7 0h2m9 0h1m1 0h1m1 0h1m1 0h1M3 5h1m5 0h1m2 0h1m1 0h1m1 0h1m1 0h1m2 0h1M8 6h1m2 0h1m1 0h1m3 0h1m2 0h2m2 0h1M7 7h1m15 0h1"/>
    <path stroke="#b92b0e" d="M6 2h1m15 0h1M4 3h1m2 0h1m3 0h1M2 4h1m5 0h1m2 0h1m1 0h1m1 0h1m1 0h1m1 0h1m1 0h1m1 0h1m1 0h1M4 5h1m2 0h1m3 0h1M6 6h1m15 0h1"/>
    <path stroke="#a9e2f7" d="M25 2h1M6 3h1m6 0h1M5 4h3m19 0h1M6 5h1m6 0h1m11 1h1"/>
    <path stroke="#34baec" d="M5 3h1M4 4h1m0 1h1"/>
</svg>
