<svg xmlns="http://www.w3.org/2000/svg" shape-rendering="crispEdges" viewBox="0 -0.5 28 9">
    <path stroke="#f7d76b" d="M11 1h1M5 3h1M4 4h1m0 1h1M5 6h1m1 0h1m1 0h1m1 1h1"/>
    <path stroke="#4fb0b3" d="M12 1h1m9 0h1m-4 1h2m2 0h1M10 3h1m9 0h1M1 4h1m8 0h2m2 0h1m2 0h1m1 0h1m1 0h1m1 0h1m1 0h1M10 5h1m9 0h1m-2 1h2m2 0h1M12 7h1m9 0h1"/>
    <path stroke="#fffffe" d="M5 2h1m1 0h1m1 0h1m14 0h1M6 3h1M5 4h3m18 0h1M6 5h1m17 1h1"/>
    <path stroke="#508383" d="M6 2h1m4 0h1m9 0h1M3 3h2m2 0h1m1 0h1M2 4h1m5 0h1m3 0h2m1 0h2m1 0h1m1 0h1m1 0h1m1 0h1M3 5h2m2 0h1m1 0h1M6 6h1m4 0h1m9 0h1"/>
</svg>
