<svg xmlns="http://www.w3.org/2000/svg" shape-rendering="crispEdges" viewBox="0 -0.5 22 13">
    <path stroke="#b66615" d="M12 1h1m-3 2h1m3 0h1M6 4h1M4 5h1m2 0h1m4 0h1m6 0h1M2 6h1m5 0h3m1 0h1m1 0h1m3 0h1M4 7h1m2 0h1m4 0h1m6 0h1M6 8h1m3 1h1m3 0h1m-3 2h1"/>
    <path stroke="#f39f27" d="M11 2h1m1 0h1M4 4h1m6 0h1m1 0h1M8 5h1m2 0h1m1 0h1M1 6h1m1 0h1m11 0h3M8 7h1m2 0h1m1 0h1M4 8h1m6 0h1m1 0h1m-3 2h1m1 0h1"/>
    <path stroke="#fae294" d="M3 4h1m6 0h1m3 0h1M6 5h1m13 0h1M5 6h3M6 7h1"/>
    <path stroke="#f7af5c" d="M5 5h1M4 6h1m0 1h1m14 0h1M3 8h1m6 0h1m3 0h1"/>
</svg>
