<svg xmlns="http://www.w3.org/2000/svg" shape-rendering="crispEdges" viewBox="0 -0.5 25 9">
    <path stroke="#f07540" d="M21 1h1M4 2h1m14 0h1M8 3h1m5 0h1M1 4h1m1 0h1m1 0h1m1 0h1m4 0h1m3 0h3M8 5h1m1 0h1M4 6h1m14 0h1m1 1h1"/>
    <path stroke="#a9e2f7" d="M3 2h1m5 2h1"/>
    <path stroke="#b92b0e" d="M20 2h1m1 0h1M5 3h1m9 0h1m2 0h1M2 4h1m1 0h1m1 0h1m1 0h1m4 0h1M5 5h1m5 0h1m6 0h1m1 1h1m1 0h1"/>
    <path stroke="#fff" d="M23 2h1"/>
    <path stroke="#34baec" d="M3 6h1"/>
    <path stroke="#f6bbe8" d="M23 6h1"/>
</svg>
