<svg xmlns="http://www.w3.org/2000/svg" shape-rendering="crispEdges" viewBox="0 -0.5 23 17">
    <path stroke="#5787e7" d="M11 1h1m-1 1h1m-1 1h1m-2 1h1m1 0h1M7 5h1m1 0h1M6 6h1m1 0h1M3 7h1m5 0h1m1 0h1M1 8h1m3 0h1m1 0h1m1 0h3m2 0h1m2 0h2M3 9h1m5 0h1m1 0h1m-6 1h1m1 0h1m-2 1h1m1 0h1m0 1h1m1 0h1m-2 1h1m-1 1h1m-1 1h1"/>
    <path stroke="#fffffe" d="M12 1h1m0 4h1m7 2h1"/>
    <path stroke="#2b5397" d="M10 6h1m1 0h1M5 7h1m14 0h1M2 8h1m1 0h1m1 0h1m1 0h1m3 0h2m1 0h2m2 0h1M5 9h1m14 0h1m-11 1h1m1 0h1"/>
    <path stroke="#fac7a6" d="M21 9h1m-9 2h1m-2 4h1"/>
</svg>
