<svg xmlns="http://www.w3.org/2000/svg" shape-rendering="crispEdges" viewBox="0 -0.5 21 9">
    <path stroke="#5787e7" d="M17 1h1M4 2h1m10 0h1m-5 1h1M1 4h1m1 0h1m1 0h1m6 0h3m-4 1h1M4 6h1m10 0h1m1 1h1"/>
    <path stroke="#2b5397" d="M9 2h1m6 0h1m1 0h1M5 3h1m1 0h1m2 0h1m3 0h1M2 4h1m1 0h1m1 0h1m4 0h1M5 5h1m1 0h1m2 0h1m3 0h1M9 6h1m6 0h1m1 0h1"/>
    <path stroke="#fff" d="M19 2h1"/>
    <path stroke="#f7af5c" d="M8 3h1M7 4h1m0 1h1"/>
    <path stroke="#fae294" d="M9 3h1M8 4h3M9 5h1"/>
    <path stroke="#fbef97" d="M19 6h1"/>
</svg>
