<svg xmlns="http://www.w3.org/2000/svg" shape-rendering="crispEdges" viewBox="0 -0.5 21 15">
    <path stroke="#5787e7" d="M4 1h1m1 0h1M3 2h1m3 0h1M4 3h1m1 0h1m8 2h1m1 0h1M3 6h1m5 0h2m3 0h1m3 0h1M1 7h1m9 0h3M3 8h1m5 0h2m3 0h1m3 0h1m-4 1h1m1 0h1M4 11h1m1 0h1m-4 1h1m3 0h1m-4 1h1m1 0h1"/>
    <path stroke="#fffffe" d="M5 2h1m0 4h1m5 0h1M5 7h3m11 0h1M6 8h1"/>
    <path stroke="#2b5397" d="M4 4h1m1 0h1M5 5h2m9 0h1M4 6h1m2 0h1M2 7h1m5 0h1m5 0h1m3 0h1M4 8h1m2 0h1M5 9h2m9 0h1M4 10h1m1 0h1"/>
    <path stroke="#8ec4f4" d="M5 6h1M4 7h1m0 1h1m6 0h1m-8 4h1"/>
</svg>
