<svg xmlns="http://www.w3.org/2000/svg" shape-rendering="crispEdges" viewBox="0 -0.5 19 9">
    <path stroke="#b99560" d="M2 1h1m10 0h1M9 2h3m2 0h1M4 3h1m6 0h1M1 4h1m2 0h1m5 0h1m1 0h1m1 0h1m1 0h1M4 5h1m6 0h1M9 6h3m2 0h1M2 7h1m10 0h1"/>
    <path stroke="#fae294" d="M4 1h1m1 0h1m3 0h1m4 1h1M7 3h1M6 4h3m8 0h1M7 5h1m7 1h1"/>
    <path stroke="#8d6d3e" d="M3 2h1m1 0h1m1 0h1m4 0h1M5 3h1m2 0h1M2 4h2m5 0h1m1 0h1m1 0h1m1 0h1M5 5h1m2 0h1M3 6h1m1 0h1m1 0h1m4 0h1"/>
    <path stroke="#f7af5c" d="M6 3h1M5 4h1m0 1h1M4 7h1m1 0h1m3 0h1"/>
</svg>
