<svg xmlns="http://www.w3.org/2000/svg" shape-rendering="crispEdges" viewBox="0 -0.5 18 15">
    <path stroke="#fffffe" d="M7 1h1m2 1h1m4 3h1M5 6h1M4 7h3m9 0h1M5 8h1m4 4h1"/>
    <path stroke="#fac7a6" d="M4 2h1M4 6h1M3 7h1m0 1h1m10 1h1M4 12h1m2 1h1"/>
    <path stroke="#508383" d="M7 2h1M4 3h1m5 0h1M5 4h1m3 0h1M5 5h1m8 0h1M3 6h1m2 0h2m5 0h1M7 7h1m1 0h1m1 0h1m1 0h1M3 8h1m2 0h2m5 0h1M5 9h1m8 0h1M5 10h1m3 0h1m-6 1h1m5 0h1m-4 1h1"/>
    <path stroke="#4fb0b3" d="M6 3h1m1 0h1M6 5h1m1 0h1M1 7h2m5 0h1m1 0h1m1 0h1m1 0h2M6 9h1m1 0h1m-3 2h1m1 0h1"/>
</svg>
