<svg xmlns="http://www.w3.org/2000/svg" shape-rendering="crispEdges" viewBox="0 -0.5 27 7">
    <path stroke="#ab3131" d="M5 1h1m16 0h1M3 2h1m2 0h1M2 3h1m4 0h4m1 0h1m1 0h1m5 0h1m3 0h1M3 4h1m2 0h1M5 5h1m16 0h1"/>
    <path stroke="#fffffe" d="M10 1h1m3 0h1M5 2h1m2 0h1m9 0h1M4 3h3m18 0h1M5 4h1"/>
    <path stroke="#d16060" d="M21 1h1m1 0h1M7 2h1m3 0h1m1 0h1m6 0h1m3 0h1M1 3h1m13 0h5M7 4h1m3 0h1m1 0h1m6 0h1m3 0h1m-4 1h1m1 0h1"/>
    <path stroke="#f7d76b" d="M4 2h1M3 3h1m0 1h1m3 0h1m9 0h1m-9 1h1m3 0h1"/>
</svg>
