<svg xmlns="http://www.w3.org/2000/svg" shape-rendering="crispEdges" viewBox="0 -0.5 24 13">
    <path stroke="#d8f577" d="M13 1h1m8 5h1"/>
    <path stroke="#4fb0b3" d="M12 2h1m1 0h1M7 3h1M6 4h1m1 0h1M3 5h1m5 0h1m2 0h2m1 0h2M1 6h1m3 0h1m1 0h1m1 0h1m1 0h1m2 0h1m2 0h1m2 0h2M3 7h1m5 0h1m2 0h2m1 0h2M6 8h1m1 0h1M7 9h1m4 1h1m1 0h1"/>
    <path stroke="#508383" d="M12 3h1m1 0h1m-2 1h1M5 5h1m12 0h1M2 6h1m1 0h1m1 0h1m1 0h1m1 0h1m1 0h2m1 0h2m2 0h1M5 7h1m12 0h1m-6 1h1m-2 1h1m1 0h1"/>
    <path stroke="#a1d920" d="M13 11h1"/>
</svg>
